<svg xmlns:xlink="http://www.w3.org/1999/xlink" width="221" height="48" fill="none" xmlns="http://www.w3.org/2000/svg" id="svg-722717691_3791"><g clip-path="url(#svg-722717691_3791_a)" fill="#352610"><path d="M178.048.19c-5.983.906-9.064 4.535-8.57 10.053.158 1.7 1.066 3.458 2.37 4.554 1.698 1.418 3.376 2.06 10.229 3.93 3.218.87 4.561 1.985 4.561 3.761-.02 2.325-2.942 3.667-6.911 3.194-2.074-.245-3.654-1.02-5.016-2.456l-1.066-1.134-2.39 1.738c-1.323.964-2.389 1.814-2.389 1.89 0 .076.355.567.79 1.096 1.54 1.87 3.712 3.156 6.536 3.912 1.007.283 2.014.359 4.917.359 3.298 0 3.791-.038 5.134-.454 2.804-.831 4.325-1.833 5.549-3.647 1.639-2.438 1.837-6.633.435-9.297-1.185-2.23-3.476-3.591-8.255-4.857-6.141-1.644-7.049-1.985-7.622-2.892-.454-.718-.474-1.833-.059-2.683.237-.454.632-.775 1.441-1.153.988-.472 1.323-.529 3.081-.529 1.086 0 2.35.113 2.784.246 1.047.283 2.587 1.38 3.337 2.324.316.416.632.737.711.737.178 0 4.72-3.382 4.72-3.534 0-.34-.968-1.493-1.916-2.305-2.29-1.966-4.917-2.835-8.846-2.948-1.304-.038-2.903 0-3.555.094Zm27.844 0c-5.983.906-9.064 4.535-8.57 10.053.158 1.7 1.066 3.458 2.37 4.554 1.698 1.418 3.377 2.06 10.229 3.93 3.219.87 4.561 1.985 4.561 3.761-.019 2.325-2.942 3.667-6.911 3.194-2.074-.245-3.653-1.02-5.016-2.456l-1.066-1.134-2.39 1.738c-1.323.964-2.389 1.814-2.389 1.89 0 .076.355.567.79 1.096 1.54 1.87 3.712 3.156 6.536 3.912 1.007.283 2.014.359 4.917.359 3.298 0 3.792-.038 5.134-.454 2.805-.831 4.325-1.833 5.549-3.647 1.639-2.438 1.837-6.633.435-9.297-1.185-2.23-3.476-3.591-8.254-4.857-6.142-1.644-7.05-1.985-7.623-2.892-.454-.718-.474-1.833-.059-2.683.237-.454.632-.775 1.441-1.153.988-.472 1.323-.529 3.081-.529 1.086 0 2.35.113 2.784.246 1.047.283 2.587 1.38 3.338 2.324.316.416.631.737.71.737.178 0 4.72-3.382 4.72-3.534 0-.34-.968-1.493-1.915-2.305-2.291-1.966-4.917-2.835-8.847-2.948-1.303-.038-2.903 0-3.555.094ZM.82 15.591v15.024h6.772c7.327 0 9.301-.17 11.592-.983 2.547-.888 4.166-2.268 5.016-4.214.849-1.947.77-5.31-.198-7.124-.928-1.777-2.903-3.08-5.39-3.572l-1.107-.208 1.205-.416c2.824-.982 4.167-2.797 4.364-5.858.237-3.61-1.284-5.802-4.779-6.841C16.143.775 13.99.624 6.901.586L.82.55v15.04Zm14.355-9.014c1.007.51 1.442 1.228 1.442 2.4 0 1.757-.81 2.683-2.745 3.118-.908.189-5.825.378-6.28.227-.197-.057-.256-.87-.256-3.194V6.01l3.515.076c3.16.056 3.574.113 4.324.49Zm-.336 11.395c1.442.227 2.252.605 2.824 1.342.77.983.77 3.27.02 4.27-.217.284-.83.719-1.382.983-.908.435-1.185.473-4.957.53l-4.008.075v-7.408h3.12c1.698 0 3.673.095 4.383.208ZM37.51 1.078c-.1.302-2.45 7.03-5.194 14.986L27.3 30.52l3.001.057c1.64.019 3.08.019 3.2-.038.118-.038.651-1.398 1.184-3.024l.968-2.948h12.065l1.047 3.024 1.047 3.024h3.258c1.777 0 3.238-.057 3.219-.151 0-.076-2.33-6.804-5.174-14.967L45.94.662 41.834.605 37.706.568l-.197.51Zm6.259 11.81a5100.78 5100.78 0 0 0 2.014 5.954c.08.189-.81.245-4.087.245-3.377 0-4.167-.056-4.088-.245.059-.133.967-2.816 2.034-5.953 1.066-3.137 1.994-5.707 2.053-5.707.08 0 1.008 2.57 2.074 5.707Zm16.488 2.703v15.024h6.32l.039-10.564.059-10.564 5.628 10.564 5.628 10.564h7.602l-.039-14.986-.06-14.967-3.1-.057-3.12-.056-.04 10.072-.058 10.072-5.293-10.072L68.551.567h-8.294v15.024Zm31.99 0v15.024h6.517V20.07l.908-.964.889-.945 4.324 6.217 4.345 6.237h7.938l-.296-.435c-.158-.227-2.962-4.063-6.24-8.523l-5.944-8.126.454-.472c.375-.397 9.953-10.999 10.96-12.17.276-.303.099-.321-3.436-.321l-3.732.018-5.036 5.764-5.035 5.745-.1-5.707-.098-5.726-3.199-.057-3.219-.037V15.59Zm29.028 0v15.024h19.55v-5.67h-13.033l-.04-12.15-.059-12.133-3.199-.057-3.219-.037V15.59Zm23.501 0v15.024h20.339v-5.67h-13.823V17.84h5.826l5.825.019v-5.386h-11.651V6.048h13.823V.568h-20.339V15.59ZM.7 42.199c-.04.132-.06 1.474-.04 2.967l.06 2.74h217.02v-5.858l-108.471-.057c-88.724-.038-108.49 0-108.57.208Z" fill="#352610"></path></g><defs><clipPath id="svg-722717691_3791_a"><path fill="#fff" transform="translate(.622)" d="M0 0h220.378v48H0z"></path></clipPath></defs></svg>