<svg xmlns:xlink="http://www.w3.org/1999/xlink" width="334" height="40" fill="none" xmlns="http://www.w3.org/2000/svg" id="svg818574481_2999"><g clip-path="url(#svg818574481_2999_a)" fill="#352610"><path d="M239.582 0h87.938c3.3.623 5.239 2.58 5.813 5.873v28.29c-.617 3.31-2.566 5.257-5.85 5.837h-87.941c-2.719-.523-4.499-1.92-5.345-4.193-.329-.887-.492-1.98-.488-3.28.039-8.42.039-16.86.003-25.32-.007-1.124.153-2.12.478-2.994.86-2.313 2.656-3.716 5.392-4.213Zm25.684 22.61a.733.733 0 0 1-.229-.207c-3.772-5.216-7.547-10.436-11.322-15.653a.184.184 0 0 0-.159-.083h-13.091a.104.104 0 0 0-.083.166 2354.281 2354.281 0 0 1 14.728 20.344c1.577 2.196 2.808 3.62 3.698 4.27 3.895 2.836 9.193 2.88 13.018-.147.833-.66 1.693-1.603 2.576-2.83a4861.235 4861.235 0 0 1 15.631-21.6c.063-.083 0-.203-.103-.203h-12.848a.365.365 0 0 0-.312.16l-11.408 15.76a.077.077 0 0 1-.096.023Zm33.585.447c-2.974-1.154-2.52-5.58.442-6.294.262-.063 1.212-.096 2.852-.096 8.044.003 16.168.003 24.372.006.097 0 .176-.08.176-.176V6.76a.103.103 0 0 0-.103-.103c-7.022.03-14.883.023-23.589-.024-3.031-.016-5.146.144-6.348.487-3.15.89-5.637 2.673-7.466 5.35-5.176 7.57-1.335 18.117 7.622 20.437 1.219.313 2.919.463 5.1.453 8.543-.04 16.77-.043 24.678-.013.06 0 .106-.047.106-.107l.004-9.67c0-.12-.1-.22-.223-.22-7.965-.01-16.637-.013-26.016-.01a4.356 4.356 0 0 1-1.607-.283ZM95.285 16.84a.172.172 0 0 0-.172-.174H75.368c-3.552-.003-4.657 4.94-1.344 6.374a3.951 3.951 0 0 0 1.594.303c5.328-.02 10.7-.02 16.115-.003.13 0 .233.103.233.233l.003 12.747c0 .19-.156.346-.345.346-6.544.004-13.042 0-19.5-.003-11.347-.01-19.58-11.186-15.73-22.193 1.88-5.363 6.325-9.327 11.787-10.68 1.35-.337 3.4-.497 6.142-.487 12.44.05 24.9.054 37.387.01.096-.003.176.054.176.12v32.983c0 .137-.113.25-.249.25H95.534a.251.251 0 0 1-.249-.25V16.84Zm35.442 19.807c-9.143-.01-16.786-7.73-16.501-16.97.156-5.037 2.148-9.19 5.97-12.467 2.015-1.727 4.372-2.89 7.072-3.49 1.278-.283 3.446-.423 6.51-.413 11.149.036 22.251.043 33.307.013.136 0 .246.113.246.25v12.827c0 .15-.12.27-.269.27h-32.975c-2.53 0-4.007 2.69-2.892 4.886.614 1.214 1.81 1.787 3.151 1.787 11.779-.007 22.742-.007 32.888-.003.053 0 .097.043.097.096v12.994c0 .13-.107.236-.236.236-11.717.004-23.838 0-36.368-.016Zm56.634-23.314h9.827a.1.1 0 0 0 .066-.023l13.217-9.95a.103.103 0 0 1 .067-.023l19.575-.01c.103 0 .149.13.07.193l-19.609 16.397a.113.113 0 0 0 0 .166l19.612 16.397c.08.063.033.193-.07.193l-19.578-.01a.103.103 0 0 1-.067-.023l-13.23-9.957a.101.101 0 0 0-.066-.023l-9.814.003c-.06 0-.11.05-.11.11l-.003 9.784c0 .06-.05.11-.11.11l-16.378-.004a.11.11 0 0 1-.109-.11V3.447c0-.06.05-.11.109-.11l16.381-.004c.06 0 .11.05.11.11v9.78c0 .06.05.11.11.11ZM0 3.417h16.507c.05 0 .093.043.093.093v9.74c0 .11.057.166.166.166h19.589c.11 0 .166-.056.166-.166V3.5c0-.047.036-.083.083-.083h16.348c.11 0 .162.053.162.163v33.09c0 .053-.026.08-.08.08H36.688c-.11 0-.166-.057-.166-.167v-9.666c0-.11-.057-.167-.166-.167h-19.59c-.11 0-.166.056-.166.166v9.737c0 .057-.03.087-.086.087L0 36.743V3.416Z" fill="#352610"></path></g><defs><clipPath id="svg818574481_2999_a"><path fill="#fff" d="M0 0h333.333v40H0z"></path></clipPath></defs></svg>