<svg xmlns:xlink="http://www.w3.org/1999/xlink" width="169" height="18" fill="none" xmlns="http://www.w3.org/2000/svg" id="svg1568901775_4688"><g clip-path="url(#svg1568901775_4688_a)" fill="#352610"><path d="M.937 0h4.207l.003 17.053a.155.155 0 0 1-.16.153l-4.05-.172V0Zm7.846 0h4.187l.003 17.034a.184.184 0 0 1-.183.183H9.244c-.32 0-.48-.16-.48-.48L8.782 0Zm8.601 0h8.882l-4.363 7.067c-.059.09-.192.09-.246 0L17.384 0ZM29.91 0h10.337c-2.05.814-3.615 2.05-4.7 3.706-1.2 1.835-1.662 3.78-1.38 5.834.512 3.745 2.398 6.206 5.666 7.392.528.192.508.285-.051.285h-9.618c-.165 0-.247-.082-.247-.246L29.909 0Zm16.242 0h10.252v17.088a.105.105 0 0 1-.105.106c-3.326.039-6.64.039-9.94-.004-.614-.008-.626-.098-.035-.266 1.51-.427 3.123-1.593 4.035-2.904 2.21-3.173 2.43-6.476.653-9.907C50.1 2.356 48.48.986 46.152 0ZM61.21 0h4.026l4.207 11.567c.09.246.184.246.274 0L73.907 0h3.933l-6.629 16.803a.322.322 0 0 1-.324.219l-2.661.004a.456.456 0 0 1-.458-.313L61.21 0Zm48.244 7.235-1.002.008c-.2 0-.298-.098-.298-.293V4.402c0-.2.098-.297.294-.293h.99c.156.004.235-.075.235-.231V.896c0-.074.039-.113.113-.113h3.369c.086 0 .129.043.129.129v2.974c0 .148.075.223.223.223l2.669.004c.067 0 .098.031.098.094V7.14c0 .063-.031.094-.098.094l-2.653.004c-.164 0-.246.082-.242.247.019 1.373.011 2.833-.02 4.386a6.577 6.577 0 0 0 .18 1.706.433.433 0 0 0 .29.313c.763.255 1.553.173 2.371-.238.035-.016.074.008.074.043v2.727c0 .07-.031.125-.09.16-1.675.963-4.946 1.206-5.932-.95-.317-.693-.466-1.518-.454-2.473.031-2.031.035-3.921.008-5.67-.004-.169-.086-.255-.254-.255Z" fill="#352610"></path><path d="M38.517 8.959c.255 2.98 2.74 5.2 5.55 4.96 2.81-.242 4.881-2.853 4.626-5.833-.256-2.98-2.74-5.2-5.55-4.96-2.81.242-4.882 2.853-4.626 5.833Zm44.997 2.976c-.747 0-.9.301-.462.904.028.035.153.207.376.516.473.646 1.103 1.018 1.898 1.108 1.346.149 2.535-.262 3.568-1.237a.12.12 0 0 1 .165-.004l1.937 1.722c.058.051.058.11.008.168-1.358 1.53-2.95 2.29-4.774 2.278-4.02-.028-6.343-1.93-6.966-5.702-.215-1.295-.02-2.66.591-4.093 2.004-4.687 8.742-5 10.918-.426.622 1.303.884 2.821.786 4.547-.008.145-.086.219-.235.219h-7.81Zm-.239-2.88 5.13-.078c.043-.004.075-.035.075-.079v-.046a2.63 2.63 0 0 0-2.68-2.575c-1.46.023-2.626 1.213-2.603 2.66v.048c0 .039.035.07.078.07ZM98.74 5.678c1.224-1.523 2.782-2.066 4.672-1.636 1.886.43 3.056 2.297 3.068 4.12.015 2.677.019 5.627.007 8.848 0 .07-.035.105-.105.105l-3.389.004c-.086 0-.129-.043-.129-.125.02-2.852.016-5.396-.008-7.63-.015-1.178-.908-2.09-2.132-2.094-1.687-.008-2.313 1.272-2.286 2.74.047 2.418.051 4.754.016 7.008 0 .066-.035.101-.102.101h-3.306c-.13 0-.196-.066-.196-.195V4.527c0-.242.121-.364.364-.364l2.892-.004c.246 0 .372.122.368.368l-.012 1.053c-.004.297.09.329.278.098Zm28.174 9.614c-.49.56-1.073 1.174-1.765 1.448-3.131 1.233-5.964-.704-6.015-4.081a350.884 350.884 0 0 1-.011-8.664c0-.055.027-.082.082-.082h3.424c.058 0 .09.031.094.09a413.37 413.37 0 0 1-.008 7.188c-.016 1.48.837 2.747 2.477 2.548 1.616-.196 2.027-1.534 2.007-2.947a284.888 284.888 0 0 1-.012-6.758c.004-.082.043-.12.126-.12l3.341.003c.067 0 .098.031.098.094v12.596c0 .176-.09.266-.266.266l-3.04-.004c-.208 0-.313-.105-.313-.317v-1.174c0-.227-.075-.254-.219-.086Zm10.901-8.968c.814-1.648 2.051-2.454 3.706-2.419.059.004.09.036.09.094v3.628c0 .086-.043.129-.129.133-3.432.055-4.05 2.774-3.905 5.701a35.704 35.704 0 0 1-.004 3.584c-.004.051-.028.075-.079.075h-3.416c-.066 0-.098-.032-.098-.098V4.629c0-.309.153-.461.462-.461l2.755-.008c.27 0 .407.137.407.41l-.012 1.703c-.004.336.071.352.223.05Zm9.744 5.611c-.842 0-.975.309-.407.927.16.172.368.4.622.677.591.646 1.323.963 2.199.959 1.154-.008 2.172-.435 3.052-1.276.036-.031.067-.031.102-.004 1.021.845 1.675 1.46 1.96 1.84.02.023.016.046-.003.066-2.204 2.273-4.802 2.829-7.787 1.659-6.77-2.65-4.281-14.27 3.517-12.749 3.733.728 5.033 4.191 4.88 7.705-.008.13-.074.196-.203.196h-7.932Zm-.892-2.88 5.13-.079a.077.077 0 0 0 .074-.078v-.047a2.63 2.63 0 0 0-2.681-2.575c-1.459.024-2.625 1.214-2.602 2.661v.047c0 .04.036.07.079.07ZM161.333 7.4c-.137.434.004.755.422.962 2.63 1.303 6.578 1.604 5.893 5.729-.293 1.76-1.588 2.704-3.291 3.017-2.437.446-4.715-.141-6.836-1.765-.043-.035-.047-.074-.019-.121l1.432-2.219c.043-.07.102-.082.172-.031 1.514 1.084 2.994 1.553 4.434 1.408.481-.05.778-.27.896-.66a.876.876 0 0 0-.517-1.073c-2.293-.908-5.525-1.111-5.822-4.281-.224-2.383 1.518-4.167 3.889-4.402 1.878-.188 3.671.293 5.381 1.44.046.035.054.074.027.125L166.04 7.92c-.027.05-.067.063-.113.027-.994-.653-2.031-1.037-3.107-1.15-.497-.051-1.307.031-1.487.603ZM21.215 12.714c.09.14.183.14.273 0l4.516-6.962c.113-.176.172-.16.172.051v10.632c0 .196-.098.293-.293.293h-9.196a.097.097 0 0 1-.098-.098V5.906c0-.215.059-.235.176-.055l4.45 6.864Z" fill="#352610"></path></g><defs><clipPath id="svg1568901775_4688_a"><path fill="#fff" transform="translate(.937)" d="M0 0h167.478v18H0z"></path></clipPath></defs></svg>