<svg xmlns="http://www.w3.org/2000/svg" xmlns:xlink="http://www.w3.org/1999/xlink" viewBox="0 0 76 40"><g transform="translate(0.33 0.278)" id="ss2567160625_1"><path d="M 0 0.052 L 75.472 0.052 L 75.472 40.052 L 0 40.052 Z" fill="transparent"></path><path d="M 22.172 0 L 0.568 0 C 0.435 0 0.306 0.053 0.212 0.147 C 0.118 0.241 0.065 0.37 0.065 0.503 L 0.065 22.107 C 0.065 22.24 0.118 22.369 0.212 22.463 C 0.306 22.557 0.435 22.61 0.568 22.61 L 22.172 22.61 C 22.305 22.61 22.434 22.557 22.528 22.463 C 22.622 22.369 22.675 22.24 22.675 22.107 L 22.675 0.503 C 22.675 0.225 22.45 0 22.172 0 Z M 15.138 14.57 C 15.138 14.847 14.913 15.072 14.636 15.073 L 8.104 15.073 C 7.827 15.073 7.602 14.848 7.602 14.571 L 7.602 8.039 C 7.602 7.762 7.827 7.537 8.104 7.537 L 14.636 7.537 C 14.913 7.538 15.137 7.762 15.138 8.039 L 15.138 14.571 Z M 67.405 7.536 L 60.874 7.536 C 60.741 7.536 60.613 7.589 60.518 7.683 C 60.424 7.777 60.371 7.905 60.371 8.038 L 60.371 14.57 C 60.371 14.847 60.596 15.072 60.874 15.072 L 67.405 15.072 C 67.682 15.072 67.907 14.847 67.907 14.57 L 67.907 8.038 C 67.907 7.761 67.682 7.536 67.405 7.536 Z M 59.865 0 L 53.333 0 C 53.056 0.001 52.831 0.226 52.831 0.503 L 52.831 7.034 C 52.831 7.312 53.056 7.537 53.333 7.537 L 59.865 7.537 C 60.142 7.536 60.367 7.311 60.367 7.034 L 60.367 0.503 C 60.367 0.226 60.142 0.001 59.865 0 Z M 74.939 0 L 68.407 0 C 68.13 0.001 67.905 0.226 67.905 0.503 L 67.905 7.034 C 67.905 7.312 68.13 7.537 68.407 7.537 L 74.939 7.537 C 75.216 7.536 75.441 7.311 75.441 7.034 L 75.441 0.503 C 75.441 0.226 75.216 0.001 74.939 0 Z M 59.865 15.072 L 53.333 15.072 C 53.056 15.073 52.831 15.298 52.831 15.575 L 52.831 22.107 C 52.831 22.384 53.056 22.609 53.333 22.609 L 59.865 22.609 C 60.142 22.608 60.366 22.384 60.367 22.107 L 60.367 15.575 C 60.366 15.298 60.142 15.074 59.865 15.073 Z M 74.939 15.072 L 68.407 15.072 C 68.13 15.073 67.905 15.298 67.905 15.575 L 67.905 22.107 C 67.905 22.384 68.13 22.609 68.407 22.609 L 74.939 22.609 C 75.216 22.608 75.44 22.384 75.441 22.107 L 75.441 15.575 C 75.44 15.298 75.216 15.074 74.939 15.073 Z M 48.55 0 L 42.018 0 C 41.741 0.001 41.516 0.226 41.516 0.503 L 41.516 7.034 C 41.516 7.312 41.741 7.537 42.018 7.537 L 48.55 7.537 C 48.827 7.536 49.052 7.311 49.052 7.034 L 49.052 0.503 C 49.052 0.226 48.827 0.001 48.55 0 Z M 48.55 15.072 L 42.018 15.072 C 41.741 15.073 41.516 15.298 41.516 15.575 L 41.516 22.107 C 41.516 22.384 41.741 22.609 42.018 22.609 L 48.55 22.609 C 48.827 22.608 49.051 22.384 49.052 22.107 L 49.052 15.575 C 49.051 15.298 48.827 15.074 48.55 15.073 Z M 41.515 8.034 C 41.515 7.757 41.29 7.532 41.013 7.531 L 33.979 7.531 L 33.979 0.503 C 33.979 0.37 33.926 0.241 33.832 0.147 C 33.738 0.053 33.609 0 33.476 0 L 26.945 0 C 26.812 0 26.683 0.053 26.589 0.147 C 26.495 0.241 26.442 0.37 26.442 0.503 L 26.442 22.096 C 26.442 22.229 26.495 22.358 26.589 22.452 C 26.683 22.546 26.812 22.599 26.945 22.599 L 33.476 22.599 C 33.609 22.599 33.738 22.546 33.832 22.452 C 33.926 22.358 33.979 22.229 33.979 22.096 L 33.979 15.068 L 41.013 15.068 C 41.29 15.067 41.515 14.842 41.515 14.565 Z M 6.282 39.559 L 9.59 30.317 L 6.604 30.317 L 4.84 35.697 L 3.102 30.317 L 0 30.317 L 3.308 39.559 Z M 10.974 30.317 L 10.974 39.559 L 17.925 39.559 L 17.925 37.114 L 13.845 37.114 L 13.845 36.097 L 17.191 36.097 L 17.191 33.715 L 13.844 33.715 L 13.844 32.762 L 17.925 32.762 L 17.925 30.317 Z M 28.259 30.317 L 25.466 30.317 L 25.466 34.694 L 22.505 30.317 L 19.673 30.317 L 19.673 39.559 L 22.466 39.559 L 22.466 34.862 L 25.736 39.56 L 28.259 39.56 L 28.259 30.318 Z M 37.97 32.762 L 37.97 30.317 L 29.848 30.317 L 29.848 32.763 L 32.448 32.763 L 32.448 39.56 L 35.37 39.56 L 35.37 32.762 Z M 43.615 39.714 C 46.189 39.714 47.76 38.285 47.76 35.736 L 47.76 30.316 L 44.838 30.316 L 44.838 35.659 C 44.838 36.702 44.387 37.179 43.615 37.179 C 42.842 37.179 42.392 36.702 42.392 35.659 L 42.392 30.317 L 39.47 30.317 L 39.47 35.737 C 39.47 38.285 41.04 39.714 43.615 39.714 Z M 52.488 36.727 L 52.952 36.727 L 54.574 39.559 L 57.921 39.559 L 55.9 36.277 C 56.981 35.749 57.599 34.771 57.599 33.522 C 57.599 31.488 56.144 30.317 53.775 30.317 L 49.565 30.317 L 49.565 39.559 L 52.488 39.559 Z M 52.488 34.462 L 52.488 32.737 L 53.621 32.737 C 54.381 32.737 54.715 33.084 54.715 33.612 C 54.715 34.114 54.381 34.462 53.621 34.462 Z M 59.27 30.317 L 59.27 39.559 L 66.222 39.559 L 66.222 37.114 L 62.142 37.114 L 62.142 36.097 L 65.488 36.097 L 65.488 33.715 L 62.141 33.715 L 62.141 32.762 L 66.222 32.762 L 66.222 30.317 Z M 67.284 38.362 C 68.095 39.212 69.936 39.714 71.404 39.714 C 73.656 39.714 75.472 38.569 75.472 36.484 C 75.472 34.398 73.656 33.973 72.253 33.703 C 71.185 33.497 70.683 33.433 70.683 33.046 C 70.683 32.673 71.056 32.531 71.584 32.531 C 72.421 32.531 73.296 32.84 73.94 33.458 L 75.369 31.463 C 74.583 30.742 73.296 30.163 71.661 30.163 C 69.537 30.163 67.812 31.36 67.812 33.343 C 67.812 35.26 69.292 35.801 70.618 36.033 C 72.06 36.29 72.575 36.342 72.575 36.779 C 72.575 37.153 72.175 37.346 71.532 37.346 C 70.644 37.346 69.562 36.998 68.713 36.174 L 67.284 38.363 Z" fill="rgb(53,38,16)"></path></g></svg>