<svg xmlns:xlink="http://www.w3.org/1999/xlink" width="227" height="24" fill="none" xmlns="http://www.w3.org/2000/svg" id="svg-90816006_9075"><g clip-path="url(#svg-90816006_9075_a)" fill-rule="evenodd" clip-rule="evenodd" fill="#352610"><path d="m73.093 16.253-1.137-3.58h-.024l-1.135 3.58h2.296Zm-2.107-4.717c.097-.275.287-.413.57-.413h.776c.299 0 .49.138.57.413l2.692 7.616c.065.178.059.32-.017.425-.078.105-.21.157-.395.157h-.558c-.3 0-.489-.137-.57-.412l-.562-1.795h-3.095l-.563 1.783c-.081.283-.272.424-.57.424h-.558c-.187 0-.318-.052-.395-.157-.076-.106-.083-.247-.017-.425l2.692-7.616Zm50.652 4.717-1.138-3.58h-.024l-1.134 3.58h2.296Zm-2.107-4.717c.096-.275.286-.413.57-.413h.776c.299 0 .489.138.57.413l2.692 7.616c.065.178.058.32-.018.425-.077.105-.208.157-.394.157h-.558c-.299 0-.489-.137-.57-.412l-.562-1.795h-3.095l-.563 1.783c-.081.283-.272.424-.571.424h-.557c-.187 0-.318-.052-.395-.157-.077-.106-.083-.247-.018-.425l2.693-7.616ZM82.313 18.4c.405 0 .714-.118.928-.353.214-.236.321-.536.321-.902s-.109-.665-.327-.896c-.218-.232-.525-.347-.922-.347H80.64V18.4h1.673Zm-.145-3.76c.34 0 .6-.107.782-.323a1.18 1.18 0 0 0 .273-.787c0-.308-.091-.565-.273-.768-.182-.203-.454-.304-.819-.304h-1.49v2.182h1.527Zm-3.08-3.007c0-.34.165-.51.497-.51h2.57c.389 0 .747.05 1.075.146.327.097.608.24.842.43.234.19.418.423.552.698.133.274.2.59.2.945 0 .405-.09.768-.273 1.092a1.894 1.894 0 0 1-.77.752v.024a1.86 1.86 0 0 1 1.043.794c.113.182.198.379.255.589.056.21.085.424.085.642 0 .43-.08.801-.237 1.116a2.184 2.184 0 0 1-.648.783 2.771 2.771 0 0 1-.953.454c-.36.098-.738.146-1.134.146h-2.607c-.332 0-.498-.17-.498-.51v-7.591Zm9.812 7.373a.704.704 0 0 1-.201-.296c-.037-.11.006-.245.127-.407l.267-.388c.097-.137.2-.212.31-.225.109-.012.24.027.394.115l.273.183c.109.073.238.141.387.206.15.064.316.121.497.17.182.048.379.072.589.072.404 0 .72-.091.946-.273a.868.868 0 0 0 .34-.71c0-.274-.1-.5-.297-.678a3.206 3.206 0 0 0-.746-.485c-.3-.146-.62-.292-.965-.437a5.627 5.627 0 0 1-.964-.522 2.723 2.723 0 0 1-.746-.746c-.198-.295-.297-.664-.297-1.11a2.314 2.314 0 0 1 .837-1.818c.258-.218.564-.386.916-.503a3.6 3.6 0 0 1 1.146-.176c.25 0 .49.023.721.067.231.044.44.098.63.163.191.065.36.136.51.213.15.077.27.147.358.212.26.186.311.416.158.691l-.219.4c-.089.178-.194.267-.315.267a.84.84 0 0 1-.376-.097 5.971 5.971 0 0 0-.625-.315 2.148 2.148 0 0 0-.867-.158c-.404 0-.723.089-.957.267a.84.84 0 0 0-.352.703.84.84 0 0 0 .297.661c.198.174.446.33.746.466.299.138.62.278.964.42.343.14.665.313.964.514.299.203.547.454.746.753.198.299.297.675.297 1.128 0 .347-.065.677-.194.988-.13.311-.315.582-.558.813-.242.23-.54.412-.891.546-.352.133-.754.2-1.207.2a4.04 4.04 0 0 1-.873-.091 4.952 4.952 0 0 1-.752-.225 4.367 4.367 0 0 1-1.019-.558Zm11.23-6.548h-2.317c-.339 0-.51-.165-.51-.493v-.337c0-.336.171-.505.51-.505h6.185c.332 0 .498.169.498.505v.337c0 .328-.166.493-.498.493h-2.316v6.766c0 .34-.17.51-.509.51h-.546c-.331 0-.497-.17-.497-.51v-6.766Zm10.576 2.704c.42 0 .752-.122.994-.365.243-.244.364-.582.364-1.012 0-.276-.054-.518-.164-.725a.986.986 0 0 0-.515-.456 1.487 1.487 0 0 0-.37-.11 3.46 3.46 0 0 0-.564-.036h-1.152v2.704h1.407Zm-2.959-3.53c0-.339.165-.509.497-.509h2.328c.429 0 .762.018 1.001.055.238.036.45.095.636.176.437.186.787.48 1.049.879.263.4.395.891.395 1.474 0 .258-.033.508-.097.751a2.695 2.695 0 0 1-.279.673c-.122.207-.271.39-.449.553-.178.16-.38.287-.607.375v.024l.074.11c.024.04.054.086.091.14.036.052.074.118.115.2l1.419 2.595c.105.177.123.323.055.436-.069.113-.205.17-.407.17h-.655a.635.635 0 0 1-.594-.351l-1.517-2.863h-1.503v2.705c0 .34-.166.51-.498.51h-.557c-.332 0-.497-.17-.497-.51v-7.592Zm18.798 3.76c0-.622.109-1.202.327-1.74a4.226 4.226 0 0 1 .916-1.4 4.262 4.262 0 0 1 1.401-.935 4.615 4.615 0 0 1 1.795-.339c.347 0 .669.03.964.09.295.061.56.134.794.22.235.084.441.177.619.278.178.101.323.192.437.273.242.186.274.42.096.703l-.218.352c-.161.267-.392.307-.691.121a5.201 5.201 0 0 0-.776-.394 2.98 2.98 0 0 0-1.165-.212 3.07 3.07 0 0 0-1.243.236 2.57 2.57 0 0 0-.903.643 2.775 2.775 0 0 0-.552.946c-.125.36-.188.738-.188 1.134 0 .404.065.792.194 1.164.129.372.317.7.564.983.246.283.55.51.909.679.36.17.771.255 1.232.255.242 0 .47-.027.685-.08.214-.052.41-.114.588-.187s.338-.154.479-.243a5.06 5.06 0 0 0 .358-.242c.283-.21.517-.182.703.085l.243.327c.194.258.17.493-.073.703a6.683 6.683 0 0 1-.467.334c-.19.126-.412.242-.667.351-.255.11-.541.2-.861.273-.319.073-.669.11-1.049.11-.679 0-1.292-.115-1.837-.346a4.206 4.206 0 0 1-1.402-.946 4.164 4.164 0 0 1-.897-1.425 4.924 4.924 0 0 1-.315-1.771Zm13.014-2.934h-2.317c-.34 0-.509-.165-.509-.493v-.337c0-.336.169-.505.509-.505h6.186c.331 0 .497.169.497.505v.337c0 .328-.166.493-.497.493h-2.317v6.766c0 .34-.17.51-.51.51h-.545c-.332 0-.497-.17-.497-.51v-6.766Zm12.043-.753c-.065-.178-.059-.319.018-.424.077-.105.208-.158.395-.158h.642c.299 0 .489.142.57.425l2.086 6.424h.024l2.111-6.424c.072-.283.258-.425.558-.425h.618c.186 0 .317.053.394.158.077.105.083.246.019.424l-2.754 7.629c-.089.267-.279.4-.57.4h-.776c-.291 0-.481-.133-.57-.4l-2.765-7.629Zm11.012-.072c0-.34.166-.51.497-.51h4.339c.34 0 .509.169.509.505v.337c0 .328-.169.493-.509.493h-3.283v2.28h2.401c.34 0 .509.164.509.492v.336c0 .337-.169.505-.509.505h-2.401v2.33h3.286c.34 0 .509.163.509.492v.336c0 .337-.169.505-.509.505h-4.342c-.331 0-.497-.17-.497-.51v-7.591Zm49.385 0c0-.34.166-.51.498-.51h4.339c.34 0 .509.169.509.505v.337c0 .328-.169.493-.509.493h-3.284v2.28h2.401c.34 0 .509.164.509.492v.336c0 .337-.169.505-.509.505h-2.401v2.33h3.287c.339 0 .509.163.509.492v.336c0 .337-.17.505-.509.505h-4.342c-.332 0-.498-.17-.498-.51v-7.591Zm-40.446 0c0-.34.165-.51.497-.51h.655c.282 0 .485.114.606.34l3.056 4.633c.081.13.166.27.255.424.089.154.166.3.23.437.081.153.158.311.231.472h.024l-.048-.472a4.515 4.515 0 0 1-.031-.437 16.362 16.362 0 0 1-.006-.424v-4.463c0-.34.17-.51.51-.51h.545c.34 0 .51.17.51.51v7.592c0 .34-.17.51-.51.51h-.654c-.275 0-.474-.114-.595-.34l-3.068-4.621a8.778 8.778 0 0 1-.473-.862 5.228 5.228 0 0 1-.243-.472h-.024a8.7 8.7 0 0 0 .036.472 7.71 7.71 0 0 1 .049.862v4.45c0 .34-.166.51-.497.51h-.558c-.332 0-.497-.17-.497-.51v-7.591Zm12.916.825h-2.317c-.339 0-.508-.165-.508-.493v-.337c0-.336.169-.505.508-.505h6.186c.332 0 .497.169.497.505v.337c0 .328-.165.493-.497.493h-2.317v6.766c0 .34-.17.51-.509.51h-.545c-.332 0-.498-.17-.498-.51v-6.766Zm7.334-.825c0-.34.166-.51.497-.51h.546c.339 0 .51.17.51.51v4.996c0 .582.171 1.031.515 1.346.343.316.806.474 1.388.474.583 0 1.048-.158 1.395-.474.347-.315.522-.764.522-1.346v-4.996c0-.34.166-.51.497-.51h.558c.331 0 .497.17.497.51v5.009c0 .484-.083.925-.248 1.322a2.918 2.918 0 0 1-.704 1.018 3.215 3.215 0 0 1-1.091.661 4.037 4.037 0 0 1-1.413.237 4.08 4.08 0 0 1-1.425-.237 3.21 3.21 0 0 1-1.092-.661 2.903 2.903 0 0 1-.703-1.018 3.393 3.393 0 0 1-.249-1.322v-5.01Zm13.507 3.529c.42 0 .751-.122.994-.365.243-.244.364-.582.364-1.012 0-.276-.055-.518-.164-.725a.986.986 0 0 0-.515-.456 1.474 1.474 0 0 0-.37-.11 3.46 3.46 0 0 0-.564-.036h-1.152v2.704h1.407Zm-2.96-3.53c0-.339.166-.509.498-.509h2.328c.428 0 .762.018 1.001.055.238.036.45.095.636.176.437.186.787.48 1.05.879.262.4.394.891.394 1.474 0 .258-.033.508-.097.751a2.695 2.695 0 0 1-.279.673c-.122.207-.272.39-.449.553-.178.16-.38.287-.607.375v.024l.073.11c.025.04.055.086.092.14.036.052.074.118.114.2l1.42 2.595c.104.177.123.323.054.436-.069.113-.204.17-.407.17h-.654a.635.635 0 0 1-.594-.351l-1.516-2.863h-1.504v2.705c0 .34-.166.51-.497.51h-.558c-.332 0-.498-.17-.498-.51v-7.592Zm18.407 7.374a.703.703 0 0 1-.2-.296c-.037-.11.006-.245.128-.407l.266-.388c.097-.137.2-.212.309-.225.11-.012.241.027.395.115l.273.183c.109.073.239.141.388.206.149.064.315.121.497.17a2.3 2.3 0 0 0 .588.072c.404 0 .72-.091.946-.273a.867.867 0 0 0 .34-.71c0-.274-.1-.5-.297-.678a3.22 3.22 0 0 0-.746-.485 19.568 19.568 0 0 0-.965-.437 5.693 5.693 0 0 1-.964-.522 2.713 2.713 0 0 1-.745-.746c-.199-.295-.298-.664-.298-1.11a2.319 2.319 0 0 1 .837-1.818c.259-.218.564-.386.916-.503a3.601 3.601 0 0 1 1.146-.176c.251 0 .491.023.722.067.23.044.44.098.63.163s.36.136.51.213c.149.077.268.147.358.212.258.186.311.416.158.691l-.219.4c-.089.178-.194.267-.316.267a.836.836 0 0 1-.375-.097 6.03 6.03 0 0 0-.625-.315 2.149 2.149 0 0 0-.867-.158c-.404 0-.724.089-.958.267a.84.84 0 0 0-.352.703c0 .267.099.487.297.661.198.174.446.33.746.466.299.138.62.278.964.42.343.14.665.313.965.514.298.203.547.454.745.753.198.299.298.675.298 1.128 0 .347-.065.677-.194.988a2.37 2.37 0 0 1-.559.813 2.63 2.63 0 0 1-.891.546 3.38 3.38 0 0 1-1.207.2c-.307 0-.599-.03-.873-.091a4.946 4.946 0 0 1-.752-.225 4.318 4.318 0 0 1-1.019-.558ZM26.54 24c-.346 0-.684-.18-.87-.503L13.97 3.234l-5.415 9.379c-.179.31-.51.502-.87.502H1.404a1.004 1.004 0 1 1 0-2.008h5.704L13.101.724a1.004 1.004 0 0 1 1.74 0l12.568 21.77A1.004 1.004 0 0 1 26.54 24Zm14.156 0c-.359 0-.69-.192-.87-.503L27.259 1.728a1.005 1.005 0 0 1 1.74-1.004l11.698 20.264 5.415-9.38c.18-.31.51-.501.87-.501h6.283a1.004 1.004 0 1 1 0 2.008H47.56l-5.995 10.382c-.179.311-.51.502-.869.502Zm-7.077 0a1 1 0 0 1-.87-.503L20.178 1.728A1.005 1.005 0 0 1 21.92.724l12.568 21.77A1.003 1.003 0 0 1 33.619 24Z" fill="#352610"></path></g><defs><clipPath id="svg-90816006_9075_a"><path fill="#fff" transform="translate(.399)" d="M0 0h225.913v24H0z"></path></clipPath></defs></svg>