<svg xmlns:xlink="http://www.w3.org/1999/xlink" width="108" height="32" fill="none" xmlns="http://www.w3.org/2000/svg" id="svg-1272539074_10134"><g clip-path="url(#svg-1272539074_10134_a)" fill="none"><mask id="svg-1272539074_10134_b" style="mask-type:luminance" maskUnits="userSpaceOnUse" x="0" y="0" width="108" height="32" fill="none"><path d="M107.478 0H.016v32h107.462V0Z" fill="#FFFFFF"></path></mask><g mask="url(#svg-1272539074_10134_b)" fill="#352610"><path fill-rule="evenodd" clip-rule="evenodd" d="M43.147 2.354a1.272 1.272 0 0 1-.303-.434 1.322 1.322 0 0 1-.103-.526 1.34 1.34 0 0 1 .099-.542c.07-.17.175-.323.307-.448a1.58 1.58 0 0 1 1.037-.392c.378 0 .745.139 1.036.392a1.342 1.342 0 0 1 .404.99c0 .181-.036.36-.107.526a1.275 1.275 0 0 1-.305.434 1.57 1.57 0 0 1-1.037.394c-.38 0-.746-.14-1.037-.394h.009Zm2.25 1.256v8.287H42.97V3.61h2.429Zm-6.123-1.486a4.576 4.576 0 0 1 1.828 1.833c.44.834.664 1.775.646 2.727a5.62 5.62 0 0 1-.646 2.719 4.557 4.557 0 0 1-1.834 1.842 5.631 5.631 0 0 1-2.748.652h-3.74V1.47h3.739a5.573 5.573 0 0 1 2.754.655Zm-.767 6.788c.514-.526.769-1.269.767-2.228-.002-.959-.257-1.706-.767-2.243-.512-.536-1.227-.803-2.145-.801h-1.144v6.059h1.144c.92 0 1.634-.262 2.145-.787Zm8.61 1.717c.335.448.776.798 1.278 1.017a4.377 4.377 0 0 0 1.848.365 4.18 4.18 0 0 0 1.696-.326 2.607 2.607 0 0 0 1.124-.897 2.25 2.25 0 0 0 .389-1.298 2.176 2.176 0 0 0-.432-1.376 2.474 2.474 0 0 0-.975-.742 11.568 11.568 0 0 0-1.43-.47 5.4 5.4 0 0 1-1.13-.355.55.55 0 0 1-.263-.208.59.59 0 0 1-.1-.327.564.564 0 0 1 .057-.264.536.536 0 0 1 .171-.203c.196-.126.423-.186.652-.17.288-.015.572.074.804.25a1 1 0 0 1 .246.305c.062.118.101.247.115.38h2.245a3.062 3.062 0 0 0-.987-2.051c-.572-.514-1.356-.772-2.351-.772a4.079 4.079 0 0 0-1.75.344 2.555 2.555 0 0 0-1.11.93c-.245.381-.374.83-.37 1.29-.024.486.122.965.413 1.345.263.324.6.573.978.727.467.18.945.326 1.43.44.39.091.774.217 1.144.376.105.039.195.11.258.206a.575.575 0 0 1 .097.324c0 .095-.022.19-.065.273a.562.562 0 0 1-.181.208c-.211.136-.457.2-.704.186-.3.01-.594-.084-.838-.267a.951.951 0 0 1-.265-.306.997.997 0 0 1-.118-.393H46.59c.034.53.217 1.038.527 1.46Zm10.811-6.783c.45-.246.953-.37 1.462-.359a3.17 3.17 0 0 1 1.776.52c.545.366.98.884 1.258 1.496a5.699 5.699 0 0 1 0 4.486 3.627 3.627 0 0 1-1.258 1.495 3.15 3.15 0 0 1-1.776.527 2.925 2.925 0 0 1-1.456-.356 2.73 2.73 0 0 1-.996-.915v5.108H54.51V3.61h2.428v1.172a2.7 2.7 0 0 1 .99-.936ZM59.91 6.24a1.667 1.667 0 0 0-.573-.407 1.603 1.603 0 0 0-.683-.129 1.597 1.597 0 0 0-.67.138 1.642 1.642 0 0 0-.56.413c-.348.41-.529.947-.503 1.495a2.153 2.153 0 0 0 .504 1.495c.159.175.35.314.562.41a1.637 1.637 0 0 0 1.341 0c.212-.096.403-.235.562-.41.176-.204.312-.442.4-.701a2.18 2.18 0 0 0 .112-.809 2.12 2.12 0 0 0-.492-1.49V6.24Zm6.327 2.123h5.497c.028-.247.042-.496.043-.745a4.546 4.546 0 0 0-.504-2.183 3.55 3.55 0 0 0-1.398-1.441 4.079 4.079 0 0 0-2.045-.506 4.139 4.139 0 0 0-2.114.518 3.59 3.59 0 0 0-1.413 1.495 4.837 4.837 0 0 0-.503 2.258 4.732 4.732 0 0 0 .512 2.258 3.602 3.602 0 0 0 1.43 1.495 4.107 4.107 0 0 0 2.076.52c.6.01 1.196-.116 1.745-.37a3.59 3.59 0 0 0 1.285-1.005c.35-.433.601-.943.734-1.492h-2.574a1.32 1.32 0 0 1-.51.613c-.226.144-.49.21-.754.191a1.415 1.415 0 0 1-1.03-.41 1.763 1.763 0 0 1-.477-1.196Zm2.954-1.981c.074.18.108.374.1.57h-3.04c.042-.407.227-.783.52-1.053a1.489 1.489 0 0 1 1.03-.374c.389-.014.769.124 1.064.389.141.128.253.288.326.468Zm7.216-2.466a2.654 2.654 0 0 1 1.43-.395v2.692h-.666a1.984 1.984 0 0 0-1.364.407c-.303.275-.455.75-.455 1.435v3.843h-2.428V3.61h2.428v1.373a3.216 3.216 0 0 1 1.055-1.068Zm2.543 6.714c.337.447.777.796 1.279 1.017a4.376 4.376 0 0 0 1.85.368 4.18 4.18 0 0 0 1.7-.326 2.593 2.593 0 0 0 1.12-.897 2.25 2.25 0 0 0 .392-1.298 2.174 2.174 0 0 0-.435-1.376 2.486 2.486 0 0 0-.972-.742 11.482 11.482 0 0 0-1.43-.47 5.46 5.46 0 0 1-1.13-.355.55.55 0 0 1-.26-.208.59.59 0 0 1-.1-.328.562.562 0 0 1 .055-.263.535.535 0 0 1 .17-.203c.197-.126.426-.186.656-.17.286-.015.569.074.8.25.101.084.186.187.248.305s.102.247.116.38h2.245a3.101 3.101 0 0 0-.302-1.131 2.976 2.976 0 0 0-.696-.923c-.572-.514-1.356-.772-2.351-.772a4.089 4.089 0 0 0-1.745.344 2.533 2.533 0 0 0-1.107.93 2.34 2.34 0 0 0-.377 1.298c-.023.484.125.96.414 1.337.264.324.601.574.981.727.467.18.945.326 1.43.44.391.091.774.217 1.144.376.105.039.195.11.259.206A.574.574 0 0 1 83 9.47a.58.58 0 0 1-.065.274.556.556 0 0 1-.184.207c-.21.136-.456.2-.703.186-.3.01-.594-.084-.838-.267a.963.963 0 0 1-.264-.306 1.006 1.006 0 0 1-.12-.393h-2.4c.034.53.216 1.037.524 1.46Zm7.865-8.275a1.277 1.277 0 0 1-.308-.433 1.334 1.334 0 0 1-.11-.527c-.003-.186.03-.37.1-.542.07-.17.175-.323.307-.448a1.58 1.58 0 0 1 1.037-.392c.379 0 .746.139 1.037.392a1.319 1.319 0 0 1 .414.99 1.287 1.287 0 0 1-.403.972c-.29.255-.657.394-1.037.394-.379 0-.746-.14-1.037-.394v-.012Zm2.251 1.256v8.287h-2.431V3.61h2.431Zm1.668 6.391c.342.634.85 1.153 1.464 1.495a4.22 4.22 0 0 0 2.094.515 4.297 4.297 0 0 0 2.108-.52 3.808 3.808 0 0 0 1.493-1.496 4.909 4.909 0 0 0 .543-2.25 4.91 4.91 0 0 0-.543-2.25A3.752 3.752 0 0 0 96.417 4a4.526 4.526 0 0 0-2.104-.52c-.73 0-1.45.177-2.103.52-.618.341-1.13.86-1.476 1.495a4.987 4.987 0 0 0-.536 2.254c0 .785.184 1.559.536 2.253Zm5.237-2.249a2.19 2.19 0 0 1-.492 1.531 1.58 1.58 0 0 1-.537.405 1.52 1.52 0 0 1-.647.14 1.44 1.44 0 0 1-.636-.133 1.5 1.5 0 0 1-.522-.403 2.269 2.269 0 0 1-.464-1.531 2.253 2.253 0 0 1 .47-1.537c.15-.168.333-.301.534-.392a1.557 1.557 0 0 1 1.28 0c.203.091.386.224.536.392.342.426.513.973.478 1.528Zm10.674-3.29c.555.631.832 1.496.832 2.593v4.842h-2.417v-4.5a1.879 1.879 0 0 0-.411-1.293 1.58 1.58 0 0 0-1.109-.46 1.58 1.58 0 0 0-1.108.46c-.292.359-.44.822-.412 1.292v4.501h-2.428V3.61h2.428v1.098a2.61 2.61 0 0 1 .996-.868 3.03 3.03 0 0 1 1.401-.32c.414-.02.828.054 1.213.217.384.162.731.41 1.015.725ZM34.506 18.177a4.69 4.69 0 0 0-1.782 1.888v.015a6.203 6.203 0 0 0-.64 2.751c0 .958.22 1.901.64 2.751a4.71 4.71 0 0 0 1.782 1.878 4.996 4.996 0 0 0 2.594.676 4.835 4.835 0 0 0 3.04-.972 4.711 4.711 0 0 0 1.691-2.667H39.16a2.22 2.22 0 0 1-.858.996c-.376.23-.806.348-1.242.34a2.229 2.229 0 0 1-.997-.195 2.325 2.325 0 0 1-.822-.62 3.753 3.753 0 0 1-.695-2.184c0-.787.244-1.553.695-2.183.227-.268.508-.48.822-.622a2.23 2.23 0 0 1 .997-.195 2.3 2.3 0 0 1 1.242.341c.376.233.675.58.858.996h2.671a4.756 4.756 0 0 0-1.69-2.691 4.822 4.822 0 0 0-3.04-.978 4.995 4.995 0 0 0-2.595.675Zm8.652 3.467a3.545 3.545 0 0 1 1.259-1.496 3.167 3.167 0 0 1 1.773-.52 2.969 2.969 0 0 1 1.473.356c.397.217.733.54.972.936v-1.172h2.429v8.287h-2.42v-1.16a2.698 2.698 0 0 1-.987.935 2.96 2.96 0 0 1-1.47.356 3.126 3.126 0 0 1-1.762-.526 3.605 3.605 0 0 1-1.258-1.495 5.697 5.697 0 0 1-.459-2.243c0-.774.156-1.538.459-2.243l-.009-.015Zm4.971.76a1.633 1.633 0 0 0-.557-.413 1.567 1.567 0 0 0-.67-.138 1.587 1.587 0 0 0-.67.135 1.65 1.65 0 0 0-.56.406 2.082 2.082 0 0 0-.394.695 2.146 2.146 0 0 0-.11.8 2.18 2.18 0 0 0 .504 1.496c.158.175.349.314.56.41a1.627 1.627 0 0 0 1.337 0c.212-.096.402-.235.56-.41.325-.424.502-.952.502-1.495 0-.544-.177-1.071-.502-1.496v.01Zm9.144-2.764a2.92 2.92 0 0 0-1.464.356c-.398.22-.735.542-.981.936V19.76h-2.429v12.234h2.429v-5.108c.25.388.59.705.986.921.45.244.952.367 1.459.356a3.148 3.148 0 0 0 1.773-.526c.544-.367.98-.885 1.259-1.495a5.706 5.706 0 0 0 0-4.486 3.544 3.544 0 0 0-1.259-1.496 3.166 3.166 0 0 0-1.773-.52Zm-.05 2.34c.215.094.408.233.568.408l.005.006a2.104 2.104 0 0 1 .498 1.493 2.15 2.15 0 0 1-.512 1.495c-.157.178-.348.32-.561.416a1.59 1.59 0 0 1-.674.14 1.567 1.567 0 0 1-.67-.137 1.628 1.628 0 0 1-.557-.413 2.462 2.462 0 0 1-.502-1.495c0-.544.177-1.071.502-1.496a1.609 1.609 0 0 1 1.227-.55c.232-.005.462.04.676.133Zm4.864-3.477a1.27 1.27 0 0 1-.305-.44 1.322 1.322 0 0 1-.101-.531 1.34 1.34 0 0 1 .099-.542c.07-.17.175-.324.307-.448a1.58 1.58 0 0 1 1.036-.392c.38 0 .746.138 1.037.392.131.125.235.278.305.449.07.17.103.355.099.54.003.183-.031.365-.101.532-.07.168-.173.318-.303.44-.29.255-.657.395-1.036.395-.38 0-.747-.14-1.037-.395Zm2.25 1.257v8.287H61.91V19.76h2.429Zm6.33 8.287v-2.154l-.864.01a.8.8 0 0 1-.572-.165.707.707 0 0 1-.168-.532v-3.33h1.59v-2.093h-1.59v-2.021h-2.429v2.021h-.966v2.094h.966v3.29c0 1.018.246 1.753.738 2.204.492.45 1.179.676 2.06.676h1.235Zm1.173-6.403c.275-.613.71-1.13 1.255-1.496a3.183 3.183 0 0 1 1.776-.511 2.95 2.95 0 0 1 1.47.356c.4.216.736.539.976.936v-1.172h2.428v8.287h-2.428v-1.17a2.682 2.682 0 0 1-.99.936 2.934 2.934 0 0 1-1.47.356 3.137 3.137 0 0 1-1.762-.526 3.601 3.601 0 0 1-1.255-1.495 5.667 5.667 0 0 1 0-4.486v-.015Zm4.97.76a1.715 1.715 0 0 0-.561-.401 1.652 1.652 0 0 0-1.333 0 1.72 1.72 0 0 0-.562.4 2.06 2.06 0 0 0-.396.695 2.133 2.133 0 0 0-.108.8 2.152 2.152 0 0 0 .504 1.496c.158.175.348.314.56.41a1.626 1.626 0 0 0 1.337 0c.211-.096.402-.235.56-.41.325-.424.502-.952.502-1.495 0-.544-.177-1.071-.502-1.496Zm6.982 5.643V17.056h-2.428v10.99h2.428Z" fill="#352610"></path><path d="M27.033 13.088a1.76 1.76 0 0 0-.631-.679 1.659 1.659 0 0 0-.874-.248h-2.122l1.467-2.513a1.86 1.86 0 0 0 .041-1.829c-.15-.28-.37-.514-.636-.675a1.659 1.659 0 0 0-.878-.241h-2.434l1.585-2.713a1.858 1.858 0 0 0 .044-1.831 1.758 1.758 0 0 0-.639-.676 1.658 1.658 0 0 0-.878-.241H9.188a1.68 1.68 0 0 0-.843.233 1.776 1.776 0 0 0-.63.631L.28 15.053a1.86 1.86 0 0 0-.047 1.825c.149.28.367.514.632.676.265.163.566.248.874.247h2.434l-1.576 2.712a1.86 1.86 0 0 0-.044 1.831c.15.282.371.516.638.677.267.161.57.244.879.24h2.12l-1.467 2.513a1.86 1.86 0 0 0-.041 1.83c.15.28.37.513.636.674.267.162.57.245.878.241h11.89c.295 0 .585-.08.843-.231a1.77 1.77 0 0 0 .63-.633l7.45-12.746a1.859 1.859 0 0 0 .023-1.821Zm-3.624-4.373-2.002 3.449h-3.515l2.019-3.452 3.498.003Zm-12.982 7.288H7.24l4.27-7.297h6.39l-2.019 3.455h-2.245a1.676 1.676 0 0 0-.843.232 1.77 1.77 0 0 0-.627.632l-1.74 2.978Zm3.209-2.048h1.195l-1.192 2.04H12.44l1.196-2.04Zm0 3.843a1.68 1.68 0 0 0 .838-.229 1.77 1.77 0 0 0 .629-.623l1.739-2.991h3.486l-4.367 7.507H9.26l2.14-3.658 2.236-.006ZM1.738 16.004l7.45-12.765 11.899.018-2.131 3.649h-7.437a1.674 1.674 0 0 0-.852.228c-.26.152-.48.37-.635.636L5.23 15.995l-3.492.008Zm2.32 5.457 2.136-3.648h3.18L7.24 21.468l-3.183-.006Zm14.034 5.27-11.898-.018 2.002-3.445h7.757c.295-.002.584-.082.842-.233.257-.151.473-.369.628-.631l4.925-8.428h3.189L18.092 26.73Z" fill="#352610"></path></g></g><defs><clipPath id="svg-1272539074_10134_a"><path fill="#fff" transform="translate(.015)" d="M0 0h107.963v32H0z"></path></clipPath></defs></svg>