<svg xmlns:xlink="http://www.w3.org/1999/xlink" width="139" height="36" fill="none" xmlns="http://www.w3.org/2000/svg" id="svg-97077177_6167"><g clip-path="url(#svg-97077177_6167_a)" fill="none"><path fill-rule="evenodd" clip-rule="evenodd" d="m92.93-.02-9.7.02v28.78l9.478.006h.448l3.746.004h1.44l1.528.002h.802c1.482.005 2.984.009 4.448-.244l.265-.051c1.698-.32 3.448-.724 4.974-1.556l.355-.21c.906-.523 1.782-1.054 2.541-1.782l.261-.265.319-.316c2.578-2.619 3.464-6.259 3.474-9.839v-.233c.002-1.249-.047-2.447-.302-3.672l-.068-.316c-.174-.798-.363-1.545-.71-2.287l-.126-.26c-.498-1.276-1.267-2.396-2.23-3.368-4.07-3.966-9.46-4.449-14.864-4.426l-1.207.003-1.823.002-3.05.009Zm2.634 5.167-5.867.027v18.431l5.989.007h.283l2.369.003h.717l1.157.002h.509c.496.003.989.006 1.482-.064l.32-.056c2.269-.337 4.377-.852 6.097-2.472 1.528-1.68 2.159-3.949 2.149-6.178-.004-.24-.007-.479-.006-.719.007-1.256-.135-2.415-.518-3.62-.661-1.777-1.727-3.157-3.455-4.019l-.279-.13c-2.26-1.103-4.797-1.252-7.274-1.23l-.727.004h-.27l-.84.002-1.836.012Z" fill="#352610"></path><path opacity=".6" d="M.344 33.844h137.964V36H.344v-2.156Z" fill="#352610"></path><path fill-rule="evenodd" clip-rule="evenodd" d="M39.577 0h-7.006c0 .09 0 .143.01.194.014.07.047.135.125.291.102.204.202.41.287.621.145.375.29.745.465 1.105.23.448.446.89.629 1.36.125.32.255.63.41.936.341.699.511 1.049.674 1.401.164.353.32.71.634 1.421.2.454.401.907.61 1.356.273.58.526 1.157.75 1.757.13.36.268.68.458 1.014.222.376.405.764.585 1.162l.123.276c.285.634.557 1.269.802 1.92.112.313.222.588.392.874.085.133.126.197.16.264.032.062.057.126.107.25a12.415 12.415 0 0 0 .493 1.17c.17.332.34.66.481 1.005l.017.043c.136.35.27.697.435 1.035l.048.095c.165.321.33.64.467.975.193.502.402.983.647 1.463.201.395.385.786.545 1.2.142.366.3.714.479 1.064.135.264.264.525.376.8.146.379.292.75.472 1.115l.252.496.247.499.647 1.616h10.131l.108-.646h.216c.067-.362.213-.676.37-1.007.224-.468.446-.935.652-1.41.155-.367.316-.73.477-1.094l.22-.494.11-.245.219-.493a27.59 27.59 0 0 1 .742-1.586c.367-.71.691-1.425.981-2.17.277-.71.58-1.395.925-2.075.247-.488.493-.974.693-1.485a32.785 32.785 0 0 1 1.36-3.058c.236-.463.456-.927.654-1.408.3-.739.626-1.464.957-2.19l.263-.579c.204-.48.414-.955.633-1.428l.1-.218c.32-.688.638-1.375.937-2.072.14-.326.284-.648.431-.97l.009-.02a35.4 35.4 0 0 0 .352-.787c.104-.247.208-.493.328-.733.434-.843.79-1.71 1.09-2.61H61.35a26.12 26.12 0 0 1-.526 1.442l-.08.203c-.17.428-.363.839-.572 1.25-.198.395-.381.797-.565 1.198l-.063.138-.152.331a321.25 321.25 0 0 0-1.495 3.342c-.52 1.177-1.048 2.35-1.593 3.515l-.134.29-.116.246a54.14 54.14 0 0 1-.815 1.856c-.18.393-.352.789-.525 1.184l-.095.219c-.15.342-.298.684-.444 1.028-.13.299-.267.587-.417.875-.23.452-.42.91-.604 1.382-.096.236-.202.46-.32.687a9.781 9.781 0 0 0-.417.936c-.255.65-.55 1.28-.846 1.911l-.03.063-.209.449-.545 1.168h-.647a20.123 20.123 0 0 1-.862-1.94c-.29-.737-.611-1.45-.97-2.156-.93-1.83-1.733-3.72-2.538-5.611-.818-1.923-1.636-3.847-2.588-5.712a35.608 35.608 0 0 1-1.214-2.75c-.294-.743-.643-1.471-.993-2.203-.52-1.087-1.043-2.182-1.398-3.341Z" fill="#352610"></path><path d="M71.158 0h6.467v28.778h-6.467V0Z" fill="#352610"></path><path fill-rule="evenodd" clip-rule="evenodd" d="M13.278 0h9.916c2.56 5.122 4.855 10.361 7.148 15.6 1.841 4.204 3.682 8.408 5.66 12.551.064.153.095.23.11.308.016.078.016.16.016.32h-7.006c-.98-1.961-1.823-3.982-2.587-6.037h-16.49a76.541 76.541 0 0 1-2.695 6.036H.344v-.107c.12-.12.173-.173.214-.235a1.43 1.43 0 0 0 .1-.201c.21-.551.431-1.093.671-1.631l.12-.264c.27-.604.549-1.202.849-1.791.332-.649.636-1.299.909-1.975.242-.603.496-1.197.774-1.785.175-.367.347-.733.508-1.106.155-.363.313-.725.474-1.086l.11-.247c.245-.55.49-1.101.74-1.65.113-.245.225-.49.334-.737.25-.566.505-1.13.762-1.694l.151-.331a52.96 52.96 0 0 1 1.03-2.156c.168-.317.32-.633.448-.968.35-.934.747-1.837 1.165-2.742l.224-.487c.32-.7.642-1.398.97-2.094a62.473 62.473 0 0 0 1.173-2.632l.118-.278c.11-.26.222-.52.337-.78.269-.595.51-1.192.753-1.801Zm5.281 5.066h-.539l-.186.367c-.482.947-.966 1.898-1.348 2.89a17.13 17.13 0 0 1-.783 1.822 27.19 27.19 0 0 0-1.03 2.21l-.005.014c-.157.4-.313.795-.508 1.178l-.189.367c-.581 1.124-1.204 2.326-1.448 3.547h11.533a13.623 13.623 0 0 0-.808-2.09c-.498-1.058-.986-2.12-1.455-3.191-.143-.342-.286-.68-.452-1.01a11.022 11.022 0 0 1-.559-1.227 8.479 8.479 0 0 0-.444-1.001 19.017 19.017 0 0 1-.828-1.811c-.271-.711-.606-1.387-.95-2.065Z" fill="#352610"></path><path d="M.344 33.844H30.63v2.048H.344v-2.048Z" fill="#352610"></path><path fill-rule="evenodd" clip-rule="evenodd" d="m124.213 3.586-4.875-.029V.107c1.822.005 3.643.01 5.465.02.887.004 1.773.008 2.66.01.778.001 1.556.003 2.334.008h.126c.37.003.741.005 1.111.005.244 0 .49-.003.737-.006 1.68-.022 3.405-.045 4.839.927.961.75 1.458 1.522 1.644 2.702l.027.16.017.095.009.065c-.008.001-.016.003.001.003.011.289.017.575.017.864l.002.255.003.832.001.289.003 1.514c0 .518.003 1.036.006 1.554l.003 1.204.002.572c.012 1.652-.115 3.207-1.262 4.506-1.35 1.215-2.795 1.361-4.53 1.356h-.434l-1.17-.001h-1.225l-2.318-.003-2.64-.003c-1.81 0-3.619-.003-5.428-.005v-3.449l1.195-.005c1.303-.005 2.606-.012 3.909-.02.79-.005 1.58-.01 2.371-.012a594.17 594.17 0 0 0 2.066-.011c.364-.003.729-.005 1.094-.006.407 0 .814-.004 1.222-.007h.364c.774-.01 1.356-.062 1.941-.613.328-.562.284-1.179.173-1.805a1.59 1.59 0 0 0-.954-.706 3.374 3.374 0 0 0-.697-.066l-.279-.003-.304-.002-.322-.003-1.053-.009-.73-.007-1.922-.016-1.809-.016-.153-.001-3.849-.033V6.79l.996-.003c1.087-.003 2.173-.01 3.26-.016.659-.005 1.317-.008 1.976-.01a345.74 345.74 0 0 0 1.908-.01c.242-.002.485-.003.727-.003.34 0 .68-.003 1.02-.006l.302.001c.622-.01 1.167-.097 1.668-.491.325-.535.294-1.12.215-1.725-.171-.385-.417-.59-.801-.768-.521-.128-1.027-.128-1.557-.128h-.108l-.389-.004c-.35-.003-.701-.004-1.051-.006l-.994-.006-.107-.001c-.694-.005-1.388-.01-2.082-.013l-2.371-.015Zm14.095 7.624V5.497c-.017.142-.053.3-.089.455-.027.123-.055.243-.073.354-.278 1.089-.754 1.724-1.67 2.317.958.627 1.479 1.219 1.778 2.317.013.052.02.095.027.136.007.042.014.083.027.134Z" fill="#352610"></path><path d="m61.026 15.521.324.216-.216.646c-.107-.07-.213-.142-.323-.215.094-.526.094-.526.215-.647Z" fill="#161616"></path></g><defs><clipPath id="svg-97077177_6167_a"><path fill="#fff" transform="translate(.344)" d="M0 0h137.964v36H0z"></path></clipPath></defs></svg>