<svg xmlns:xlink="http://www.w3.org/1999/xlink" width="201" height="32" fill="none" xmlns="http://www.w3.org/2000/svg" id="svg1249757767_2215"><g clip-path="url(#svg1249757767_2215_a)" fill="#352610"><path d="M11.14 24.833H6.088L3.713 23.46v7.896H.468V7.77H2.91l.803 1.372L6.088 7.77h5.052l3.881 2.242v12.58l-3.88 2.24ZM3.713 10.68v11.241h8.063v-11.24H3.713Zm20.542 13.986-3.881-2.242V.242h3.245v21.513h4.015v2.91h-3.38Zm9.935.167-3.88-2.242v-5.453l3.88-2.242h6.09v-4.048h-8.297v-2.91h7.661l3.881 2.24v14.655h-.87L40.28 23.46l-2.376 1.372h-3.713Zm-.635-7.026v4.115h6.725v-4.115h-6.725Zm27.903-.837v5.454l-3.881 2.242h-8.699v-2.911h9.335V17.64h-5.454l-3.88-2.242v-5.22l3.88-2.24h8.364v2.91h-9v3.88h5.454l3.881 2.243Zm17.932 0v5.454l-3.88 2.242h-8.7v-2.911h9.335V17.64H70.69l-3.88-2.242v-5.22l3.88-2.24h8.365v2.91h-9v3.88h5.453l3.881 2.243Zm8.565 7.863-3.88-2.242v-5.453l3.88-2.242h6.09v-4.048h-8.298v-2.91h7.661l3.881 2.24v14.655h-.87l-2.375-1.372-2.375 1.372h-3.714Zm-.636-7.026v4.115h6.725v-4.115H87.32Zm14.821 3.78V11.082l3.078-3.078h8.03l3.078 3.078v2.041h-2.476v-1.271l-1.673-1.64h-5.888l-1.673 1.64v8.966l1.673 1.64h5.888l1.673-1.64v-1.271h2.476v2.04l-3.078 3.079h-8.03l-3.078-3.079Zm17.699.335v-4.249l2.743-2.71h8.899v-3.178l-1.672-1.64h-5.688l-1.673 1.64v1.371h-2.476v-2.074l3.078-3.078h7.796l3.078 3.078v13.584h-2.376V21.72l-3.078 2.945h-5.888l-2.743-2.744Zm8.13.602 3.512-3.379v-2.04h-7.828l-1.339 1.304v2.81l1.339 1.305h4.316Zm10.806-14.52h2.409v2.978l2.977-2.978h6.257l3.078 3.078v10.505l-3.078 3.079h-6.424l-2.743-2.41v9.502h-2.476V8.004Zm10.572 14.453 1.673-1.639v-8.966l-1.673-1.64h-4.516l-3.58 3.58v5.755l3.212 2.91h4.884Zm8.665-18.267V2.718l1.004-1.004h1.472l1.003 1.004V4.19l-1.003 1.004h-1.472l-1.004-1.004Zm.502 3.814h2.476v16.662h-2.476V8.004Zm9.334 13.583V10.18h-3.011V8.004h3.078v-5.42h2.408v5.42h5.22v2.175h-5.22v10.639l1.673 1.673h3.547v2.175h-4.617l-3.078-3.079Zm11.041.335v-4.249l2.743-2.71h8.9v-3.178l-1.673-1.64h-5.688l-1.673 1.64v1.371h-2.475v-2.074l3.078-3.078h7.795l3.078 3.078v13.584h-2.375V21.72l-3.078 2.945h-5.889l-2.743-2.744Zm8.129.602 3.513-3.379v-2.04h-7.829l-1.338 1.304v2.81l1.338 1.305h4.316ZM197.992.777h2.476v23.889h-2.476V.777Z" fill="#352610"></path></g><defs><clipPath id="svg1249757767_2215_a"><path fill="#fff" transform="translate(.468 .242)" d="M0 0h200v31.516H0z"></path></clipPath></defs></svg>