<svg xmlns:xlink="http://www.w3.org/1999/xlink" width="121" height="30" fill="none" xmlns="http://www.w3.org/2000/svg" id="svg-470527819_2335"><path d="M40.288 25.581V10.248h2.267l.216 1.238h.108c.648-.848 1.748-1.455 3.28-1.455 2.805 0 5.05 2.302 5.05 5.71 0 3.41-2.243 5.712-5.05 5.712-1.51 0-2.567-.63-3.128-1.346h-.108v5.472H40.29l-.002.002Zm8.287-9.837c0-1.998-1.275-3.257-2.828-3.257-1.554 0-2.828 1.259-2.828 3.257 0 1.998 1.274 3.257 2.828 3.257 1.553 0 2.828-1.26 2.828-3.257Zm3.97 0c0-3.323 2.372-5.711 5.545-5.711s5.545 2.388 5.545 5.71c0 3.324-2.372 5.712-5.545 5.712s-5.545-2.411-5.545-5.711Zm8.436 0c0-1.956-1.295-3.257-2.891-3.257s-2.912 1.303-2.912 3.257c0 1.953 1.316 3.236 2.912 3.236 1.596 0 2.891-1.28 2.891-3.236Zm4.562 5.494V6.037h2.633V21.24h-2.633v-.002Zm12.407-10.99h2.805l-4.747 13.356c-.474 1.325-1.122 1.977-2.828 1.977h-2.546v-2.454h2.159c.39 0 .603-.196.734-.522l.258-.716-4.444-11.641h2.804l2.828 7.624h.432l2.546-7.624Zm3.309 11.532h2.675c.108.717.82 1.694 2.504 1.694 1.575 0 2.611-.999 2.611-2.52v-1.542h-.108c-.582.63-1.661 1.195-3.043 1.195-2.804 0-4.963-2.173-4.963-5.3s2.159-5.276 4.963-5.276c1.446 0 2.504.586 3.173 1.412h.108l.215-1.195h2.288v10.706c0 2.91-1.942 4.844-5.244 4.844-3.69 0-5.114-2.432-5.18-4.017Zm7.79-6.47c0-1.716-1.208-2.91-2.74-2.91-1.533 0-2.72 1.194-2.72 2.91 0 1.714 1.209 2.93 2.72 2.93 1.51 0 2.74-1.194 2.74-2.93Zm4.462.434c0-3.323 2.373-5.711 5.545-5.711 3.173 0 5.546 2.388 5.546 5.71 0 3.324-2.373 5.712-5.546 5.712-3.172 0-5.545-2.411-5.545-5.711Zm8.437 0c0-1.956-1.296-3.257-2.892-3.257-1.596 0-2.912 1.303-2.912 3.257 0 1.953 1.316 3.236 2.912 3.236 1.596 0 2.892-1.28 2.892-3.236Zm4.487 5.494v-10.99h2.265l.216 1.042h.108c.432-.499 1.511-1.26 3.149-1.26 2.504 0 4.316 1.824 4.316 4.604v6.602h-2.633V14.98c0-1.412-.993-2.432-2.351-2.432a2.413 2.413 0 0 0-2.439 2.432v6.255h-2.633l.002.002Zm-81.47-1.282 6.472-3.762c.343-.2.555-.57.555-.968V7.703c0-.397-.212-.768-.555-.968l-6.472-3.761c-.343-.2-.77-.198-1.11 0l-6.473 3.761c-.343.2-.555.57-.555.968v13.444l-4.539 2.636-4.54-2.636v-5.275l4.54-2.636 2.993 1.74v-3.538l-2.438-1.418a1.113 1.113 0 0 0-1.11 0L5.26 13.78c-.343.2-.555.57-.555.968v7.523c0 .398.212.768.555.968l6.473 3.762c.343.197.767.197 1.11 0l6.473-3.762c.343-.2.555-.57.555-.968V8.827l.08-.047 4.457-2.59 4.539 2.637V14.1l-4.54 2.636L21.418 15v3.539l2.435 1.414c.343.198.769.198 1.11 0l.002.002Z" fill="#352610"></path></svg>