<svg xmlns:xlink="http://www.w3.org/1999/xlink" width="48" height="48" fill="none" xmlns="http://www.w3.org/2000/svg" id="svg1187797423_1620"><path d="M19.31 25.412h2.71v5.76h11.35v-5.76h5.591v2.88h2.88v5.59h-2.88v5.59h-2.71v2.88h-5.59v2.88H19.14v-2.88h-5.59v-2.88h-2.711v-5.59h-2.88v-2.71h11.35v-5.76Z" fill="#352610" fill-opacity="0.5"></path><path d="M7.959 19.652h11.35v2.88h2.711v-2.88h11.35v2.88h8.471v5.76h-2.88v-2.88h-5.59v5.76H22.02v-5.76h-2.71v5.76H7.959v-11.52Z" fill="#352610" fill-opacity="0.8"></path><path d="M13.55 2.71h2.88v2.88h2.88v2.88h2.71l-.015-1.768c-.001-.314.007-.628.015-.942.17-.17.17-.17.779-.186.252 0 .504.003.756.006l1.345.01V2.71h2.88v3.05H24.9v5.59h5.59v2.711h5.76v2.88h2.711v5.59h-5.59v-2.88H22.02v2.88h-2.71v-2.88h-8.471v-2.71h2.71v-2.88h5.591v-5.59h-2.71V5.76h-2.88V2.71Z" fill="#352610" fill-opacity="0.5"></path><path d="M13.719 22.532h2.71v5.76h-2.71v-5.76Z" fill="#FAF9FE"></path><path d="M27.78 22.701h2.71v5.421h-2.71v-5.42Z" fill="#FFFFFF"></path><path d="M24.9 22.701h2.71v5.421H24.9v-5.42Zm-14.061 0h2.71v5.421h-2.71v-5.42Z" fill="#352610"></path><path fill-rule="evenodd" clip-rule="evenodd" d="m27.79 35.227-.01-1.345H24.9v2.71h-8.47v2.88h8.47V36.78h.248l1.086.003h.931c.283-.012.386-.017.467-.062a.69.69 0 0 0 .143-.122l.005-.005.003-.118c.007-.274.013-.55.012-.824l-.004-.424Z" fill="#352610"></path><path d="M24.9 2.88h2.71v2.71H24.9V2.88Z" fill="#352610"></path><path fill-rule="evenodd" clip-rule="evenodd" d="M13.55 2.71h2.88v2.88h2.88v2.88h2.71a774.157 774.157 0 0 0-.015-1.768c-.001-.314.007-.628.015-.942.052-.052.088-.088.13-.113.096-.058.225-.062.649-.073.252 0 .504.003.756.006l1.345.01V2.71h2.88v3.05H24.9v5.59h-2.71v5.591h-3.05v-8.47h-2.71V5.76h-2.88V2.71Z" fill="#352610"></path></svg>