<svg xmlns:xlink="http://www.w3.org/1999/xlink" width="201" height="24" fill="none" xmlns="http://www.w3.org/2000/svg" id="svg315599946_6903"><g clip-path="url(#svg315599946_6903_a)" fill="none"><path fill-rule="evenodd" clip-rule="evenodd" d="M159.85 11.428v7.306c0 .385.045.707.134.966.089.26.219.47.389.633.17.163.382.281.634.355.275.077.559.115.845.111.46 0 .875-.11 1.245-.333.369-.22.67-.54.868-.921a2.79 2.79 0 0 0 .311-1.322v-6.795h3.092v11.68h-2.535l-.223-1.598h-.156c-.282.37-.615.7-.99.977-.378.281-.804.5-1.278.655a4.98 4.98 0 0 1-1.557.233c-1.187 0-2.128-.325-2.825-.977-.697-.651-1.045-1.702-1.045-3.153v-7.817h3.091Zm23.13-.267c1.187 0 2.187.211 3.003.633.815.422 1.431 1.074 1.846 1.954.415.882.623 2.018.623 3.41v.799h-8.163c.029.68.137 1.258.322 1.732s.475.825.868 1.055c.392.23.915.344 1.568.344.356 0 .678-.045.967-.134a2.06 2.06 0 0 0 .745-.4c.208-.177.371-.4.49-.665.118-.267.177-.57.177-.91h3.025c0 .74-.133 1.384-.4 1.931a3.778 3.778 0 0 1-1.112 1.366c-.475.363-1.042.637-1.702.822-.66.185-1.39.277-2.19.277-1.29 0-2.373-.218-3.247-.655-.875-.436-1.535-1.107-1.98-2.01-.445-.903-.667-2.05-.667-3.442 0-1.406.222-2.557.667-3.453.445-.895 1.101-1.562 1.968-1.999.868-.436 1.932-.655 3.192-.655Zm12.277 0c.682 0 1.32.07 1.913.211a5.277 5.277 0 0 1 1.557.622c.445.274.793.615 1.045 1.022.252.407.378.862.378 1.365v.29a.48.48 0 0 1-.022.177h-2.958v-.178a.99.99 0 0 0-.245-.677c-.163-.185-.397-.33-.7-.433-.305-.104-.671-.156-1.101-.156-.297 0-.567.022-.812.067-.22.036-.433.104-.634.2a1.157 1.157 0 0 0-.411.322.723.723 0 0 0-.145.455c0 .252.107.455.323.61.215.156.5.286.856.39.356.103.748.214 1.179.332.533.148 1.093.293 1.679.433a8.59 8.59 0 0 1 1.635.567c.488.224.91.572 1.223 1.01.311.437.467 1.025.467 1.765 0 .711-.138 1.31-.412 1.8a3.17 3.17 0 0 1-1.145 1.176c-.49.297-1.06.511-1.713.644-.652.133-1.356.2-2.112.2-.816 0-1.55-.089-2.202-.266-.653-.178-1.209-.426-1.668-.744-.46-.318-.812-.7-1.057-1.144a3.072 3.072 0 0 1-.367-1.51v-.178c0-.059.007-.103.022-.133h2.98v.178c.015.37.134.67.356.9.223.23.515.395.879.5.363.103.745.154 1.145.154a5.25 5.25 0 0 0 1.035-.1c.333-.066.615-.189.845-.366a.831.831 0 0 0 .345-.689.93.93 0 0 0-.434-.821c-.289-.192-.667-.348-1.134-.466a114.22 114.22 0 0 1-1.524-.4 22.67 22.67 0 0 1-1.512-.411 5.856 5.856 0 0 1-1.368-.61 2.997 2.997 0 0 1-.99-.989c-.252-.407-.378-.921-.378-1.543 0-.607.134-1.136.4-1.588a3.323 3.323 0 0 1 1.101-1.122 5.153 5.153 0 0 1 1.646-.655 9.368 9.368 0 0 1 2.035-.21Zm-137.334.267v7.306c0 .385.045.707.133.966.09.26.22.47.39.633.17.163.381.281.634.355.275.077.56.115.845.111.46 0 .875-.11 1.245-.333.37-.22.67-.54.868-.921a2.79 2.79 0 0 0 .31-1.322v-6.795h3.092v11.68h-2.535l-.222-1.598h-.156c-.282.37-.616.7-.99.977a4.43 4.43 0 0 1-1.279.655 4.974 4.974 0 0 1-1.556.233c-1.187 0-2.128-.325-2.825-.977-.697-.651-1.045-1.702-1.045-3.153v-7.817h3.091Zm71.258-.267c1.186 0 2.187.211 3.003.633.815.422 1.43 1.074 1.846 1.954.415.882.622 2.018.622 3.41v.799h-8.162c.029.68.137 1.258.323 1.732.185.474.474.825.867 1.055.392.23.915.344 1.568.344a3.28 3.28 0 0 0 .967-.134 2.06 2.06 0 0 0 .745-.4c.208-.177.371-.4.49-.665.118-.267.178-.57.178-.91h3.025c0 .74-.134 1.384-.401 1.931a3.778 3.778 0 0 1-1.112 1.366c-.475.363-1.042.637-1.701.822-.66.185-1.39.277-2.191.277-1.29 0-2.372-.218-3.247-.655-.875-.436-1.535-1.107-1.98-2.01-.445-.903-.667-2.05-.667-3.442 0-1.406.222-2.557.667-3.453.445-.895 1.101-1.562 1.969-1.999.867-.436 1.931-.655 3.191-.655Zm23.886-3.064v3.33h2.135v2.377h-2.135v6.085c0 .355.081.625.245.81.163.186.43.278.8.278h1.09v2.043c-.177.06-.385.115-.622.166-.238.052-.49.096-.756.134a5.468 5.468 0 0 1-.735.055c-.741 0-1.341-.133-1.801-.4a2.376 2.376 0 0 1-1.001-1.077 3.537 3.537 0 0 1-.311-1.499v-6.595h-1.446v-2.376h1.557l.578-3.331h2.402Zm-145.953 3.4 6.425 11.114 6.426-11.113 6.614 11.438a.116.116 0 0 1-.101.174H.6a.116.116 0 0 1-.1-.174l6.613-11.438Zm87.04-.336c.77 0 1.445.141 2.023.422.578.282 1.027.726 1.345 1.333.32.607.479 1.399.479 2.376v7.817h-3.092V15.78c0-.37-.044-.685-.133-.943a1.656 1.656 0 0 0-.39-.644 1.47 1.47 0 0 0-.633-.367 3.001 3.001 0 0 0-.845-.11c-.46 0-.875.11-1.246.332a2.33 2.33 0 0 0-.867.91c-.208.386-.311.83-.311 1.333v6.818h-3.092V11.428h2.558l.245 1.599h.155c.265-.384.592-.722.967-1a4.27 4.27 0 0 1 1.28-.644 5.221 5.221 0 0 1 1.556-.222Zm49.173 0c.77 0 1.445.141 2.024.422.578.282 1.026.726 1.345 1.333.319.607.478 1.399.478 2.376v7.817h-3.091V15.78c0-.37-.045-.685-.134-.943a1.642 1.642 0 0 0-.389-.644 1.469 1.469 0 0 0-.634-.367 2.999 2.999 0 0 0-.845-.11c-.46 0-.875.11-1.245.332a2.328 2.328 0 0 0-.868.91c-.208.386-.311.83-.311 1.333v6.818h-3.092V11.428h2.558l.245 1.599h.155a4.25 4.25 0 0 1 2.247-1.643 5.219 5.219 0 0 1 1.557-.223Zm-62.006 0c.74 0 1.382.134 1.923.4.542.267.968.7 1.28 1.3.31.6.466 1.373.466 2.32v7.928H81.9v-7.373c0-.37-.041-.685-.123-.944a1.565 1.565 0 0 0-.345-.622 1.34 1.34 0 0 0-.555-.344 2.242 2.242 0 0 0-.712-.11 1.93 1.93 0 0 0-1.112.332 2.257 2.257 0 0 0-.767.91c-.185.386-.278.83-.278 1.333v6.818h-3.092v-7.373c0-.37-.04-.685-.122-.944a1.565 1.565 0 0 0-.345-.622 1.341 1.341 0 0 0-.545-.344 2.219 2.219 0 0 0-.722-.11c-.4 0-.768.11-1.101.332a2.228 2.228 0 0 0-.779.91c-.185.386-.278.83-.278 1.333v6.818h-3.091V11.428h2.557l.245 1.599h.156a4.3 4.3 0 0 1 .9-1 3.82 3.82 0 0 1 1.18-.644c.455-.15.932-.226 1.412-.222.74 0 1.382.149 1.923.445.542.296.96.77 1.257 1.42h.155c.248-.38.556-.717.913-.999.365-.286.78-.504 1.223-.644.474-.15.97-.225 1.468-.222ZM42.266 7.875l5.871 15.234h-3.58l-1.09-2.998h-6.65l-1.09 2.998h-3.425l5.872-15.234h4.092Zm61.25 3.553V23.11h-3.092V11.428h3.092Zm72.014-.288c.252 0 .481.026.689.078.208.051.363.1.467.144v2.798h-.956c-.46 0-.864.063-1.212.188a2.115 2.115 0 0 0-.879.59 2.475 2.475 0 0 0-.522.976 4.913 4.913 0 0 0-.167 1.355v5.84h-3.091v-11.68h2.557l.245 1.82h.156c.143-.376.338-.731.578-1.055.236-.318.54-.58.89-.766.355-.192.77-.288 1.245-.288ZM52.43 7.054v16.055h-3.092V7.054h3.092Zm60.004.82 3.291 9.727c.059.164.126.36.2.589.074.23.148.455.223.677.074.222.133.422.178.6h.133c.059-.163.122-.352.189-.567.067-.214.134-.433.2-.655l.189-.621 3.292-9.75h3.447l-5.537 15.235h-3.87l-5.515-15.234h3.581-.001Zm-72.237 2.888h-.133c-.089.331-.185.66-.289.988-.119.377-.238.74-.356 1.088l-.29.855-1.355 3.752h4.737l-1.357-3.753c-.06-.162-.13-.358-.211-.588a21.47 21.47 0 0 1-.255-.766 47.836 47.836 0 0 1-.256-.833c-.074-.25-.152-.497-.234-.744Zm89.029 2.687c-.564 0-1.035.092-1.413.277a1.91 1.91 0 0 0-.867.844c-.2.378-.337.855-.412 1.433h4.938c0-.445-.056-.83-.167-1.155a2.2 2.2 0 0 0-.456-.8 1.72 1.72 0 0 0-.701-.455 2.779 2.779 0 0 0-.922-.144Zm53.799 0c-.564 0-1.035.092-1.412.277-.373.18-.678.476-.868.844-.2.378-.337.855-.411 1.433h4.937c0-.445-.055-.83-.167-1.155a2.2 2.2 0 0 0-.456-.8 1.72 1.72 0 0 0-.7-.455 2.778 2.778 0 0 0-.923-.144ZM13.439.559a.116.116 0 0 1 .2 0l4.19 7.243-4.29 7.417L9.25 7.802 13.44.558Zm90.077 6.494v2.665h-3.092V7.053h3.092Z" fill="#352610"></path></g><defs><clipPath id="svg315599946_6903_a"><path fill="#fff" transform="translate(.483 .5)" d="M0 0h200v23H0z"></path></clipPath></defs></svg>