<svg xmlns:xlink="http://www.w3.org/1999/xlink" width="33" height="48" fill="none" xmlns="http://www.w3.org/2000/svg" id="svg390373341_5770"><g clip-path="url(#svg390373341_5770_a)" fill="none"><path fill-rule="evenodd" clip-rule="evenodd" d="M1.232 6.765 7.92.217h17.59l6.686 6.558v9.823l-8.794-.006a.927.927 0 0 1-.058.548.791.791 0 0 1-.87.452l-.208-.078-.031-.015c-.034-.016-.07-.033-.11-.047a.916.916 0 0 0-.22-.04l-.035-.002c-.011 0-.023 0-.035-.002l-.04-.002h-.049c-.402-.013-1.24-.069-2.01-.29.088.114.201.245.331.381l.02.02c.068.077.16.165.27.253.127.11.243.194.353.262l.013.008.076.048a20.085 20.085 0 0 0 .653.402h4.93l5.815 5.926v16.852L25.51 47.83H7.92l-6.688-6.571.003-8.993h8.847a.367.367 0 0 0 .008-.038c.002-.012.004-.025.008-.037.1-.35.406-.554.757-.678.425-.14.285-.263.285-.263h-.004a5.597 5.597 0 0 1-.707.064c-.133 0-.48 0-.682-.298-.185-.27-.1-.545-.035-.723H7.046l-5.814-5.935V6.765Zm30.166.357L25.186 1.03H8.242L2.028 7.112v16.912l5.347 5.454 3.448.003c-.377.34-.5.69-.564.87l-.004.013-.031.087c-.116.315-.146.396.97.241.382-.055 1.08-.302 1.408-.523.322-.22.958-.042.903.435-.3.73-1.065 1.189-1.796 1.28-1.681.21-.954.837-.954.837.185.127.318.25.412.36h-.818v-.003H2.031l-.003 7.834 6.21 6.103h16.948l6.21-6.093V24.754l-5.347-5.447h-4.32a15.099 15.099 0 0 0-.597-.37v-.001a20.034 20.034 0 0 1-.634-.392v-.003h-.004a3.076 3.076 0 0 1-.474-.345 2.85 2.85 0 0 1-.337-.315c-.373-.39-.653-.795-.727-.983-.14-.345-.107-.78.207-.601.8.461 2.11.549 2.598.565.055 0 .448.045.542.075.097.038.246.11.246.11.198.084.556-.188.143-.692a3.787 3.787 0 0 0-.46-.571h9.164V7.122h.002ZM8.562 1.841 2.825 7.46v16.224l4.883 4.98h4.584c.17-.074.31-.13.428-.179.428-.173.567-.23.737-.573.033-.07.065-.27.068-.468.01-.055.108-.647-.178-.503-.218.11-.536.042-.886-.033-.436-.094-.924-.199-1.335.016-.74.383-.198-.506-.094-.66 0 0 .396-.521.993-.866a.333.333 0 0 0 .059-.04c.058-.032.117-.06.179-.089.454-.212 1.75-1.074 1.983-1.344.14-.156.386-.514.396-.712.042-.172.075-.444-.09-.551-.161-.106-.301-.008-.486.12-.1.07-.211.148-.346.208-.386.172-.678.243-1.023.256a2.259 2.259 0 0 1-.482-.052c-.142-.026-.268-.05-.365-.035-.198.032-.315-.118.049-.485l.046-.046c.133-.134.199-.2.269-.25.267-.17.525-.29.768-.401.543-.25 1.006-.463 1.306-1.144 0 0 .338-.882-.315-.506-.067.04-.129.082-.192.125-.268.185-.553.381-1.382.381-1.02 0-1.419.485-1.59.695 0 0-.695.971-.523-.39.175-1.356.438-2.048 1.077-2.578.2-.164.509-.35.844-.55.587-.354 1.257-.757 1.572-1.185.253-.251.89-.979.519-1.595-.086-.143-.239-.004-.425.165-.152.138-.326.296-.503.335-.448.118-1.016.263-1.451.175-.486-.096-.813.06-1.02.159l-.065.03c-.201.091-.581-.198-.117-.727.623-.711 2.13-1.64 3.143-2.195.14-.058.48-.208.792-.406a.7.7 0 0 0 .273-.198c.22-.185.373-.393.321-.604-.045-.191-.14-.256-.438-.289-.11-.01-.253.043-.408.101-.18.068-.375.14-.553.127-.127-.01-.268-.011-.404-.012-.412-.002-.785-.004-.6-.274.231-.335.604-.549.711-.607.108-.05.235-.106.39-.175l.51-.228c.646-.292.555-1.026.305-1.051a2.09 2.09 0 0 0-.36.013c-.43.038-.905.08-.341-.562 0 0 .35-.354.704-.585.219-.127.407-.192.611-.263l.175-.061c.172-.062.623-.461-.448-.504 0 0-.597.017-.484-.26.094-.181.62-.512.62-.512s.422-.29.594-.461c.166-.16.283-.286.273-.429-.004-.092-.141-.197-.292-.311-.115-.088-.238-.181-.315-.28-.127-.162-.02-.22.052-.24a.835.835 0 0 1 .14-.013c.434.003.558-.432.812-1.561l.016-.075c.06-.274.073-.335.174-.338l.015.002.009.002s.106.571.263 1.21c.133.354.278.504.535.5.052 0 .098.007.137.013.07.02.18.079.05.24a1.575 1.575 0 0 1-.167.169c-.111.101-.23.21-.244.286-.084.351.25.478.591.504.483.032.282.334-.24.72-.503.373.785 1.172.785 1.172.661.512.303.681.116.769-.02.01-.039.018-.054.027-.15.077-.562.33-.15.493.417.16.988.734.988.734.563.645.083.602-.349.563a2.118 2.118 0 0 0-.353-.014c-.25.025-.34.762.305 1.051l.46.207c.606.27.804.36 1.089.573.649.48.305.889-.506.746 0 0-.52-.13-.883-.058a1.8 1.8 0 0 0-.49.15c-.057.084-.185.418.944.765.538.169 1.207.575 1.802 1.04l9.26-.01-.002-7.503-5.736-5.626H8.562Zm13.982 18.277c.267.441.421 1.019.536 1.867.003.51-.669.262-.887.129a1.826 1.826 0 0 0-.613-.262c-.342-.082-1.013-.356-1.496-.553-.21-.086-.385-.157-.482-.192a.496.496 0 0 0-.6.212h.003c-.084.155.088.468.088.468.298.676.76.889 1.301 1.138.29.134.605.278.929.51 1.275.91.594 1.102.331.965-.259-.139-.687-.052-.687-.052-.742.204-1.11.038-1.482-.13a2.894 2.894 0 0 0-.46-.175c-.6-.163-.107.585.11.834.23.27 1.53 1.134 1.98 1.344.985.459 1.497 1.202 1.802 2.146.274.845.006.716-.221.607l-.039-.018c-.066-.032-.119-.074-.174-.117-.139-.11-.292-.231-.708-.221-.584.012-.912-.03-1.329-.358-.104-.08-.189-.173-.26-.25l-.012-.013c-.006-.003-.01-.006-.012-.01-.4-.304-.323.708-.24.874.17.345.31.401.744.577.296.12.728.295 1.401.654.773.413.967.964 1.053 1.209l.005.014.03.084c.116.315.146.397-.968.241-.386-.053-1.081-.299-1.412-.523-.318-.22-.957-.042-.9.435.299.73 1.065 1.189 1.796 1.279.64.082.929.221 1.045.364.35.4-.299.984-.299.984-.325.377.027.818.267.948.39.198 1.145.652 1.396 1.302 1.234 3.176.183 2.506-.463 2.095l-.116-.073c-.111-.07-.24-.158-.384-.256-.66-.452-1.618-1.108-2.505-1.037l-.158.013c-.96.077-1.316.105-1.926-.38-.64-.51-.577.316-.577.316v4.07c.038.912.207 1.782.932 2.52.244.25.465.378.698.514.333.193.692.401 1.184 1.003.386.47 1.646.977 2.487.986l1.613.003 5.736-5.626v-15.49l-4.878-4.97h-3.179ZM2.83 33.893l-.004 6.671 5.737 5.63h1.844c1.57-.077 2.25-1.186 2.755-2.009.053-.086.104-.169.154-.247.278-.441.708-.835 1.093-1.189.162-.149.317-.29.449-.426.47-.477.555-1.568.568-2.75v-2.466l.003.025v-.59h.003v-1.548c0-.248-.285-.267-.908.408-.53.569-1.363.617-1.974.651-.111.007-.215.013-.308.021-.607.055-2.354.965-2.854 1.617-.309.405-.747.071-.568-.728h-.007c.085-.36.24-.844.49-1.483.344-.892 1.637-1.415 1.637-1.415s.133-.06.25-.172H2.83Z" fill="#352610"></path></g><defs><clipPath id="svg390373341_5770_a"><path fill="#fff" transform="translate(.978)" d="M0 0h31.352v48H0z"></path></clipPath></defs></svg>