<svg xmlns:xlink="http://www.w3.org/1999/xlink" width="133" height="32" fill="none" xmlns="http://www.w3.org/2000/svg" id="svg-1040796814_5535"><path d="M34.918 1.024v12.989h8.109v-2.787h-4.96V.996h-3.149v.028Zm7.829 6.522c0 1.951.641 3.54 1.923 4.794 1.31 1.255 2.87 1.896 4.737 1.896s3.428-.641 4.737-1.896c1.282-1.254 1.923-2.843 1.923-4.794 0-1.951-.641-3.54-1.923-4.794C52.862 1.498 51.302.856 49.407.856s-3.455.642-4.737 1.896-1.923 2.87-1.923 4.794Zm10.115 0c0 1.143-.306 2.063-.947 2.732-.64.697-1.449 1.031-2.48 1.031-1.059 0-1.895-.334-2.508-1.031-.64-.697-.92-1.59-.92-2.732 0-1.143.307-2.063.92-2.76.641-.668 1.477-1.03 2.508-1.03s1.867.362 2.48 1.03c.64.697.947 1.59.947 2.76Zm12.789-6.522v7.47l-5.377-7.47h-3.066v12.989h3.15V6.459l5.628 7.554h2.842V1.023h-3.177Zm4.291 6.522c0 1.95.641 3.54 1.923 4.794 1.31 1.254 2.87 1.895 4.737 1.895 1.783 0 3.26-.585 4.459-1.784 1.198-1.198 1.81-2.731 1.81-4.627 0-.53-.055-.975-.139-1.366h-7.384v2.453h4.208c-.112.809-.446 1.45-1.031 1.868-.585.446-1.254.64-1.979.64-1.03 0-1.867-.361-2.452-1.058-.64-.697-.92-1.645-.92-2.815 0-1.171.307-2.091.92-2.788.585-.697 1.421-1.059 2.425-1.059 1.31 0 2.2.585 2.674 1.672h3.54c-.335-1.449-1.087-2.564-2.202-3.344C79.39 1.274 78.107.884 76.63.884c-1.895 0-3.455.64-4.737 1.895-1.338 1.227-1.95 2.843-1.95 4.767Zm16.274 6.885h1.115v-6.69h7.022v6.69h1.115V.941h-1.115v5.853h-7.022V.94h-1.115v13.491Zm27.614.251c2.647 0 4.375-1.589 4.375-3.68 0-2.062-1.31-2.898-2.842-3.595l-2.034-.892c-.976-.418-2.313-1.003-2.313-2.537 0-1.393 1.142-2.285 2.87-2.285 1.337 0 2.396.53 3.177 1.366l.64-.725c-.863-.92-2.201-1.617-3.817-1.617-2.313 0-4.013 1.394-4.013 3.4 0 1.98 1.533 2.844 2.731 3.374l2.034.891c1.338.586 2.397 1.115 2.397 2.732 0 1.533-1.254 2.592-3.233 2.592-1.532 0-2.925-.697-3.901-1.784l-.696.78a6.256 6.256 0 0 0 4.625 1.98Zm7.19-.252h1.115V7.742h7.022v6.69h1.114V.94h-1.114v5.853h-7.022V.94h-1.115v13.49Zm-19.673-7.86a113.4 113.4 0 0 0 1.477-4.627h.083c.474 1.617.92 3.066 1.477 4.627l1.115 3.345 1.504 4.543h1.199L103.465.968h-1.143l-4.737 13.49H98.7l2.647-7.888ZM37.508 28.145h1.198l2.647-8.279h-1.058l-1.338 4.488c-.306.975-.501 1.756-.808 2.731h-.056c-.306-.975-.501-1.756-.808-2.731l-1.337-4.488H34.86l2.647 8.279Zm10.7 0h4.904v-.892h-3.845v-3.01h3.148v-.893h-3.148v-2.592H53v-.92h-4.793v8.307Zm12.344 0h1.003v-4.349c0-.864-.083-1.756-.111-2.592h.056l.891 1.7 3.01 5.24h1.087v-8.306h-1.004v4.32c0 .865.084 1.785.14 2.62h-.056l-.892-1.7-3.037-5.24h-1.087v8.307Zm15.605 0h1.059v-7.387h2.508v-.92h-6.075v.892h2.508v7.415Zm13.682.139c1.7 0 2.981-.892 2.981-3.568v-4.878h-1.003v4.906c0 2.007-.864 2.62-1.978 2.62-1.087 0-1.923-.613-1.923-2.62v-4.906h-1.059v4.878c.028 2.648 1.31 3.568 2.982 3.568Zm10.923-.139h1.058v-3.512h1.505l2.006 3.512h1.199l-2.118-3.624c1.142-.279 1.867-1.031 1.867-2.313 0-1.729-1.198-2.342-2.898-2.342h-2.592v8.279h-.027Zm1.058-4.377v-3.066h1.394c1.309 0 2.006.39 2.006 1.478 0 1.059-.725 1.588-2.006 1.588h-1.394Zm11.843 4.377h4.904v-.892h-3.846v-3.01h3.149v-.893h-3.149v-2.592h3.734v-.92h-4.792v8.307Zm14.658.139c1.727 0 2.814-1.031 2.814-2.341 0-1.227-.752-1.784-1.7-2.202l-1.198-.502c-.641-.279-1.365-.585-1.365-1.366 0-.752.613-1.226 1.56-1.226.78 0 1.365.306 1.895.78l.557-.669a3.374 3.374 0 0 0-2.452-1.03c-1.505 0-2.619.919-2.619 2.201 0 1.199.919 1.784 1.672 2.118l1.198.53c.78.362 1.393.613 1.393 1.477 0 .809-.669 1.366-1.728 1.366-.863 0-1.699-.418-2.284-1.031l-.641.724a4.15 4.15 0 0 0 2.898 1.171Z" fill="#352610"></path><path d="m28.146 11.393-10.06 2.537c-2.173-1.2-2.841-2.119-3.399-3.986l3.455 2.006 8.137-2.146c.502.697.892 1.031 1.867 1.589Z" fill="#111827"></path><path d="M18.087 15.964V13.9l10.059-2.536v1.45c-.084.39-.195.529-.585.724l-9.474 2.425Z" fill="#4B5563"></path><path d="m18.086 15.964-1.727-1.003v2.007l2.257 1.337v4.042l-2.257.585v4.32l10.059-2.73V13.817l-8.332 2.146Z" fill="#111827"></path><path d="m16.36 18.89-3.54-2.062 2.202-.585 3.595 2.062v4.042l-2.257.585v-4.041Zm11.256-2.926-1.198-.67v-1.449l.669-.139v.056l2.786 1.589v4.125l-2.257.53v-4.042Zm-9.53 12.376-1.727-1.06 3.315-.947 1.784.948v2.118l-3.4.864V28.34h.028Zm6.661.195v-2.063l-1.728-1.003 3.316-.92 1.783 1.059v2.063l-3.371.864Z" fill="#4B5563"></path><path d="m1.2 6.208 3.456 2.063v3.846l3.455 2.007v1.06l-1.477.39 2.982 1.728v6.104l-2.982-1.728v-3.652l-2.006-1.198v-4.71L1.2 10.11V6.208Z" fill="#374151"></path><path d="m1.2 6.208 3.316-.864 3.455 2.063v3.93l2.202 1.254v4.516l-.585.195-2.926-1.728 1.477-.39v-1.06l-3.456-2.007V8.271L1.2 6.208Z" fill="#6B7280"></path><path d="m10.173 23.685-.53-.28v-6.103l.53-.196v6.579Z" fill="#4B5563"></path><path d="m18.088 30.263-7.914-4.572V3.951c.056-.28.084-.419.279-.586l4.18 2.453v2.006l3.538 2.063v2.063l-3.455-1.923c.613 1.895 1.338 2.759 3.4 3.93v2.062l-1.728-1.003v2.007l-1.338-.725-2.2.585 3.538 2.063v8.39l1.728 1.003v1.924h-.028Z" fill="#374151"></path><path d="M11.65 6.877c.14-.586.975-.697 1.337 0-.64.306-.808.53-.334 1.254-.697-.056-1.143-.669-1.003-1.254Z" fill="#352610"></path><path d="M10.451 3.337c.084-.139.167-.195.335-.278L19.507.857c.53-.028.78.028 1.198.14l3.93 2.257V5.26l3.538 2.062v1.394c-.055.39-.167.557-.473.725l-9.53 2.453V9.832l-3.54-2.063V5.762l-4.179-2.425Z" fill="#6B7280"></path><path d="m27.616 15.964-1.198-.67v4.126l1.198.585v-4.041Zm-2.87 10.508-1.728-1.004-2.34.586 4.068 2.397v-1.98Z" fill="#374151"></path><path fill-rule="evenodd" clip-rule="evenodd" d="m19.034 18.11.864-.195v-1.672l1.198-.28v1.673l1.727-.39v-1.784l1.143-.195v1.672l.808-.195v1.199l-.808.195v2.732l.808-.196v1.255l-.808.195v1.672l-1.143.28v-1.534l-1.727.39v1.533l-1.198.335v-1.59l-.864.195v-1.254l.864-.195v-2.593l-.864.196v-1.45Zm3.79.39-1.728.474v2.593l1.727-.474V18.5Z" fill="#FFFFFF"></path></svg>