<svg xmlns:xlink="http://www.w3.org/1999/xlink" width="80" height="28" fill="none" xmlns="http://www.w3.org/2000/svg" id="svg-685900299_1097"><g clip-path="url(#svg-685900299_1097_a)" fill="#352610"><path d="M28.512 14.77c0 8.236-5.738 13.23-13.23 13.23C6.783 27.947.726 21.73.726 14.027.672 6.323 6.888.053 14.592 0h.213c5.153 0 9.51 2.55 11.742 6.163L21.34 9.14c-1.116-1.754-3.56-3.135-6.588-3.135-4.517 0-7.917 3.347-7.917 8.076 0 4.569 3.241 7.916 8.448 7.916 3.56 0 5.897-1.594 6.907-4.144h-7.173v-5.42h13.495v2.338Zm2.338-.797C30.85 6.057 36.694 0 44.77 0c4.676-.053 9.033 2.285 11.53 6.216l-5.313 3.082c-1.17-2.072-3.507-3.294-6.217-3.294-4.781 0-7.863 3.188-7.863 7.97 0 4.781 3.082 7.969 7.863 7.969 2.71 0 5.048-1.222 6.217-3.294L56.3 21.73c-2.497 3.985-6.854 6.376-11.53 6.27-8.076-.053-13.92-6.11-13.92-14.027Zm37.404 4.623h-2.922v8.82H59.17V.53H69.9c5.101 0 9.192 4.091 9.245 9.192v.053c-.053 3.347-1.966 6.323-4.941 7.81l5.738 9.883h-6.588l-5.1-8.873Zm-2.869-5.367h4.623c1.7 0 3.081-1.487 3.081-3.453 0-1.966-1.381-3.453-3.081-3.453h-4.623v6.906Z" fill="#352610"></path></g><defs><clipPath id="svg-685900299_1097_a"><path fill="#fff" transform="translate(.725)" d="M0 0h79.218v28H0z"></path></clipPath></defs></svg>