<svg xmlns:xlink="http://www.w3.org/1999/xlink" width="130" height="40" fill="none" xmlns="http://www.w3.org/2000/svg" id="svg1835653744_2062"><g clip-path="url(#svg1835653744_2062_a)" fill="#352610"><path d="M57.632 23.055h-1.17l-3.288-6.11h1.388l2.485 4.62 2.485-4.62h1.387l-3.287 6.11Zm12.54-6.11v1.22h-6.21v-1.22h6.21Zm-6.21 3.668V19.39h6.212v1.222h-6.213Zm6.212 1.22v1.222h-6.213v-1.221h6.213Zm4.26-3.428v4.65h-1.222v-6.11h1.484l4.731 4.653v-4.653h1.221v6.11h-1.481l-4.733-4.65Zm16.076-1.46v1.22h-2.853v4.89h-1.221v-4.89h-2.75v-1.22h6.824Zm5.483 6.11c-.652 0-1.227-.24-1.725-.717-.479-.498-.718-1.073-.718-1.725v-3.668h1.222v3.668a1.225 1.225 0 0 0 1.22 1.22h2.242a1.225 1.225 0 0 0 1.222-1.22v-3.668h1.221v3.668c0 .652-.238 1.227-.713 1.725-.501.478-1.078.717-1.73.717h-2.241Zm8.945-2.037v2.037h-1.222v-6.11h4.326c.36-.004.715.091 1.025.275a2.036 2.036 0 0 1-.129 3.592l1.192 2.22h-1.388l-1.079-2.015-2.725.001Zm0-2.852v1.631h3.104a.817.817 0 0 0 0-1.631h-3.104Zm14.445-1.221v1.22h-6.213v-1.22h6.213Zm-6.213 3.668V19.39h6.213v1.222h-6.213Zm6.213 1.22v1.222h-6.213v-1.221h6.213Zm3.667-1.686a1.819 1.819 0 0 1-.38-2.29 1.88 1.88 0 0 1 .664-.665 1.77 1.77 0 0 1 .92-.247h5.092v1.22h-5.092a.604.604 0 0 0-.414 1.052.74.74 0 0 0 .393.15c.177.02.355.03.534.029h.106c.479.008.957.01 1.435.004h.141c.233-.003.465-.007.696-.013.08 0 .161-.001.244-.004.201-.005.403.003.603.025.221.026.435.088.635.184.526.27.85.698.973 1.285.052.27.043.55-.025.816a1.806 1.806 0 0 1-1.02 1.204 1.764 1.764 0 0 1-.734.158h-5.193v-1.221h5.193a.593.593 0 0 0 .44-.202.588.588 0 0 0 .14-.525.572.572 0 0 0-.311-.419c-.182-.074-.409-.102-.679-.085a59.071 59.071 0 0 1-.952.017h-.142c-.486.008-.975.007-1.468-.005h-.095a4.514 4.514 0 0 1-.843-.067 1.854 1.854 0 0 1-.861-.4Zm-96.478 7.198-2.446-5.42-2.446 5.42h-4.402l-2.447-5.42-2.446 5.42H7.982l6.85-15.164 4.646 10.293 4.648-10.293 6.848 15.164h-4.402Zm12.876 0h-3.913v-5.38h-4.943l-1.663-3.913h6.605V12.67h3.915v14.675Z" fill="#352610"></path><path d="M46.487 40H.943V0h45.544v40ZM3.85 37.093h39.73V2.907H3.85v34.186Z" fill="#352610"></path></g><defs><clipPath id="svg1835653744_2062_a"><path fill="#fff" transform="translate(.943)" d="M0 0h128.657v40H0z"></path></clipPath></defs></svg>