<svg xmlns:xlink="http://www.w3.org/1999/xlink" width="41" height="40" fill="none" xmlns="http://www.w3.org/2000/svg" id="svg457884081_562"><path fill-rule="evenodd" clip-rule="evenodd" d="M3.543 5.429H24.32L4.643 35.219l-1.43-.945 17.92-27.131H3.543V5.429Zm19.861 6.715L9.544 33.43h13.532v1.714H6.382L21.968 11.21l1.436.935Z" fill="#000"></path><path fill-rule="evenodd" clip-rule="evenodd" d="M37.136 7.335c-9.624-1.438-16.73 5.407-16.73 12.967 0 7.55 6.996 14.266 16.743 12.965l.85-.114.226 1.7-.85.113c-10.678 1.426-18.684-5.983-18.684-14.664 0-8.671 8.102-16.245 18.698-14.662l.848.126-.254 1.696-.847-.127Z" fill="#000"></path></svg>