<svg xmlns:xlink="http://www.w3.org/1999/xlink" width="108" height="40" fill="none" xmlns="http://www.w3.org/2000/svg" id="svg1668086365_8911"><g clip-path="url(#svg1668086365_8911_a)" fill="none"><path d="M33.517 3.412c.579.644.78 1.344.744 2.203-.14 1.08-.507 2.156-1.288 2.938l.319.001c.995.004 1.99.01 2.986.02.512.004 1.023.008 1.535.01.494.001.989.005 1.483.01l.564.003c2.2.002 2.2.002 3.12.744l.177.223.183.222c.451.689.463 1.36.382 2.161-.19.754-.589 1.282-1.244 1.698-.471.232-.894.257-1.41.252h-.25c-.273 0-.545-.002-.818-.004l-.568-.001c-.498 0-.995-.003-1.493-.006l-1.525-.004a993.92 993.92 0 0 1-2.989-.011l.11.255c.174.462.21.85.117 1.329a20.09 20.09 0 0 1-.41.849c-.35.657-.35.657-.319 1.379l.083.234c.212.673.191 1.467-.11 2.106a3.43 3.43 0 0 1-.553.715c-.299.332-.357.663-.445 1.096-.211 1.03-.649 1.743-1.527 2.334-2.208 1.328-5.156 1.28-7.582.678-.772-.202-1.53-.437-2.26-.76a28.468 28.468 0 0 1-.828-.377c-.575-.147-.988-.033-1.55.12l-.326.084c-.453.121-.906.246-1.358.374a826.91 826.91 0 0 1-.634.174c-.41.066-.721.015-1.072-.208-1.534-1.35-2.489-3.208-2.628-5.25-.148-3.122.675-5.87 2.057-8.64.959-.015 1.902.03 2.857.113a1918.255 1918.255 0 0 0 1.33.113l.062-.2c.566-1.776 1.737-2.923 3.366-3.784 1.496-.746 3.131-1.022 4.779-1.182 1.596-.16 2.824-.68 4.126-1.623.188-.13.376-.26.566-.388l.233-.163c.668-.389 1.362-.197 2.008.163Z" fill="#9CA3AF"></path><path d="M33.517 3.412c.579.644.78 1.344.744 2.203-.14 1.08-.507 2.156-1.288 2.938l.319.001c.995.004 1.99.01 2.986.02.512.004 1.023.008 1.535.01.494.001.989.005 1.483.01l.564.003c2.2.002 2.2.002 3.12.744l.177.223.183.222c.451.689.463 1.36.382 2.161-.19.754-.589 1.282-1.244 1.698-.471.232-.894.257-1.41.252h-.25c-.273 0-.545-.002-.818-.004l-.568-.001c-.498 0-.995-.003-1.493-.006l-1.525-.004a993.92 993.92 0 0 1-2.989-.011l.11.255c.174.462.21.85.117 1.329a20.09 20.09 0 0 1-.41.849c-.35.657-.35.657-.319 1.379l.083.234c.212.673.191 1.467-.11 2.106a3.43 3.43 0 0 1-.553.715c-.299.332-.357.663-.445 1.096-.211 1.03-.649 1.743-1.527 2.334-2.208 1.328-5.156 1.28-7.582.678-.772-.202-1.53-.437-2.26-.76a28.468 28.468 0 0 1-.828-.377c-.575-.147-.988-.033-1.55.12l-.326.084c-.453.121-.906.246-1.358.374a826.91 826.91 0 0 1-.634.174c-.41.066-.721.015-1.072-.208-1.534-1.35-2.489-3.208-2.628-5.25-.148-3.122.675-5.87 2.057-8.64.959-.015 1.902.03 2.857.113a1918.255 1918.255 0 0 0 1.33.113l.062-.2c.566-1.776 1.737-2.923 3.366-3.784 1.496-.746 3.131-1.022 4.779-1.182 1.596-.16 2.824-.68 4.126-1.623.188-.13.376-.26.566-.388l.233-.163c.668-.389 1.362-.197 2.008.163Zm-2.043 1.294c-1.785 1.397-3.714 1.849-5.93 2.07-1.976.2-3.79.905-5.173 2.378-.757.957-1.11 1.96-1.096 3.161l.001.255c.002.208.003.415.006.622H18.15l.004-.293.003-.379.004-.378c.024-.298.024-.298-.124-.421a22.136 22.136 0 0 0-.891-.064l-.263-.014a29.745 29.745 0 0 0-2.014-.035c-.568 1.34-1.058 2.647-1.358 4.073l-.06.264c-.36 2.036-.166 4.192.901 5.974.131.186.265.37.404.551l.173.231c.178.222.178.222.505.448.646-.043 1.267-.225 1.89-.392l.312-.083a567.224 567.224 0 0 0 1.964-.52l.61-.163.281-.074.245-.065c.267-.067.538-.12.809-.174l.226 1.132-.679.113c1.719 1.146 4.45 1.277 6.425.937 1.008-.206 2.044-.479 2.797-1.213a3.3 3.3 0 0 0 .436-1.232c.118-.757.373-1.194.865-1.773.237-.356.255-.443.248-.849l-.003-.265c-.01-.265-.01-.265-.132-.584-.113-.925.017-1.533.53-2.311.18-.351.189-.581.15-.97-.31-.428-.636-.538-1.132-.679a13.243 13.243 0 0 0-.778-.07c-.13-.01-.261-.018-.395-.026l-.298-.017v-1.132l.433.003c1.349.006 2.697.012 4.046.015.693.002 1.387.004 2.08.008.669.004 1.338.006 2.007.007l.766.003c.358.003.715.003 1.073.003l.32.004c.725-.004 1.207-.125 1.764-.623.257-.454.259-.832.184-1.343-.146-.372-.274-.52-.599-.748-.635-.238-1.247-.202-1.92-.196h-.458c-.414 0-.827.002-1.24.004l-1.299.003c-.819.001-1.637.004-2.456.007-.932.004-1.864.006-2.797.008-1.917.003-3.834.009-5.751.017l.113-1.132.396.055c1.735.215 3.89.19 5.374-.847.714-.592 1.05-1.444 1.175-2.348.022-.478-.004-.75-.241-1.174-.529-.44-.85-.132-1.301.24Z" fill="#352610"></path><path d="M32.52 4.253c-.326 1.079-1.217 1.626-2.155 2.146-1.04.556-2.119 1.031-3.204 1.492-2.206.919-2.206.919-4.258 2.133l-.32.22c-.985.729-1.574 1.698-2.212 2.722-.576.923-1.148 1.794-1.881 2.603l-.246.277c-.785.84-1.569 1.435-2.745 1.488-.795.007-1.43-.064-2.101-.52.089-1.853.756-3.52 1.47-5.206.762-.011 1.518.008 2.278.05l.26.013c.617.037.617.037.744.164.009.228.01.457.007.685l-.003.38-.004.292h1.132l-.02-.344c-.057-1.42.205-2.61 1.151-3.723 1.581-1.624 3.566-2.25 5.764-2.461 2.173-.21 3.92-.82 5.613-2.22.278-.19.278-.19.73-.19Z" fill="#6B7280"></path><path d="M60.21.278h.317a449.333 449.333 0 0 1 1.792-.003 1489.948 1489.948 0 0 1 3.306-.001l4.217-.002h.459c1.224 0 2.45 0 3.675-.003a2796.5 2796.5 0 0 1 5.906-.003 691.72 691.72 0 0 1 2.726-.001c1.727-.005 3.444.021 5.109.537L88 .89c3.032.985 5.614 3.102 7.206 5.854l.221.379c1.648 3.06 1.914 6.707.922 10.016-1.105 3.425-3.438 6.065-6.605 7.737-2.502 1.264-5.165 1.347-7.9 1.346l-.716.001-1.934.002h-1.212l-4.235.002c-1.311 0-2.622 0-3.933.003l-3.39.002-2.018.001a633.867 633.867 0 0 1-2.593.001c-4.388.012-8.072-.942-11.27-4.063-2.704-2.842-3.52-6.357-3.44-10.174.118-3.197 1.855-6.2 4.12-8.38C53.758 1.403 56.852.272 60.21.278Z" fill="#352610"></path><path d="M61.168 7.825c.386.176.597.444.797.816.18.518.133 1.061.116 1.603l-.007.365a63.9 63.9 0 0 1-.022.886l.239-.005c.359-.007.718-.012 1.077-.016l.375-.008c.75-.007 1.315.005 1.89.543.433.566.566.92.493 1.636-.221.605-.556.957-1.132 1.245-.221.01-.443.012-.665.01h-.4l-.42-.003-.422-.002-1.035-.005.008.238c.009.36.015.718.02 1.077.005.124.008.248.012.376.009.72 0 1.16-.492 1.703-.384.338-.633.55-1.146.602-.52-.043-.936-.153-1.343-.488-.542-.701-.508-1.338-.481-2.2l.006-.382c.005-.309.012-.617.022-.926l-.268.01c-.403.015-.807.024-1.21.032l-.422.018c-1.16.018-1.16.018-1.636-.374-.377-.382-.57-.768-.58-1.306.015-.545.148-.904.495-1.322.717-.55 1.377-.507 2.256-.481l.398.006c.322.005.645.013.967.022l-.007-.238c-.01-.36-.016-.718-.021-1.077l-.012-.375c-.009-.718-.004-1.167.492-1.704.621-.541 1.308-.597 2.058-.276Zm19.576 3.628c.506.279.85.653 1.11 1.174.082.796.05 1.498-.453 2.15-.574.457-1.044.606-1.763.597-.596-.07-1.035-.337-1.447-.76-.364-.574-.51-1.078-.41-1.761.216-.703.602-1.124 1.244-1.471.608-.203 1.14-.194 1.719.07Zm7.924-.077c.536.316.938.686 1.22 1.25.082.798.05 1.5-.453 2.15-.602.48-1.097.614-1.851.605-.662-.086-1.08-.446-1.48-.958-.277-.51-.328-.879-.29-1.457.239-.727.583-1.145 1.217-1.563.563-.206 1.074-.268 1.637-.027ZM84.934 7.38c.548.266.896.73 1.107 1.286.113.633.084 1.181-.233 1.747-.304.41-.628.712-1.125.856-.638.082-1.168.091-1.754-.191-.6-.556-.931-1.013-.997-1.839.024-.669.303-1.1.757-1.577.651-.543 1.456-.508 2.245-.281Zm-.251 7.962c.573.206 1.019.571 1.287 1.123.175.582.186 1.173-.03 1.745-.293.522-.669.922-1.257 1.093-.641.082-1.17.094-1.754-.198-.093-.084-.186-.169-.283-.255l-.254-.22c-.412-.485-.47-.948-.452-1.567.076-.69.467-1.055.975-1.472.522-.385 1.147-.316 1.768-.249Z" fill="#FFFFFF"></path><path d="M69.521 17.492h5.092v1.357H69.52v-1.357Z" fill="#6B7280"></path><path d="M1.178 34.69H5.59v.68h.679v2.263h-.68v.679H2.763v1.358H1.178v-4.98Zm1.584.793v2.037h2.037v-2.037H2.762Zm33.04-.793h2.941v.68h.68v.792h-1.585v-.679h-1.244v1.245h2.828v.792h.68v1.47h-.68v.68h-3.62v-.68h-.792v-.79h1.584v.678h2.036v-1.244h-2.828v-.792h-.792V35.37h.792v-.68Zm44.355 1.359h4.413v.679h.679v1.584h-.68v.679h-2.828v1.358h-1.584v-4.3Zm1.584.792v1.358h1.924V36.84H81.74Zm-68.57-.792h3.734v.679h.68v1.584h-3.508v.566h2.828v.792h-3.734v-.68h-.678v-2.262h.678v-.68Zm.906.792v.679H16v-.68h-1.923Zm32.927-.792h3.734v.679h.678v2.942h-4.412v-.68h-.68v-.79h.68v-.68h2.828v-.678h-2.828v-.792Zm.905 2.263v.566h1.923v-.566H47.91Zm27.383-2.263h3.62v.679h.68v2.942h-4.3v-.68h-.793v-.79h.793v-.68h2.715v-.678h-2.715v-.792Zm.792 2.263v.566h1.923v-.566h-1.923Zm21.724-2.263h3.621v.679h.679v2.942h-4.3v-.68h-.678v-.79h.678v-.68h2.829v-.678h-2.829v-.792Zm.793 2.263v.566h2.036v-.566h-2.036ZM70.313 34.69h2.942v.68h.678v.792h-1.47v-.679h-1.358v.679h-.68v2.037h.68v.678h1.358V38.2h1.47v.792h-.678v.679h-2.942v-.68h-.68v-.678h-.791V36.05h.792v-.68h.679v-.678ZM18.83 36.049h3.62v.792h-2.829v.679h2.83v.679h.791v.792h-.792v.679h-4.3v-.792h3.508v-.566H18.83v-.68h-.679v-.904h.68v-.68Zm5.657 0h3.62v.792H25.28v.679h2.829v.679h.678v.792h-.678v.679h-4.3v-.792h3.508v-.566h-2.83v-.68h-.678v-.904h.679v-.68Zm79.658-1.359h2.263v4.188h1.358v.792h-4.3v-.793h1.358v-3.394h-.679v-.792Zm-10.523 0h1.47v1.359h1.359v.792h-1.358v2.829h-1.471v-2.83h-1.471v-.791h1.471V34.69Zm-33.832 0h1.47v1.359h1.359v.792H61.26v2.829h-1.47v-2.83h-1.471v-.791h1.47V34.69Zm-16.973 0h1.471v1.359h1.471v.792h-1.471v2.829h-1.471v-2.83h-1.358v-.791h1.358V34.69Zm44.355 1.359h2.264v2.829h1.47v.792h-4.413v-.792h1.472V36.84h-.793v-.792Zm-34.511 0h1.584v.679h.566v-.68h2.263v.793h-2.15v.792h-.678v2.037H52.66v-3.621Zm-45.034 0h1.471v.679h.566v-.68h2.263v.793h-2.15v.792h-.679v2.037h-1.47v-3.621Zm80.337-1.359h1.471v.793h-1.47v-.792Z" fill="#352610"></path></g><defs><clipPath id="svg1668086365_8911_a"><path fill="#fff" transform="translate(.6)" d="M0 0h107v40H0z"></path></clipPath></defs></svg>