<svg xmlns:xlink="http://www.w3.org/1999/xlink" width="87" height="32" fill="none" xmlns="http://www.w3.org/2000/svg" id="svg835248890_4385"><g clip-path="url(#svg835248890_4385_a)" fill="#352610"><path d="M15.148 3.528c.082.013.109.12.045.173-.837.699-1.144 1.667-1.475 2.701-.59 1.854-.59 3.766.019 5.603a.183.183 0 0 1-.197.24 4.545 4.545 0 0 1-2.288-.957c-.616-.483-.976-1.152-1.488-1.73-.654-.734-1.384-1.126-2.195-1.174-.115-.008-.163-.067-.144-.179.339-2.264.75-4.445 1.235-6.539A4.8 4.8 0 0 1 9.244.221.3.3 0 0 1 9.457.08c.493-.067.95.136 1.365.608 1.238 1.408 2.518 2.533 4.326 2.84Z" fill="#352610"></path><path d="M.27 8.699v-.731c.14-.328.504-1.107 1.096-2.333.515-1.064.432-2.107-.248-3.123a.218.218 0 0 1-.013-.243C1.932.707 3.569.773 4.795 1.821c.723.616 1.731.923 2.67.846a.098.098 0 0 1 .104.112A115.13 115.13 0 0 1 6.43 9.096c-.141.675.456 1.099.819 1.544a.396.396 0 0 1-.323.645 1.95 1.95 0 0 1-1.173-.45c-.85-.678-1.69-1.507-2.693-1.947a6.662 6.662 0 0 0-1.32-.416c-.456-.09-.947-.016-1.47.227Zm16.308-6.812-.01-.002a.24.24 0 0 0-.28.193l-3.01 16.561a.24.24 0 0 0 .194.28l.01.001a.24.24 0 0 0 .28-.193l3.01-16.56a.24.24 0 0 0-.194-.28Z" fill="#352610"></path><path d="M8.153 9.45a1.711 1.711 0 0 0-.15.649c-.005.19-.085.23-.237.12-.28-.2-.472-.464-.573-.798a.256.256 0 0 1 .107-.288c.189-.125.41-.154.658-.088a.295.295 0 0 1 .195.406Zm30.187 5.47c2.936-1.71 7.048-.808 8.802 2.205.056.099.035.179-.064.235l-2.064 1.186c-.093.054-.17.035-.226-.058-1.528-2.49-5.016-2.528-6.358.2-.925 1.885-.888 3.752.112 5.597 1.115 2.05 3.726 2.421 5.464.981.344-.285.592-.613.747-.989a.17.17 0 0 1 .243-.083l2.112 1.238c.088.05.112.168.053.25-1.715 2.438-4.043 3.398-6.984 2.878-.933-.163-1.819-.587-2.656-1.27-3.79-3.085-3.56-9.818.819-12.37Zm-20.587 5.907c1.085.637 1.805 1.66 1.901 2.914.171 2.246-.618 4.21-3.024 4.614-1.018.17-2.216.218-3.592.146-.04-.002-.058-.024-.05-.064.229-1.39.397-2.23.501-2.522.008-.024.024-.032.048-.03 2.408.355 3.48-.341 3.213-2.088-.136-.904-.677-1.357-1.618-1.36a897.518 897.518 0 0 1-4.003-.013.142.142 0 0 0-.141.141c.002.822.008 1.648.018 2.483.014 1.117-.237 2.205-.442 3.299-.022.114-.091.173-.208.173l-2.083-.003c-.12 0-.181-.061-.181-.181L8.084 14.46c0-.106.085-.194.192-.194l4.512.002c.21 0 .298.104.258.312l-.37 1.939c-.04.216-.171.325-.392.328l-1.184.003a.12.12 0 0 0-.118.12l.008 2.698c0 .11.088.195.198.192a64.249 64.249 0 0 1 3.349.008c1.021.024 1.72-.453 1.693-1.59-.018-.674-.293-1.103-.826-1.287-.232-.08-.323-.272-.267-.579l.299-1.674c.061-.352.266-.488.616-.408 1.981.45 3.002 1.658 3.064 3.626.037 1.182-.416 2.04-1.363 2.582-.165.093-.165.189 0 .288Zm6.847 4.648-1.12 2.968a.112.112 0 0 1-.106.074l-2.922.02a.116.116 0 0 1-.11-.158l5.526-14.048a.119.119 0 0 1 .106-.072h2.976a.12.12 0 0 1 .107.072l5.523 14.045a.116.116 0 0 1-.107.157l-2.917-.01a.112.112 0 0 1-.107-.075l-1.125-2.973a.112.112 0 0 0-.107-.075h-5.51c-.047 0-.09.03-.106.075Zm4.564-2.67a.091.091 0 0 0 .085-.122l-1.685-4.499c-.03-.077-.142-.077-.171 0l-1.717 4.502a.09.09 0 0 0 .082.122l3.406-.003Zm26.567-2.469 5.392 8.056a.089.089 0 0 1-.072.139l-3.218-.01a.092.092 0 0 1-.075-.04l-3.853-6.054a.085.085 0 0 0-.139-.01l-1.664 1.863a.088.088 0 0 0-.021.059l-.008 4.098c0 .048-.04.088-.088.088l-2.718.008a.089.089 0 0 1-.088-.088l-.002-14.098c0-.048.04-.088.088-.088l2.725-.006c.048 0 .088.04.088.088l-.003 5.747c0 .08.102.117.155.056l5.078-5.856a.087.087 0 0 1 .066-.03h3.52c.078 0 .117.091.067.147L55.74 20.23a.089.089 0 0 0-.009.107Zm9.987-.536 5.424-.006a.12.12 0 0 1 .118.118l.005 2.347a.118.118 0 0 1-.117.117l-5.435-.014a.118.118 0 0 0-.117.118l.008 3.352c0 .064.053.117.117.117l6.861-.005c.064 0 .118.053.118.117l-.003 2.35a.118.118 0 0 1-.117.117l-9.763-.003a.118.118 0 0 1-.117-.117l-.003-14.04c0-.064.053-.117.117-.117l9.678.024c.064 0 .117.053.117.117l-.005 2.323a.118.118 0 0 1-.118.117l-6.776.008a.118.118 0 0 0-.117.117l.008 2.726c0 .064.053.117.117.117Zm21.219.677v1.819c-.53 3.067-2.067 5.019-4.613 5.859-.918.3-2.006.432-3.262.392a52.864 52.864 0 0 0-3.792 0 .177.177 0 0 1-.184-.18l-.002-13.908c0-.102.08-.184.181-.187 1.955-.032 3.715-.03 5.28.005 3.403.078 5.936 2.862 6.392 6.2Zm-8.941-3.538v8.906c0 .07.056.126.125.126h1.8c2.28 0 4.128-1.94 4.128-4.331v-.496c0-2.392-1.848-4.33-4.128-4.33h-1.8a.125.125 0 0 0-.125.125Z" fill="#352610"></path><path d="M11.356 32h-.43l1.459-8.464c.019-.101.077-.163.179-.181a.434.434 0 0 1 .202.01c.11.035.152.107.134.219L11.356 32Z" fill="#352610"></path></g><defs><clipPath id="svg835248890_4385_a"><path fill="#fff" transform="translate(.27)" d="M0 0h86.667v32H0z"></path></clipPath></defs></svg>