<svg xmlns:xlink="http://www.w3.org/1999/xlink" width="151" height="30" fill="none" xmlns="http://www.w3.org/2000/svg" id="svg-171810429_4195"><g clip-path="url(#svg-171810429_4195_a)" fill="#352610"><path d="M26.198 14.906a11.26 11.26 0 0 0-1.83-6.158l4.442-4.442L25.474.97l-4.438 4.442a11.275 11.275 0 0 0-12.318 0L4.273.97.937 4.306l4.441 4.441a11.275 11.275 0 0 0 0 12.318L.937 25.507l3.336 3.336 4.442-4.441a11.275 11.275 0 0 0 12.318 0l4.441 4.441 3.336-3.336-4.441-4.438a11.26 11.26 0 0 0 1.83-6.163Zm-17.931 0A6.607 6.607 0 1 1 20.9 17.602l-4.358-4.364-3.337 3.337 4.36 4.358a6.594 6.594 0 0 1-9.298-6.027Z" fill="#352610"></path><path fill-rule="evenodd" clip-rule="evenodd" d="M50.19 15.04c0 2.725-1.382 5.184-3.842 6.32l1.306 1.702-2.687 1.363-1.798-2.384h-.056c-4.447 0-7.077-3.235-7.077-7 0-3.766 2.63-7.001 7.077-7.001 4.446 0 7.076 3.235 7.076 7Zm-7.077 4.257c2.516 0 3.878-1.949 3.878-4.257s-1.362-4.257-3.878-4.257c-2.536 0-3.898 1.949-3.879 4.257-.02 2.308 1.344 4.257 3.879 4.257Zm12.033 2.611c-2.195 0-3.367-1.362-3.367-3.727v-5.639h2.932v4.996c0 1.248.417 1.93 1.514 1.93 1.23 0 1.76-.795 1.76-2.025v-4.9h2.876v9.12h-2.876v-1.306c-.511.965-1.457 1.551-2.839 1.551Zm11.75 0c-2.724 0-4.295-2.062-4.295-4.806 0-2.724 1.685-4.806 4.333-4.806 1.325 0 2.365.625 2.857 1.552v-1.306h2.876v9.12h-2.876v-1.286c-.492.908-1.627 1.532-2.895 1.532Zm.833-2.402c1.438 0 2.176-1.08 2.176-2.404 0-1.305-.738-2.383-2.176-2.383-1.344 0-2.176 1.002-2.176 2.383 0 1.382.833 2.404 2.176 2.404Zm7.341-6.964h2.895v1.325c.53-1.022 1.57-1.57 2.952-1.57 2.214 0 3.33 1.248 3.33 3.727v5.638h-2.914v-4.693c0-1.532-.435-2.232-1.608-2.232-1.154 0-1.76.757-1.76 2.157v4.768H75.07v-9.12Zm16.272 6.869c.36 0 .738-.02 1.003-.057v2.308c-.416.076-1.097.152-1.93.152-1.362 0-3.235-.303-3.235-3.349v-3.633h-1.438v-2.29h1.438V9.836h2.895v2.706h2.062v2.29h-2.062v3.027c0 1.343.548 1.551 1.267 1.551Zm6.32 2.535c-2.668 0-4.314-1.305-4.314-3.027h2.876c0 .624.605 1.078 1.495 1.078.624 0 1.06-.321 1.06-.851 0-.36-.171-.662-.663-.776l-2.233-.568c-1.513-.378-2.29-1.324-2.29-2.63 0-1.702 1.495-2.894 3.899-2.894 2.668 0 4.068 1.116 4.068 2.838h-2.857c0-.644-.474-1.003-1.25-1.003-.624 0-1.04.303-1.04.757 0 .416.284.68.776.814l2.157.586c1.4.378 2.308 1.23 2.308 2.535 0 1.873-1.494 3.141-3.992 3.141Zm10.577-2.535a7.9 7.9 0 0 0 1.002-.057v2.308a11.27 11.27 0 0 1-1.929.152c-1.363 0-3.236-.303-3.236-3.349v-3.633h-1.438v-2.29h1.438V9.836h2.895v2.706h2.062v2.29h-2.062v3.027c0 1.343.549 1.551 1.267 1.551h.001Zm6.301 2.497c-2.725 0-4.296-2.062-4.296-4.806 0-2.724 1.685-4.806 4.333-4.806 1.325 0 2.365.625 2.858 1.552v-1.306h2.875v9.12h-2.875v-1.286c-.493.908-1.628 1.532-2.895 1.532Zm.832-2.403c1.438 0 2.176-1.078 2.176-2.402 0-1.306-.738-2.384-2.176-2.384-1.344 0-2.176 1.002-2.176 2.383 0 1.382.833 2.403 2.176 2.403Zm7.341-6.962h2.895v1.324c.397-.908 1.344-1.57 2.611-1.57 1.627 0 2.46.719 2.857 1.684.492-.984 1.571-1.684 2.914-1.684 2.611 0 3.236 1.797 3.236 3.708v5.657h-2.914v-5.127c0-1.268-.473-1.798-1.363-1.798-.908 0-1.532.511-1.532 2.233v4.693h-2.914v-5.148c0-1.267-.454-1.778-1.343-1.778-.927 0-1.552.51-1.552 2.233v4.692h-2.895v-9.12Zm16.802 0h2.895v1.305c.473-.87 1.608-1.552 2.971-1.552 2.497 0 4.2 1.93 4.2 4.806 0 2.857-1.759 4.806-4.276 4.806-1.344 0-2.441-.68-2.895-1.532v5.07h-2.895V12.544Zm4.957 6.962c1.268 0 2.158-.983 2.158-2.402 0-1.4-.89-2.384-2.157-2.384-1.306 0-2.195.965-2.195 2.383 0 1.438.908 2.403 2.194 2.403Zm4.161-6.793a.816.816 0 0 1-.426-.108.728.728 0 0 1-.279-.295.88.88 0 0 1-.098-.414c0-.15.033-.288.098-.412a.733.733 0 0 1 .279-.294.817.817 0 0 1 .426-.108c.16 0 .302.036.423.108a.73.73 0 0 1 .281.294.876.876 0 0 1 .098.412.88.88 0 0 1-.098.414.729.729 0 0 1-.281.295.812.812 0 0 1-.423.108Zm0-.134a.62.62 0 0 0 .341-.092.595.595 0 0 0 .224-.247.744.744 0 0 0 .078-.344.751.751 0 0 0-.078-.342.605.605 0 0 0-.565-.339.617.617 0 0 0-.568.338.75.75 0 0 0-.079.343c0 .126.026.24.079.345a.622.622 0 0 0 .568.338Zm-.29-1.126h.335a.287.287 0 0 1 .293.296.3.3 0 0 1-.05.17.267.267 0 0 1-.142.105l.186.292h-.15l-.17-.277h-.168v.278h-.134v-.864Zm.326.47a.158.158 0 0 0 .122-.05.176.176 0 0 0 .046-.124.18.18 0 0 0-.046-.127.151.151 0 0 0-.122-.05h-.189v.351h.189Z" fill="#352610"></path></g><defs><clipPath id="svg-171810429_4195_a"><path fill="#fff" transform="translate(.937 .762)" d="M0 0h150v28.476H0z"></path></clipPath></defs></svg>