<svg xmlns:xlink="http://www.w3.org/1999/xlink" width="65" height="32" fill="none" xmlns="http://www.w3.org/2000/svg" id="svg1889972395_8312"><path d="M1 28.45c.326 0 .58.068.763.204.182.137.273.336.273.6 0 .195-.057.347-.17.456a.926.926 0 0 1-.424.23.97.97 0 0 1 .27.088.748.748 0 0 1 .366.405.85.85 0 0 1-.033.67.84.84 0 0 1-.245.281 1.196 1.196 0 0 1-.37.182 1.599 1.599 0 0 1-.468.065H.015v-3.183h.983L1 28.45Zm-.505 1.328h.39c.086 0 .17-.008.25-.021a.586.586 0 0 0 .21-.076.423.423 0 0 0 .146-.149.484.484 0 0 0 .055-.245c0-.161-.057-.28-.17-.354a.806.806 0 0 0-.45-.11h-.43v.955Zm0 1.48h.417c.097 0 .188-.01.276-.028a.67.67 0 0 0 .229-.093.473.473 0 0 0 .158-.175c.04-.072.06-.16.06-.265a.455.455 0 0 0-.07-.26.56.56 0 0 0-.185-.17.845.845 0 0 0-.26-.093 1.543 1.543 0 0 0-.291-.028H.495v1.112ZM2.81 28.45h.478v2.788h1.4v.394H2.81V28.45Zm3.674-.046c.222 0 .426.034.614.104.187.07.35.172.487.308a1.4 1.4 0 0 1 .32.51c.076.204.113.442.113.715 0 .273-.039.5-.119.704-.08.204-.19.375-.328.514a1.364 1.364 0 0 1-.492.313c-.19.07-.394.107-.617.107-.223 0-.426-.035-.614-.104a1.34 1.34 0 0 1-.486-.308 1.387 1.387 0 0 1-.32-.51 2.025 2.025 0 0 1-.114-.715c0-.273.04-.5.12-.705a1.48 1.48 0 0 1 .327-.513c.139-.137.303-.242.493-.313a1.75 1.75 0 0 1 .616-.107ZM5.45 30.041c0 .215.026.402.08.56.054.159.129.29.222.395a.876.876 0 0 0 .33.233c.127.05.262.075.404.075.143 0 .275-.025.399-.075a.859.859 0 0 0 .323-.233c.091-.105.164-.236.216-.394a1.81 1.81 0 0 0 .078-.561 1.8 1.8 0 0 0-.081-.571 1.112 1.112 0 0 0-.222-.392.861.861 0 0 0-.33-.228 1.115 1.115 0 0 0-.804.002.842.842 0 0 0-.323.233 1.14 1.14 0 0 0-.213.394 1.799 1.799 0 0 0-.078.56l-.001.002Zm4.657 1.253c.173 0 .316-.013.429-.04.113-.027.225-.065.335-.116l.11.373c-.121.057-.255.1-.398.127a2.93 2.93 0 0 1-.529.04 1.74 1.74 0 0 1-.608-.107 1.367 1.367 0 0 1-.496-.313 1.48 1.48 0 0 1-.334-.513 1.876 1.876 0 0 1-.122-.705c0-.265.039-.49.119-.695a1.395 1.395 0 0 1 .832-.834 1.8 1.8 0 0 1 .635-.108c.215 0 .392.016.53.05.139.035.268.08.385.137l-.114.364a10.544 10.544 0 0 0-.184-.073 1.36 1.36 0 0 0-.349-.083 2.015 2.015 0 0 0-.205-.01c-.153 0-.298.022-.435.068a.919.919 0 0 0-.359.22 1.081 1.081 0 0 0-.245.391c-.06.16-.09.353-.09.579 0 .225.03.423.088.581.058.158.137.287.236.384.1.098.215.17.347.215.132.046.272.068.421.068Zm1.477.338V28.45h.478v1.44l1.379-1.44h.593l-1.353 1.41 1.458 1.773h-.604l-1.197-1.455-.276.287v1.167h-.478v.001Zm4.272-.338c.174 0 .316-.013.43-.04.112-.027.224-.065.335-.116l.11.373c-.122.057-.255.1-.399.127-.144.027-.32.04-.528.04a1.74 1.74 0 0 1-.608-.107 1.367 1.367 0 0 1-.497-.313 1.48 1.48 0 0 1-.333-.513 1.875 1.875 0 0 1-.123-.705c0-.265.04-.49.12-.695a1.395 1.395 0 0 1 .832-.834 1.8 1.8 0 0 1 .634-.108c.216 0 .392.016.53.05.14.035.268.08.385.137l-.113.364a9.952 9.952 0 0 0-.185-.073 1.354 1.354 0 0 0-.348-.083 2.015 2.015 0 0 0-.206-.01c-.152 0-.297.022-.434.068a.92.92 0 0 0-.36.22 1.08 1.08 0 0 0-.244.391 1.63 1.63 0 0 0-.091.579c0 .225.03.423.088.581.059.158.138.287.237.384a.9.9 0 0 0 .346.215c.132.046.273.068.422.068Zm1.425.338V28.45h.479v1.339h1.555V28.45h.478v3.183h-.478v-1.45H17.76v1.45h-.479Zm4.257-3.182h.426l1.306 3.182h-.5l-.358-.884h-1.348l-.353.884h-.495l1.322-3.183Zm-.344 1.929h1.077l-.218-.55a10.66 10.66 0 0 1-.161-.42 26.592 26.592 0 0 1-.146-.415h-.01c-.05.142-.1.279-.152.41a56.2 56.2 0 0 0-.166.424l-.224.55Zm2.978-1.929v3.182h-.479V28.45h.479Zm.826 0h.417l1.494 2.015a4.885 4.885 0 0 1 .301.456h.01c-.007-.118-.01-.236-.015-.354a13.044 13.044 0 0 1-.005-.354V28.45h.468v3.183h-.416l-1.478-1.991a5.763 5.763 0 0 1-.316-.505h-.011a18.207 18.207 0 0 1 .021.849v1.646H25v-3.183l-.002.001Zm5.636 0c.326 0 .58.068.763.204.182.137.273.336.273.6 0 .195-.057.347-.17.456a.926.926 0 0 1-.424.23.97.97 0 0 1 .27.088.75.75 0 0 1 .366.405.85.85 0 0 1-.033.67.84.84 0 0 1-.245.281 1.197 1.197 0 0 1-.37.182 1.599 1.599 0 0 1-.468.065h-.947v-3.183h.983l.002.001Zm-.505 1.328h.39c.086 0 .17-.008.25-.021a.587.587 0 0 0 .21-.076.422.422 0 0 0 .146-.149.484.484 0 0 0 .055-.245c0-.161-.057-.28-.17-.354a.806.806 0 0 0-.45-.11h-.43v.955Zm0 1.48h.417c.097 0 .188-.01.276-.028a.668.668 0 0 0 .229-.093.473.473 0 0 0 .158-.175c.04-.072.06-.16.06-.265a.455.455 0 0 0-.07-.26.561.561 0 0 0-.185-.17.845.845 0 0 0-.26-.093 1.544 1.544 0 0 0-.291-.028h-.334v1.112Zm2.274-2.808h.479v1.904c0 .34.064.582.193.727.127.145.334.217.618.217.285 0 .487-.08.617-.242.13-.161.195-.375.195-.641v-1.966h.479v1.95c0 .435-.114.756-.343.965-.23.21-.545.314-.947.314-.403 0-.723-.104-.95-.31-.227-.207-.34-.538-.34-.994V28.45Zm3.851 0v3.182h-.479V28.45h.479Zm.827 0h.479v2.788h1.4v.394h-1.88V28.45Zm3.44 0c.233 0 .448.031.646.095.198.065.368.16.512.286.144.126.257.284.338.475.08.19.122.412.122.664 0 .306-.049.566-.146.778a1.375 1.375 0 0 1-.393.515 1.552 1.552 0 0 1-.572.284 2.708 2.708 0 0 1-.689.085h-.884V28.45h1.066Zm-.588 2.799h.36c.165 0 .328-.018.488-.053.16-.035.302-.102.424-.197a1.03 1.03 0 0 0 .3-.392c.076-.165.113-.377.113-.636 0-.182-.027-.343-.083-.485a.932.932 0 0 0-.24-.356 1.04 1.04 0 0 0-.376-.22 1.503 1.503 0 0 0-.492-.075h-.495v2.416l.001-.002Zm2.862-2.799h1.977v.383h-1.499v.955h1.364v.378h-1.364v1.082h1.514v.383h-1.993v-3.183.001Zm2.607 0h1.066c.17 0 .32.023.45.07a.9.9 0 0 1 .325.196.842.842 0 0 1 .198.301 1.05 1.05 0 0 1 .01.71.874.874 0 0 1-.152.255.998.998 0 0 1-.216.188 1.447 1.447 0 0 1-.247.128l.864 1.334h-.536l-.776-1.247h-.536v1.247H45.4V28.45h.002Zm.452 1.555h.396a1.3 1.3 0 0 0 .299-.033.732.732 0 0 0 .24-.101.499.499 0 0 0 .16-.18.565.565 0 0 0 .06-.267c0-.206-.058-.357-.175-.456-.116-.097-.285-.146-.507-.146h-.473v1.183Zm3.263-1.601c.16 0 .315.013.464.039.149.024.296.071.442.138l-.114.384a2.232 2.232 0 0 0-.404-.144 1.547 1.547 0 0 0-.366-.042c-.199 0-.354.042-.47.126a.414.414 0 0 0-.17.354c0 .128.042.23.127.308.085.078.225.145.419.202l.328.101c.298.091.51.215.632.372a.83.83 0 0 1 .184.527.815.815 0 0 1-.326.664c-.102.08-.223.14-.361.182a1.563 1.563 0 0 1-.458.064c-.166 0-.336-.015-.507-.044a2.043 2.043 0 0 1-.513-.16l.114-.378c.15.07.295.123.437.156.143.034.292.051.447.051a.87.87 0 0 0 .479-.126.414.414 0 0 0 .198-.374.424.424 0 0 0-.128-.319.718.718 0 0 0-.19-.13 1.86 1.86 0 0 0-.301-.117l-.328-.1c-.24-.075-.423-.176-.552-.304-.129-.128-.193-.301-.193-.52 0-.28.095-.501.284-.665.188-.163.463-.245.824-.245h.002Zm4.788.046v.383h-1.447v1.03h1.332v.38h-1.332v1.388h-.478v-3.183h1.925v.001Zm.556 0h.478v1.904c0 .34.064.582.193.727.128.145.335.217.62.217.283 0 .486-.08.616-.242.13-.161.195-.375.195-.641v-1.966h.478v1.95c0 .435-.114.756-.343.965-.229.21-.544.314-.947.314-.403 0-.722-.104-.95-.31-.226-.207-.34-.538-.34-.994V28.45Zm3.372 0h.416l1.494 2.015a4.96 4.96 0 0 1 .301.456h.011a13.044 13.044 0 0 1-.021-.708V28.45h.468v3.183h-.416l-1.478-1.991a3.237 3.237 0 0 1-.16-.24 7.025 7.025 0 0 1-.157-.265h-.01a19.382 19.382 0 0 1 .02.849v1.646h-.468v-3.183.001Zm4.564 0c.232 0 .447.031.645.095.198.065.369.16.512.286.144.126.257.284.338.475.082.19.123.412.123.664 0 .306-.05.566-.146.778a1.377 1.377 0 0 1-.393.515 1.552 1.552 0 0 1-.572.284 2.707 2.707 0 0 1-.69.085h-.884V28.45h1.067Zm-.588 2.799h.358c.167 0 .33-.018.49-.053.16-.035.3-.102.423-.197a1.03 1.03 0 0 0 .3-.392c.076-.165.114-.377.114-.636 0-.182-.028-.343-.083-.485a.933.933 0 0 0-.24-.356 1.04 1.04 0 0 0-.377-.22 1.503 1.503 0 0 0-.492-.075h-.495v2.416l.002-.002ZM15.441 13.902H4.418v-2.076H15.44c1.456 0 2.64-1.15 2.64-2.562 0-1.413-1.184-2.563-2.64-2.563H4.418V4.625H15.44c2.635 0 4.777 2.081 4.777 4.639 0 2.557-2.143 4.638-4.777 4.638Z" fill="#352610"></path><path d="M16.49 22.071H4.418v-2.076H16.49c1.499 0 2.719-1.184 2.719-2.64v-.811c0-1.456-1.22-2.64-2.72-2.64H4.418v-2.076H16.49c2.678 0 4.857 2.115 4.857 4.716v.811c0 2.6-2.179 4.716-4.857 4.716Zm17.98-8.169H23.443v-2.076H34.47c1.456 0 2.64-1.15 2.64-2.562 0-1.413-1.184-2.563-2.64-2.563H23.444V4.625H34.47c2.635 0 4.777 2.081 4.777 4.639 0 2.557-2.143 4.638-4.777 4.638Z" fill="#352610"></path><path d="M35.517 22.071H23.444v-2.076h12.074c1.5 0 2.72-1.184 2.72-2.64v-.811c0-1.456-1.22-2.64-2.72-2.64H23.444v-2.076h12.074c2.679 0 4.857 2.115 4.857 4.716v.811c0 2.6-2.178 4.716-4.857 4.716Zm23.84-17.446H42.551v2.076h16.806V4.625ZM44.659 22.06h-2.138v-5.223c0-2.762 2.314-5.01 5.16-5.01h11.676v2.077H47.68c-1.666 0-3.021 1.316-3.021 2.933v5.224ZM6.536 26.375H.016V.322h6.52v2.076H2.154v21.9h4.382v2.077Z" fill="#352610"></path><path d="M63.757 26.375h-6.52v-2.077h4.382v-21.9h-4.382V.322h6.52v26.053Z" fill="#352610"></path></svg>