<svg xmlns:xlink="http://www.w3.org/1999/xlink" width="60" height="48" fill="none" xmlns="http://www.w3.org/2000/svg" id="svg-192981104_3978"><g clip-path="url(#svg-192981104_3978_a)" fill="none"><path d="m.444 47.16 1.256-.095V36.433l-1.256-.095v-.16h5.14c1.846 0 3.374.956 3.374 2.85 0 2.07-1.845 2.77-3.882 3.263H3.404v4.775l1.352.095v.16H.444v-.16Zm4.216-5.093c1.465 0 2.468-1.226 2.468-2.897 0-1.544-.636-2.833-2.245-2.833l-1.48.095v5.634H4.66Zm4.669 3.613c0-.54.159-1.13.859-1.654l3.422-1.098v-1.083c0-.923-.032-1.64-1.353-1.64-.318 0-.493.048-.939.176l-.35 1.798H9.567v-1.193l2.992-1.321c2.07 0 2.595.732 2.595 2.356v3.469c0 .51.111.971.286 1.448l.828-.11.031.158-2.324.446-.317-1.369-2.213 1.496c-1.24 0-2.117-.669-2.117-1.878Zm3.883.51.398-.303V43.07l-1.942.748c-.445.35-.732.812-.732 1.465 0 .828.445 1.352 1.082 1.352.446 0 .922-.255 1.193-.445h.001Zm3.714.97.986-.095V40.27l-1.034.239-.016-.159 2.34-.604h.16l.047 2.483 1.576-2.483h1.036v1.624h-1.815l-.78 1.082v4.615l1.432.095v.16h-3.93v-.16h-.002Zm5.716-1.48c0-.54.16-1.13.86-1.654l3.421-1.098v-1.083c0-.923-.032-1.64-1.352-1.64-.319 0-.494.048-.94.176l-.35 1.798h-1.4v-1.193l2.992-1.321c2.07 0 2.594.732 2.594 2.356v3.469c0 .51.112.971.287 1.448l.827-.11.032.158-2.324.446-.318-1.369-2.212 1.496c-1.241 0-2.118-.669-2.118-1.878h.001Zm3.884.51.397-.303V43.07l-1.942.748c-.445.35-.731.812-.731 1.465 0 .828.444 1.352 1.081 1.352.446 0 .923-.255 1.194-.445Zm3.713.97.986-.095V40.27l-1.034.238-.016-.158 2.404-.605h.159v1.703l2.753-1.782c1.193 0 1.768.604 1.783 1.782l2.754-1.782c1.463 0 1.782.78 1.782 2.308v5.093l1.145.095v.16h-3.437v-.16l.748-.095v-5.141c0-.987-.319-1.29-.97-1.29-.527 0-1.037.35-1.482.621l-.54.367v5.443l.747.095v.16h-3.04v-.16l.75-.095v-5.141c0-.987-.32-1.29-.973-1.29-.525 0-1.05.35-1.48.621l-.54.367v5.443l.748.095v.16h-3.247v-.162Zm13.52 0 .986-.095V40.27l-1.034.239-.017-.159 2.404-.604h.16v7.321l.986.095v.16h-3.485v-.16Zm4.904-1.575v-5.443h-1.178v-.159h1.178v-1.21l1.497-.875v2.085h2.242v.159H50.16v5.395c0 .732.365 1.066.954 1.066.54 0 .923-.143 1.4-.397l.08.143-2.23 1.21c-1.383 0-1.703-.829-1.703-1.974h.002Zm4.491.095c0-.54.159-1.13.859-1.654l3.422-1.098v-1.083c0-.923-.032-1.64-1.352-1.64-.319 0-.494.048-.94.176l-.35 1.798h-1.4v-1.193l2.992-1.321c2.07 0 2.594.732 2.594 2.356v3.469c0 .51.111.971.287 1.448l.827-.11.031.158-2.323.446-.318-1.369-2.212 1.496c-1.242 0-2.118-.669-2.118-1.878Zm3.883.51.398-.303V43.07l-1.942.748c-.445.35-.732.812-.732 1.465 0 .828.445 1.352 1.082 1.352.446 0 .923-.255 1.193-.445h.001Zm-10.44-9.314-1.228-1.227-1.227 1.227 1.227 1.227 1.228-1.227Z" fill="#352610"></path><g style="mix-blend-mode:soft-light" fill="none"><path d="M30.255 2.627h-2.033V8.51h2.033V2.627Z" fill="url(&quot;#svg-192981104_3978_b&quot;)"></path><path d="M30.255 20.474h-2.033v5.883h2.033v-5.883Z" fill="url(&quot;#svg-192981104_3978_c&quot;)"></path><path d="M41.103 13.476H35.22v2.032h5.883v-2.032Z" fill="url(&quot;#svg-192981104_3978_d&quot;)"></path><path d="M23.256 13.476h-5.883v2.032h5.883v-2.032Z" fill="url(&quot;#svg-192981104_3978_e&quot;)"></path><path d="m22.032 5.598-2.297 2.297 2.297 2.296 2.297-2.296-2.297-2.297Zm14.41-.001-2.297 2.297 2.297 2.296 2.297-2.296-2.297-2.297ZM22.033 18.792l-2.297 2.297 2.297 2.297 2.297-2.297-2.297-2.297Zm14.41 0-2.297 2.297 2.297 2.297 2.297-2.297-2.297-2.297Z" fill="#352610"></path></g></g><defs><linearGradient id="svg-192981104_3978_b" x1="29.238" y1="8.509" x2="29.238" y2="2.627" gradientUnits="userSpaceOnUse"><stop stop-color="#352610"></stop><stop offset="1" stop-color="#352610" stop-opacity="0"></stop></linearGradient><linearGradient id="svg-192981104_3978_c" x1="-6.545" y1="20.474" x2="-6.452" y2="26.357" gradientUnits="userSpaceOnUse"><stop stop-color="#352610"></stop><stop offset="1" stop-color="#352610" stop-opacity="0"></stop></linearGradient><linearGradient id="svg-192981104_3978_d" x1="35.22" y1="14.492" x2="41.103" y2="14.492" gradientUnits="userSpaceOnUse"><stop stop-color="#352610"></stop><stop offset="1" stop-opacity="0"></stop></linearGradient><linearGradient id="svg-192981104_3978_e" x1="23.255" y1="14.492" x2="17.373" y2="14.492" gradientUnits="userSpaceOnUse"><stop stop-color="#493518"></stop><stop offset="1" stop-color="#493518" stop-opacity="0"></stop></linearGradient><clipPath id="svg-192981104_3978_a"><path fill="#fff" transform="translate(.483)" d="M0 0h59.478v48H0z"></path></clipPath><linearGradient id="svg-192981104_3978_b" x1="29.238" y1="8.509" x2="29.238" y2="2.627" gradientUnits="userSpaceOnUse"><stop stop-color="#352610"></stop><stop offset="1" stop-color="#352610" stop-opacity="0"></stop></linearGradient><linearGradient id="svg-192981104_3978_c" x1="-6.545" y1="20.474" x2="-6.452" y2="26.357" gradientUnits="userSpaceOnUse"><stop stop-color="#352610"></stop><stop offset="1" stop-color="#352610" stop-opacity="0"></stop></linearGradient><linearGradient id="svg-192981104_3978_d" x1="35.22" y1="14.492" x2="41.103" y2="14.492" gradientUnits="userSpaceOnUse"><stop stop-color="#352610"></stop><stop offset="1" stop-opacity="0"></stop></linearGradient><linearGradient id="svg-192981104_3978_e" x1="23.255" y1="14.492" x2="17.373" y2="14.492" gradientUnits="userSpaceOnUse"><stop stop-color="#493518"></stop><stop offset="1" stop-color="#493518" stop-opacity="0"></stop></linearGradient></defs></svg>