<svg xmlns:xlink="http://www.w3.org/1999/xlink" width="52" height="40" fill="none" xmlns="http://www.w3.org/2000/svg" id="svg1407748058_4161"><g clip-path="url(#svg1407748058_4161_a)" fill="#352610"><path d="M36.522 26.958v3.464l-1.158-.433c-1.47-.509-3.008-.804-4.482-.14-.74.44-1.187.965-1.46 1.786-.105.972-.113 1.86.455 2.689.63.679 1.276.912 2.19 1.007 1.292.034 2.384-.13 3.59-.579l1.038-.346v3.464c-2.597 1.055-5.503 1.621-8.212.565-1.593-.778-2.809-1.996-3.392-3.683-.413-2.096-.328-4.355.812-6.213 1.067-1.462 2.586-2.276 4.352-2.559 2.27-.25 4.22-.045 6.267.978ZM30.538 2.256c1.696 1.227 3.295 2.62 4.599 4.265v.173c-1.03.018-2.052.007-3.08-.062-1.932-.127-3.86-.138-5.796-.134-.551.001-1.102 0-1.653-.001-1.92 0-3.828.038-5.744.159-.984.06-1.967.054-2.952.038C19.7 2.108 24.874-1.67 30.538 2.256ZM15.565 26.265h4.157l.173 1.213.26-.178c1.358-.891 2.462-1.079 4.07-1.035v3.291l-.93.119c-1.16.194-2.283.531-3.157 1.354-.372.663-.326 1.305-.331 2.053l-.01.475c-.009.5-.015.998-.02 1.498l-.019 1.017c-.015.83-.025 1.66-.036 2.49h-4.157V26.265Z" fill="#352610"></path><path fill-rule="evenodd" clip-rule="evenodd" d="m21.507 8.05.816-.001c.569-.001 1.138-.002 1.707-.001.572 0 1.144-.002 1.716-.004 4.664-.02 9.322.032 13.937.793l.725.116c.669.108 1.336.222 2.003.339l.503.088c2.6.471 5.904 1.235 7.637 3.376.13.544.105.844-.162 1.338-1.516 2.043-4.678 2.659-7.221 3.154a77.36 77.36 0 0 0-.93.184h-.52l.172.384c.258.575.514 1.151.77 1.727l.27.604.26.584.239.535c.073.188.119.304.157.423.062.196.103.4.21.94h-7.274l-1.212-2.772-.693-1.386h-3.29v-.173a22.708 22.708 0 0 1 3.117-.173c-1.508-2.562-2.252-3.827-3.244-4.851-.968-.999-2.172-1.769-4.55-3.29-1.93-.273-3.399.434-4.942 1.523-2.01 1.666-3.769 4.295-4.93 6.618l.368-.006c.993-.01 1.94.031 2.922.18v.172h-3.464l-.66 1.3-.205.4-.166.33-.168.33a22.16 22.16 0 0 0-.58 1.46c-.042.112-.083.225-.126.337H7.425c.125-.625.222-1.034.475-1.59l.18-.4.19-.413.366-.81.178-.392c.237-.527.464-1.058.69-1.59l-.519-.068c-2.821-.406-5.932-1.171-8.087-3.126-.228-.444-.228-.444-.271-1.028.378-1.098 1.132-1.591 2.136-2.123 1.396-.635 2.815-1.038 4.308-1.369.338-.077.674-.164 1.01-.252 2.517-.644 5.13-.892 7.718-1.137l.805-.077.452-.047c1.483-.14 2.962-.155 4.45-.155Zm16.054 2.281c3.531.103 8.781.424 11.713 2.587.3.452.295.689.238 1.224-1.166 1.56-4.334 2.268-6.284 2.704l-.297.067c-.52.07-1.038.125-1.56.173l-.163-.306c-1.054-1.97-2.132-3.907-3.34-5.786-.232-.37-.288-.46-.302-.557-.005-.031-.005-.063-.005-.106Zm-24.111.357.21-.357c-2.553-.022-5.176.42-7.654 1.014l-.454.112c-.657.162-1.307.327-1.942.564-.823.344-1.548.66-1.911 1.514.005.22.008.328.04.427.032.095.091.182.209.353 2.255 1.718 5.15 2.344 7.902 2.77a209.344 209.344 0 0 1 3.6-6.397Zm30.87 15.167-.48-.001c-1.635-.003-2.9.195-4.373.931v2.944h.52c.342-.142.686-.28 1.036-.403 1.351-.301 3.286-.405 4.527.252.244.34.367.511.45.7.087.195.131.407.221.837-1.633-.737-3.392-.892-5.156-.618-1.205.3-2.154.916-2.839 1.965-.534 1.175-.528 2.8-.145 4.022.493 1.102 1.52 1.795 2.62 2.23 1.38.41 2.995.405 4.294-.223l.566-.286.57-.287.437-.222v.866h3.983l.002-.147a637.242 637.242 0 0 0 .03-4.193c.007-.618.014-1.236.017-1.853l.002-.589c.025-1.739-.126-2.889-1.336-4.205-1.345-1.331-3.119-1.687-4.945-1.72Zm2.074 8.031a10.233 10.233 0 0 0-1.558-.693c-1.12-.186-1.941-.163-2.598.866-.135.752-.087 1.077.324 1.722.567.373.764.417 1.418.432.993-.026 1.72-.401 2.414-1.114.03-.348.043-.51.04-.671a5.995 5.995 0 0 0-.04-.542Zm-32.877-3.208c-.09-1.284-.61-2.453-1.566-3.321-2.417-1.761-7.115-2.31-9.722-.572l-.059.325.008.39.006.424.013.441c.008.513.018 1.025.032 1.537l.52-.173c1.781-.618 3.75-.886 5.542-.173.305.323.46.487.568.677.111.198.173.423.298.882-1.671-.6-3.24-.835-5.023-.693-1.267.345-2.401.966-3.128 2.09-.56 1.131-.545 2.603-.162 3.799.65 1.3 1.413 1.947 2.779 2.467 1.872.48 3.6.1 5.274-.77l.26-.139.173.693h4.157l.001-.138c.006-.92.013-1.838.016-2.758a1560.288 1560.288 0 0 1 .015-2.926l.002-.554a51.18 51.18 0 0 0-.004-1.508Zm-4.36 3.208a14.6 14.6 0 0 0-.966-.535c-1.247-.469-2.345-.337-3.19.708-.149.755-.09 1.073.324 1.721.567.374.763.418 1.418.433.993-.026 1.72-.402 2.414-1.115.029-.347.043-.509.04-.67a6.689 6.689 0 0 0-.04-.542Z" fill="#352610"></path></g><defs><clipPath id="svg1407748058_4161_a"><path fill="#fff" transform="translate(.308)" d="M0 0h51.613v40H0z"></path></clipPath></defs></svg>