<svg xmlns:xlink="http://www.w3.org/1999/xlink" width="201" height="24" fill="none" xmlns="http://www.w3.org/2000/svg" id="svg-1919037743_13853"><path fill-rule="evenodd" clip-rule="evenodd" d="M.725.523h9.714L.961 10.142C.882 6.782.737 3.662.725.522Zm88.041 1.265c.8 0 1.68.093 2.198.234.47.14 1.145.422 1.49.625.346.187.848.609 1.13.92.283.298.644.813.816 1.14.157.329.33.844.487 1.765h-.91c-.848 0-.91-.015-1.02-.437-.047-.234-.251-.656-.424-.937-.173-.28-.66-.718-1.067-.968-.471-.297-1.13-.53-1.758-.64-.722-.11-1.287-.11-1.883.015-.487.079-1.083.282-1.334.438a2.926 2.926 0 0 0-.832.812c-.267.406-.36.765-.36 1.436.015.75.078.984.439 1.39.235.265.69.625 1.02.78.33.157 1.6.532 2.825.828 1.224.281 2.62.672 3.107.844.47.171 1.13.593 1.475.92.345.313.753.907.926 1.281.236.516.33 1.031.314 1.874 0 .875-.094 1.39-.345 1.952-.189.437-.581 1.03-.848 1.312a5.683 5.683 0 0 1-1.208.874 7.144 7.144 0 0 1-1.538.531c-.455.094-1.318.172-1.915.172-.612 0-1.475-.078-1.93-.172a9.692 9.692 0 0 1-1.648-.546c-.455-.203-1.161-.672-1.57-1.047a5.42 5.42 0 0 1-1.16-1.608 9.3 9.3 0 0 1-.597-1.764l.973-.016c.942 0 .989.016 1.099.437.047.234.298.718.549 1.093.235.36.722.828 1.067 1.062.345.219 1.004.5 1.49.64.597.172 1.256.235 2.198.188.942-.063 1.522-.172 1.993-.422.361-.187.832-.562 1.02-.843.251-.375.361-.781.408-1.515.032-.78-.031-1.155-.25-1.561-.19-.328-.644-.766-1.147-1.062-.596-.36-1.475-.656-2.887-.984-1.13-.266-2.464-.609-2.982-.78-.518-.173-1.224-.532-1.554-.813a4.494 4.494 0 0 1-.941-1.124c-.236-.469-.314-.937-.314-1.796 0-.921.094-1.343.392-1.952.204-.421.69-1.03 1.083-1.374a5.252 5.252 0 0 1 1.648-.906c.58-.171 1.428-.296 2.275-.296Zm-61.958.125 8.365.109.894.422c.502.234 1.114.655 1.381.937.267.28.58.858.706 1.296.126.421.236 1.046.236 1.405 0 .344-.11.984-.236 1.437-.14.484-.455 1.046-.753 1.358-.314.328-.8.61-1.255.734-.424.11-.722.281-.69.375.03.078.36.187.737.25.392.046.91.203 1.177.327.25.125.69.485.973.797.282.312.58.828.675 1.155.078.328.14 1.078.14 1.687 0 .812-.078 1.28-.36 1.874-.204.421-.612 1-.91 1.264-.283.282-.848.64-1.224.813-.393.171-1.177.39-1.727.484-.565.093-2.636.156-8.16.171l.031-16.895Zm2.15 7.198c5.038 0 5.32-.03 5.948-.343.392-.203.832-.594 1.02-.906.235-.375.33-.796.33-1.405 0-.573-.105-1.03-.314-1.374-.173-.297-.597-.672-.942-.86-.55-.296-.926-.343-3.311-.39l-2.7-.046-.031 5.324Zm0 7.808c5.775-.094 6.105-.125 6.701-.437.377-.203.832-.578 1.02-.86.298-.42.361-.717.361-1.78 0-1.061-.063-1.358-.33-1.717-.203-.265-.659-.562-1.098-.718-.612-.203-1.35-.266-3.72-.266h-2.934v5.778Zm11.3-14.99h1.726l.031 7.323c.032 6.262.079 7.37.283 7.589.125.125.565.296 1.726.468v1.562l-1.067-.11c-.58-.046-1.287-.203-1.57-.343-.313-.172-.612-.5-.816-.921-.298-.625-.314-1.015-.314-8.12V1.928Zm27.934 0h1.9l-.064 4.497c-.015 2.467-.078 4.575-.11 4.7-.047.109 0 .234.079.265.094.031 1.365-1.03 5.493-4.778h2.432l-.737.687c-.424.36-1.633 1.452-2.715 2.42-1.083.953-2.119 1.78-2.307 1.812-.236.046-.361.187-.361.39 0 .172.11.312.235.312.126 0 1.146.937 2.244 2.077 1.099 1.124 2.527 2.608 4.347 4.497l-2.51-.03-2.982-3.186c-1.632-1.765-3.045-3.17-3.14-3.139-.078.031-.125.187-.109.344.031.171.079 1.577.188 5.996h-1.883V1.928Zm80.352 0h10.828v1.717h-8.945v5.778h7.847v1.717h-7.847v7.652h-1.883V1.928Zm-98.4 4.48a9.24 9.24 0 0 1 1.413.298c.392.109 1.036.437 1.428.718.408.28.91.734 1.13.984.22.265.596.89.832 1.405a7.65 7.65 0 0 1 .533 1.874 9.343 9.343 0 0 1 0 1.874c-.078.515-.235 1.218-.36 1.561-.11.344-.393.906-.613 1.25a6.25 6.25 0 0 1-1.004 1.155c-.33.297-1.005.718-1.475.937-.581.265-1.24.406-2.04.453-.91.062-1.444 0-2.307-.266-.926-.265-1.303-.484-2.025-1.14-.518-.484-1.067-1.202-1.334-1.717-.251-.5-.534-1.421-.643-2.03-.126-.875-.126-1.406 0-2.233.11-.594.36-1.437.549-1.874.204-.422.612-1.062.926-1.406.298-.343.973-.843 1.475-1.124.534-.296 1.318-.562 1.868-.64.517-.078 1.255-.11 1.647-.078Zm-2.762 2.296a3.67 3.67 0 0 0-.816.719c-.172.218-.47.75-.675 1.17-.235.547-.345 1.11-.36 1.875 0 .609.078 1.405.188 1.795.125.39.408.984.643 1.328.236.343.722.843 1.099 1.093.55.375.863.484 1.726.53.596.032 1.303-.03 1.664-.155.345-.11.91-.453 1.24-.75a6.36 6.36 0 0 0 1.02-1.343c.36-.687.408-.953.408-2.342 0-1.437-.032-1.624-.471-2.405-.251-.468-.722-1.046-1.02-1.28a4.44 4.44 0 0 0-1.256-.688c-.392-.124-.957-.234-1.255-.218-.299 0-.8.078-1.099.172a4.514 4.514 0 0 0-1.036.5Zm14.925-2.31c.267.03.753.093 1.099.155.345.047.91.235 1.255.422.345.172.832.468 1.067.64.251.188.644.64.895 1.03.25.391.486.89.533 1.14.094.422.094.422-.8.422-.879 0-.91-.015-1.224-.562-.173-.312-.612-.78-.973-1.015a5.208 5.208 0 0 0-1.491-.624c-.69-.157-.989-.14-1.726.078a3.667 3.667 0 0 0-1.554.843c-.345.312-.832.968-1.051 1.437-.361.733-.424 1.061-.424 2.264 0 1.015.078 1.608.298 2.108.157.39.47.952.706 1.249.251.297.816.734 1.287.984.643.312 1.067.421 1.758.421.486 0 1.161-.109 1.49-.234a4.53 4.53 0 0 0 1.036-.671c.236-.235.581-.687.738-1 .298-.593.314-.593 1.24-.593.91 0 .942.016.847.36-.063.186-.267.655-.455 1.045-.204.39-.596.922-.894 1.187a7.54 7.54 0 0 1-.91.718c-.22.14-.785.36-1.256.5-.47.14-1.287.25-1.805.25s-1.287-.094-1.726-.219c-.424-.125-1.13-.468-1.57-.75-.423-.28-1.035-.858-1.365-1.295-.314-.422-.738-1.265-.926-1.874-.282-.906-.33-1.343-.267-2.577.063-1.218.157-1.67.534-2.498.267-.562.785-1.327 1.177-1.702.377-.39 1.083-.875 1.554-1.093.47-.203 1.224-.422 1.647-.484.44-.063 1.005-.094 1.256-.063Zm40.647.03a7.77 7.77 0 0 1 1.412.313c.565.172 1.036.484 1.664 1.108.627.625.973 1.14 1.224 1.812.204.515.423 1.405.502 1.999.094.655.078 1.467-.016 2.186-.094.702-.361 1.546-.706 2.264-.424.859-.738 1.265-1.365 1.765-.471.359-1.209.733-1.695.874-.565.156-1.24.219-1.962.172-.659-.047-1.35-.203-1.726-.39-.346-.172-.895-.61-1.209-.969-.36-.375-.69-.609-.831-.562-.173.063-.204.156-.079.39.094.172.157 1.593.157 6.09h-1.726V6.613h1.726v.546c0 .297-.063.687-.157.86-.11.218-.094.343.047.405.11.063.47-.203.863-.624.361-.39.895-.828 1.177-.968.267-.141.863-.313 1.287-.375a8.756 8.756 0 0 1 1.413-.031Zm-3.233 2.67a4.327 4.327 0 0 0-1.02 1.578c-.2.572-.299 1.28-.299 2.123 0 1.14.063 1.375.55 2.343.392.765.737 1.202 1.224 1.546.58.39.863.484 1.805.53.894.047 1.255-.015 1.757-.25.346-.171.816-.514 1.036-.764.204-.25.549-.86.738-1.343.251-.656.345-1.25.345-2.108 0-.672-.094-1.593-.235-2.03-.173-.594-.456-1.047-.973-1.593-.487-.5-.973-.828-1.382-.937a5.01 5.01 0 0 0-1.098-.156 6.77 6.77 0 0 0-1.099.187c-.392.11-.894.437-1.35.875Zm14.532-2.67c.345.032 1.02.172 1.491.313.612.187 1.067.453 1.585.968.408.39.816.984.926 1.327.157.437.22 1.968.314 9.76h-1.727l.048-.921c.015-.516-.016-.969-.079-1.015-.078-.047-.424.234-.785.624-.376.406-.957.874-1.302 1.046-.518.281-.91.344-2.276.344-1.396 0-1.742-.047-2.275-.328a5.175 5.175 0 0 1-.973-.703c-.189-.203-.455-.64-.581-.952-.141-.328-.251-.906-.251-1.296s.11-.969.251-1.28c.126-.329.392-.766.581-.969.188-.203.769-.562 1.287-.812.612-.281 1.883-.625 3.593-.953 1.46-.28 2.684-.577 2.715-.67.032-.079-.015-.47-.109-.86a2.973 2.973 0 0 0-.769-1.265 2.993 2.993 0 0 0-1.272-.765 3.9 3.9 0 0 0-1.412-.078c-.392.063-.879.203-1.099.312-.219.11-.58.406-.816.656a2.927 2.927 0 0 0-.58.875c-.157.39-.236.421-1.036.421-.581 0-.863-.062-.863-.187 0-.11.172-.547.376-.984.189-.421.675-1.062 1.052-1.39.376-.343.941-.718 1.24-.843a5.94 5.94 0 0 1 1.334-.328 7.347 7.347 0 0 1 1.412-.046Zm-2.856 7.433c-.283.14-.659.438-.832.687-.173.235-.314.61-.314.86 0 .234.079.593.157.811.094.219.392.531.675.703.361.218.769.312 1.444.312.518 0 1.224-.094 1.569-.187.361-.11.926-.484 1.334-.906.408-.406.8-.968.91-1.327.094-.344.251-.921.346-1.28.094-.375.235-.672.313-.672.095 0 .157-.063.157-.156 0-.078-.094-.156-.188-.14-.11 0-1.303.233-2.637.515-1.333.28-2.667.624-2.934.78Zm14.312-7.464c.267.032.754.094 1.099.156.345.047.894.235 1.224.39.314.157.879.563 1.224.89.361.313.769.828.926 1.125.157.297.314.703.377.906.094.328.063.343-.848.343-.863 0-.957-.03-1.161-.421a3.338 3.338 0 0 0-.675-.843c-.235-.235-.69-.547-.989-.703-.376-.203-.863-.281-1.569-.281-.722 0-1.208.11-1.648.328-.345.187-.847.562-1.114.859-.283.28-.659.827-.847 1.217-.252.485-.393 1.078-.44 1.874-.047.781.016 1.453.173 2.03.141.469.471 1.171.769 1.546.314.437.847.875 1.381 1.14.675.344 1.067.453 1.805.437.659 0 1.161-.109 1.632-.359.392-.187.91-.593 1.145-.89.251-.297.487-.703.518-.89.079-.328.173-.359 2.119-.359l-.314.828c-.173.437-.518 1.061-.753 1.358-.236.297-.738.734-1.13.968a6.733 6.733 0 0 1-1.491.672c-.424.14-1.209.234-1.726.234-.518 0-1.334-.11-1.805-.25-.471-.14-1.114-.422-1.413-.609-.298-.187-.831-.656-1.161-1.03-.345-.375-.785-1.031-.973-1.468-.188-.422-.408-1.265-.502-1.874-.079-.64-.094-1.484-.016-2.03a8.97 8.97 0 0 1 .377-1.64c.141-.39.471-1 .722-1.358.251-.375.69-.844.973-1.047.266-.203.8-.515 1.177-.702a6.877 6.877 0 0 1 1.569-.469c.487-.078 1.114-.109 1.365-.078Zm11.849.032c.392.03 1.02.156 1.413.28.392.11 1.02.422 1.412.672.392.25.91.718 1.177 1.046.251.344.612.968.816 1.39.204.453.408 1.296.596 3.217l-5.178-.016c-2.841-.016-5.211.016-5.258.063-.047.046 0 .171.11.28.094.11.33.594.502 1.063.173.468.581 1.17.926 1.561.33.39.957.875 1.381 1.078.628.312.957.359 1.805.312.8-.047 1.208-.172 1.805-.531.455-.281.973-.78 1.24-1.203.47-.733.47-.733 1.381-.733.612-.016.894.046.894.187 0 .094-.204.546-.455.968-.235.437-.785 1.093-1.208 1.484-.424.374-1.083.827-1.476.999-.565.25-1.035.328-2.354.328-1.444 0-1.757-.047-2.511-.406a7.309 7.309 0 0 1-1.538-1.015c-.376-.328-.847-.89-1.051-1.234a8.752 8.752 0 0 1-.628-1.561c-.204-.703-.251-1.296-.204-2.343.047-.874.204-1.717.408-2.264.188-.515.659-1.233 1.161-1.78.456-.5 1.162-1.077 1.586-1.28a6.132 6.132 0 0 1 1.647-.5c.487-.063 1.209-.094 1.601-.063Zm-3.217 2.654c-.345.328-.722.843-.832 1.14-.11.297-.314.75-.455 1-.235.468-.235.468.126.312.204-.078 1.93-.14 3.829-.14 1.899 0 3.625.062 3.845.14.329.109.361.093.219-.094-.109-.125-.282-.53-.392-.921-.141-.438-.455-.953-.879-1.359-.471-.468-.926-.75-1.491-.906-.455-.124-1.082-.234-1.381-.218-.298 0-.863.11-1.255.218-.408.125-.973.469-1.334.828ZM165.1 6.394c.267.032.754.094 1.099.156.345.047.957.266 1.381.469a7.166 7.166 0 0 1 1.334.906c.314.28.769.858 1.004 1.28.236.422.534 1.187.675 1.702.126.515.236 1.265.236 1.687a9.33 9.33 0 0 1-.173 1.561c-.094.437-.377 1.202-.612 1.67-.235.485-.816 1.219-1.318 1.687-.691.64-1.099.875-1.931 1.125-.596.171-1.49.312-2.008.312s-1.287-.094-1.727-.219c-.423-.125-1.13-.468-1.569-.75-.424-.28-1.036-.858-1.365-1.295-.361-.453-.738-1.234-.942-1.874-.267-.875-.314-1.374-.251-2.577.047-1.233.141-1.655.533-2.498.267-.562.785-1.327 1.177-1.702.377-.39 1.083-.875 1.554-1.093.471-.203 1.224-.422 1.648-.484.439-.063 1.004-.094 1.255-.063Zm-2.228 2.14a3.714 3.714 0 0 0-.847.687c-.236.234-.581.75-.769 1.14-.252.484-.393 1.077-.44 1.873-.047.797.016 1.453.173 2.03.141.469.455 1.14.706 1.484.267.375.8.796 1.303 1.062.643.328 1.067.421 1.789.421s1.145-.094 1.789-.421c.471-.25 1.02-.64 1.208-.906.204-.25.518-.812.706-1.25.267-.593.361-1.077.361-2.03 0-.952-.094-1.436-.361-2.03-.188-.42-.565-1.014-.847-1.295a4.855 4.855 0 0 0-1.13-.844c-.345-.171-1.02-.343-1.491-.374-.471-.032-1.051 0-1.287.078a4.529 4.529 0 0 0-.863.375Zm14.83-2.218c.016 0 .032.406.032 1.858h-.706c-.393 0-.973.11-1.287.25a3.52 3.52 0 0 0-.958.578c-.204.187-.533.625-.706.968-.329.593-.345.859-.423 8.823h-1.884V6.613h1.884v.468c0 .266-.063.64-.157.86-.105.26-.105.416 0 .468.094.046.423-.219.753-.578.329-.375.879-.812 1.224-.968.33-.156.973-.344 1.397-.406.439-.063.8-.125.831-.14Zm6.074.11a7.863 7.863 0 0 1 1.569.359c.44.156 1.099.546 1.476.874.376.328.847.875 1.035 1.218.204.344.408.78.455.984.095.328.047.343-.847.343-.863 0-.957-.03-1.161-.421a3.338 3.338 0 0 0-.675-.843c-.236-.235-.691-.547-.989-.703-.361-.188-.879-.281-1.569-.281-.722 0-1.193.093-1.648.328-.345.171-.863.562-1.146.843a5.804 5.804 0 0 0-.863 1.233c-.282.594-.345.969-.345 2.343 0 1.468.047 1.718.424 2.42.219.437.612.968.863 1.203.235.234.753.562 1.145.733.44.203 1.036.328 1.57.328.58 0 1.13-.125 1.648-.359.439-.203.926-.53 1.098-.75a4.96 4.96 0 0 0 .549-.89c.236-.499.267-.515 1.146-.499.691 0 .895.047.895.234 0 .125-.157.562-.346.984a6.267 6.267 0 0 1-.988 1.358 6.78 6.78 0 0 1-1.491 1.015c-.754.344-1.067.39-2.511.375-1.35 0-1.789-.062-2.386-.343-.423-.188-1.13-.687-1.569-1.109a5.227 5.227 0 0 1-1.287-1.749c-.251-.546-.518-1.452-.596-2.014a6.355 6.355 0 0 1 .015-2.108c.095-.594.377-1.515.628-2.03a5.623 5.623 0 0 1 1.224-1.609c.408-.374 1.052-.812 1.428-.968.361-.172 1.068-.375 1.57-.437.486-.078 1.255-.11 1.679-.063Zm11.613 0c.44.046 1.146.202 1.57.374a6.185 6.185 0 0 1 1.443.797c.346.28.864.812 1.13 1.202.267.39.581.984.707 1.327.125.344.282 1.14.486 2.89h-5.21c-4.536 0-5.226.03-5.226.233 0 .125.078.235.157.235.094 0 .157.093.157.203 0 .093.204.609.455 1.124.251.515.722 1.202 1.051 1.515.346.312.879.687 1.209.827.314.125.973.234 1.444.234.47 0 1.051-.078 1.302-.171.235-.079.706-.344 1.036-.578.329-.234.769-.718 1.35-1.749h.941c.518 0 .942.031.942.078s-.157.406-.346.812c-.204.406-.674 1.078-1.067 1.5-.392.42-1.083.952-1.569 1.17-.753.36-1.052.422-2.511.422-1.507 0-1.726-.047-2.652-.469a5.74 5.74 0 0 1-1.679-1.202c-.377-.422-.879-1.155-1.115-1.64-.408-.843-.439-1.046-.439-2.857 0-1.874.016-1.999.502-2.967.267-.562.785-1.312 1.13-1.67a6.508 6.508 0 0 1 1.428-1.063 6.28 6.28 0 0 1 1.695-.515 10.32 10.32 0 0 1 1.679-.063Zm-3.17 2.451c-.298.219-.69.78-.926 1.296-.219.484-.486 1.03-.58 1.203-.157.28-.142.296.219.171.204-.093 1.868-.171 3.673-.203 2.699-.03 3.374 0 3.735.188.235.125.455.203.502.156.047-.047-.016-.266-.141-.5-.126-.25-.361-.765-.55-1.171a3.418 3.418 0 0 0-.831-1.14 5.06 5.06 0 0 0-1.303-.625c-.424-.124-1.036-.234-1.334-.218-.298 0-.863.11-1.255.234-.393.125-.942.39-1.209.61Zm-171.5 1.64-9.73 9.681-.079-4.716c-.047-2.607-.063-4.778-.031-4.84.031-.079 2.244-.125 9.84-.125Z" fill="#352610"></path><path d="M10.769 5.567c-.047-2.64-.063-4.841-.047-4.888 0-.047 2.166-.062 9.604.016l-2.15 2.217a936.114 936.114 0 0 1-7.328 7.464l-.079-4.81Zm-9.887 4.95h9.809l-9.574 9.525C.961 16.42.961 13.839.882 10.517Z" fill="#352610"></path></svg>