<svg xmlns:xlink="http://www.w3.org/1999/xlink" width="81" height="28" fill="none" xmlns="http://www.w3.org/2000/svg" id="svg-420818910_3482"><g clip-path="url(#svg-420818910_3482_a)" fill="none"><mask id="svg-420818910_3482_b" style="mask-type:luminance" maskUnits="userSpaceOnUse" x="0" y="0" width="81" height="28" fill="none"><path d="M80.8.286H.8v27.428h80V.286Z" fill="#FFFFFF"></path></mask><g mask="url(#svg-420818910_3482_b)" fill="none"><path d="M2.016 22.159V1.353l7.614 4.28V26.75l-7.614-4.59Zm11.506 0V1.353l7.614 4.28V26.75l-7.614-4.591Zm11.505 0V1.353l7.614 4.28V26.75l-7.614-4.591Zm23.672-18.38h2.828v12.815h-3.061l-3.01-4.903c-1.037-1.66-1.79-2.944-2.257-3.865.078 1.478.104 3.139.104 4.955v3.8h-2.827V3.766h3.139l3.268 5.344a76.077 76.077 0 0 1 1.894 3.19c-.052-1.011-.078-2.477-.078-4.423V3.78Zm10.624 7.977V9.304h6.096v7.29h-2.218l-.104-1.103c-.74.934-1.907 1.401-3.515 1.401-1.92 0-3.45-.622-4.579-1.88-1.128-1.259-1.699-2.867-1.699-4.852-.026-1.945.57-3.554 1.764-4.812 1.22-1.271 2.815-1.907 4.8-1.88 1.115 0 2.1.18 2.957.544.869.363 1.738.973 2.633 1.842l-1.842 1.907c-.726-.636-1.362-1.077-1.933-1.336a4.506 4.506 0 0 0-1.816-.376c-1.102 0-1.984.35-2.633 1.063-.635.714-.96 1.725-.96 3.035 0 1.35.312 2.387.934 3.126.636.727 1.505 1.077 2.595 1.077.933 0 1.66-.22 2.179-.662.531-.453.79-1.076.79-1.88v-.052h-3.45Zm14.125-8.302c1.025 0 1.894.156 2.62.454.74.312 1.492.818 2.257 1.518L76.6 7.436c-.635-.544-1.18-.908-1.647-1.102-.441-.208-.96-.311-1.53-.311-1.077 0-1.92.376-2.57 1.115-.622.74-.933 1.738-.933 3.01 0 1.284.311 2.308.934 3.048.635.739 1.492 1.115 2.542 1.115.623 0 1.168-.117 1.622-.337.466-.22 1.063-.61 1.79-1.194l1.673 1.985c-.791.74-1.596 1.271-2.4 1.622-.791.337-1.673.505-2.646.505-1.972 0-3.554-.635-4.721-1.893-1.18-1.272-1.764-2.906-1.764-4.89 0-1.946.583-3.555 1.75-4.8 1.168-1.232 2.75-1.855 4.748-1.855ZM42.616 25.051l1.777-5.253h-.48l-1.557 4.8h-.026l-1.543-4.787h-.506l1.764 5.253h.57v-.013Zm5.305.091c.726 0 1.258-.376 1.505-.934l-.325-.22c-.207.505-.622.778-1.167.778-.791 0-1.258-.558-1.258-1.362v-.195h2.853v-.207c0-1.129-.635-1.894-1.62-1.894-1.026 0-1.674.752-1.674 2.01 0 1.259.661 2.024 1.686 2.024Zm-.013-3.67c.688 0 1.154.531 1.154 1.348v.065h-2.386v-.039c.013-.817.493-1.375 1.232-1.375Zm4.644 3.58V22.34c0-.57.506-.843 1.05-.843.636 0 .986.376.986 1.154v2.4h.428v-2.477c0-.934-.48-1.466-1.297-1.466-.623 0-.96.298-1.141.7h-.026v-.61h-.428v3.853h.428Zm6.745 0v-.377h-.817v-3.1h.869v-.376h-.87v-1.077h-.389v.778c0 .221-.065.299-.272.299h-.441v.376h.674v2.996c0 .286.17.48.48.48h.766Zm4.993 0h.429v-3.853h-.428v2.698c0 .584-.506.856-1.038.856-.636 0-.986-.376-.986-1.168V21.2h-.428v2.477c0 .934.493 1.466 1.31 1.466.662 0 .973-.337 1.115-.7h.026v.61Zm3.762 0v-2.634c0-.493.454-.791 1.103-.791h.337v-.415h-.26c-.661 0-.998.324-1.154.687h-.026v-.687h-.428v3.852h.428v-.013Zm5.124.09c.726 0 1.258-.376 1.504-.934l-.311-.207c-.208.505-.623.778-1.167.778-.792 0-1.259-.558-1.259-1.362v-.208h2.854v-.207c0-1.129-.636-1.894-1.621-1.894-1.025 0-1.674.752-1.674 2.01 0 1.259.636 2.024 1.674 2.024Zm-.013-3.67c.687 0 1.154.531 1.154 1.348v.065h-2.386v-.039c.013-.817.492-1.375 1.232-1.375Zm5.305 3.67c.843 0 1.362-.428 1.362-1.142 0-.622-.363-.96-1.155-1.076l-.31-.039c-.546-.09-.831-.26-.831-.7 0-.441.324-.688.869-.688.532 0 .843.247 1.05.493l.286-.26c-.285-.35-.675-.596-1.31-.596-.74 0-1.31.363-1.31 1.077 0 .687.48.972 1.18 1.076l.312.052c.557.078.79.311.79.726 0 .467-.337.727-.92.727-.506 0-.882-.208-1.194-.623l-.31.247c.362.467.83.726 1.491.726Z" fill="#352610"></path></g></g><defs><clipPath id="svg-420818910_3482_a"><path fill="#fff" transform="translate(.8 .286)" d="M0 0h80v27.429H0z"></path></clipPath></defs></svg>