<svg xmlns:xlink="http://www.w3.org/1999/xlink" width="121" height="34" fill="none" xmlns="http://www.w3.org/2000/svg" id="svg2133055898_3015"><path d="M35.371 29.864c-.777 0-1.428-.248-1.953-.744-.52-.496-.78-1.18-.78-2.053 0-.825.242-1.507.726-2.045.489-.543 1.158-.815 2.007-.815.865 0 1.578.355 2.139 1.066l-.502.423c-.438-.56-.983-.839-1.637-.839-.618 0-1.112.207-1.482.62-.366.407-.549.937-.549 1.59s.191 1.175.572 1.567c.38.387.867.58 1.46.58.653 0 1.198-.277 1.636-.83l.502.43c-.556.7-1.269 1.05-2.139 1.05Zm7.702-.039-.486-1.355h-2.448l-.486 1.355h-.71l2.076-5.563h.672l2.092 5.563h-.71Zm-2.718-1.951h2.015l-1.003-2.782h-.016l-.996 2.782Zm5.255 1.951v-5.563h1.923c.613 0 1.068.156 1.367.47.298.313.447.731.447 1.254 0 .569-.175.997-.525 1.285-.345.287-.813.43-1.405.43h-1.135v2.124h-.671Zm.672-2.75h1.074c.437 0 .761-.1.972-.298.211-.199.317-.468.317-.807 0-.35-.106-.616-.317-.8-.206-.187-.494-.282-.864-.282h-1.182v2.187Zm5.066 2.75v-5.563h.68v5.563h-.68Zm4.226 0v-4.936H53.93v-.627h3.968v.627h-1.652v4.936h-.672Zm7.333 0-.486-1.355h-2.448l-.486 1.355h-.71l2.076-5.563h.672l2.092 5.563h-.71Zm-2.718-1.951h2.016L61.2 25.092h-.016l-.996 2.782Zm5.256 1.951v-5.563h.671v4.936h2.718v.627h-3.39Zm-39.162.533H5.808l-1.192.001H2.881l.002-2.97V6.61L2.88 5.4V3.64h1.14l1.787.001h20.475v8.906h-2.925V6.61H5.808v20.78h20.475v2.968Zm14.759-20.231c.888.222 1.57.64 2.046 1.254.49.614.734 1.378.734 2.292 0 1.149-.386 2.076-1.159 2.781-.759.706-1.859 1.058-3.3 1.058h-5.675V3.604h4.941c1.454 0 2.561.287 3.32.862.772.575 1.159 1.417 1.159 2.527 0 .679-.168 1.3-.502 1.86-.335.562-.856.98-1.564 1.255v.02Zm-4.69-4.094v3.271h1.95c.578 0 1.067-.137 1.466-.411.399-.287.599-.699.599-1.234 0-1.084-.747-1.626-2.24-1.626h-1.775Zm2.2 9.05c.746 0 1.338-.15 1.776-.45.438-.3.656-.738.656-1.313 0-.561-.206-.999-.617-1.312-.4-.327-.998-.49-1.796-.49h-2.22v3.565h2.201Zm13.677 2.586c-1.673 0-3.011-.516-4.015-1.547-1.004-1.045-1.505-2.502-1.505-4.369V3.604h2.721v7.973c0 1.031.245 1.874.734 2.527.502.653 1.19.98 2.065.98.85 0 1.538-.314 2.065-.941.528-.627.792-1.482.792-2.566V3.604h2.721v8.149c0 1.828-.495 3.271-1.486 4.33-.978 1.057-2.342 1.586-4.092 1.586Zm9.282-.157V3.604h2.722v13.908H61.51Zm6.595 0V3.604h2.721v11.46h6.1v2.448h-8.821Zm11.704 0V3.604h4.537c2.149 0 3.873.646 5.173 1.94 1.3 1.28 1.95 2.957 1.95 5.034 0 2.076-.638 3.754-1.912 5.034-1.26 1.267-2.979 1.9-5.153 1.9H79.81Zm2.684-2.448h1.737c1.313 0 2.374-.425 3.185-1.274.823-.848 1.235-1.92 1.235-3.212 0-1.306-.399-2.384-1.197-3.233-.797-.848-1.814-1.273-3.05-1.273h-1.91v8.992Zm12.189 2.448V3.604h8.763v2.468h-6.1v3.33h4.884v2.43h-4.884v3.232h6.505v2.448h-9.168Zm22.885 0h-3.204l-3.07-4.76h-1.582v4.76h-2.683V3.604h5.192c1.583 0 2.773.424 3.571 1.273.798.836 1.196 1.953 1.196 3.35 0 2.168-.938 3.565-2.817 4.192l3.397 5.093Zm-7.856-11.46v4.271h1.891c.824 0 1.461-.19 1.911-.568.451-.392.676-.92.676-1.587 0-.653-.219-1.169-.656-1.547-.425-.379-1.03-.568-1.815-.568h-2.007Z" fill="#352610"></path><path d="M20.433 9.579h-11.7V24.42h11.7V9.58Zm-8.775 11.874v-8.906h5.85v2.969h-2.925v2.968h2.925v2.969h-5.85Z" fill="#352610"></path></svg>