<svg xmlns:xlink="http://www.w3.org/1999/xlink" width="88" height="40" fill="none" xmlns="http://www.w3.org/2000/svg" id="svg1111958038_5986"><path d="M10.45 4.34c-.044.405.107.742.455 1.01.257.198.513.365.769.502.441.237.901.486 1.38.746a7.58 7.58 0 0 1 1.276.858c.568.482.942 1.056 1 1.816a5.95 5.95 0 0 1-.06 1.509c-.236 1.304-1.22 1.99-2.47 2.222a7.375 7.375 0 0 1-2.075.073c-1.41-.138-2.682-.774-3.009-2.254-.115-.52-.082-1.068-.084-1.609 0-.02.01-.03.03-.03h2.823c.017 0 .026.009.026.026.006.253.006.534-.001.844-.006.245.02.431.075.56.229.528.813.641 1.336.533.489-.102.685-.488.727-.95.05-.553-.284-.942-.712-1.249a8.406 8.406 0 0 0-.94-.585 32.476 32.476 0 0 1-1.433-.813 5.488 5.488 0 0 1-1.148-.898 2.487 2.487 0 0 1-.701-1.59 3.724 3.724 0 0 1 .162-1.485c.487-1.452 2.01-1.855 3.387-1.896.44-.013.876.011 1.31.073 1.245.178 2.347.822 2.496 2.172.036.324.045.715.025 1.17 0 .021-.011.032-.032.032h-2.596c-.028 0-.041-.014-.04-.042a4.814 4.814 0 0 0-.02-.795c-.086-.664-.715-.893-1.31-.746-.385.096-.603.405-.646.795Zm69.062 3.919h-1.055a.013.013 0 0 1-.013-.013v-1.52c0-.017.01-.026.026-.026h3.738c.019 0 .028.01.028.028.002.94 0 1.856-.002 2.748 0 .416-.02.87-.119 1.268-.367 1.496-1.779 2.063-3.216 2.146-1.754.102-3.88-.343-4.187-2.417a6.805 6.805 0 0 1-.074-.985c0-1.356 0-2.786.002-4.29 0-.282.021-.577.063-.884.139-1.034.652-1.758 1.54-2.172a4.375 4.375 0 0 1 1.383-.367 7.396 7.396 0 0 1 1.897.033c1.547.233 2.632 1.119 2.684 2.802.008.272.008.538 0 .797-.001.016-.01.024-.026.024h-2.638c-.02 0-.03-.01-.03-.031.005-.244.003-.484-.003-.721-.009-.288-.091-.52-.248-.694-.287-.322-.804-.39-1.202-.28-.538.149-.737.59-.737 1.13 0 1.638-.002 3.228-.006 4.768 0 .36.02.599.064.719.217.605.899.761 1.462.597a.94.94 0 0 0 .609-.51c.067-.138.098-.372.093-.702a52.481 52.481 0 0 1-.002-1.416c.001-.022-.01-.032-.031-.032ZM47.25 10.487c.063-.227.076-.448.037-.663-.095-.53-.738-.965-1.178-1.22-.751-.437-1.548-.83-2.266-1.327-.476-.328-.935-.756-1.187-1.278-.323-.67-.306-1.551-.115-2.25.414-1.517 1.965-1.967 3.35-2.005 1.284-.035 2.998.146 3.605 1.5.147.326.22.68.22 1.064l.002.83a.015.015 0 0 1-.015.016h-2.6c-.017 0-.026-.009-.027-.026-.008-.307.044-.704-.052-.988-.123-.371-.444-.572-.833-.596-.527-.031-.966.208-1.05.758a1.617 1.617 0 0 0-.01.252c.003.29.114.518.34.719.241.213.518.404.829.575.864.47 1.813.927 2.563 1.523.528.42.954.965 1.06 1.652a5.39 5.39 0 0 1-.017 1.7c-.278 1.701-1.843 2.27-3.375 2.33-1.477.058-3.356-.235-3.967-1.805a3.247 3.247 0 0 1-.22-1.207c.002-.27.001-.55-.001-.84 0-.02.01-.03.03-.03h2.784c.017 0 .025.008.025.025.007.248.007.517 0 .807-.006.235.018.42.07.556.172.447.613.607 1.094.582.447-.024.783-.217.905-.654ZM21.44 2.923l-1.47 9.75c-.003.017-.012.025-.03.025h-2.858a.01.01 0 0 1-.01-.012l1.97-10.637c.005-.018.015-.027.034-.027h4.708c.012 0 .019.006.021.017l1.962 10.633a.022.022 0 0 1-.022.026H22.92a.03.03 0 0 1-.03-.025l-1.43-9.729a.052.052 0 0 0-.011-.024c-.005-.006-.009-.006-.01.003Zm9.19.057c.02.188-.007.371-.006.561.001.54 0 1.057-.002 1.552 0 .047-.013.09-.012.136.004.61.003 1.185-.002 1.723-.018 1.799-.032 3.563-.042 5.293 0 .137-.005.28-.011.429 0 .016-.01.024-.026.024h-2.616c-.02 0-.03-.009-.029-.029l.23-10.621c0-.018.01-.026.027-.026h4.32c.012 0 .018.006.02.017l1.314 8.149c.014.084.028.084.041 0l1.314-8.139c.002-.018.013-.027.032-.027h4.3c.02 0 .031.01.032.031l.237 10.62c0 .017-.008.025-.024.025h-2.63a.039.039 0 0 1-.038-.038v-1.763c0-.025-.011-.041-.011-.066l-.004-1.727v-.079a64.1 64.1 0 0 1-.014-1.718v-.105a63.985 63.985 0 0 1-.013-1.81 117.62 117.62 0 0 1-.016-1.665c-.002-.257-.009-.5-.023-.726 0-.014-.002-.014-.004 0l-1.8 9.684c-.002.008-.008.013-.016.013h-2.683c-.014 0-.02-.006-.024-.018-.6-3.235-1.2-6.469-1.802-9.704-.001-.006-.004-.008-.01-.007-.006 0-.009.004-.008.01Zm29.054 8.36c-.406.972-1.36 1.445-2.382 1.599a7.717 7.717 0 0 1-1.843.046 4.95 4.95 0 0 1-1.198-.254c-1.225-.429-1.806-1.425-1.807-2.732-.002-2.654-.002-5.308 0-7.962 0-.008.006-.014.014-.014l2.666-.001c.018 0 .027.009.027.026.003 2.503.002 5.195-.002 8.077 0 .122.024.24.072.355.203.488.677.668 1.173.591a.936.936 0 0 0 .782-.659 1.81 1.81 0 0 0 .053-.51c-.003-2.63-.003-5.252-.002-7.866 0-.01.005-.014.015-.014h2.664c.02 0 .029.01.029.029.001 2.718 0 5.383-.002 7.997 0 .45-.087.88-.258 1.291Zm5.743-7.38c-.038-.127-.056-.124-.054.01l.147 8.583c0 .018-.008.027-.025.027h-2.59a.013.013 0 0 1-.013-.014V2.048c0-.017.009-.026.026-.026h3.914c.019 0 .032.01.038.029l2.464 8.425c.01.036.016.035.017-.002a11.05 11.05 0 0 0 0-.497c-.051-2.537-.097-5.18-.136-7.925 0-.02.01-.03.03-.03h2.592c.018 0 .027.009.027.026v10.505c0 .018-.01.027-.027.027h-3.755c-.02 0-.034-.01-.04-.03l-2.615-8.59ZM21.233 15.935h5.714c.01 0 .017.008.017.018V38.83c0 .01-.007.017-.017.017h-5.575a.017.017 0 0 1-.014-.008L13.41 26.296a.016.016 0 0 0-.03.009v12.526c0 .01-.008.017-.017.017H7.65a.017.017 0 0 1-.017-.017V15.952c0-.01.007-.017.017-.017h5.84c.005 0 .011.004.014.008l7.682 12.083c.009.015.03.008.03-.009V15.953c0-.01.008-.018.017-.018Zm12.761 14.198v3.12c0 .01.008.019.019.019h8.55c.011 0 .02.008.02.019v5.538c0 .01-.009.019-.02.019H28.265a.019.019 0 0 1-.02-.02V15.956c0-.011.01-.02.02-.02h14.298a.02.02 0 0 1 .02.02v5.538c0 .01-.009.019-.02.019h-8.55c-.01 0-.02.008-.02.019v2.988c0 .01.01.019.02.019h8.55c.011 0 .02.008.02.019v5.538c0 .01-.009.019-.02.019h-8.55c-.01 0-.02.008-.02.019Zm16.204-2.756-6.97-11.415a.017.017 0 0 1 .015-.027h6.48c.005 0 .011.004.014.008l7.243 11.435a.018.018 0 0 1 0 .019L49.763 38.84a.018.018 0 0 1-.015.008h-6.51a.017.017 0 0 1-.015-.027l6.975-11.426a.019.019 0 0 0 0-.018Zm14.043-11.416-3.826 6.036c-.006.01-.022.01-.029 0L56.69 15.96a.017.017 0 0 1 .014-.026h7.524c.013 0 .021.015.014.026Zm6.627 5.551h-5.593a.018.018 0 0 1-.018-.018v-5.54c0-.01.008-.019.018-.019h17.01c.01 0 .017.008.017.018v5.54c0 .01-.008.019-.018.019h-5.632a.018.018 0 0 0-.018.018v17.3c0 .01-.008.018-.018.018h-5.712a.018.018 0 0 1-.018-.018v-17.3a.018.018 0 0 0-.018-.018ZM56.682 38.823l3.705-6.047c.006-.01.021-.01.028 0l3.833 6.047a.017.017 0 0 1-.014.025h-7.538a.016.016 0 0 1-.014-.025Z" fill="#352610"></path></svg>