<svg xmlns:xlink="http://www.w3.org/1999/xlink" width="169" height="24" fill="none" xmlns="http://www.w3.org/2000/svg" id="svg-534180850_6732"><g clip-path="url(#svg-534180850_6732_a)" fill="none"><path d="M50.536.895c.096.134.091.541.091.541l-.107 2.62c-.014.34-.287.56-.606.486 0 0-2.77-.639-4.433-.639-2.738 0-4.749.817-6.03 2.452C38.168 7.989 37.685 9.91 38 12.12c.245 1.725.96 3.098 2.15 4.122 1.189 1.024 2.67 1.535 4.439 1.535 1.97 0 4.077-.675 6.318-2.025.231-.14.466-.203.58-.069a.604.604 0 0 1 .125.295l.03 3.42c.003.34-.247.712-.556.825 0 0-3.983 1.458-6.322 1.458-2.937 0-5.441-.892-7.514-2.678-2.07-1.784-3.31-4.114-3.72-6.99-.501-3.52.317-6.4 2.455-8.647C38.125 1.122 41.145 0 45.045 0c1.56 0 3.264.217 5.106.65.167.038.28.1.385.245Zm6.276 12.441c0-.18.191-.515.574-1.002.381-.489.801-.734 1.254-.734.526 0 1.331-.153 2.604 2.697l.809-5.375c-.406-.71-1.917-.76-2.828-.698-.837.058-1.612.718-2.446 2.027V9.1a.61.61 0 0 0-.595-.62H53.98a.61.61 0 0 0-.594.62v10.71c0 .34.267.62.594.62h2.239a.61.61 0 0 0 .594-.62v-6.473Z" fill="#352610"></path><path d="M70.103 8.479c.327 0 .51.264.404.587l-4.666 14.346c-.104.324-.457.588-.785.588h-2.39c-.328 0-.51-.264-.404-.587l1.185-3.543c.105-.323.071-.837-.075-1.142l-4.655-9.695c-.146-.305.002-.554.329-.554h2.22c.327 0 .71.251.853.558l2.715 5.86c.142.308.338.293.434-.034l1.71-5.792c.097-.326.444-.592.77-.592h2.355Zm5.605-2.3a.61.61 0 0 1 .595.62v1.074c0 .34.265.58.589.531 0 0 .781-.118 1.503-.118 1.495 0 2.773.477 3.831 1.432 1.057.954 1.693 2.207 1.91 3.765.277 1.995-.184 3.689-1.389 5.083-1.2 1.398-2.796 2.093-4.79 2.093a6.973 6.973 0 0 1-1.654-.23v2.951a.61.61 0 0 1-.595.62h-2.177a.61.61 0 0 1-.595-.62v-9.834c0-.34-.19-.423-.421-.182 0 0-.704.73-1.156 1.501-.236.41-.45.617-.639.617-.131 0-.208-.078-.23-.23-.05-.361.116-1.015.496-1.96.38-.947 1.002-1.865 1.919-2.758V6.799a.61.61 0 0 1 .594-.62h2.21Zm.595 4.897v5.842c0 .34.257.697.572.79 0 0 .205.062.567.062 1.198 0 2.069-.41 2.61-1.233.544-.82.735-1.813.573-2.976-.247-1.77-1.249-2.652-2.998-2.652-.4 0-.863.054-1.324.167ZM89.585 5.96c.327 0 .58.279.564.62l-.064 1.28a.573.573 0 0 0 .564.619h1.329c.327 0 .586.278.573.62l-.047 1.394c-.012.341-.29.62-.617.62h-1.315c-.327 0-.604.279-.616.62l-.086 2.63c-.011.34-.02.898-.018 1.24 0 0 0 .021.039.302.146 1.055.56 1.58 1.24 1.58.36 0 .744-.11 1.438-.485.091-.049.256-.108.334-.055.138.096.157.3.157.3l.284 2.043c.047.337-.164.714-.469.837 0 0-1.317.534-2.27.534-1.106 0-2.032-.367-2.769-1.099-.738-.732-1.188-1.68-1.35-2.845a5.701 5.701 0 0 1-.048-1.055l.145-3.928a.583.583 0 0 0-.572-.62h-1.127a.592.592 0 0 1-.58-.62l.035-1.394a.628.628 0 0 1 .61-.62h1.128a.626.626 0 0 0 .609-.62l.028-1.278a.626.626 0 0 1 .61-.62h2.261Zm10.029 2.326c1.666 0 3.102.522 4.305 1.56 1.204 1.04 1.921 2.394 2.15 4.062.262 1.899-.144 3.499-1.217 4.8-1.072 1.302-2.522 1.951-4.354 1.951-1.624 0-3.068-.556-4.336-1.668-1.266-1.113-2.01-2.474-2.232-4.08-.251-1.807.181-3.36 1.299-4.666 1.115-1.305 2.576-1.959 4.385-1.959Zm.51 9.483c.862 0 1.511-.412 1.946-1.239.436-.824.586-1.732.448-2.725-.108-.785-.405-1.42-.889-1.904a2.415 2.415 0 0 0-1.766-.724c-.909 0-1.567.425-1.97 1.277a4.625 4.625 0 0 0-.413 2.66c.11.802.428 1.447.956 1.93.527.483 1.09.725 1.688.725ZM122.329 0c.187 0 .341.157.341.35l.006 2.856c0 .192-.153.35-.34.35h-4.358a.346.346 0 0 0-.34.349v16.883c0 .192-.153.35-.34.35h-3.623a.346.346 0 0 1-.34-.35V3.905a.346.346 0 0 0-.34-.35h-5.192a.347.347 0 0 1-.341-.35L107.454.35a.344.344 0 0 1 .339-.349h14.536Zm4.985 8.479a.61.61 0 0 1 .595.62v10.71a.61.61 0 0 1-.595.62h-2.219a.61.61 0 0 1-.595-.62V9.098a.61.61 0 0 1 .595-.62h2.219Zm-2.933-3.315c-.07-.505.042-.937.338-1.297.295-.359.687-.539 1.172-.539.493 0 .935.18 1.33.539.394.36.625.792.694 1.297.07.514-.042.953-.338 1.312-.297.358-.69.539-1.183.539-.484 0-.925-.18-1.319-.54a2.113 2.113 0 0 1-.694-1.31Zm7.847 3.314a.61.61 0 0 1 .595.62v.948c0 .015.211-.145.47-.354 0 0 1.739-1.406 2.93-1.406 1.585 0 2.655.728 3.205 2.185 1.248-1.457 2.537-2.185 3.867-2.185 1.051 0 1.923.34 2.614 1.02.691.683 1.116 1.6 1.273 2.756.039.29.078.607.073.95v6.796a.61.61 0 0 1-.596.62h-2.2a.61.61 0 0 1-.595-.62v-5.623c0-.34-.008-.898-.018-1.24 0 0-.002-.063-.041-.356-.151-1.113-.557-1.668-1.213-1.668-.808 0-1.651.625-2.527 1.874v7.013a.61.61 0 0 1-.595.62h-2.205a.61.61 0 0 1-.595-.62v-5.587c0-.34-.027-.898-.058-1.237 0 0-.016-.163-.058-.473-.144-1.061-.569-1.59-1.279-1.59-.729 0-1.544.619-2.445 1.86v7.027a.61.61 0 0 1-.595.62h-2.227a.61.61 0 0 1-.594-.62V9.098c0-.34.267-.62.594-.62h2.22Zm27.064 6.366c-.102.097-.433.123-.433.123h-6.338c-.327 0-.539.273-.469.606 0 0 .224 1.08.791 1.634.567.552 1.274.832 2.12.832.789 0 1.88-.292 3.273-.872.256-.106.373-.16.62.021.163.12.121.46.121.46l-.103 1.532c-.023.34-.298.7-.611.8 0 0-2.126.679-3.292.679-1.731 0-3.185-.527-4.362-1.58-1.177-1.051-1.884-2.459-2.123-4.223-.246-1.82.149-3.372 1.182-4.65 1.035-1.28 2.411-1.92 4.127-1.92 1.487 0 2.738.461 3.752 1.382 1.016.922 1.623 2.135 1.827 3.643.049.372.071.758.063 1.153-.003.166-.024.265-.145.38Zm-7.133-1.994c.084.052.283.062.283.062h2.945c.327 0 .594-.13.592-.292l-.019-.146c-.071-.52-.277-.943-.626-1.264-.346-.321-.775-.482-1.284-.482-1 0-1.605.55-1.929 1.776-.03.11-.086.269.038.346Zm15.746-3.42c.071.116.081.49.081.49l.062 1.64c.013.341-.224.513-.526.382 0 0-.732-.316-1.396-.494-.664-.183-1.165-.27-1.502-.27-.499 0-.728.174-.681.523.048.353.569.876 1.565 1.578 1.144.804 1.901 1.476 2.271 2.015.374.54.595 1.076.667 1.619.145 1.078-.135 1.966-.841 2.667-.707.703-1.688 1.053-2.943 1.053-1.125 0-2.295-.267-3.511-.802-.194-.086-.354-.144-.466-.338-.092-.162-.088-.689-.088-.689l.054-1.277c.014-.34.281-.536.593-.434 0 0 1.982.65 2.672.65.746 0 1.091-.218 1.032-.657-.05-.37-.623-.945-1.719-1.726-1.098-.782-1.823-1.408-2.171-1.872-.354-.468-.556-.913-.614-1.34-.153-1.137.122-2.065.825-2.783.704-.72 1.686-1.079 2.942-1.079 1.019 0 2.081.264 3.188.791.188.09.392.164.506.352ZM23.206 6.029c.654 0 1.19.558 1.19 1.24v14.118c0 .683-.536 1.24-1.19 1.24H18.76c-.654 0-1.19-.557-1.19-1.24V7.269c0-.682.536-1.24 1.19-1.24h4.445Z" fill="#352610"></path><path d="M12.08 11.379c.219.19.732.125.732.125l4.089-.018s.278-.018.457-.254c.208-.273.203-.694.203-.694V3.212C17.56.89 13.407.002 10.014 0 3.369-.002.65 3.283.485 12.025c-.165 8.82 6.46 10.911 13.376 10.896 3-.008 9.517 0 9.517 0s.477 0 .796-.24c.27-.201.255-.784.255-.784v-4.62s.006-.5-.204-.805c-.271-.394-.82-.368-.82-.368L9.108 17.19s-1.271-.067-1.682-.475c-.794-.79-1.48-4.836-1.513-6.877-.034-2.139.177-2.54 3.314-2.523 3.29.018 2.853.765 2.853 1.654 0 .567-.24 2.203 0 2.41Z" fill="#5C4627"></path><path d="M28.945 5.873c0 .682-.535 1.24-1.19 1.24H14.211c-.655 0-1.19-.557-1.19-1.24V1.24c0-.682.535-1.24 1.19-1.24h13.544c.655 0 1.19.558 1.19 1.24v4.633Z" fill="#352610"></path></g><defs><clipPath id="svg-534180850_6732_a"><path fill="#fff" transform="translate(.483)" d="M0 0h168.001v24H0z"></path></clipPath></defs></svg>