<svg xmlns:xlink="http://www.w3.org/1999/xlink" width="146" height="28" fill="none" xmlns="http://www.w3.org/2000/svg" id="svg-589556487_7001"><path d="M16.226 4.34c-.91-1.655-2.534-2.511-4.234-1.232-.563.423-.965.996-1.205 1.72-.322.96-.338 1.966-.659 2.915-.552 1.635-1.725 2.737-3.52 3.306a.166.166 0 0 1-.188-.064l-.803-1.187a.089.089 0 0 1 .056-.137c1.873-.36 2.946-1.48 3.222-3.359.047-.33.102-.646.16-.947.4-2.033 1.592-3.69 3.6-4.269 2.112-.61 3.91.662 4.92 2.494a.094.094 0 0 1-.043.13c-.414.182-.8.404-1.162.662a.099.099 0 0 1-.144-.033Z" fill="#352610"></path><path d="M5.075 6.063c-.866 1.125-.794 2.57-.096 3.8.45.794 1.055 1.452 1.461 2.28.754 1.537.693 3.133-.179 4.79a.156.156 0 0 1-.164.079l-1.428-.26a.058.058 0 0 1-.038-.09c.561-.772.898-1.858.769-2.78-.088-.625-.348-1.226-.78-1.802a11.683 11.683 0 0 1-1.156-1.86c-1.369-2.798-.098-6.398 3.36-6.547a6.13 6.13 0 0 1 1.887.228.092.092 0 0 1 .065.113l-.341 1.3a.12.12 0 0 1-.15.083c-1.094-.327-2.493-.265-3.21.666Zm6.232-.593c1.025.733 2.336.985 3.42.59a5.23 5.23 0 0 0 1.402-.797c.376-.29.832-.576 1.366-.857 1.786-.94 3.925-.92 5.477.368 1.38 1.146 1.545 3.086 1.07 4.785a.073.073 0 0 1-.087.05l-1.364-.361c-.049-.013-.066-.045-.05-.092.395-1.263.274-2.822-1.003-3.49-1.016-.533-2.071-.537-3.162-.012-.915.44-1.626 1.138-2.52 1.583-1.54.77-3.148.727-4.827-.13a.19.19 0 0 1-.1-.205l.27-1.388a.07.07 0 0 1 .108-.043Z" fill="#352610"></path><path d="M25.242 13.54c-.584-1.4-1.897-2.02-3.322-2.214-2.498-.339-4.24-1.4-5.023-3.942a.1.1 0 0 1 .04-.112l1.226-.837a.073.073 0 0 1 .113.047c.21 1.214.953 2.383 2.051 2.855a4.97 4.97 0 0 0 1.29.368c1.76.248 3.298.73 4.401 2.111 1.96 2.453.908 5.148-1.61 6.58-.053.03-.094.018-.125-.033l-.716-1.191c-.033-.057-.022-.1.036-.132 1.316-.723 2.281-1.962 1.639-3.5Zm14.695 2.835c1.39-1.5.83-3.958-1.096-4.691-.858-.326-1.943-.176-2.867-.2-.047 0-.072-.027-.072-.074l.002-1.367c0-.067.034-.102.102-.1 1.075.014 2.212-.101 3.205.233 3.261 1.102 4.086 5.276 1.555 7.557-.72.648-1.477 1.006-2.274 1.077a19.98 19.98 0 0 1-2.493.046c-.06-.003-.091-.034-.091-.095l.004-1.352c0-.047.038-.085.085-.086 1.456-.006 2.844.233 3.94-.948Zm11.195-6.427h-6.096a.098.098 0 0 0-.098.098v1.346c0 .054.044.098.098.098h6.096a.098.098 0 0 0 .098-.098v-1.346a.098.098 0 0 0-.098-.098Zm4.403 7.378h4.585c.043 0 .077.034.077.077l-.005 1.384a.078.078 0 0 1-.078.078l-6.11-.002a.078.078 0 0 1-.079-.078l-.005-8.763c0-.044.034-.078.078-.078l1.383.001c.043 0 .078.035.078.078l-.002 7.225c0 .043.035.078.078.078Zm8.899-2.083v3.561a.077.077 0 0 1-.076.077l-1.373-.008a.094.094 0 0 1-.094-.093l-.004-5.095c0-.027.014-.042.041-.043 1-.013 2.072-.011 3.214.004.38.006.668-.031.864-.114 1.056-.438.725-2.042-.469-2.043l-3.554.001a.098.098 0 0 1-.098-.1v-1.347c0-.073.036-.108.11-.106.856.024 1.75.024 2.68.003.901-.022 1.524.041 1.867.189 2.703 1.152 1.89 5.045-1.037 5.038l-1.988-.006c-.055 0-.082.027-.082.082Zm8.968.013.002 3.534c0 .04-.034.075-.075.075l-1.393-.01a.074.074 0 0 1-.075-.075l.007-8.76c0-.042.033-.075.075-.075l1.386.002c.042 0 .076.033.076.075v3.523c0 .042.034.075.076.075l3.588-.003a.074.074 0 0 0 .075-.075l.002-3.525c0-.041.033-.075.075-.075l1.4.006c.042 0 .076.033.076.075l-.002 8.77a.074.074 0 0 1-.075.075l-1.4-.002a.074.074 0 0 1-.076-.075l.002-3.535a.074.074 0 0 0-.075-.075h-3.594a.074.074 0 0 0-.075.075Zm9.433-5.312H81.45a.08.08 0 0 0-.08.08v8.759a.08.08 0 0 0 .08.079h1.386a.08.08 0 0 0 .08-.08v-8.759a.08.08 0 0 0-.08-.08Zm9.767 7.382c1.387-.002 2.586-.834 2.935-2.157.393-1.498-.394-3.009-1.861-3.519-.814-.282-1.87-.143-2.764-.163-.05-.001-.075-.026-.075-.076l.001-1.37c0-.067.034-.1.1-.1.586.003 1.171.006 1.755.007 4.175.016 6.085 5.174 2.907 7.856-1.414 1.193-2.914 1.105-4.675 1.055-.06-.002-.088-.033-.088-.092v-1.364c0-.044.037-.08.082-.08.538.003 1.1.004 1.683.003Zm8.748-7.381h-1.389a.08.08 0 0 0-.08.08v8.762c0 .044.036.08.08.08h1.389a.08.08 0 0 0 .08-.08v-8.762a.08.08 0 0 0-.08-.08Zm15.814 0h-1.377a.08.08 0 0 0-.081.081v8.754c0 .044.036.08.081.08h1.377a.08.08 0 0 0 .081-.08v-8.754a.08.08 0 0 0-.081-.08Zm6.676 1.619.001 7.229a.074.074 0 0 1-.075.075l-1.395-.01a.075.075 0 0 1-.075-.075l.005-7.216a.074.074 0 0 0-.075-.075l-2.212-.005a.074.074 0 0 1-.075-.075l.007-1.39c0-.042.033-.075.075-.075l6.129.001c.042 0 .075.033.075.075l.001 1.394a.074.074 0 0 1-.074.075l-2.237-.003a.074.074 0 0 0-.075.075Zm5.279 7.294-1.535.007a.052.052 0 0 1-.049-.07l3.214-8.815a.051.051 0 0 1 .049-.035l1.569.003c.022 0 .041.013.049.035l3.213 8.813a.052.052 0 0 1-.049.07l-1.531-.007a.053.053 0 0 1-.049-.035l-2.375-6.495a.052.052 0 0 0-.098 0l-2.359 6.494a.053.053 0 0 1-.049.035Zm10.837-1.532h4.308a.08.08 0 0 1 .081.08l-.002 1.375a.08.08 0 0 1-.08.08l-5.85.002a.08.08 0 0 1-.081-.08l-.001-8.761a.08.08 0 0 1 .081-.081l1.382.007a.08.08 0 0 1 .08.08l.002 7.217c0 .044.036.08.08.08Zm-28.659-2.136-1.36-.016c-.054-.001-.081-.029-.081-.082l-.007-1.404c0-.03.024-.055.055-.055l3.023.006c.054 0 .082.026.087.08.125 1.312-.169 2.432-.882 3.362-2.334 3.042-7.111 1.98-7.911-1.771-.442-2.082.666-4.14 2.6-4.987 1.62-.71 3.498-.359 4.812.85.048.045.049.12.003.166l-.909.91a.118.118 0 0 1-.159.007c-.814-.682-1.688-.914-2.623-.698-2.402.558-3.098 3.645-1.149 5.154 1.655 1.28 3.903.468 4.57-1.423.023-.066 0-.1-.069-.1ZM7.83 20.2c-1.008-1.14-2.433-1.084-3.77-1.413-2.043-.502-3.667-2.02-3.925-4.119-.226-1.852 1.01-3.397 2.591-4.283a.099.099 0 0 1 .136.036l.683 1.182c.029.049.019.088-.032.115-1.037.576-2.1 1.662-1.819 2.931.356 1.61 1.643 2.5 3.223 2.742.393.059.782.13 1.17.213 2.111.452 3.492 1.72 4.143 3.802.02.059.002.106-.05.142l-1.202.822c-.07.047-.112.03-.125-.053A4.17 4.17 0 0 0 7.83 20.2Z" fill="#352610"></path><path d="M22.502 12.107c-.791 1.048-1.016 2.505-.54 3.61.193.448.45.878.772 1.287 1.111 1.412 1.82 3.194 1.356 4.964-.416 1.59-1.36 2.59-2.834 2.999-.91.252-1.945.138-2.851-.108a.079.079 0 0 1-.055-.094l.355-1.346a.086.086 0 0 1 .106-.06c1.743.518 3.335.044 3.79-1.827.319-1.305-.266-2.556-1.079-3.595a8.219 8.219 0 0 1-.648-.969c-.936-1.627-.94-3.335-.012-5.126a.178.178 0 0 1 .192-.094l1.412.267a.059.059 0 0 1 .036.092Zm27.594 1.511h-5.081a.072.072 0 0 0-.072.072v1.415c0 .04.032.072.072.072h5.081c.04 0 .072-.032.072-.072V13.69a.072.072 0 0 0-.072-.072Zm1.037 3.708h-6.1a.09.09 0 0 0-.09.09v1.358c0 .05.04.09.09.09h6.1c.05 0 .09-.04.09-.09v-1.358a.09.09 0 0 0-.09-.09Z" fill="#352610"></path><path d="M16.726 22.132c.302-2.169 1.653-3.728 3.806-4.408a.138.138 0 0 1 .153.052l.827 1.18c.035.05.007.12-.053.13-1.728.315-2.919 1.502-3.184 3.247-.09.585-.2 1.134-.334 1.649-.52 1.997-2.063 3.572-4.13 3.809-1.855.211-3.403-1.066-4.274-2.654-.016-.027-.01-.05.019-.066l1.235-.695c.042-.024.076-.016.1.026.975 1.633 2.137 2.188 3.484 1.665 1.694-.66 2.127-2.325 2.35-3.935Z" fill="#352610"></path><path d="M15.032 22.857c-1.379-.574-2.643-.415-3.788.474-1.518 1.178-3.286 2.082-5.255 1.574-2.734-.705-3.653-3.102-2.908-5.684.014-.052.047-.07.1-.058l1.352.358c.036.01.058.046.048.082-.382 1.282-.277 2.856 1.078 3.538 1.744.878 3.27.036 4.681-1.045 1.74-1.33 3.848-1.459 5.798-.385.052.027.072.07.062.128l-.257 1.394a.09.09 0 0 1-.142.056 3.769 3.769 0 0 0-.769-.432Z" fill="#352610"></path></svg>