<svg xmlns:xlink="http://www.w3.org/1999/xlink" width="181" height="16" fill="none" xmlns="http://www.w3.org/2000/svg" id="svg432291031_16026"><g clip-path="url(#svg432291031_16026_a)" fill="#352610"><path d="M-.316-.246h14.548v10.04c-2.275-2.166-4.3-4.67-6.416-7.028-1.25 1.356-2.452 2.636-3.614 3.916.24.352.286.402.632.904.964-1.054 2.093-2.109 2.982-3.063.965.848 1.731 1.977 2.657 2.887 2.96 3.188 3.759 4.041 3.759 4.091v4.318c-1.293.433-2.713.645-3.976 0-2.473-2.536-4.655-5.312-7.048-7.932C1.98 9.029.924 10.368-.226 11.602h-.09V-.246Zm79.939 3.213h4.428v.301l-.3.076c-.354.133-.422.183-.604.527-.042.222-.042.222-.039.46l-.005.274-.002.293-.005.303c-.005.318-.008.636-.01.954l-.01.648c-.008.528-.014 1.057-.02 1.586h3.977a301.81 301.81 0 0 0-.014-1.903 87.244 87.244 0 0 1-.004-.647c0-.31-.004-.62-.009-.93l.001-.292c-.009-.464-.018-.679-.279-1.057-.241-.194-.394-.263-.69-.292v-.3h4.428v.3l-.538.108c-.275.139-.329.291-.456.595-.039.312-.036.62-.034.934l-.002.283v1.566l.001 1.346c.002.575 0 1.15 0 1.724a345.093 345.093 0 0 0-.001 1.963c-.001.296 0 .593.001.889l-.001.265c.004.468.022.8.308 1.17.323.138.323.138.632.202v.3H86.04v-.3l.3-.076c.353-.133.421-.183.603-.527.042-.218.042-.218.04-.45l.005-.272.002-.283.004-.262c.005-.322.008-.645.011-.967l.029-2.183h-3.976l.017 2.177.002.685.007.54v.281c.008.46.019.669.278 1.044.242.196.394.264.69.293v.3h-4.428v-.3l.538-.108c.275-.139.33-.291.456-.595.04-.312.037-.62.035-.934l.002-.283v-1.566c0-.448 0-.897-.002-1.346-.001-.574 0-1.15.001-1.724V6.43l.001-.636c0-.296 0-.593-.002-.889l.002-.265c-.005-.471-.03-.79-.308-1.17-.181-.102-.181-.102-.378-.133l-.345-.069v-.3Zm-42.651 0c.712-.007 1.424-.012 2.136-.015l.992-.007c.32-.004.64-.006.96-.006l.538-.006c1.072 0 2.112.159 2.965.938.623.802.765 1.584.751 2.627-.06.8-.323 1.614-.842 2.192-.23.19-.472.347-.722.502l-.272.201.136.115c.683.615 1.06 1.373 1.485 2.215l.09.18.091.18c.603 1.254.603 1.254 1.555 2.112l.19.042.34.076v.3c-.389.01-.776.015-1.164.02l-.33.007c-.975.01-1.801-.124-2.54-.88-.828-.955-1.272-2.258-1.67-3.485-.189-.556-.39-1.004-.893-1.284v-.3c.11-.016.11-.016.221-.03.744-.09.744-.09 1.315-.573.41-.922.616-1.883.339-2.887-.172-.507-.36-.822-.785-1.104-.32-.139-.636-.158-.978-.184l-.32-.025-.244-.017a2073.872 2073.872 0 0 0 .038 5.417 654.625 654.625 0 0 0 .016 2.29l.007.887.001.264c.006.462.032.855.209 1.282.288.214.476.252.813.302v.3h-4.428v-.3l.175-.034.227-.048.225-.046.187-.073a2.13 2.13 0 0 0 .102-.717V9.514a1089.634 1089.634 0 0 1 0-3.195V3.963c-.006-.215-.006-.215-.102-.494-.19-.08-.19-.08-.413-.119l-.226-.048-.175-.034v-.3ZM35.109 4.11c1.154 1.228 1.674 2.652 1.72 4.415.017 1.816-.304 3.352-1.455 4.715-1.224 1.278-2.753 1.716-4.399 1.697-1.37-.09-2.633-.497-3.671-1.528l-.172-.166c-.97-1-1.42-2.44-1.476-3.89-.038-1.88.236-3.603 1.45-5.024 2.07-2.141 5.844-2.303 8.003-.22Zm-5.878.462c-1.074 1.564-1.24 3.563-1.046 5.461.167 1.275.519 2.596 1.468 3.426.707.518 1.326.682 2.169.552.837-.304 1.416-.811 1.846-1.66.837-1.907.898-4.174.35-6.19-.344-1.058-.839-1.856-1.735-2.393-1.061-.524-2.313-.169-3.052.804Z" fill="#352610"></path><path d="m76.511 2.948.196.047c.505.132.888.331 1.38.575v3.213h-.18l-.1-.302c-.347-1.023-.701-1.974-1.618-2.51a3.32 3.32 0 0 0-2.603-.144c-.746.344-1.305.935-1.644 1.75-.678 2.078-.753 4.592.033 6.646.323.723.717 1.24 1.385 1.575.627.226 1.31.222 1.92-.056.5-.286.838-.68 1.09-1.237.04-.326.04-.326.033-.679v-.39l-.003-.201a46.347 46.347 0 0 1 0-.613c.044-.675.044-.675-.21-1.229a9.684 9.684 0 0 0-.633-.1V8.99h4.156v.302l-.154.036-.201.051-.2.05c-.186.046-.186.046-.258.264-.004.216-.003.431 0 .647v.606c0 .138.002.277.005.415.023 1.14.023 1.14-.26 1.627-1.011 1.163-2.555 1.821-3.992 1.926l-.213.016c-1.473.058-2.846-.384-3.983-1.447-1.181-1.271-1.575-2.908-1.61-4.693.038-1.868.484-3.474 1.706-4.795.7-.669 1.56-1.09 2.474-1.23l.213-.036c1.09-.151 2.202-.04 3.271.218ZM25.226.658v3.414h-.271l-.024-.243c-.08-.674-.143-1.107-.61-1.565-.375-.214-.733-.234-1.147-.242l-.177-.005c-.215-.007-.43-.011-.646-.016l-1.463-.038v5.522c1.695.116 1.695.116 3.005-.615.209-.381.273-.755.339-1.192h.27v4.518h-.27l-.034-.18c-.11-.633-.11-.633-.328-1.225-.371-.267-.738-.317-1.173-.333l-.318-.013-.333-.012-.336-.013-.822-.031c.006.673.014 1.347.024 2.02l.008.687c.002.33.007.66.012.99l.002.308c.012.651.052 1.214.48 1.705.244.14.468.18.74.214v.3h-4.88v-.3l.53-.108c.294-.142.386-.288.554-.595.054-.37.05-.736.047-1.11l.002-.338v-1.88c0-.539 0-1.077-.002-1.616a297.54 297.54 0 0 1 0-1.865c.003-.6.002-1.198.001-1.798l.001-.763c.001-.356 0-.712-.002-1.067l.002-.32c-.005-.449-.008-.714-.22-1.104-.199-.196-.316-.266-.574-.32l-.34-.068V1.06l.239-.002a570.99 570.99 0 0 0 2.236-.022c.383-.005.767-.008 1.15-.011l1.113-.012.42-.003c.943-.005 1.881-.352 2.794-.352Zm29.819 2.008v3.213h-.18l-.044-.268c-.146-.9-.146-.9-.68-1.54-.304-.112-.55-.12-.87-.132l-.321-.011-.407-.013-1.293-.044v4.518l1.01-.031.317-.008.252-.01.257-.008c.288-.052.46-.152.694-.345a4.04 4.04 0 0 0 .361-1.204h.271v4.216h-.27l-.034-.18c-.104-.638-.104-.638-.328-1.225-.762-.313-.762-.313-2.53-.301v4.518c1.923.015 1.923.015 3.524-.904.435-.563.682-1.214.903-1.908l.271.1a954.263 954.263 0 0 1-.414 2.57l-.035.216c-.082.505-.082.505-.183.729h-7.41v-.301l.3-.076c.398-.149.398-.149.604-.527.04-.313.039-.624.038-.94l.002-.29c.002-.314.002-.629.002-.944l.002-.656c.002-.459.002-.918.001-1.376 0-.588.002-1.176.006-1.764.002-.452.003-.904.002-1.356 0-.217.001-.433.003-.65.002-.303.001-.606 0-.91l.003-.27c-.005-.445-.02-.627-.273-.989-.242-.2-.392-.268-.69-.297v-.3c.074-.002.148-.002.224-.003a764.058 764.058 0 0 0 3.176-.04 233.89 233.89 0 0 0 1.438-.018c.664-.006 1.305-.027 1.954-.198.166-.043.166-.043.347-.043Zm5.432.034.204.014.638.046.436.03c.353.025.707.05 1.06.077.012.649-.014 1.276-.09 1.92a473.03 473.03 0 0 1-.09.79h-.27l-.028-.176c-.11-.637-.249-1.12-.747-1.511-.657-.253-1.287-.306-1.942-.021-.369.215-.587.47-.718.905-.034.515-.01.794.271 1.205.244.222.505.411.768.603l.23.17c.318.238.638.473.958.707l.688.51.211.152c.69.513 1.332 1.18 1.533 2.107.175 1.182.02 2.292-.592 3.281-.588.85-1.437 1.223-2.373 1.378-1.214.136-2.468-.021-3.507-.775-.336-.387-.29-.884-.285-1.397.043-.663.185-1.33.472-1.916h.27l.005.206c.04.87.252 1.517.753 2.19.704.634 1.33.792 2.225.716.514-.126.79-.441 1.084-.904.112-.371.131-.717.09-1.104-.103-.234-.224-.678-.427-.785a5.099 5.099 0 0 1-.591-.41l-.224-.175-.237-.186a656.538 656.538 0 0 0-.732-.575c-.2-.156-.4-.31-.603-.463-.815-.62-1.608-1.238-1.848-2.36-.137-1.018-.043-1.982.387-2.902.845-1.116 1.715-1.447 3.021-1.347Zm31.255-.034 1.265.2a11.55 11.55 0 0 0 .918.028h1.033l.893-.001h1.134a208.483 208.483 0 0 0 1.301.001l.588-.001h.335c.556-.037 1.107-.14 1.659-.227v3.112h-.271l-.007-.176c-.036-.548-.113-.9-.445-1.33-.54-.446-1.143-.425-1.79-.458l-.242-.013-.588-.03c.003 1.302.008 2.604.016 3.906.004.604.007 1.21.008 1.814l.009 1.75.002.668c0 .311.003.623.006.934l-.002.28c.005.506.005.506.216.944.244.18.45.216.739.246v.3H94.08v-.3l.3-.076c.398-.148.398-.148.604-.527.04-.319.04-.636.039-.958l.002-.294a741.32 741.32 0 0 1 .01-1.628l.01-1.755c.002-.597.006-1.194.01-1.79.008-1.172.014-2.343.019-3.515-.27.01-.538.02-.808.032l-.227.007c-.625.03-1.268.098-1.715.62-.18.44-.258.873-.322 1.35h-.271V2.665Zm32.891-.1c.362 0 .362 0 .491.126l.13.187c.314.425.654.808 1.006 1.193.663.728.663.728.943 1.098.312.41.656.783.999 1.16.395.435.778.869 1.136 1.34.311.386.647.744.978 1.107.32.354.624.714.915 1.097.321.397.668.768 1.011 1.142l.161.177.146.158c.126.15.126.15.307.452.006-1.011.011-2.022.014-3.032.001-.47.003-.94.006-1.408a307.938 307.938 0 0 0 .009-1.878c.002-.242.002-.484.002-.726l.003-.216c-.003-.463-.083-.782-.305-1.174-.201-.114-.201-.114-.424-.138l-.221-.04-.168-.023v-.301h3.072v.301l-.168.026-.222.043-.219.039c-.292.133-.343.277-.475.595-.038.296-.036.59-.033.889v.268c0 .293.001.585.003.878v.614l.004 1.29c.003.547.004 1.093.004 1.64l.003 1.576.001.299c.002 1.167.027 2.325.108 3.49-.414-.085-.603-.357-.87-.697l-.29-.358-.145-.18c-.2-.243-.41-.474-.621-.704a13.29 13.29 0 0 1-.728-.86c-.275-.357-.57-.687-.87-1.017a18.31 18.31 0 0 1-1.003-1.192c-.228-.283-.471-.549-.714-.816-.35-.384-.683-.775-1.002-1.192-.273-.338-.566-.653-.857-.972a18.93 18.93 0 0 1-1.033-1.25 7.314 7.314 0 0 0-.09-.1c-.004 1.013-.007 2.025-.009 3.038-.001.47-.002.94-.005 1.41-.001.454-.003.907-.003 1.361l-.002.52-.001.727-.002.216c.001.49.041.881.361 1.237.247.153.467.191.745.226v.301h-3.072v-.3l.345-.082c.287-.08.476-.138.649-.42.115-.382.103-.74.102-1.137l.001-.258-.001-.85.001-.593-.001-1.248.001-1.585V6.228a59.645 59.645 0 0 0-.103-3.662Zm31.446.301c.677-.01 1.353-.017 2.03-.022l.69-.008c.331-.005.663-.008.995-.01l.308-.006c.985 0 1.848.284 2.573 1.05.516.723.639 1.503.633 2.41-.102.891-.371 1.706-1.01 2.287-.368.28-.754.517-1.159.725l.118.142c.41.506.758 1.035 1.096 1.602.415.684.838 1.34 1.316 1.97l.139.202c.41.58.912.91 1.578 1.003v.301c-1.122.035-1.904-.012-2.801-.803l-.174-.15c-.704-.697-1.146-1.677-1.633-2.56-.689-1.252-.689-1.252-1.762-2.053l-.226-.056V8.59l.162-.012c.248-.02.494-.042.741-.064l.256-.018c.547-.051 1.008-.15 1.461-.509.172-.212.172-.212.266-.451l.104-.23a3.927 3.927 0 0 0 .065-2.38c-.3-.645-.723-1.02-1.338-1.256a8.4 8.4 0 0 0-1.175-.075l-.317-.01a58.75 58.75 0 0 0-.767-.015c.003 1.272.008 2.545.016 3.817.004.591.007 1.182.008 1.773.001.57.005 1.14.009 1.71l.002.653c0 .305.003.61.006.914l-.002.273c.008.544.073.878.412 1.301.209.075.42.143.633.201l.09.301h-3.343v-.3l.171-.056.224-.077.223-.074c.225-.086.225-.086.376-.396.027-.194.027-.194.024-.407l.002-.25v-.273l.002-.288c.002-.316.002-.63.002-.946l.002-.657.001-1.378c0-.589.003-1.178.006-1.766.002-.453.002-.905.002-1.357l.003-.651v-.911l.003-.272c-.004-.408-.019-.631-.209-.99-.266-.261-.483-.274-.832-.296v-.301ZM3.313 9.845a180.791 180.791 0 0 0 5.557 5.974H.015v-2.61c.072-.07.644-.67.718-.741.074-.08.147-.16.223-.24.231-.249.47-.487.708-.727l.474-.508c.579-.612.579-.612.872-.905l.178-.18c.17-.113-.051-.068.125-.063ZM103.298.859h3.614v.301l-.265.144c-.259.127-.259.127-.367.258-.06.728.125 1.296.351 1.974l.111.343.362 1.103.248.759a850.365 850.365 0 0 1 1.399 4.29c.08.25.162.498.243.747l.145.447.066.202c.147.453.147.453.147.677h.181l.037-.224c.048-.25.109-.476.188-.715l.084-.255.092-.275.096-.291.316-.951.218-.66c.373-1.123.751-2.245 1.135-3.364l.108-.315c.171-.496.342-.993.515-1.489l.185-.537.086-.244c.177-.517.265-.882.102-1.423-.317-.124-.317-.124-.632-.201V.859h3.253v.301l-.162.048c-.557.183-.915.376-1.208.965a25.262 25.262 0 0 0-.751 1.888l-.113.316-.368 1.025-.257.718-.537 1.5-.619 1.728a8892.777 8892.777 0 0 0-1.207 3.37l-.105.29a20.24 20.24 0 0 0-.547 1.807c-.271-.1-.271-.1-.369-.3l-.095-.272-.115-.322-.127-.368a1736.04 1736.04 0 0 0-.459-1.308 406.902 406.902 0 0 0-.777-2.205l-.255-.72-.389-1.1-.512-1.449-.47-1.33a3638.148 3638.148 0 0 0-.939-2.647l-.071-.205c-.183-.506-.373-.92-.825-1.164l-.267-.096-.269-.099-.205-.07V.859ZM63.9 2.967h4.518v.301l-.171.052-.224.074-.222.07c-.245.132-.277.231-.377.507-.027.2-.027.2-.023.411l-.002.245v.549c-.002.309-.002.617-.002.925l-.001.643v1.348c0 .576-.001 1.151-.003 1.727-.002.443-.002.885-.001 1.328 0 .212 0 .425-.002.637v.89l-.001.266c.003.472.028.79.306 1.172.182.101.182.101.379.132l.344.069v.3H63.9v-.3l.539-.118c.257-.116.32-.212.455-.485.042-.313.04-.624.038-.94l.002-.29c.003-.314.003-.629.003-.944a371.318 371.318 0 0 0 .003-2.033c-.001-.587.002-1.175.005-1.763.003-.452.003-.904.003-1.356 0-.217 0-.433.002-.65.002-.303.001-.606 0-.91l.003-.27c-.005-.443-.02-.627-.27-.989-.269-.22-.452-.27-.783-.297v-.3Zm81.054-.1h2.982v.301c-.268.066-.536.133-.813.2a5.342 5.342 0 0 0-.103 1.117l-.002.369v.397l-.001.412-.001.865c0 .366-.001.731-.003 1.096l-.001.854-.002.596c.003 1.563.058 3.16 1.085 4.343.631.599 1.32.66 2.129.633.826-.095 1.509-.43 2.05-1.143.68-1.13.66-2.427.656-3.74l.001-.465-.001-.967V5.538l.001-.457-.001-.637-.001-.366c-.022-.296-.055-.465-.203-.71-.176-.09-.176-.09-.373-.125l-.35-.075v-.301h2.801v.301l-.299.031c-.378.07-.378.07-.605.37-.041.317-.041.317-.035.685l-.001.21-.001.452c.001.24-.001.479-.002.719-.004.51-.005 1.02-.006 1.53-.001.588-.003 1.176-.007 1.764l-.001.701c-.004 1.27-.099 2.498-.76 3.578l-.158.27c-.798.91-1.827 1.286-2.949 1.34-1.164-.01-2.192-.282-3.071-1.17-1.024-1.249-1.077-2.794-1.078-4.399l-.004-.699c-.005-.661-.008-1.322-.01-1.984-.002-.407-.004-.814-.008-1.22l-.001-.464c0-.215-.002-.43-.004-.644l-.001-.37c-.014-.296-.014-.296-.155-.486-.219-.164-.435-.182-.694-.214v-.301Zm-23.132-.301v2.208h-.271l-.033-.19-.046-.249-.045-.247c-.045-.236-.045-.236-.238-.418a10.043 10.043 0 0 0-.788-.042l-.21-.005-.775-.016-1.751-.037v4.719l1.435-.032.452-.007.355-.01.186-.002c.197-.004.197-.004.464-.05.192-.32.226-.529.271-.903h.271v2.81h-.271l-.033-.193-.046-.252-.045-.25a11.18 11.18 0 0 0-.057-.208c-.267-.148-.513-.123-.811-.132l-.343-.012-.438-.013-1.39-.044v4.82l1.35-.032.421-.007c.796-.024 1.626-.05 2.252-.677.32-.448.539-.983.766-1.493h.272c-.199.992-.512 1.952-.814 2.911h-6.506v-.3l.53-.099c.304-.161.396-.378.555-.705.05-.31.048-.612.045-.925l.001-.277c.002-.3 0-.6-.002-.9l.001-.628-.003-1.315c-.003-.56-.003-1.122-.001-1.683 0-.432 0-.864-.002-1.296v-.62c.001-.29-.001-.58-.003-.869l.001-.258c-.005-.495-.059-.842-.308-1.27-.201-.113-.201-.113-.424-.137l-.221-.04-.169-.023v-.301l.178-.003a562.896 562.896 0 0 0 2.528-.04c.331-.004.661-.01.992-.016l.305-.003c.612-.013 1.198-.08 1.801-.197.25-.042.25-.042.612-.042Zm50.422 0v2.208h-.271l-.034-.19a40.05 40.05 0 0 0-.046-.249l-.044-.247c-.045-.236-.045-.236-.238-.418a10.07 10.07 0 0 0-.788-.042l-.21-.005-.775-.016-1.751-.037v4.719c.71-.02.71-.02 1.434-.038l.453-.01.354-.011.187-.004c.362-.002.362-.002.644-.239.036-.233.067-.467.091-.702h.271v2.81h-.271a19.758 19.758 0 0 0-.079-.445l-.045-.25-.057-.208c-.267-.148-.514-.123-.811-.132l-.344-.012-.438-.013-1.389-.044v4.82l1.35-.032.42-.007c.864-.026 1.664-.083 2.329-.762.305-.42.495-.917.69-1.408h.271c-.198.992-.511 1.952-.813 2.911h-6.506v-.3l.344-.082c.288-.08.477-.138.65-.42.12-.401.104-.786.105-1.204l.001-.28c.002-.305.002-.61.003-.916l.001-.637.002-1.335c0-.57.003-1.141.005-1.712.002-.438.002-.876.003-1.315l.002-.63v-.883l.003-.264c-.003-.47-.027-.787-.306-1.166-.202-.102-.202-.102-.423-.132l-.222-.043-.168-.026v-.301l.177-.003a559.07 559.07 0 0 0 2.529-.04c.331-.004.661-.01.991-.016l.305-.003c.613-.013 1.198-.08 1.801-.197.251-.042.251-.042.613-.042Zm5.145-.019h.204c.612.006 1.186.096 1.789.22v2.208h-.271a23.932 23.932 0 0 0-.04-.202c-.145-.633-.275-.947-.773-1.304-.573-.212-1.298-.221-1.853.063-.413.273-.704.63-.858 1.142-.075.676.098 1.167.452 1.707.336.384.716.715 1.092 1.05.281.252.554.514.828.776l.159.152.306.293.412.39c.722.694 1.097 1.33 1.202 2.393.039.905-.202 1.674-.724 2.37-.649.74-1.359.956-2.281 1.01-.791-.043-1.555-.184-2.259-.603l-.203-.108c-.259-.315-.204-.661-.193-1.071l.001-.24c.006-.498.072-.92.214-1.392h.271l.03.242c.118.872.248 1.476.884 2.041.456.339.991.397 1.526.327.578-.132 1.063-.393 1.446-.903.265-.59.302-1.301.114-1.929-.473-.934-1.392-1.604-2.129-2.265a25.207 25.207 0 0 1-.941-.922c-.207-.211-.207-.211-.444-.402-.23-.22-.334-.398-.463-.7l-.112-.255a3.51 3.51 0 0 1-.004-2.343c.336-.798.828-1.249 1.539-1.626.348-.139.713-.12 1.079-.12Zm-41.922-.082.903.201c.239.017.479.026.719.026l.199.001h2.035c.4-.002.801-.001 1.201 0a231.137 231.137 0 0 0 1.374 0l.621-.001h.355c.457-.024.457-.024 1.267-.227v2.31h-.271a44.575 44.575 0 0 1-.027-.188l-.041-.246-.038-.243c-.098-.3-.187-.37-.436-.528a5.283 5.283 0 0 0-.688-.052l-.199-.005a224.244 224.244 0 0 1-1.053-.023c-.347-.008-.695-.015-1.042-.02a2428.756 2428.756 0 0 0 .031 5.59c.003.57.006 1.14.011 1.71a308825.007 308825.007 0 0 0 .009 1.567v.272c.007.507.055.864.31 1.302.179.133.179.133.379.188l.344.113v.301h-3.253v-.3l.294-.07c.395-.153.489-.239.7-.634.053-.326.051-.647.05-.978l.002-.297c.003-.323.003-.647.003-.97l.005-.673c.004-.59.006-1.18.007-1.77.002-.603.006-1.205.009-1.807.007-1.182.012-2.363.015-3.545a204.202 204.202 0 0 0-1.629.043c-.199.004-.397.01-.595.016l-.186.004c-.322.01-.576.03-.843.238-.102.24-.102.24-.158.515a85.03 85.03 0 0 1-.067.277l-.046.212h-.271V2.465Z" fill="#352610"></path></g><defs><clipPath id="svg432291031_16026_a"><path fill="#fff" transform="translate(.015 .754)" d="M0 0h180v14.492H0z"></path></clipPath></defs></svg>