<svg xmlns:xlink="http://www.w3.org/1999/xlink" width="151" height="61" fill="none" xmlns="http://www.w3.org/2000/svg" id="svg1012349104_17263"><g clip-path="url(#svg1012349104_17263_a)" fill="none"><path d="m109.479 24.996 1.375.026c.257.004.377.136.357.393a.33.33 0 0 0 .007.094c.054.25-.048.375-.305.372l-3.683-.045c-.152-.002-.228-.08-.227-.23v-.415c.001-.155.078-.226.233-.213.205.018.396.006.572-.036.712-.17.753-.841.753-1.446l.005-10.327c0-1.08.07-2.176.022-3.262-.002-.047-.027-.07-.075-.07h-1.305a.185.185 0 0 1-.185-.183l-.005-.384c-.001-.104.049-.155.154-.154l2.066.024c.226.003.338.116.337.343l-.003 14.585c0 .287-.052.564-.156.835a.067.067 0 0 0 .063.093ZM61.22 18.519c-.05-.001-.074.023-.073.073.013 1.783.018 3.562.012 5.335a3.258 3.258 0 0 1-.157.986.056.056 0 0 0 .053.073l1.46.02c.202.002.313.102.335.303.008.08.014.162.018.247.005.203-.092.303-.294.302l-3.75-.014c-.183 0-.271-.092-.264-.276l.013-.35c.008-.19.105-.284.294-.283.833.001 1.25-.373 1.248-1.12a525.88 525.88 0 0 1 .014-4.586 5.96 5.96 0 0 1 .035-.592.116.116 0 0 0-.116-.129l-.798.007c-.212.003-.313-.103-.301-.315l.018-.333c.009-.184.106-.274.291-.268l.775.023a.09.09 0 0 0 .095-.09l.03-6.333c0-.137-.068-.206-.205-.208l-1.287-.025a.111.111 0 0 1-.11-.116l.023-.562c.003-.074.04-.11.114-.11l9.308.01a.402.402 0 0 1 .4.416l-.089 2.617a.176.176 0 0 1-.168.169l-.58.02a.107.107 0 0 1-.11-.108l.023-2.243c0-.032-.016-.047-.047-.047l-6.187-.01a.135.135 0 0 0-.136.134V17.5c0 .076.062.137.138.138l5.202.044c.162.001.24.083.232.246l-.023.422c-.008.148-.085.22-.233.22l-5.203-.051Z" fill="#352610"></path><path d="m50.353 26.38-.04.185a.312.312 0 0 0-.118-.267 2.067 2.067 0 0 1-.2-.18c-.378-.48-.797-.9-1.255-1.258-.479-.374-.844-.838-1.362-1.163-.48-.3-.976-.599-1.493-.894l-.215-.34c-.3-.68-.624-1.235-.975-1.665-1.344-1.651-3.248-2.787-5.237-3.491a22.404 22.404 0 0 0-4.244-1.044c-2.779-.404-5.459-.457-8.04-.158-3.588.415-7.12 1.375-10.357 2.99a15.9 15.9 0 0 0-1.942 1.135c-.36.25-.62.417-.778.505a.792.792 0 0 1-.061-.265c.109-1.73.757-3.48 1.95-4.768a9.63 9.63 0 0 1 2.945-2.186c.795-.376 1.606-.729 2.466-.98 1.9-.552 3.84-.862 5.82-.934a38.673 38.673 0 0 1 2.452-.011c3.073.088 5.963.574 8.668 1.459 1.995.653 3.816 1.43 5.457 2.328.828.453 1.737 1.077 2.73 1.875 1.935 1.556 3.483 3.69 3.85 6.177a9.733 9.733 0 0 1-.02 2.95Z" fill="#B8B8B8"></path><path d="M72.628 25.985c-2.231-.268-3.68-2.121-3.985-4.252-.329-2.29.063-4.623 1.851-6.132 1.087-.917 2.43-1.153 3.82-1.026 1.257.115 2.267.606 3.032 1.475.513.583.857 1.2 1.03 1.851.427 1.602.431 3.128.013 4.575-.535 1.861-2.101 3.422-4.135 3.548a9.019 9.019 0 0 1-1.626-.04Zm1.733-10.372c-1.949-.364-3.8.854-4.425 2.724-.397 1.192-.447 2.367-.15 3.525.186.72.462 1.312.831 1.77a3.787 3.787 0 0 0 3.257 1.424c1.792-.142 3.085-1.468 3.554-3.168.67-2.436-.14-5.73-3.067-6.275Zm16.75.574c.224-.191.418-.413.645-.606 1.023-.873 2.241-1.197 3.656-.971 1.043.166 1.741.742 2.094 1.728a.05.05 0 0 0 .084.016c1.123-1.304 2.404-1.96 4.238-1.78 1.26.125 2.048.816 2.367 2.073.118.463.178.917.182 1.36.015 2.097.017 4.133.006 6.105a2.11 2.11 0 0 1-.149.764.095.095 0 0 0 .085.13l.706.01c.283.004.436.142.456.411l.003.036c.022.275-.103.41-.378.406l-3.097-.045c-.107 0-.168-.056-.181-.163a1.71 1.71 0 0 1 .027-.585c.015-.072.06-.105.133-.099.529.045 1.214-.12 1.32-.686.053-.284.078-.576.078-.876-.002-1.81-.016-3.63-.042-5.462a3.144 3.144 0 0 0-.211-1.023c-.247-.68-.73-1.111-1.419-1.268-1.567-.358-2.645.353-3.64 1.462-.161.18-.336.373-.332.632.023 2.247.024 4.4.002 6.46a1.621 1.621 0 0 1-.135.631c-.046.107-.01.16.106.157.308-.005.622.006.942.033.19.015.283.12.275.31l-.008.242c-.008.187-.106.28-.293.277l-3.206-.04c-.122-.002-.19-.063-.204-.184a1.73 1.73 0 0 1 .023-.542c.02-.1.081-.144.183-.131.732.1 1.29-.285 1.298-1.069a198.61 198.61 0 0 0-.007-5.655c-.024-1.475-.596-2.63-2.306-2.672-1.255-.03-2.22.698-2.99 1.626-.148.18-.255.36-.256.603-.003 2.088-.006 4.167-.006 6.238a2.456 2.456 0 0 1-.165.863.08.08 0 0 0 .078.108c.305-.01.608-.002.908.025.186.017.276.12.271.305l-.008.295c-.003.153-.082.23-.237.228l-3.175-.031c-.169-.002-.252-.087-.251-.257l.002-.353c.002-.18.093-.262.272-.247.217.018.417-.004.599-.064.645-.216.678-.728.682-1.305.018-2.247.018-4.813.002-7.695 0-.155-.078-.234-.233-.236l-1.033-.014c-.197-.004-.292-.103-.285-.3l.01-.301c.006-.182.1-.271.282-.269l1.79.025c.133.002.24.108.242.24.007.395.048.763.121 1.104.012.053.038.062.079.026Zm22.719 3.846c-.043.214-.05.433-.021.66.202 1.576.72 3.037 2.092 3.85.681.405 1.438.585 2.271.543.97-.05 1.801-.465 2.493-1.248.213-.242.44-.69.828-.566.458.145.591.501.32.875-1.19 1.637-2.588 1.989-4.456 1.884-2.354-.134-4.017-1.8-4.394-4.067-.217-1.302-.178-2.542.116-3.72.316-1.272 1.138-2.476 2.306-3.147.675-.388 1.504-.572 2.487-.552 1.726.035 3.182.61 3.9 2.289.318.743.485 1.653.503 2.732.003.21-.21.343-.395.341-2.694-.009-5.311-.02-7.853-.035a.2.2 0 0 0-.197.16Zm.443-1.977a3.597 3.597 0 0 0-.244.793c-.023.148.04.223.189.224l6.954.058c.069 0 .098-.035.088-.104a7.4 7.4 0 0 0-.404-1.528c-.345-.877-.933-1.459-1.765-1.746-2.134-.735-3.977.318-4.818 2.303Zm11.303-.681c-.113 1.322.961 1.879 2.065 2.159 1.318.336 2.977.506 4.004 1.5.486.472.707 1.183.659 2.135-.085 1.68-1.386 2.66-2.974 2.823-.519.053-1.099.066-1.74.037-1.524-.066-2.765-.746-3.328-2.195-.084-.216-.019-.376.198-.479l.283-.136c.212-.102.376-.049.489.156.187.336.312.544.375.623.818 1.018 2.112 1.215 3.354 1.079.965-.106 1.885-.603 2.23-1.533.296-.794-.11-1.67-.798-2.07-.752-.438-1.603-.61-2.45-.776-1.718-.335-3.495-1.032-3.402-3.104.02-.44.018-.825.212-1.228.816-1.704 2.816-1.977 4.549-1.761 1.183.146 2.17.736 2.622 1.878.083.212.11.433.078.659a.108.108 0 0 1-.068.089c-.311.132-.804.23-.972-.169-.446-1.051-1.38-1.476-2.467-1.56-1.119-.087-2.804.524-2.919 1.873Zm14.196-1.545c-.866-.402-1.765-.445-2.695-.13-.926.312-1.668 1.115-1.51 2.13.086.553.381.965.885 1.24 2.188 1.195 6.178.492 5.81 4.3-.151 1.575-1.423 2.441-2.919 2.618a10.51 10.51 0 0 1-2.061.015c-1.303-.112-2.486-.786-2.984-2.044-.114-.289-.033-.502.244-.642a.966.966 0 0 0 .081-.045c.288-.18.505-.116.65.19.774 1.637 2.719 1.902 4.3 1.476 1.033-.277 1.972-1.303 1.629-2.422-.278-.907-1.207-1.351-2.064-1.547-1.134-.258-2.272-.423-3.322-.989-1.075-.579-1.366-1.542-1.295-2.698.11-1.848 1.783-2.663 3.426-2.73 1.719-.07 3.385.272 3.998 2.078.057.17.068.356.029.556a.094.094 0 0 1-.066.076c-.443.159-.812.207-1.011-.316-.188-.492-.655-.899-1.125-1.116ZM86.3 15.542c-1.035.16-2.028.673-2.978 1.54-.267.241-.421.453-.422.813-.004 2.153-.005 4.173-.004 6.064 0 .294-.055.58-.165.86-.05.127-.007.19.13.188.375-.006.729.004 1.063.028.206.016.301.126.286.332l-.02.258c-.01.14-.087.21-.229.21l-3.393-.006c-.17-.001-.264-.085-.286-.252a1.245 1.245 0 0 1 .003-.336c.024-.173.122-.258.297-.257.88.008 1.297-.368 1.295-1.247-.004-2.562-.001-5.176.009-7.843.001-.16-.078-.24-.24-.238l-1.106.007c-.13.001-.197-.065-.2-.195l-.011-.432c-.003-.11.05-.163.159-.163l2.003.002c.1 0 .18.081.181.182.002.333-.051.87.064 1.173.022.06.102.076.147.03 1.066-1.113 2.394-1.675 3.988-1.688a.193.193 0 0 1 .187.108.61.61 0 0 1 .071.327c-.04.758-.062 1.49-.066 2.197 0 .088-.044.131-.132.131h-.345c-.123 0-.184-.06-.185-.184l-.017-1.539c-.002-.055-.028-.078-.084-.07Z" fill="#352610"></path><path d="M45.67 22.463a56.544 56.544 0 0 1-2.858-1.304c-.153-.075-.463-.174-.928-.298a3.328 3.328 0 0 1-.502-.17c-.417-.186-.79-.405-1.22-.517-.584-.152-1.145-.295-1.683-.428-.372-.093-.712-.266-1.085-.352a20.28 20.28 0 0 0-2.333-.4c-.65-.069-1.289-.141-1.914-.216a20.4 20.4 0 0 0-3.273-.115 58.862 58.862 0 0 0-2.904.183c-.595.054-1.189.135-1.782.273-.368.087-.727.172-1.078.258-.594.145-1.39.397-2.1.565-.172.04-.49.193-.95.458-.33.19-.647.351-.948.484a4.076 4.076 0 0 0-1.015.623 16.298 16.298 0 0 0-2.119 2.176 1.924 1.924 0 0 0-.276.466c-.174.416-.346.83-.517 1.246-.07.17-.122.38-.158.634-.067.47-.207.915-.42 1.33-.517-1.178-.861-2.115-1.031-2.809-.11-.452-.22-.904-.327-1.358a6.323 6.323 0 0 1-.162-1.18c-.017-.397-.037-.794-.057-1.194a.331.331 0 0 1 .067-.083c.158-.088.418-.256.778-.505.577-.4 1.226-.778 1.942-1.136 3.237-1.613 6.77-2.574 10.358-2.99 2.58-.298 5.26-.245 8.039.159 1.468.214 2.883.563 4.244 1.044 1.989.704 3.893 1.84 5.237 3.491.35.43.675.986.975 1.665Z" fill="#737373"></path><path d="m45.67 22.463.215.34c.503 1.456.694 2.953.573 4.494a22.228 22.228 0 0 1-1.016 5.19 22.993 22.993 0 0 1-1.933 4.286l-.39.603a4.099 4.099 0 0 0-.467 1 2.446 2.446 0 0 0-.672.664c-.576.243-1.117.525-1.62.845-.357.227-.66.389-.91.486-.579.225-1.166.458-1.76.7a9.904 9.904 0 0 1-1.832.546 15.326 15.326 0 0 1-5.083.15c-1.166-.161-2.4-.488-3.434-1.072a41.594 41.594 0 0 0-1.091-.594c-.592-.313-1.048-.759-1.613-1.135-.447-.298-.793-.66-1.203-.98a8.082 8.082 0 0 1-.858-.776 253.944 253.944 0 0 0-1.799-1.855 7.869 7.869 0 0 1-.67-.79c-.462-.615-.959-1.197-1.41-1.823-.896-1.242-1.654-2.505-2.473-4.011-.058-.106-.195-.285-.412-.537a1.586 1.586 0 0 0-.205-.834 4.19 4.19 0 0 0 .42-1.33c.036-.255.089-.466.158-.635.17-.415.343-.83.517-1.246.07-.17.162-.324.276-.466a16.293 16.293 0 0 1 2.119-2.176 4.06 4.06 0 0 1 1.015-.623c.3-.133.617-.293.948-.484.46-.265.778-.417.95-.458.71-.168 1.506-.42 2.1-.565.35-.086.71-.171 1.078-.258.593-.138 1.187-.22 1.782-.273a59.3 59.3 0 0 1 2.904-.183 20.399 20.399 0 0 1 3.273.115c.625.075 1.264.148 1.914.217.739.08 1.516.213 2.332.4.374.085.714.258 1.085.35.538.134 1.1.277 1.683.429.432.112.804.331 1.221.516.145.065.312.121.502.171.465.123.775.223.928.298.893.44 1.846.874 2.858 1.304Z" fill="#555555"></path><path d="M14.03 20.818c.02.4.04.797.057 1.194.018.405.072.798.162 1.18.108.454.217.906.327 1.358.17.694.514 1.63 1.031 2.81.15.278.218.556.205.834-.036 1.196.068 2.182.312 2.954.126.402.244.809.351 1.22.118.447.256.843.415 1.19.337.736.666 1.49.99 2.265.102.242.223.455.363.637.393.515.646 1.117.957 1.682.127.228.33.391.472.617.431.681.901 1.333 1.41 1.956.137.168.322.413.555.734.399.55.89 1.053 1.36 1.544.541.566 1.116 1.16 1.721 1.784a7.365 7.365 0 0 1-1.453-.559c-4.19-2.074-7.998-5.168-10.766-8.975-.976-1.344-1.81-2.885-2.285-4.449-.253-.83-.389-1.592-.409-2.287-.043-1.527.297-2.92 1.018-4.18.768-1.339 1.837-2.51 3.207-3.509Zm31.855 1.985a42.39 42.39 0 0 1 1.493.894c.518.325.883.789 1.361 1.163.459.358.878.778 1.257 1.259.02.024.085.084.199.179.083.07.123.16.117.267-.21.985-.431 1.785-.664 2.399-1.443 3.803-3.775 6.94-6.996 9.412.114-.363.27-.697.467-1l.39-.603a22.987 22.987 0 0 0 1.933-4.287 22.23 22.23 0 0 0 1.016-5.189c.12-1.54-.07-3.038-.573-4.494Z" fill="#898989"></path><path d="M50.353 26.38c.04.21.184.488.434.839.603.85 1.018 1.885 1.244 3.11.216 1.17.188 2.415-.085 3.735-.112.541-.337 1.09-.5 1.63-.649 2.147-1.958 4.35-3.398 6.174a13.72 13.72 0 0 1-.996 1.14c-.48.488-.932 1.012-1.453 1.48-1.929 1.723-4.158 3.063-6.713 3.873-2.248.713-4.557.866-6.928.459a8.927 8.927 0 0 1-2.582-.844c-.917-.47-1.87-.914-2.638-1.6-.45-.399-1.14-.665-1.386-1.24.3.078.607.132.897.226 1.768.57 3.517.698 5.244.383 4.262-.777 7.914-3.238 10.487-6.706.205-.288.43-.51.672-.663 3.221-2.472 5.553-5.61 6.996-9.412.233-.614.454-1.414.664-2.4l.041-.183Z" fill="#D0D0D0"></path><path d="M15.812 28.194c.217.252.354.431.412.537.819 1.505 1.577 2.769 2.473 4.01.451.627.948 1.21 1.41 1.824.231.307.455.571.67.79a246.39 246.39 0 0 1 1.8 1.855c.27.283.556.54.857.776.41.32.756.682 1.204.98.564.376 1.02.822 1.612 1.135.383.202.747.4 1.091.594 1.035.584 2.268.911 3.434 1.073 1.686.233 3.38.182 5.083-.151a9.904 9.904 0 0 0 1.832-.545c.594-.243 1.181-.476 1.76-.701.25-.098.553-.26.91-.486a10.96 10.96 0 0 1 1.62-.846c-2.573 3.468-6.225 5.93-10.487 6.706-1.727.315-3.476.188-5.244-.383-.29-.094-.598-.148-.896-.226-.288-.112-.5-.231-.635-.359-.605-.623-1.18-1.218-1.721-1.784-.47-.49-.961-.993-1.36-1.544a17.207 17.207 0 0 0-.555-.734 20.126 20.126 0 0 1-1.41-1.956c-.143-.226-.345-.389-.472-.617-.31-.565-.564-1.167-.957-1.682a2.892 2.892 0 0 1-.362-.637 75.952 75.952 0 0 0-.99-2.264 7.347 7.347 0 0 1-.415-1.19 26.003 26.003 0 0 0-.352-1.22c-.244-.773-.348-1.759-.312-2.955Z" fill="#737373"></path><path d="M70.153 32.662a.062.062 0 0 0 .07-.06c-.002-.574.04-1.154-.154-1.694s-.456-.967-.788-1.282c-.113-.107-.117-.218-.01-.332l.192-.207c.145-.159.292-.159.44-.003 1.174 1.243 1.38 2.855.875 4.489-.03.096-.07.188-.119.276a.095.095 0 0 1-.076.05l-.562.07a.141.141 0 0 1-.14-.061c-.525-.713-1.113-1.508-1.845-1.975-1.482-.943-3.034-1.088-4.66-.436-3.277 1.318-4.307 5.09-3.76 8.28.425 2.48 1.907 4.647 4.392 5.265 2.18.542 4.394-.155 5.785-1.902.203-.254.366-.535.577-.78a.247.247 0 0 1 .29-.063c.254.117.75.434.594.775-.126.275-.353.513-.542.756-1.627 2.095-3.882 2.652-6.507 2.348-1.331-.153-2.57-.782-3.545-1.755-1.952-1.95-2.446-4.664-2.234-7.386a8.914 8.914 0 0 1 .881-3.244c.966-1.976 2.92-3.5 5.156-3.69.357-.03.766-.04 1.224-.026 1.279.036 2.297.37 3.346 1.207.458.365.8.801 1.024 1.309.019.04.05.065.096.071Zm50.896-2.547a.137.137 0 0 0-.117-.072l-1.252-.03c-.203-.004-.293-.107-.272-.309l.026-.246c.018-.165.11-.25.277-.254a25.528 25.528 0 0 1 1.936.035c.447.025.413.406.413.782-.006 4.74-.007 9.481-.003 14.225 0 .334-.048.564-.201.838a.114.114 0 0 0 .1.169l1.533.012c.153 0 .229.078.228.232l-.003.28c-.003.148-.078.224-.226.222l-3.686-.01c-.207-.001-.309-.104-.307-.312l.002-.204c.004-.222.116-.327.339-.313.548.035.92-.167 1.116-.61.092-.208.138-.55.136-1.024-.015-4.135-.016-8.559-.004-13.273a.308.308 0 0 0-.035-.138Zm-22.981.951-.223.006a.603.603 0 0 0-.586.62l.005.18c.01.334.287.596.62.587l.222-.007a.604.604 0 0 0 .587-.62l-.005-.18a.603.603 0 0 0-.62-.586Zm4.607 4.802-.899.012c-.18.004-.28-.086-.299-.265l-.034-.32c-.018-.179.063-.27.242-.272l.903-.011c.177-.003.265-.092.265-.269l.004-1.605c0-.224.112-.342.336-.354l.311-.016c.212-.011.32.09.321.303l.007 1.75c0 .128.064.192.192.193l2.553.02c.187.001.278.096.276.282l-.005.353c-.002.184-.096.276-.28.273l-2.653-.031a.107.107 0 0 0-.109.104c-.039 1.227.018 2.455.025 3.685.007 1.183.008 2.368.004 3.555-.001.418.041.731.127.94.435 1.057 1.763 1.014 2.686 1.026.211.004.317.11.318.322l-.002.191c-.003.175-.094.262-.268.258a36.65 36.65 0 0 0-1.295-.001c-.708.013-1.33-.176-1.868-.564-.564-.407-.688-1.17-.686-1.84.011-2.64.01-5.16-.004-7.555-.002-.11-.057-.165-.168-.164Zm-22.659 8.678a.07.07 0 0 0-.102.012c-.782 1.06-2.107 1.604-3.402 1.677-.699.04-1.521.049-2.155-.235-1.4-.624-1.712-1.864-1.646-3.33.09-1.983 1.987-2.699 3.634-2.831 1.103-.088 2.193-.053 3.306-.058.189 0 .33-.124.341-.314.097-1.73-.201-3.487-2.272-3.687-1.45-.14-2.627.288-3.693 1.191-.213.182-.42.175-.623-.019l-.178-.17c-.211-.202-.21-.404.002-.605.681-.646 1.409-1.062 2.183-1.25a7.76 7.76 0 0 1 3.254-.096c.432.079.83.244 1.19.498.755.53 1.14 1.61 1.14 2.486v7.377c0 .065.053.118.119.118l.935.004c.132 0 .196.066.189.199l-.022.403c-.006.13-.075.195-.205.195l-1.605-.005c-.196-.001-.298-.1-.305-.296-.013-.345-.016-.71-.013-1.099a.203.203 0 0 0-.072-.165Zm-2.98.704c.964-.295 3.042-1.245 3.02-2.417a39.698 39.698 0 0 1 .015-1.97c.005-.133-.06-.2-.194-.2-.947.002-1.863.014-2.748.037-.845.022-1.565.19-2.16.502-.653.343-1.032.852-1.136 1.523-.178 1.157.48 2.184 1.612 2.533.303.093.613.042.922.069.219.018.441-.008.669-.077Zm9.46.057c-.153-.079-.23-.032-.227.142a69.67 69.67 0 0 1-.047 4.214c-.015.344-.073.584-.293.84a.097.097 0 0 0 .062.16c.39.045.818.059 1.284.041.15-.005.222.066.218.215l-.008.384c-.003.123-.065.184-.188.183a327.093 327.093 0 0 0-3.246-.026c-.591-.001-.445-.799.083-.81.726-.015 1.09-.417 1.093-1.205.01-4.408.012-8.79.004-13.149a.437.437 0 0 0-.433-.436l-.8-.01c-.204-.003-.306-.107-.305-.312l.004-.254c0-.22.112-.327.332-.322l1.71.042a.371.371 0 0 1 .362.37l.003.474c0 .291.098.329.293.113.968-1.077 2.19-1.288 3.584-1.226 1.223.055 2.21.49 2.96 1.307 1.379 1.502 1.569 3.744 1.359 5.753a5.361 5.361 0 0 1-.795 2.327c-.882 1.407-2.225 2.117-4.029 2.13-1.015.009-1.894-.221-2.638-.689-.112-.07-.23-.2-.342-.256Zm4.26-.326c2.662-1 3.027-4.498 2.156-6.786-.525-1.38-1.637-2.32-3.14-2.441-1.15-.093-2.123.26-2.918 1.055-.286.286-.58.627-.58 1.059.002 1.653.002 3.484 0 5.49 0 .232.085.48.24.653 1.05 1.182 2.738 1.535 4.242.97Zm25.016-.418c-1.228 1.381-2.897 1.813-4.696 1.645-2.013-.189-2.79-1.962-2.513-3.792.194-1.292 1.142-1.998 2.326-2.329 1.516-.422 3.144-.299 4.7-.31a.267.267 0 0 0 .265-.272 16.953 16.953 0 0 0-.089-1.51c-.129-1.163-.837-2.036-2.029-2.202-1.517-.212-2.831.191-3.942 1.207-.322.294-.688-.153-.842-.385-.143-.215.138-.5.29-.62.808-.646 1.623-1.034 2.447-1.164a9.55 9.55 0 0 1 2.054-.083c1.168.07 2.259.484 2.731 1.647a4.94 4.94 0 0 1 .378 1.9l-.025 6.712c0 .126.063.19.189.194l.856.02a.196.196 0 0 1 .192.196v.48c0 .099-.049.148-.146.148l-1.764.001a.256.256 0 0 1-.257-.262c.011-.422.002-.818-.03-1.19a.054.054 0 0 0-.095-.032Zm-6.176-1.286c.048.986.862 1.87 1.844 1.995 1.545.194 2.91-.453 3.951-1.643.216-.248.429-.455.447-.8.027-.526.03-1.118.008-1.776a1.728 1.728 0 0 0-.052-.372.123.123 0 0 0-.145-.09 2.425 2.425 0 0 1-.496.059c-1.792.007-5.7-.318-5.557 2.627ZM98.18 45.15c-.068.048-.06.071.023.072l1.376.01c.132.002.2.069.2.201v.4c.002.19-.093.282-.283.278l-3.192-.083c-.236-.005-.345-.126-.329-.36l.012-.172c.017-.236.137-.349.364-.338.396.018.767-.13 1.114-.446.12-.109.197-.218.197-.384.014-2.803.01-5.401-.01-7.795a8.095 8.095 0 0 0-.036-.653.12.12 0 0 0-.118-.109l-1.313-.01c-.129-.002-.19-.066-.187-.195l.011-.356c.004-.126.068-.189.194-.19l1.926-.017a.44.44 0 0 1 .444.44c.005 3.267 0 6.24-.016 8.92-.001.35-.126.612-.376.787Z" fill="#352610"></path></g><defs><clipPath id="svg1012349104_17263_a"><path fill="#fff" transform="translate(.962 .314)" d="M0 0h150v60H0z"></path></clipPath></defs></svg>