<svg xmlns:xlink="http://www.w3.org/1999/xlink" width="86" height="48" fill="none" xmlns="http://www.w3.org/2000/svg" id="svg357323353_14255"><g clip-path="url(#svg357323353_14255_a)" fill="none"><path d="m18.242 36.694-6.465 3.11v-6.11l6.465-3.047v6.047Z" fill="#6A6A6A"></path><path d="m5.311 14.14 6.466-3.109v6.11L5.31 20.189V14.14Z" fill="url(&quot;#svg357323353_14255_b&quot;)"></path><path d="m18.255 14.14-6.495-3.109v6.11l6.495 3.047V14.14Z" fill="#828282"></path><path d="m18.255 14.14-6.495-3.109v6.11l6.495 3.047V14.14Z" fill="#7D7D7D"></path><path d="m.69 28.481 17.55 8.215v-6.061L.69 22.388v6.093Z" fill="url(&quot;#svg357323353_14255_c&quot;)"></path><path d="m5.311 36.694 6.466 3.11v-6.11L5.31 30.646v6.047Z" fill="url(&quot;#svg357323353_14255_d&quot;)"></path><path d="m.69 22.358 17.565-8.218v6.048L.691 28.452v-6.094Z" fill="url(&quot;#svg357323353_14255_e&quot;)"></path><path d="m9.413 42.705 2.363-2.059 2.364 2.059v3.122l-2.364 2.156-2.364-2.156v-3.122Z" fill="#828282"></path><path d="m9.417 42.727 2.353-2.049 2.352 2.05v3.107l-2.352 2.146-2.353-2.146v-3.108Z" fill="#6A6A6A"></path><path d="m13.736 42.96-1.96-.906-1.96.905v2.59l1.96.906 1.96-.906v-2.59Z" fill="#FFFFFF"></path><path d="m10.945 41.39.831-.397v4.081l-.83.397V41.39Zm0-5.671.831-.397v4.441l-.83.396v-4.44Z" fill="#FFFFFF"></path><path d="m13.438 34.56-.831-.396v6.012l.831.397v-6.012Z" fill="url(&quot;#svg357323353_14255_f&quot;)"></path><path d="m13.438 29.684-.831-.396v3.409l.831.396v-3.409Z" fill="url(&quot;#svg357323353_14255_g&quot;)"></path><path d="m12.607 40.143-.831-.397v4.886l.83.397v-4.886Z" fill="url(&quot;#svg357323353_14255_h&quot;)"></path><path d="m12.607 37.031-.831-.396v1.951l.83.397V37.03Z" fill="url(&quot;#svg357323353_14255_i&quot;)"></path><path d="m12.607 29.922-.831-.396v5.815l.83.396v-5.815Z" fill="url(&quot;#svg357323353_14255_j&quot;)"></path><path fill-rule="evenodd" clip-rule="evenodd" d="M11.846 9.855c.09.021.153.102.15.194l-.008.358c-.065 2.682-.144 5.94.974 9.26.548 1.625.337 3.47-.314 5.699-.058.197-.119.398-.184.603 1.286 2.137 2.528 5.23 2.983 8.377.584 4.04-.123 8.241-3.796 10.604a.194.194 0 0 1-.184.014c-1.552-.69-2.49-2.615-2.853-4.811-.365-2.21-.16-4.767.646-6.818.237-.602.467-1.182.69-1.742.842-2.124 1.569-3.957 2.09-5.574a12.72 12.72 0 0 0-.963-1.372C8.3 21.26 8.122 18.25 8.81 15.743c.343-1.247.897-2.362 1.44-3.33.198-.353.391-.683.573-.992.323-.548.606-1.03.802-1.457a.194.194 0 0 1 .22-.109Zm.347 15.677.082-.275c.644-2.206.827-3.956.319-5.465-1.075-3.193-1.066-6.325-1.006-8.914-.137.243-.287.499-.445.767-.18.305-.368.625-.554.958-.536.957-1.073 2.041-1.404 3.243-.656 2.39-.501 5.268 2.193 8.555.266.325.54.704.815 1.13Zm.11.93c-.516 1.553-1.208 3.298-1.995 5.282l-.686 1.734c-.777 1.978-.979 4.463-.624 6.611.348 2.112 1.22 3.831 2.532 4.475 3.406-2.251 4.102-6.22 3.533-10.162-.428-2.959-1.565-5.864-2.76-7.94Z" fill="#FFFFFF"></path><path d="m10.114 32.642.831-.397v4.659l-.831.397v-4.66Zm0-5.898.831-.397v3.482l-.831.397v-3.482Z" fill="#FFFFFF"></path><path d="m9.815 7.169.421.2v2.746l-.42-.201V7.169Zm0-1.82.421.2v1.12l-.42-.201v-1.12Zm3.687 5.108.469.223v2.746l-.469-.224v-2.745Zm0-1.82.469.224V9.98l-.469-.224V8.637Z" fill="#6A6A6A"></path><path d="m11.498 1.824.455.217v2.745l-.455-.217V1.824Zm0-1.82.455.217v1.12l-.455-.218V.004Z" fill="#363636"></path><path fill-rule="evenodd" clip-rule="evenodd" d="m11.834 39.606 4.78 2.262-4.78 2.262-4.78-2.262 4.78-2.262Zm0 .395-3.946 1.867 3.946 1.867 3.946-1.867-3.946-1.867Z" fill="#352610"></path><path d="M22.921 28.481 5.357 36.734v-6.093l17.564-8.253v6.093Z" fill="url(&quot;#svg357323353_14255_k&quot;)"></path><path d="M22.921 22.358 5.357 14.105v6.093l17.564 8.254v-6.094Z" fill="url(&quot;#svg357323353_14255_l&quot;)"></path><path d="M32.199 26.792a.168.168 0 0 1-.11-.045.15.15 0 0 1-.045-.11.2.2 0 0 1 .014-.067l1.78-4.763a.268.268 0 0 1 .081-.125.258.258 0 0 1 .178-.06h.804c.074 0 .131.02.17.06.04.034.07.076.089.125l1.78 4.763a.342.342 0 0 1 .007.067.151.151 0 0 1-.148.155h-.642c-.07 0-.12-.015-.155-.045a.297.297 0 0 1-.06-.096l-.346-.9h-2.194l-.347.9a.259.259 0 0 1-.066.096c-.03.03-.079.045-.148.045H32.2Zm1.462-1.89h1.676l-.842-2.283-.834 2.282Zm4.153 1.89a.172.172 0 0 1-.126-.052.172.172 0 0 1-.052-.125V21.8c0-.05.018-.091.052-.126a.171.171 0 0 1 .126-.051h.687c.049 0 .09.017.125.051a.172.172 0 0 1 .052.126v4.113h2.34a.18.18 0 0 1 .134.052.18.18 0 0 1 .051.133v.517c0 .049-.017.09-.051.125a.18.18 0 0 1-.133.052h-3.205Zm4.283 0a.172.172 0 0 1-.125-.052.172.172 0 0 1-.052-.125v-4.808a.18.18 0 0 1 .052-.133.172.172 0 0 1 .125-.051h1.98c.383 0 .718.061 1.004.184.285.118.507.3.664.547.158.24.237.544.237.908 0 .37-.079.674-.236.916a1.44 1.44 0 0 1-.665.531 2.6 2.6 0 0 1-1.005.178h-1.1v1.728c0 .049-.017.09-.051.125a.157.157 0 0 1-.126.052h-.702Zm.864-2.725h1.078c.286 0 .505-.067.658-.2.152-.137.229-.34.229-.605 0-.246-.072-.443-.214-.59-.143-.153-.367-.23-.673-.23h-1.078v1.625Zm4.004 2.725a.186.186 0 0 1-.125-.045.18.18 0 0 1-.052-.132v-4.808a.18.18 0 0 1 .052-.133.17.17 0 0 1 .125-.051h.672a.16.16 0 0 1 .126.051.18.18 0 0 1 .052.133v1.905h2.178v-1.905a.18.18 0 0 1 .052-.133.17.17 0 0 1 .125-.051h.665a.18.18 0 0 1 .133.051.18.18 0 0 1 .051.133v4.808c0 .049-.017.09-.051.125a.18.18 0 0 1-.133.052h-.665a.17.17 0 0 1-.125-.052.17.17 0 0 1-.052-.125v-1.98h-2.178v1.98c0 .049-.018.09-.052.125a.157.157 0 0 1-.126.052h-.672Zm4.885 0a.167.167 0 0 1-.11-.045.15.15 0 0 1-.045-.11.18.18 0 0 1 .015-.067l1.78-4.763a.256.256 0 0 1 .258-.185h.805c.074 0 .13.02.17.06.04.034.069.076.089.125l1.78 4.763a.338.338 0 0 1 .007.067.15.15 0 0 1-.045.11.141.141 0 0 1-.103.045h-.642c-.07 0-.121-.015-.155-.045a.299.299 0 0 1-.06-.096l-.346-.9h-2.194l-.347.9a.26.26 0 0 1-.066.096c-.03.03-.08.045-.148.045h-.642Zm1.463-1.89h1.676l-.842-2.283-.834 2.282Zm5.868 1.964c-.458 0-.847-.079-1.167-.237a1.714 1.714 0 0 1-.724-.686c-.167-.3-.26-.66-.28-1.079a26.392 26.392 0 0 1 0-1.314c.02-.413.113-.77.28-1.07.173-.301.416-.53.732-.688.32-.162.706-.243 1.16-.243.334 0 .634.044.9.133.266.088.492.211.68.369.187.153.331.332.435.54.103.206.158.43.163.671a.12.12 0 0 1-.045.11.15.15 0 0 1-.11.045h-.702a.224.224 0 0 1-.133-.037.257.257 0 0 1-.074-.14c-.079-.325-.214-.547-.406-.665-.192-.118-.431-.177-.717-.177-.33 0-.593.094-.79.28-.197.183-.302.486-.317.909-.015.404-.015.817 0 1.24.015.424.12.73.317.916.197.182.46.274.79.274.286 0 .525-.06.717-.178.192-.123.327-.344.406-.664.015-.07.04-.116.074-.14a.223.223 0 0 1 .133-.038h.701a.15.15 0 0 1 .111.045.12.12 0 0 1 .045.11c-.005.242-.06.466-.163.672a1.712 1.712 0 0 1-.436.547 2.122 2.122 0 0 1-.68.362 2.84 2.84 0 0 1-.9.133Zm3.231-.074a.172.172 0 0 1-.125-.052.172.172 0 0 1-.052-.125v-4.808a.18.18 0 0 1 .052-.133.172.172 0 0 1 .125-.051h1.913c.596 0 1.066.137 1.41.413.345.276.517.677.517 1.204 0 .364-.09.667-.273.908a1.49 1.49 0 0 1-.716.524l1.078 1.883c.015.03.022.057.022.082a.14.14 0 0 1-.052.11.141.141 0 0 1-.103.045h-.672c-.083 0-.148-.022-.192-.067a.623.623 0 0 1-.103-.133l-.953-1.75h-1.026v1.773a.17.17 0 0 1-.052.125.156.156 0 0 1-.125.052h-.673Zm.85-2.784h1.041c.3 0 .524-.067.672-.2.148-.137.221-.33.221-.576 0-.246-.073-.438-.221-.576-.143-.142-.367-.214-.672-.214h-1.041v1.566Zm5.283 2.784a.172.172 0 0 1-.126-.052.171.171 0 0 1-.05-.125v-1.67l-1.744-3.086a.288.288 0 0 1-.015-.037.15.15 0 0 1 .037-.155.142.142 0 0 1 .104-.044h.657c.06 0 .106.014.14.044.04.03.067.061.082.096l1.255 2.149 1.248-2.15a.364.364 0 0 1 .081-.095.238.238 0 0 1 .148-.044h.65a.15.15 0 0 1 .155.155c0 .014-.003.03-.008.044a.05.05 0 0 1-.014.037l-1.743 3.087v1.669c0 .049-.018.09-.052.125a.18.18 0 0 1-.133.052h-.672Zm3.545 0a.172.172 0 0 1-.125-.052.171.171 0 0 1-.052-.125v-4.808a.18.18 0 0 1 .052-.133.171.171 0 0 1 .125-.051h1.98c.383 0 .718.061 1.004.184.285.118.507.3.665.547.157.24.236.544.236.908 0 .37-.079.674-.236.916a1.44 1.44 0 0 1-.665.531 2.6 2.6 0 0 1-1.005.178h-1.1v1.728c0 .049-.017.09-.051.125a.157.157 0 0 1-.126.052h-.702Zm.864-2.725h1.078c.286 0 .505-.067.658-.2.152-.137.228-.34.228-.605 0-.246-.07-.443-.213-.59-.143-.153-.367-.23-.673-.23h-1.078v1.625Zm5.141 2.725a.172.172 0 0 1-.125-.052.172.172 0 0 1-.052-.125V22.53h-1.366a.17.17 0 0 1-.126-.052.17.17 0 0 1-.051-.125v-.547a.18.18 0 0 1 .052-.133.17.17 0 0 1 .125-.051h3.766a.18.18 0 0 1 .133.051.18.18 0 0 1 .052.133v.547c0 .049-.018.09-.052.125a.18.18 0 0 1-.133.052H78.96v4.084a.17.17 0 0 1-.051.125.18.18 0 0 1-.133.052h-.68Zm5.05.074c-.439 0-.815-.072-1.13-.214a1.655 1.655 0 0 1-.739-.672c-.177-.306-.273-.685-.288-1.138a26.577 26.577 0 0 1 0-1.262c.015-.448.114-.823.296-1.123.182-.3.43-.527.746-.68a2.57 2.57 0 0 1 1.115-.228c.423 0 .795.076 1.115.229.32.152.57.379.753.68.182.3.28.674.295 1.122a13.913 13.913 0 0 1 0 1.262c-.014.453-.11.832-.288 1.138-.177.3-.425.524-.746.672-.314.142-.691.214-1.13.214Zm0-.85c.32 0 .58-.093.783-.28.201-.192.31-.502.324-.93a13.034 13.034 0 0 0 0-1.197c-.01-.285-.064-.517-.162-.694a.845.845 0 0 0-.384-.391 1.21 1.21 0 0 0-.561-.126c-.207 0-.392.042-.554.126a.884.884 0 0 0-.392.391c-.093.177-.145.409-.154.694a25.984 25.984 0 0 0 0 1.196c.014.429.122.739.324.93.202.188.46.282.776.282ZM32.334 32.69a.107.107 0 0 1-.08-.032.107.107 0 0 1-.033-.08v-.463a.113.113 0 0 1 .113-.117h.468c.031 0 .058.01.08.032s.032.05.032.085v.463c0 .031-.01.058-.032.08a.107.107 0 0 1-.08.032h-.468Zm2.434.047c-.29 0-.537-.05-.74-.15a1.083 1.083 0 0 1-.459-.435 1.53 1.53 0 0 1-.177-.684 16.541 16.541 0 0 1 0-.833c.012-.263.071-.489.177-.68.11-.19.264-.335.464-.435.203-.103.448-.154.735-.154.213 0 .403.028.572.084.168.056.312.134.43.234a1.018 1.018 0 0 1 .38.768.077.077 0 0 1-.028.07.097.097 0 0 1-.07.028h-.445a.139.139 0 0 1-.085-.023.156.156 0 0 1-.046-.089c-.05-.206-.136-.346-.258-.421a.85.85 0 0 0-.454-.113c-.21 0-.377.06-.502.178-.124.116-.191.308-.2.576-.01.256-.01.518 0 .787.009.268.076.462.2.58.125.116.292.174.502.174a.85.85 0 0 0 .454-.113c.122-.078.208-.218.258-.421.009-.044.024-.073.046-.089a.139.139 0 0 1 .085-.023h.444c.028 0 .052.01.07.028a.077.077 0 0 1 .029.07.984.984 0 0 1-.103.426 1.085 1.085 0 0 1-.276.347 1.356 1.356 0 0 1-.431.23 1.798 1.798 0 0 1-.572.083Zm1.699-.047a.108.108 0 0 1-.07-.027.095.095 0 0 1-.028-.07c0-.013.003-.027.009-.043l1.129-3.02a.17.17 0 0 1 .051-.08.165.165 0 0 1 .113-.037h.51c.047 0 .083.012.108.037a.205.205 0 0 1 .056.08l1.129 3.02a.23.23 0 0 1 .004.043c0 .027-.01.05-.028.07a.091.091 0 0 1-.066.028h-.407a.15.15 0 0 1-.098-.028.188.188 0 0 1-.038-.061l-.22-.571h-1.39l-.22.57a.164.164 0 0 1-.043.062c-.019.018-.05.028-.093.028h-.408Zm.927-1.198h1.063l-.534-1.447-.529 1.447Zm2.634 1.198a.108.108 0 0 1-.08-.032.107.107 0 0 1-.033-.08V29.53a.113.113 0 0 1 .113-.117h1.255c.243 0 .456.039.636.117.182.074.322.19.422.346.1.153.15.345.15.576 0 .234-.05.428-.15.58-.1.15-.24.263-.422.338a1.651 1.651 0 0 1-.636.113h-.698v1.095a.108.108 0 0 1-.033.08.1.1 0 0 1-.08.033h-.444Zm.548-1.727h.683c.181 0 .32-.042.417-.127.097-.087.145-.215.145-.384a.516.516 0 0 0-.136-.374c-.09-.097-.232-.146-.426-.146h-.683v1.03Zm2.539 1.727a.108.108 0 0 1-.08-.032.108.108 0 0 1-.033-.08v-3.053a.11.11 0 0 1 .033-.08.108.108 0 0 1 .08-.032h.44c.034 0 .06.01.08.032a.108.108 0 0 1 .032.08v3.053c0 .032-.01.058-.032.08a.1.1 0 0 1-.08.033h-.44Zm2.121 0a.107.107 0 0 1-.08-.032.107.107 0 0 1-.033-.08v-2.59h-.866a.108.108 0 0 1-.08-.032.108.108 0 0 1-.033-.08v-.346c0-.035.011-.063.033-.085a.108.108 0 0 1 .08-.032h2.388a.113.113 0 0 1 .117.117v.346c0 .031-.01.058-.033.08a.113.113 0 0 1-.084.032h-.862v2.59c0 .032-.01.058-.032.08a.114.114 0 0 1-.085.033h-.43Zm1.457 0a.108.108 0 0 1-.07-.027.097.097 0 0 1-.029-.07c0-.013.004-.027.01-.043l1.128-3.02a.163.163 0 0 1 .164-.117h.51c.048 0 .084.012.108.037a.213.213 0 0 1 .057.08l1.128 3.02c.003.016.005.03.005.043 0 .027-.01.05-.028.07a.09.09 0 0 1-.066.028h-.407a.154.154 0 0 1-.099-.028.195.195 0 0 1-.037-.061l-.22-.571h-1.39l-.22.57a.164.164 0 0 1-.043.062c-.019.018-.05.028-.094.028h-.407Zm.927-1.198h1.063l-.534-1.447-.529 1.447Zm2.634 1.198a.108.108 0 0 1-.08-.032.108.108 0 0 1-.033-.08v-3.053a.11.11 0 0 1 .033-.08.108.108 0 0 1 .08-.032h.435c.031 0 .058.01.08.032a.107.107 0 0 1 .032.08v2.608h1.485c.034 0 .062.011.084.033.022.022.033.05.033.084v.328a.109.109 0 0 1-.033.08.114.114 0 0 1-.084.033h-2.032Z" fill="#352610"></path></g><defs><linearGradient id="svg357323353_14255_b" x1=".691" y1="10.602" x2="22.921" y2="10.602" gradientUnits="userSpaceOnUse"><stop stop-color="#494949"></stop><stop offset="1" stop-color="#6A6A6A"></stop></linearGradient><linearGradient id="svg357323353_14255_c" x1=".691" y1="10.602" x2="22.921" y2="10.602" gradientUnits="userSpaceOnUse"><stop stop-color="#6A6A6A"></stop><stop offset=".474" stop-color="#949494"></stop><stop offset="1" stop-color="#494949"></stop></linearGradient><linearGradient id="svg357323353_14255_d" x1=".691" y1="10.601" x2="22.921" y2="10.601" gradientUnits="userSpaceOnUse"><stop stop-color="#494949"></stop><stop offset="1" stop-color="#6A6A6A"></stop></linearGradient><linearGradient id="svg357323353_14255_e" x1=".691" y1="10.602" x2="22.921" y2="10.602" gradientUnits="userSpaceOnUse"><stop stop-color="#989898"></stop><stop offset=".594" stop-color="#6A6A6A"></stop><stop offset="1" stop-color="#494949"></stop></linearGradient><linearGradient id="svg357323353_14255_f" x1="11.807" y1="-200.732" x2="-20.088" y2="38.18" gradientUnits="userSpaceOnUse"><stop offset=".322" stop-color="gray" stop-opacity="0"></stop><stop offset=".682" stop-color="#fff"></stop></linearGradient><linearGradient id="svg357323353_14255_g" x1="11.807" y1="-276.626" x2="-75.864" y2="113.251" gradientUnits="userSpaceOnUse"><stop offset=".322" stop-color="gray" stop-opacity="0"></stop><stop offset=".682" stop-color="#fff"></stop></linearGradient><linearGradient id="svg357323353_14255_h" x1="11.806" y1="-310.163" x2="-43.737" y2="32.75" gradientUnits="userSpaceOnUse"><stop offset=".026" stop-color="gray" stop-opacity="0"></stop><stop offset=".385" stop-color="gray" stop-opacity=".86"></stop><stop offset=".667" stop-color="#fff"></stop></linearGradient><linearGradient id="svg357323353_14255_i" x1="11.806" y1="-634.257" x2="-242.905" y2="64.682" gradientUnits="userSpaceOnUse"><stop offset=".026" stop-color="gray" stop-opacity="0"></stop><stop offset=".385" stop-color="gray" stop-opacity=".86"></stop><stop offset=".667" stop-color="#fff"></stop></linearGradient><linearGradient id="svg357323353_14255_j" x1="11.806" y1="-184.809" x2="-28.646" y2="108.876" gradientUnits="userSpaceOnUse"><stop offset=".026" stop-color="gray" stop-opacity="0"></stop><stop offset=".385" stop-color="gray" stop-opacity=".86"></stop><stop offset=".667" stop-color="#fff"></stop></linearGradient><linearGradient id="svg357323353_14255_k" x1=".691" y1="39.869" x2="22.921" y2="39.869" gradientUnits="userSpaceOnUse"><stop stop-color="#6A6A6A"></stop><stop offset=".512" stop-color="#828282"></stop><stop offset="1" stop-color="#6A6A6A"></stop></linearGradient><linearGradient id="svg357323353_14255_l" x1="5.357" y1="22.892" x2="22.921" y2="22.892" gradientUnits="userSpaceOnUse"><stop stop-color="#626262"></stop><stop offset=".477" stop-color="gray" stop-opacity=".54"></stop><stop offset="1" stop-color="gray"></stop></linearGradient><clipPath id="svg357323353_14255_a"><path fill="#fff" transform="translate(.69)" d="M0 0h84.653v48H0z"></path></clipPath><linearGradient id="svg357323353_14255_b" x1=".691" y1="10.602" x2="22.921" y2="10.602" gradientUnits="userSpaceOnUse"><stop stop-color="#494949"></stop><stop offset="1" stop-color="#6A6A6A"></stop></linearGradient><linearGradient id="svg357323353_14255_c" x1=".691" y1="10.602" x2="22.921" y2="10.602" gradientUnits="userSpaceOnUse"><stop stop-color="#6A6A6A"></stop><stop offset=".474" stop-color="#949494"></stop><stop offset="1" stop-color="#494949"></stop></linearGradient><linearGradient id="svg357323353_14255_d" x1=".691" y1="10.601" x2="22.921" y2="10.601" gradientUnits="userSpaceOnUse"><stop stop-color="#494949"></stop><stop offset="1" stop-color="#6A6A6A"></stop></linearGradient><linearGradient id="svg357323353_14255_e" x1=".691" y1="10.602" x2="22.921" y2="10.602" gradientUnits="userSpaceOnUse"><stop stop-color="#989898"></stop><stop offset=".594" stop-color="#6A6A6A"></stop><stop offset="1" stop-color="#494949"></stop></linearGradient><linearGradient id="svg357323353_14255_f" x1="11.807" y1="-200.732" x2="-20.088" y2="38.18" gradientUnits="userSpaceOnUse"><stop offset=".322" stop-color="gray" stop-opacity="0"></stop><stop offset=".682" stop-color="#fff"></stop></linearGradient><linearGradient id="svg357323353_14255_g" x1="11.807" y1="-276.626" x2="-75.864" y2="113.251" gradientUnits="userSpaceOnUse"><stop offset=".322" stop-color="gray" stop-opacity="0"></stop><stop offset=".682" stop-color="#fff"></stop></linearGradient><linearGradient id="svg357323353_14255_h" x1="11.806" y1="-310.163" x2="-43.737" y2="32.75" gradientUnits="userSpaceOnUse"><stop offset=".026" stop-color="gray" stop-opacity="0"></stop><stop offset=".385" stop-color="gray" stop-opacity=".86"></stop><stop offset=".667" stop-color="#fff"></stop></linearGradient><linearGradient id="svg357323353_14255_i" x1="11.806" y1="-634.257" x2="-242.905" y2="64.682" gradientUnits="userSpaceOnUse"><stop offset=".026" stop-color="gray" stop-opacity="0"></stop><stop offset=".385" stop-color="gray" stop-opacity=".86"></stop><stop offset=".667" stop-color="#fff"></stop></linearGradient><linearGradient id="svg357323353_14255_j" x1="11.806" y1="-184.809" x2="-28.646" y2="108.876" gradientUnits="userSpaceOnUse"><stop offset=".026" stop-color="gray" stop-opacity="0"></stop><stop offset=".385" stop-color="gray" stop-opacity=".86"></stop><stop offset=".667" stop-color="#fff"></stop></linearGradient><linearGradient id="svg357323353_14255_k" x1=".691" y1="39.869" x2="22.921" y2="39.869" gradientUnits="userSpaceOnUse"><stop stop-color="#6A6A6A"></stop><stop offset=".512" stop-color="#828282"></stop><stop offset="1" stop-color="#6A6A6A"></stop></linearGradient><linearGradient id="svg357323353_14255_l" x1="5.357" y1="22.892" x2="22.921" y2="22.892" gradientUnits="userSpaceOnUse"><stop stop-color="#626262"></stop><stop offset=".477" stop-color="gray" stop-opacity=".54"></stop><stop offset="1" stop-color="gray"></stop></linearGradient></defs></svg>