<svg xmlns:xlink="http://www.w3.org/1999/xlink" width="128" height="34" fill="none" xmlns="http://www.w3.org/2000/svg" id="svg1314219240_10730"><g clip-path="url(#svg1314219240_10730_a)" fill="#352610"><path d="M3.442-.005h.46a674.504 674.504 0 0 0 .967 0h.694a2437.184 2437.184 0 0 1 2.914 0h.094a43110.204 43110.204 0 0 0 8.61-.002h10.095a936832.671 936832.671 0 0 1 8.538-.001h6.383l8.325-.001h.682a4435157.365 4435157.365 0 0 1 17.11-.001h.138a408716.803 408716.803 0 0 0 17.251-.002h.132a165808.89 165808.89 0 0 1 14.276-.001h.127a174048.998 174048.998 0 0 0 7.796-.001h.118a33604.651 33604.651 0 0 1 11.142 0h.094a1287.614 1287.614 0 0 0 2.899 0 275.55 275.55 0 0 0 1.456 0h.249c1.013-.005 1.862.216 2.607.939.631.639.891 1.478.889 2.358V4.69l.001.751V8.11l.001.345v3.325l.001 2.876.001 3.232v3.167l.001.743-.001.681.001.246c.002 1.09-.198 1.969-.967 2.786-.748.726-1.637.869-2.641.866h-.257a335.972 335.972 0 0 1-1.404 0 1388.166 1388.166 0 0 1-2.914.001h-.57a8059.686 8059.686 0 0 1-7.002 0h-1.13l-2.554.001H91.722l-5.994.001H55.212l-4.522.001H33.545l-5.85.001h-.128a93017890.393 93017890.393 0 0 1-7.794 0h-3.797a10327.68 10327.68 0 0 0-6.986 0H6.957a760.893 760.893 0 0 1-2.197 0 159.88 159.88 0 0 1-.94 0c-.564.003-1.117-.012-1.637-.255l-.078-.036a3.116 3.116 0 0 1-.652-.424l-.083-.064c-.61-.493-.955-1.274-1.047-2.04a7.64 7.64 0 0 1-.005-.356v-.463a686.942 686.942 0 0 0 0-.963l-.001-.684A2544.772 2544.772 0 0 1 .315 18.4v-3.807l-.003-3.01A3702.503 3702.503 0 0 1 .31 6.581a739.156 739.156 0 0 1-.001-2.145 164.056 164.056 0 0 1 0-.94C.305 2.512.519 1.636 1.21.9c.615-.58 1.387-.906 2.231-.904Zm96.616 2.18c-.44.519-.584 1.12-.583 1.787v2.01a2089.16 2089.16 0 0 0-.001 2.486v3.419a4784.266 4784.266 0 0 1-.002 5.69v.4a1795.5 1795.5 0 0 1-.001 3.242v.864c-.003.888.11 1.596.737 2.276.511.486 1.136.661 1.824.66h1.486l.713.001 1.91.001h.903l3.095.002h.877a4079.913 4079.913 0 0 0 6.458.003h.456a1388.167 1388.167 0 0 1 2.894.002 294.189 294.189 0 0 1 1.506 0h.26c.862.005.862.005 1.67-.27l.078-.041c.567-.31.949-.817 1.133-1.432.053-.211.07-.407.07-.625v-.678l.001-.666v-.718l.001-1.652.001-.816.001-2.796v-.794l.001-2.837.002-3v-.409l.001-1.304V5.668l.001-.71v-.886c.003-.775-.124-1.423-.677-2.008-.695-.67-1.496-.719-2.408-.715h-1.714a845.49 845.49 0 0 0-2.895 0h-.455l-3.414.001a3294.991 3294.991 0 0 1-3.227 0h-.678l-2.536.001h-.454a2300.87 2300.87 0 0 1-2.885.001 444.268 444.268 0 0 1-1.76 0c-.935 0-1.712.108-2.389.822ZM56.99 4.828l-.07.055a4.893 4.893 0 0 0-1.656 2.443l-.028.093c-.136.465-.17.928-.166 1.411v.083c.005 1.136.318 2.166 1.102 3.004l.105.113c1.484 1.54 3.798 1.955 5.792 2.453 3.175.793 3.175.793 3.996 1.562l.086.077c.403.377.603.848.628 1.395.018.752-.11 1.381-.602 1.967-.906.933-2.299 1.22-3.552 1.241-1.657.02-1.657.02-2.402-.123l-.123-.023c-1.577-.3-3.069-.909-4.324-1.916-.1-.085-.1-.085-.188-.126l-.039.085-.15.326-.069.147c-.126.274-.254.547-.389.817l-.066.133-.127.252-.057.115-.05.1c-.036.089-.036.089.001.173.078.112.182.19.289.272l.073.057a8.2 8.2 0 0 0 .939.61c1.485.852 3.213 1.26 4.903 1.431l.083.009c2.272.219 4.872-.123 6.713-1.574 1.004-.851 1.692-1.962 1.843-3.29.048-.627.04-1.27-.11-1.883l-.019-.078a3.695 3.695 0 0 0-.877-1.635l-.055-.06c-1.466-1.583-3.683-2.023-5.696-2.519l-.322-.08-.079-.019c-3.017-.745-3.017-.745-3.974-1.684l-.068-.067c-.378-.403-.509-.951-.53-1.49a2.83 2.83 0 0 1 .598-1.676l.052-.07c.662-.853 1.865-1.135 2.88-1.265.368-.04.739-.037 1.109-.037h.108c.547 0 1.077.023 1.615.126l.105.018c1.142.204 2.29.611 3.276 1.227a.538.538 0 0 0 .32.118l.234-.562.08-.19.038-.093.038-.093.077-.185c.065-.157.13-.313.2-.468l.039-.09.076-.172c.065-.147.065-.147.049-.302a.99.99 0 0 0-.294-.223l-.077-.045c-1.43-.82-3.03-1.247-4.667-1.393l-.142-.014c-2.208-.17-4.69.116-6.479 1.532ZM6.672 3.505c.087.325.087.325.185.645l.038.113.04.12.043.13.119.356.128.385a1232.886 1232.886 0 0 0 .546 1.636 5132.283 5132.283 0 0 0 1.035 3.103l.031.095.032.094a8290.265 8290.265 0 0 0 .756 2.269c.531 1.593.531 1.593 1.071 3.182a226 226 0 0 1 .894 2.665 5500.11 5500.11 0 0 1 .94 2.826l.211.636.13.391a96.863 96.863 0 0 1 .143.43l.046.139c.028.098.028.098.077.142.091.003.181.004.272.004h.087a89.492 89.492 0 0 0 .48 0l.517-.002h.528l1.037-.003c.122-.294.228-.594.33-.896l.074-.223.08-.235.278-.826.028-.083c.152-.448.306-.895.463-1.341.29-.822.567-1.648.845-2.474.261-.777.524-1.554.796-2.328.263-.746.514-1.496.767-2.245a211.07 211.07 0 0 1 .96-2.8l.031-.091c.139-.395.273-.79.408-1.186l.037-.108.2-.586c.068.103.102.177.141.293l.037.109.04.119.042.124.09.266.24.714.05.146c.124.368.251.735.38 1.101.295.838.578 1.68.862 2.52.244.727.49 1.453.744 2.176.274.778.537 1.561.8 2.344.279.825.557 1.651.846 2.473.154.436.304.873.452 1.31l.027.08a372.391 372.391 0 0 1 .391 1.16l.046.137.041.123.037.108c.023.079.023.079.069.12.079.003.158.004.237.004h.491l.448-.002h.457l.898-.003c-.078-.266-.162-.53-.25-.794l-.038-.117-.127-.38-.09-.27-.19-.567-.236-.711c-.3-.901-.602-1.802-.91-2.7-.214-.626-.424-1.253-.632-1.88l-.304-.913-.03-.09a148.9 148.9 0 0 0-.497-1.468c-.244-.71-.48-1.423-.717-2.136a212.24 212.24 0 0 0-.691-2.053c-.245-.712-.483-1.427-.72-2.142-.256-.766-.51-1.533-.772-2.297l-.034-.1-.092-.27-.026-.076a8.498 8.498 0 0 0-.147-.392h-2.532c-.344.983-.685 1.967-1.024 2.951-.208.605-.418 1.21-.629 1.813-.246.702-.488 1.406-.73 2.11-.235.682-.47 1.364-.708 2.045-.225.642-.446 1.285-.667 1.928-.257.748-.516 1.495-.777 2.241a605.239 605.239 0 0 0-.918 2.646c-.11-.268-.209-.539-.3-.814l-.041-.123-.134-.402-.095-.285a1050.512 1050.512 0 0 1-.646-1.941l-.092-.276c-.186-.557-.368-1.114-.55-1.671-.298-.919-.602-1.835-.908-2.75l-.218-.654-.41-1.233-.465-1.392a10650.61 10650.61 0 0 0-.61-1.828l-.186-.558-.602-1.807H6.672Zm26.756 0-.257.763c-1.056 3.139-1.056 3.139-1.482 4.399l-.168.496a179.414 179.414 0 0 1-.738 2.156l-.166.476-.124.358-.046.128c-.155.458-.04.772.112 1.22l.052.155a122.81 122.81 0 0 0 .274.812 176.962 176.962 0 0 0 .406 1.203l.108.318.075.223.046.134.04.118c.029.094.029.094.115.127l.03-.092.75-2.247.361-1.087c.926-2.78.926-2.78 1.235-3.681.359-1.043.705-2.09 1.053-3.137l.245-.734.239-.716a658.609 658.609 0 0 1 .344-1.032l.042-.127.037-.111c.028-.075.028-.075.026-.122h-2.61Zm10.204 0v19.356h2.726V3.505h-2.726Zm34.116 0v19.356H91.77v-2.375H80.046v-6.31h10.165V11.88H80.046v-6H91.38V3.505H77.748Z" fill="#352610"></path><path d="M114.649 7.7c.069.002.139.002.208.003.181.002.362.007.544.012.185.006.37.008.556.01.363.006.725.014 1.088.025a1.363 1.363 0 0 1-.181.288l-.062.075-.066.08-.138.169-.07.085c-.097.12-.192.24-.286.362-.154.198-.314.39-.477.581-.145.17-.283.345-.42.52-.169.218-.345.43-.52.642a41.08 41.08 0 0 0-.506.625l-.175.22-.079.098a8.418 8.418 0 0 1-.058.072c.207.042.414.082.622.12 1.243.225 2.419.598 3.39 1.438l.095.08a4.647 4.647 0 0 1 1.112 1.432c.684 1.306.725 2.954.299 4.346a5.268 5.268 0 0 1-.844 1.62l-.049.063c-1.148 1.452-2.94 2.188-4.744 2.4l-.309.029-.129.013c-2.817.242-5.874-.42-8.089-2.233a4.78 4.78 0 0 0-.078-.078c.014-.156.073-.269.152-.402l.071-.122.077-.13.118-.204.123-.21c.081-.136.16-.273.24-.41l.281-.484.057-.097c.041-.068.084-.134.128-.2.144.062.247.153.365.256 1.338 1.134 3.277 1.768 5.022 1.777l.102.001.323.001h.112c.525 0 1.039-.009 1.553-.126l.089-.02c.666-.147 1.304-.425 1.82-.876l.112-.098c.584-.544.871-1.294.909-2.084.027-.89-.231-1.704-.849-2.362-1.401-1.35-3.683-1.156-5.469-1.181a31.602 31.602 0 0 1-.028-.815c-.002-.092-.006-.184-.01-.276-.042-.886-.042-.886.282-1.257.065-.07.131-.136.2-.202.092-.088.168-.186.247-.286l.247-.302c.197-.24.393-.48.589-.722l.445-.545.411-.506c.299-.368.299-.368.449-.545.092-.113.092-.113.165-.243.267-.441.546-.446 1.033-.426Zm-8.509-4.234h12.852c0 1.948 0 1.948-.428 2.454a1.635 1.635 0 0 1-.523.06l-.155.002c-.141.001-.281 0-.422-.003-.152-.003-.304-.002-.457-.001-.263 0-.526-.002-.789-.005-.381-.004-.761-.005-1.142-.006a309.85 309.85 0 0 1-1.852-.009c-.6-.005-1.2-.008-1.799-.01h-.112l-.557-.003a1183.8 1183.8 0 0 1-4.616-.025V3.466ZM47.643 29.521c.584 0 .584 0 .74.113.058.073.058.073.112.152l.062.081.122.163c.074.101.154.198.235.294l.083.103c.099.121.2.24.301.36.16.189.319.38.475.572.118.143.238.285.359.427.144.17.285.341.425.514.105.127.212.251.319.376l.038-3.155h.702v4.44c-.624 0-.624 0-.763-.092l-.087-.127-.05-.07a5.396 5.396 0 0 1-.102-.144c-.08-.118-.17-.23-.26-.341l-.052-.068a14.28 14.28 0 0 0-.49-.584c-.152-.174-.3-.351-.446-.531-.099-.122-.2-.241-.301-.36a38.47 38.47 0 0 1-.72-.877l-.04 3.194h-.662v-4.44Zm29.872 0 1.134-.01.355-.004.283-.001.145-.003c.507 0 .999.111 1.393.447.353.376.453.764.44 1.27a1.4 1.4 0 0 1-.447.95c-.157.126-.314.23-.499.311.156.238.317.47.484.701l.067.092c.135.187.274.37.42.55.042.059.042.059.042.137-.26.042-.524.08-.78 0-.204-.153-.323-.387-.448-.605-.09-.15-.197-.288-.303-.427-.183-.241-.183-.241-.183-.331l-.06.019c-.13.027-.252.024-.384.024h-.152l-.193-.002-.613-.002v1.324h-.701v-4.44Zm.7.584v1.948l.634.007.196.003c.467.005.958-.018 1.313-.361.2-.264.234-.533.195-.857-.041-.231-.15-.377-.335-.52-.397-.27-.83-.238-1.289-.23l-.713.01Zm9.27-.584h3.272v.584h-2.57v1.324h2.297v.546h-2.298v1.402h2.648v.584h-3.349v-4.44Zm-49.462 0h3.272v.584h-2.57v1.324h2.297v.546h-2.297v1.402h2.648v.584h-3.35v-4.44Zm29.054 0h.701l.002.246a243.632 243.632 0 0 0 .012 1.303 75.22 75.22 0 0 0 .005.655c.003.494.021.994.37 1.379.328.277.717.305 1.13.273.353-.067.604-.212.818-.507.126-.257.16-.47.164-.754v-.085l.004-.277a124.323 124.323 0 0 1 .008-.7 446.616 446.616 0 0 1 .019-1.533h.7a400.679 400.679 0 0 1 .008 1.99v.178c.005.647-.038 1.286-.472 1.803-.425.419-.929.522-1.502.527-.515-.004-.934-.076-1.344-.409l-.074-.059c-.392-.352-.516-.877-.555-1.385a9.886 9.886 0 0 1-.005-.576v-.18c0-.157.002-.313.003-.47l.002-.48.006-.939Zm32.988.312c-.06.195-.118.374-.234.545a4.728 4.728 0 0 1-.419-.156c-.49-.196-1.072-.25-1.567-.039-.179.1-.28.208-.336.407a.567.567 0 0 0 .102.45c.288.29.825.344 1.206.437 1.002.247 1.002.247 1.287.653.105.204.138.369.136.597l-.001.088a1.036 1.036 0 0 1-.362.79c-.418.333-.894.417-1.419.412l-.14-.001a2.95 2.95 0 0 1-1.642-.522c.024-.15.07-.268.139-.402l.054-.104.04-.079.088.055c.651.394 1.298.542 2.046.37.206-.058.311-.119.432-.3.069-.195.074-.33-.01-.519-.258-.283-.647-.358-1.007-.443-1.25-.313-1.25-.313-1.548-.767-.16-.274-.162-.615-.092-.919.124-.34.317-.558.637-.724.787-.36 1.877-.318 2.61.17Zm-72.518-.312h.779c.362.784.722 1.569 1.07 2.36.17.384.346.765.527 1.145.177-.349.346-.7.507-1.058l.149-.33.079-.173.419-.922.12-.264.075-.163.033-.073c.08-.176.166-.348.253-.522h.701a4.693 4.693 0 0 1-.2.505l-.036.08-.078.169-.212.46-.044.096c-.15.327-.295.655-.44.983-.318.719-.646 1.433-.976 2.147h-.7a32.666 32.666 0 0 1-.688-1.441l-.166-.366-.234-.514a333.67 333.67 0 0 1-.9-1.992c-.038-.088-.038-.088-.038-.127Zm29.949 0h3.817v.584h-1.558v3.856h-.7v-3.856h-1.559v-.584Z" fill="#352610"></path></g><defs><clipPath id="svg1314219240_10730_a"><path fill="#fff" transform="translate(.323)" d="M0 0h127.159v34H0z"></path></clipPath></defs></svg>