<svg xmlns:xlink="http://www.w3.org/1999/xlink" width="81" height="38" fill="none" xmlns="http://www.w3.org/2000/svg" id="svg333261915_6190"><g clip-path="url(#svg333261915_6190_a)" fill="#352610"><path d="M.015.027h79.893v6.818a.073.073 0 0 1-.075.074l-.957-.001c-.054-.001-.082-.028-.082-.082V1.15a.038.038 0 0 0-.038-.039H1.135a.014.014 0 0 0-.014.015v33.432a.032.032 0 0 1-.033.032l-1.074-.004V.027Z" fill="#352610"></path><path d="M69.237 9.547c.83-.047 1.47-.667 1.43-1.386-.04-.72-.746-1.265-1.576-1.218-.83.046-1.47.667-1.43 1.386.04.719.745 1.264 1.576 1.218ZM65.7 7.909h-2.367a.06.06 0 0 0-.06.059v11.355a.06.06 0 0 0 .06.059H65.7a.06.06 0 0 0 .06-.06V7.969a.06.06 0 0 0-.06-.06ZM45.223 18.63l-.032.657c-.004.052-.032.078-.084.078h-2.164a.065.065 0 0 1-.065-.065V8.007c0-.052.042-.093.094-.093l2.333-.001c.041 0 .074.032.074.073l-.006 3.906c0 .041.048.062.077.033a3.323 3.323 0 0 1 2.557-.94c3.041.247 4.127 3.862 3.017 6.36-.635 1.428-1.918 2.338-3.518 2.192-.852-.078-1.578-.394-2.179-.949-.064-.06-.099-.046-.104.042Zm2.197-5.527c-3.03-.308-2.72 4.914.13 4.314 2.01-.422 1.95-4.104-.13-4.314Zm-35.247 1.68c-1.62-.324-3.294-1.052-3.563-2.892-.326-2.23 1.572-3.667 3.584-3.835 1.29-.107 2.663.105 3.694.9a.076.076 0 0 1 .02.094l-1.017 2.059a.055.055 0 0 1-.087.015c-.787-.74-2.027-1.145-3.042-.667-.399.189-.652.616-.46 1.04.279.609 1.252.794 1.827.907 1.733.34 3.682 1.174 3.774 3.171.099 2.172-1.45 3.453-3.483 3.663-1.694.175-3.26-.133-4.573-1.232a.091.091 0 0 1-.023-.107l1.038-2.248a.05.05 0 0 1 .089-.004c.207.34.458.606.75.802.803.538 2.031.824 2.987.46.376-.143.623-.483.559-.894-.126-.812-1.425-1.103-2.074-1.232Zm63.43-1.303c-1.498 1.056-.937 3.821 1.07 3.889.774.025 1.413-.254 1.92-.84a.073.073 0 0 1 .11.001l1.227 1.496a.12.12 0 0 1-.005.156c-1.264 1.341-3.669 1.783-5.328.909-1.132-.597-1.848-1.513-2.144-2.747-.263-1.1-.113-2.41.487-3.381 1.156-1.865 3.283-2.385 5.31-1.704a3.771 3.771 0 0 1 1.704 1.132.086.086 0 0 1 0 .11l-1.253 1.498a.075.075 0 0 1-.113.002c-.757-.847-2.032-1.194-2.985-.521Zm-44.968-1.435c0 .03.037.044.058.022.82-.88 1.816-1.217 2.988-1.013.772.136 1.38.638 1.705 1.324.02.04.041.042.067.006.907-1.266 2.634-1.733 4.093-1.123 1.114.466 1.537 1.778 1.542 2.877.008 1.735.01 3.457.006 5.165a.076.076 0 0 1-.076.076l-2.342.002c-.052 0-.078-.026-.076-.078.003-1.702 0-3.342-.008-4.92-.003-.71-.384-1.262-1.11-1.294-.953-.04-1.584.554-1.58 1.506.005 1.41.008 2.985.006 4.723a.064.064 0 0 1-.063.061l-2.377.003a.046.046 0 0 1-.047-.047c-.002-1.62-.002-3.222 0-4.806.002-.754-.35-1.457-1.206-1.438-.656.015-1.103.274-1.342.777-.105.218-.154.564-.148 1.037.018 1.445.02 2.912.008 4.4 0 .05-.026.076-.077.076h-2.344c-.046 0-.069-.022-.069-.068l.001-8.088c0-.043.034-.076.075-.076h2.144c.095 0 .144.047.147.142l.025.754Zm31.039 2.049c.551 2.138-.408 4.249-2.473 5.1-2.616 1.08-5.868-.39-6.212-3.304-.247-2.09.754-3.899 2.73-4.624 2.436-.893 5.295.273 5.955 2.828Zm-4.284 3.322c1.072-.003 1.938-.974 1.936-2.17-.002-1.197-.873-2.166-1.944-2.164-1.071.003-1.938.974-1.935 2.17.002 1.197.872 2.166 1.943 2.164Zm-35.159-1.322a.018.018 0 0 0 .034 0l1.693-4.867a.119.119 0 0 1 .111-.078h2.658a.05.05 0 0 1 .047.07c-1.62 3.818-3.356 7.756-4.862 11.66a.1.1 0 0 1-.094.064h-2.312a.057.057 0 0 1-.053-.078l1.552-3.653a.15.15 0 0 0-.002-.119l-3.616-7.89a.038.038 0 0 1 .036-.053l2.665-.001c.048 0 .09.028.108.071l2.035 4.874Zm48.112-4.945h-2.349a.065.065 0 0 0-.065.065v8.102c0 .036.03.065.065.065h2.35c.035 0 .065-.03.065-.065v-8.102a.065.065 0 0 0-.066-.065ZM42.163 24.73c.83-.044 1.474-.662 1.436-1.38-.037-.72-.742-1.266-1.573-1.223-.83.044-1.474.662-1.436 1.38.037.718.741 1.266 1.573 1.222Zm23.624-1.64h-2.363a.053.053 0 0 0-.053.052v11.363c0 .029.023.053.053.053h2.363c.03 0 .054-.024.054-.053V23.142a.053.053 0 0 0-.053-.053Zm-52.86 3.173c-2.343 1.103-2.17 5.076.378 5.83 1.382.408 2.583.129 3.605-.84a.055.055 0 0 1 .085.01l1.189 1.89c.029.046.024.089-.016.126-.472.46-1.07.816-1.788 1.063-1.945.671-4.244.48-5.853-.865-.978-.817-1.583-1.832-1.819-3.045-.26-1.348-.141-2.581.358-3.7.86-1.924 2.699-3.09 4.799-3.22 1.732-.11 3.196.435 4.394 1.634a.105.105 0 0 1 .005.143l-1.514 1.739a.069.069 0 0 1-.103.001c-.986-1.072-2.376-1.397-3.72-.766Zm33.903 2.236-1.585.013a.075.075 0 0 1-.074-.074l-.001-2.036c0-.04.034-.074.074-.074l1.585.01c.04 0 .074-.034.074-.074l-.002-1.94c0-.04.032-.073.073-.073l2.335.001c.041 0 .074.033.074.074v1.937c0 .041.032.074.073.074l1.722-.009c.04 0 .074.034.074.074l-.002 2.034c0 .04-.034.074-.074.074l-1.72-.015a.075.075 0 0 0-.075.074v5.915a.073.073 0 0 1-.073.074h-2.334a.073.073 0 0 1-.073-.074l.002-5.912a.075.075 0 0 0-.074-.073Zm32.023-2.756.997-.003a.06.06 0 0 1 .06.059v8.746a.06.06 0 0 1-.06.059l-6.808.001a.06.06 0 0 1-.06-.06l.007-.985a.06.06 0 0 1 .059-.06h5.684a.06.06 0 0 0 .06-.06l.002-7.637a.06.06 0 0 1 .06-.06Zm-53.103 7.92c-.578.595-1.244.932-1.996 1.009-4.891.496-5.486-7.64-.938-8.458 1.126-.203 2.225.137 2.98 1.03.054.064.08.055.08-.029l-.008-.81c0-.043.022-.065.065-.065l2.323-.015c.041 0 .074.032.074.073l.001 8.096a.064.064 0 0 1-.064.064h-2.359a.087.087 0 0 1-.087-.088l.01-.775c.001-.078-.027-.09-.081-.032Zm-1.413-5.382c-1.785-.244-2.437 1.531-2.04 2.982.3 1.092 1.286 1.567 2.346 1.255 1.81-.533 1.677-3.965-.306-4.237Zm34.329 5.425c.001-.08-.025-.092-.082-.035-1.203 1.199-3.129 1.419-4.473.33-2.16-1.753-2.128-5.823.327-7.334 1.291-.796 3.121-.695 4.15.54.089.105.13.09.126-.047l-.024-.733a.091.091 0 0 1 .09-.093l2.315-.007c.038 0 .069.03.069.068l-.001 8.102a.06.06 0 0 1-.06.06H58.74a.093.093 0 0 1-.092-.095l.018-.756Zm-.144-2.16c.504-1.191.155-3.146-1.474-3.284-1.129-.096-1.873.687-2.001 1.752-.143 1.166.272 2.42 1.573 2.58.823.102 1.575-.273 1.902-1.048Zm-25.539 6.427H30.52l-.004-11.59c0-.025.021-.045.045-.045l2.226-.01a.1.1 0 0 1 .1.098l.016.667c.003.09.036.103.1.04a3.21 3.21 0 0 1 1.565-.848c1.493-.333 2.704.1 3.63 1.297 1.573 2.033 1.065 5.965-1.57 6.914-1.197.429-2.599.182-3.54-.692-.056-.052-.083-.04-.083.036l-.023 4.133Zm1.393-9.66c-1.164.25-1.58 1.483-1.413 2.55.18 1.142.805 1.725 1.875 1.745 2.612.054 2.408-4.907-.462-4.294Zm8.903-1.981h-2.357a.06.06 0 0 0-.059.06v8.106a.06.06 0 0 0 .06.059h2.356a.06.06 0 0 0 .059-.06v-8.106a.06.06 0 0 0-.06-.059Z" fill="#352610"></path></g><defs><clipPath id="svg333261915_6190_a"><path fill="#fff" transform="translate(.015 .027)" d="M0 0h80v37.946H0z"></path></clipPath></defs></svg>