<svg xmlns:xlink="http://www.w3.org/1999/xlink" width="97" height="40" fill="none" xmlns="http://www.w3.org/2000/svg" id="svg2114456882_8369"><path d="M79.17 3.509a1.257 1.257 0 1 0 0-2.513 1.257 1.257 0 0 0-.002 2.513ZM32.195 6.826c.14.21.277.447.34.693.447 1.719-.146 3.245-1.788 3.956a4.09 4.09 0 0 1-2.174.325c-.483-.061-.937.352-1.115.75a.46.46 0 0 0 .212.6c.232.115.478.183.74.2.716.05 1.434.107 2.156.175 1.678.156 3.672 1.03 3.36 3.087-.436 2.883-3.743 3.13-6.024 2.855-1.525-.184-3.049-1.03-3.1-2.7-.026-.912.595-1.557 1.491-1.86.094-.032.107-.083.042-.156-.187-.206-.409-.367-.555-.61-.677-1.111.418-2.137 1.307-2.62a.07.07 0 0 0 .002-.121c-2.355-1.46-2.388-4.804.428-5.824.927-.334 1.851-.378 2.771-.128.342.093.67.136.986.134.962-.006 1.89-.006 2.783 0 .105 0 .147.052.125.153l-.156.788c-.024.119-.098.178-.219.176l-1.54-.008c-.108 0-.132.046-.072.135Zm-2.815 4.127c1.015-.131 1.702-1.29 1.534-2.585-.17-1.297-1.13-2.241-2.145-2.109-1.016.131-1.702 1.29-1.534 2.585.17 1.297 1.13 2.241 2.145 2.109Zm2.743 5.096c-.714-.843-2.303-.99-3.346-.926-.817.051-1.649.136-2.192.835-.913 1.18.268 2.286 1.375 2.521a7.101 7.101 0 0 0 3.201-.033c1.149-.278 1.853-1.343.962-2.397Zm14.62-2.129c.017-.247-.066-.289-.254-.126a7.497 7.497 0 0 1-1.528 1.03c-1.309.66-3.007.594-3.903-.68-.41-.58-.617-1.319-.625-2.216a473.98 473.98 0 0 1-.018-3.314c-.002-.446-.06-.826-.173-1.141-.168-.463-.805-.34-1.18-.265-.14.03-.208-.028-.204-.17l.012-.341a.37.37 0 0 1 .275-.37 17.121 17.121 0 0 0 2.222-.913c.226-.113.466-.153.722-.12.074.01.107.05.105.124-.07 1.625-.091 3.627-.061 6.006.008.62.113 1.376.492 1.859 1.075 1.36 2.874.28 3.895-.671a.35.35 0 0 0 .118-.264c.002-1.226 0-2.469-.006-3.734-.004-.872-.163-1.787-1.393-1.325-.12.045-.182.002-.182-.127v-.48a.308.308 0 0 1 .218-.29 15.219 15.219 0 0 0 2.519-1.006c.212-.107.36-.071.581-.095.087-.008.13.032.127.117-.045 2.46-.047 4.934-.006 7.423.014.76.41.965 1.19.61.262-.119.371-.04.328.236a.303.303 0 0 0 0 .085c.03.212-.054.358-.254.436l-2.482.978a.193.193 0 0 1-.228-.071 1.827 1.827 0 0 1-.307-1.184Zm11.396-7.429a.071.071 0 0 0 .115.058c1.724-1.38 4.078-1.949 5.617.063.06.077.125.083.199.014 2.057-1.953 5.465-1.964 6.262 1.277.086.343.127.685.125 1.026-.002 1.303-.004 2.691-.002 4.164.002.893.73 1.014 1.438 1.012.17 0 .248.085.232.254l-.027.307c-.014.156-.102.23-.258.22a36.515 36.515 0 0 0-4.418 0c-.168.01-.256-.07-.258-.238l-.004-.252c-.002-.2.097-.299.298-.293.785.024 1.172-.344 1.158-1.103-.017-1.087-.014-2.257.01-3.515.014-.746-.095-1.32-.327-1.726-.466-.816-1.208-1.169-2.228-1.06-.533.058-1.089.301-1.668.735a.236.236 0 0 0-.101.2c0 1.923.002 3.744.006 5.465.002.959.758.976 1.47.97.188-.002.277.092.271.28l-.01.319a.22.22 0 0 1-.234.21 30.869 30.869 0 0 0-4.39.015c-.212.018-.323-.08-.333-.293l-.008-.192c-.007-.22.098-.323.316-.31.756.04 1.136-.341 1.146-1.145.014-1.367.016-2.826.002-4.379-.021-2.473-2.971-2.233-4.237-.932a.224.224 0 0 0-.065.16c.002 1.757.002 3.53 0 5.323-.002.935.76.948 1.464.939.202-.002.3.097.293.299l-.01.273c-.005.172-.097.251-.27.24a31.295 31.295 0 0 0-4.455.013.223.223 0 0 1-.238-.221v-.359c0-.148.074-.218.223-.208.686.044 1.23-.138 1.233-.946.006-1.4.006-2.81.002-4.23a5.221 5.221 0 0 0-.107-1.018c-.145-.695-.771-.834-1.345-.54-.2.1-.3.04-.301-.185v-.32a.406.406 0 0 1 .291-.394c.83-.25 1.643-.604 2.442-1.066.199-.113.37-.109.59-.103.089.002.132.048.128.137L58.14 6.49Zm22.091 6.386c.002.852.625 1.268 1.417 1.182.222-.025.33.076.323.3l-.008.243c-.006.208-.115.303-.323.287a29.402 29.402 0 0 0-4.4.004.205.205 0 0 1-.22-.198l-.01-.394c-.004-.125.058-.19.183-.198.244-.016.494.042.718-.08.35-.187.527-.492.53-.912V8.616a2.57 2.57 0 0 0-.171-.97.515.515 0 0 0-.516-.321 2.04 2.04 0 0 0-.803.23c-.14.073-.209.031-.209-.125l.002-.426a.31.31 0 0 1 .197-.299c.823-.366 1.64-.79 2.451-1.27.236-.14.492-.18.764-.122.064.014.095.051.095.117a603.053 603.053 0 0 0-.02 7.447ZM19.307 29.91c.163-.237.313-.52.45-.85.07-.169.216-.23.389-.214.067.006.101.043.101.113v2.58c0 .14-.053.273-.15.374a9.258 9.258 0 0 1-4.42 2.582c-5.019 1.317-10.133-.243-12.535-5.061-.508-1.018-.833-2.228-.976-3.632-.527-5.168 3.065-9.66 8.014-10.748.907-.2 1.918-.287 3.035-.258 2.158.058 4.196.388 6.181 1.236.068.03.101.08.103.152l.064 3.64c.002.081-.04.12-.121.12l-.585-.001a.193.193 0 0 1-.187-.115c-1.589-3.204-4.509-4.085-7.794-3.345-3.443.779-5.272 3.547-5.653 6.895-.284 2.485.2 4.693 1.456 6.624.875 1.345 2.04 2.319 3.497 2.927 1.238.517 2.66.604 4.269.261 2.037-.433 3.658-1.526 4.862-3.28Zm46.421-3.437h-1.767a.138.138 0 0 1-.137-.09c-.076-.165-.07-.38.103-.494 1.327-.887 2.36-2.061 3.104-3.52.03-.06.08-.09.147-.092l.357-.004c.082-.002.121.04.121.12l-.018 2.765c0 .075.062.137.137.137l2.896.002c.044 0 .074.041.06.081l-.325 1.014a.132.132 0 0 1-.125.09h-2.456c-.097 0-.147.05-.149.15a812.754 812.754 0 0 0-.004 3.815c0 .895-.077 2.39 1.014 2.723.83.253 1.5.166 2.003-.261.095-.081.193-.084.292-.01l.178.132c.121.09.131.188.026.297-.44.462-.895.937-1.36 1.422a.862.862 0 0 1-.689.264c-2.043-.105-3.122-1.163-3.235-3.175-.058-1.025-.066-2.764-.026-5.217.002-.1-.046-.149-.147-.149Zm-12.778-.285c2.043-1.43 4.927-1.814 6.43.675 1.173 1.94.911 4.812-.668 6.47-1.442 1.514-3.555 1.837-5.544 1.221-.147-.045-.22.01-.22.163l.013 2.764c.006.972.897.735 1.5.818.15.022.22.109.206.261l-.022.26c-.017.198-.124.289-.323.273a27.285 27.285 0 0 0-4.443.002.243.243 0 0 1-.262-.242l-.004-.334c-.002-.145.07-.224.214-.238.304-.026.697.077.95-.105.252-.182.38-.366.381-.552.042-4.434.034-7.701-.023-9.8-.01-.383-.171-.664-.48-.844-.264-.152-.699-.028-.967.08-.168.067-.252.01-.248-.173l.01-.396c.004-.184.096-.3.274-.354a10.873 10.873 0 0 0 2.335-.975 1.03 1.03 0 0 1 .706-.113c.075.012.111.056.107.133l-.04.943c-.004.1.036.12.117.063Zm2.969.368c-.954-.299-2.063.103-2.85.678a.287.287 0 0 0-.12.231c.01 1.763.008 3.511-.002 5.246-.002.299.246.477.465.633 1.874 1.341 4.229.365 4.739-1.817.472-2.028-.022-4.277-2.232-4.97Zm23.935 8.43c-2.702.004-4.898-2.221-4.902-4.971-.004-2.752 2.182-4.985 4.885-4.99 2.703-.003 4.898 2.223 4.902 4.973.004 2.75-2.182 4.984-4.885 4.988Zm2.52-2.764c.56-1.36.53-2.772-.088-4.24-.439-1.043-1.334-1.723-2.484-1.853-1.732-.196-2.686 1.455-2.82 2.956-.118 1.331.083 2.711.928 3.76.736.918 2.33 1.46 3.394.733.476-.326.833-.778 1.07-1.356Zm9.481-1.359c-.837-.323-1.425-.57-1.76-.738-1.525-.767-2.2-2.284-1.13-3.797 1.112-1.572 3.556-1.459 5.244-.924a.257.257 0 0 1 .18.24l.038 2.245c.002.1-.047.146-.148.137l-.351-.036c-.115-.012-.185-.075-.207-.188-.119-.57-.254-1.16-.79-1.487-.72-.438-1.386-.446-2-.022-.933.641-.608 1.762.297 2.188.587.275 1.206.552 1.857.828.916.388 1.936 1.22 1.862 2.289a6.852 6.852 0 0 0-.004.925c.054.851-.879 1.698-1.57 2.01-.804.36-1.592.51-2.361.45a10.843 10.843 0 0 1-2.43-.478.151.151 0 0 1-.103-.139l-.05-2.65c-.002-.088.04-.132.129-.132l.345-.002c.121-.002.198.057.232.174.333 1.155 1.028 2.044 2.257 2.16 1.054.104 1.998-.41 1.984-1.57-.01-.798-.867-1.23-1.521-1.483ZM28.166 26.88c-.048.423.038.45.256.085.666-1.131 2.023-1.872 3.322-1.593.14.03.209.117.209.26l-.002 1.546c-.002.438-.165.511-.492.218-1.129-1.018-2.454-.25-2.974.963-.145.336-.21.712-.2 1.128.026 1.026.026 2.048.004 3.068-.03 1.372.206 1.6 1.61 1.536a.18.18 0 0 1 .187.176l.01.42c.002.172-.081.252-.252.242-1.599-.101-3.11-.1-4.535.004-.164.012-.248-.066-.25-.232l-.002-.358c-.002-.159.078-.238.237-.24.628-.004 1.204-.035 1.206-.857.002-1.347.006-2.743.01-4.188.002-.507-.072-.943-.217-1.307a.529.529 0 0 0-.65-.31l-.623.2c-.195.062-.282-.007-.264-.21l.026-.296a.4.4 0 0 1 .266-.36 12.265 12.265 0 0 0 2.35-1.262 1.19 1.19 0 0 1 .827-.204.11.11 0 0 1 .1.12l-.16 1.45Zm13.189 5.352c.081.19.149.186.206-.012.453-1.59.947-3.307 1.48-5.147.1-.344.024-.63-.224-.857-.186-.17-.409-.115-.635-.14-.172-.019-.254-.116-.246-.288l.012-.253c.01-.185.105-.264.286-.238 1.087.146 2.17.145 3.247-.008a.239.239 0 0 1 .272.22l.014.194c.014.19-.072.307-.258.348-.8.184-1.071.656-1.331 1.396a886.236 886.236 0 0 1-2.742 7.773c-.472 1.319-1.39 3.915-3.124 3.974-.494.018-.992.018-1.497 0a.182.182 0 0 1-.177-.176l-.05-1.75a.132.132 0 0 1 .096-.132c.18-.051.323.006.428.17.706 1.108 1.801.567 2.363-.302.4-.62.733-1.311.997-2.073a.296.296 0 0 0-.008-.222 841.44 841.44 0 0 0-3.487-8.002c-.184-.414-.512-.62-.984-.618-.256 0-.379-.127-.369-.382.002-.018.002-.038.002-.058.004-.259.137-.378.397-.354 1.244.115 2.515.11 3.815-.01.188-.018.287.067.295.258l.01.285a.254.254 0 0 1-.246.263c-.797.02-1.008.49-.712 1.154a394.357 394.357 0 0 1 2.17 4.987Z" fill="#352610"></path></svg>