<svg xmlns:xlink="http://www.w3.org/1999/xlink" width="56" height="40" fill="none" xmlns="http://www.w3.org/2000/svg" id="svg-384269426_4164"><g clip-path="url(#svg-384269426_4164_a)" fill="#352610"><path d="M28.247 5.253a.01.01 0 0 0-.014 0l-9.717 9.82c-.01.01-.014.008-.015-.007l-.03-4.59c0-.016.005-.03.016-.04L28.269.549a.018.018 0 0 1 .026 0l9.726 9.831c.05.05.05.079.05.148-.013 1.52-.02 3.047-.02 4.58 0 .036-.013.04-.037.016l-9.767-9.87Z" fill="#352610"></path><path d="m25.404 17.503 2.84 2.871c.013.013.026.013.038 0l5.142-5.196c.012-.013.024-.013.036 0l2.266 2.286c.013.013.013.026 0 .039l-7.475 7.554c-.01.01-.02.01-.03 0l-7.444-7.522c-.02-.02-.02-.04 0-.061l7.462-7.541c.012-.013.024-.013.037 0l2.263 2.292c.01.01.01.022 0 .033a2706.475 2706.475 0 0 1-4.375 4.428c-.247.25-.501.51-.76.78-.013.012-.012.025 0 .037ZM3.736 31.1A4.021 4.021 0 0 1 5 30.87a8.405 8.405 0 0 1 1.824.138c.398.073.777.157 1.156.273.02.006.032.024.032.044v1.35c0 .012-.006.017-.018.015a14.065 14.065 0 0 0-2.525-.197c-.305.004-.58.053-.826.147-.518.198-.698.729-.798 1.227-.028.14-.049.286-.062.439-.062.72-.065 1.46-.01 2.216.037.52.123 1.136.474 1.523.279.307.809.389 1.214.394a20.01 20.01 0 0 0 2.523-.114c.019-.002.028.006.028.025v1.342c0 .014-.007.024-.02.028-.92.295-1.903.355-2.864.346a4.764 4.764 0 0 1-1.274-.17c-.755-.216-1.253-.762-1.516-1.49a6.078 6.078 0 0 1-.327-1.494 15.254 15.254 0 0 1-.026-2.608c.093-1.22.445-2.719 1.75-3.205Zm6.049.701c.5-.577 1.173-.798 1.924-.883a7.75 7.75 0 0 1 2.025.028c.206.03.402.075.588.131.605.184 1.058.535 1.36 1.052.36.617.505 1.364.568 2.109a15 15 0 0 1 .02 2.237c-.05.802-.186 1.627-.567 2.32-.336.61-.941.994-1.62 1.133-.757.155-1.574.182-2.452.083a4.396 4.396 0 0 1-.674-.13c-.762-.211-1.3-.699-1.611-1.463-.216-.528-.32-1.083-.368-1.65-.077-.891-.075-1.77.006-2.637.05-.551.162-1.112.383-1.632.12-.281.259-.514.418-.698Zm4.646 2.26c-.058-.494-.213-1.055-.644-1.333-.17-.11-.405-.181-.706-.213a4.477 4.477 0 0 0-.972.005c-.561.064-.942.307-1.141.837-.168.446-.217.936-.237 1.408-.03.724-.016 1.395.04 2.013.023.245.077.493.154.724.171.514.513.815 1.04.893.354.052.71.062 1.07.028.186-.018.358-.052.514-.104.74-.247.88-1.189.926-1.872a12.83 12.83 0 0 0-.044-2.386Zm8.454 2.816v-5.91c0-.009.006-.015.014-.015h1.76c.008 0 .014.006.014.014v9.01c0 .01-.007.017-.016.017h-1.402a.038.038 0 0 1-.033-.018l-3.692-5.88c-.025-.04-.038-.037-.038.01v5.867c0 .014-.007.021-.02.021h-1.758c-.017 0-.026-.009-.026-.026v-9c0-.009.006-.015.014-.015H19.1c.019 0 .033.007.043.023l3.72 5.908c.015.023.023.021.023-.006Zm5.063-.323v3.417c0 .015-.007.022-.021.022h-1.746c-.018 0-.027-.01-.027-.027-.003-3.327-.003-5.67.001-7.03.002-.682.227-1.29.817-1.66.458-.286.987-.334 1.581-.326.865.012 1.733.04 2.603.086.302.016.605.04.911.073.008 0 .013.007.013.015V32.6c0 .014-.007.021-.02.022-1.042.002-2.073.002-3.096-.002-.305-.002-.507.018-.604.059-.342.144-.418.425-.415.777.005.477.006.95.002 1.419 0 .013.01.023.023.023l3.5.096a.03.03 0 0 1 .03.031v1.381a.02.02 0 0 1-.019.02l-3.502.096c-.02 0-.03.01-.03.031Zm7.194 1.546c.13.177.437.257.65.258.938.001 1.882.002 2.833 0 .011 0 .02.01.02.021v1.596c0 .01-.007.018-.016.018h-3.386c-.498-.001-1.046-.12-1.434-.438-.48-.395-.589-1.076-.589-1.674v-6.9c0-.02.01-.03.03-.03h1.738c.018 0 .026.01.026.027 0 2.39.002 4.622.006 6.693 0 .176.041.32.122.43Zm9.068-.02c.258-.22.387-.519.387-.896v-6.217c0-.008.008-.015.017-.015h1.768c.018 0 .027.009.027.026v6.114c-.001.546-.074 1.108-.322 1.594-.397.781-1.162 1.158-2.017 1.285a8.192 8.192 0 0 1-2.04.039c-.686-.07-1.468-.28-1.952-.804-.523-.566-.673-1.294-.675-2.048a1453.18 1453.18 0 0 1 0-6.193c0-.007.006-.013.013-.013h1.76c.013 0 .02.006.02.02v6.125c0 .414.12.812.475 1.045.24.157.556.249.948.278.524.038 1.206-.013 1.59-.34Zm6.653-1.083-1.692 2.989a.013.013 0 0 1-.012.007h-1.954a.014.014 0 0 1-.012-.021l2.733-4.504a.014.014 0 0 0 0-.015l-2.77-4.48a.014.014 0 0 1 .012-.021h1.954c.005 0 .01.002.012.006l1.898 3.065a.014.014 0 0 0 .024 0l1.73-3.064a.013.013 0 0 1 .011-.007h1.942c.011 0 .018.012.013.021l-2.77 4.578a.014.014 0 0 0 0 .015l2.732 4.406c.006.01 0 .021-.012.021h-1.955a.014.014 0 0 1-.011-.007l-1.849-2.99a.014.014 0 0 0-.024.001Z" fill="#352610"></path></g><defs><clipPath id="svg-384269426_4164_a"><path fill="#fff" transform="translate(.802)" d="M0 0h54.468v40H0z"></path></clipPath></defs></svg>