<svg xmlns:xlink="http://www.w3.org/1999/xlink" width="145" height="34" fill="none" xmlns="http://www.w3.org/2000/svg" id="svg2017060802_2147"><g clip-path="url(#svg2017060802_2147_a)" fill="#352610"><path d="m20.507 8.763-8.338 8.338 8.46 8.46L29.066 34l6.376-6.375 6.375-6.375h-3.441l-4.655 4.655-4.655 4.654-6.739-6.739-6.719-6.719 6.74-6.74 6.718-6.718 6.173 6.172 6.173 6.173h-11.8L28.988 17c-.345.567-.628 1.113-.628 1.214 0 .122 4.048.203 11.394.203h11.374l.668-1.093c.344-.607.648-1.154.648-1.215 0-.06-1.741-.12-3.846-.12h-3.865l-7.71-7.793C32.793 3.906 29.21.405 29.089.405c-.122 0-3.987 3.764-8.581 8.358Zm42.257 7.63v5.869H74.3v-2.227h-9.107v-2.003l2.55-.06 2.53-.062.606-1.072.628-1.053h-6.314V12.75h8.702v-2.226H62.764v5.869Zm12.346-4.756v1.113h4.452v9.512h2.428V12.75h4.655v-2.226H75.109v1.113Zm13.154 4.756v5.869h11.333v-2.227h-8.905v-2.023h4.959l.647-1.073.628-1.052-3.117-.061-3.117-.06V12.75h8.702v-2.226h-11.13v5.869Zm13.559-.021v5.89h2.429v-4.048h1.68c2.186 0 4.189.304 4.553.688.162.162.405.972.527 1.781l.222 1.477 1.498.061c1.477.061 1.497.04 1.174-.324-.223-.242-.344-.728-.344-1.436 0-1.255-.385-2.267-1.073-2.773l-.486-.385.83-.728.83-.749v-1.518c0-1.841-.344-2.428-1.842-3.177-.951-.486-1.153-.506-5.484-.567l-4.514-.08v5.888Zm8.359-3.4c.87.243 1.255.911 1.052 1.842-.222.972-1.032 1.235-4.189 1.336l-2.793.101V12.75h2.591c1.416 0 2.914.101 3.339.222Zm6.011 3.421v5.869h2.428v-8.298l3.785 4.109 3.784 4.088 1.174.06 1.174.061V10.524h-2.429v8.115l-1.153-1.254c-.648-.709-2.328-2.51-3.724-4.028l-2.53-2.732-1.255-.06-1.254-.061v5.889Zm19.286-5.626c-.222.283-5.525 10.503-5.767 11.15-.142.324-.041.365 1.214.304l1.356-.06.688-1.377.688-1.356h6.314l.769 1.417.769 1.417h1.316c.728 0 1.295-.081 1.255-.162-.021-.081-1.417-2.732-3.056-5.87l-2.996-5.706h-1.194c-.688 0-1.254.1-1.356.243Zm2.591 4.857c.425.87.789 1.619.789 1.68 0 .06-.911.1-2.024.1s-2.023-.04-2.023-.1c0-.061.425-.972.951-2.024 1.113-2.227.991-2.247 2.307.344ZM1.038 16.94c-.324.546-.607 1.092-.607 1.213 0 .203 1.032.264 4.533.264h4.554l.607-1.093c.344-.587.627-1.134.627-1.215 0-.06-2.044-.121-4.553-.121H1.645l-.607.951Z" fill="#352610"></path></g><defs><clipPath id="svg2017060802_2147_a"><path fill="#fff" transform="translate(.43)" d="M0 0h143.893v34H0z"></path></clipPath></defs></svg>