<svg xmlns:xlink="http://www.w3.org/1999/xlink" width="104" height="24" fill="none" xmlns="http://www.w3.org/2000/svg" id="svg1499337388_5826"><path d="M30.221 10.933c.095.044.2.06.308.047a85.975 85.975 0 0 1 5.838-.45c.697-.031 1.045.301 1.04.999l-.001.13c-.003.654-.33 1.01-.984 1.068a78 78 0 0 1-5.94.288c-.166.003-.292.045-.374.125a.233.233 0 0 0 .002.338 678.954 678.954 0 0 0 5.268 4.901c.486.445.986.933 1.502 1.462.435.443.938.915 1.511 1.413.446.386.421.816-.07 1.292a.423.423 0 0 1-.071.058c-.539.367-1.068.31-1.591-.173-2.48-2.3-4.838-4.475-7.078-6.527-1.086-.994-2.058-1.98-3.272-2.926-.547-.428-.565-.86-.05-1.3 1.377-1.177 2.522-2.57 3.796-3.862a408.61 408.61 0 0 0 6.394-6.635c.99-1.048 2.357.532 1.395 1.54-.762.8-1.495 1.577-2.197 2.332a39.26 39.26 0 0 1-2.253 2.251c-1.035.957-2.107 2.1-3.217 3.432a.128.128 0 0 0 .044.197ZM3.28 17.535a.224.224 0 0 0 .34.067 876.586 876.586 0 0 0 5.154-4.354 9.134 9.134 0 0 1 1.021-.75c1.219-.776-.19-1.691-.673-2.216a173.892 173.892 0 0 1-4.307-4.885 6.065 6.065 0 0 0-.603-.614A13.75 13.75 0 0 1 2.33 2.792c-.923-1.203.736-2.298 1.677-1.327a70.1 70.1 0 0 1 2.26 2.45c.738.84 1.489 1.66 2.253 2.459a96.81 96.81 0 0 1 4.298 4.843c.467.558.332 1.14-.208 1.586a779.362 779.362 0 0 0-7.191 5.986c-1.254 1.057-2.331 2.193-3.61 3.077a.4.4 0 0 1-.624-.288 5.487 5.487 0 0 1-.033-.538 170.948 170.948 0 0 1-.007-5.873c.022-1.646-.11-3.334.005-5.04.048-.733.042-1.458-.023-2.173-.055-.623.226-.986.844-1.086a.596.596 0 0 1 .218.004c.591.118.888.477.89 1.077.011 1.77.058 3.412.14 4.925.077 1.464.009 2.896-.005 4.364a.63.63 0 0 0 .067.297Zm39.022.078a.186.186 0 0 0 .232-.003c1.67-1.386 3.31-2.769 4.918-4.147.472-.405.953-.773 1.438-1.103.401-.273.403-.793.08-1.128a102.117 102.117 0 0 1-4.641-5.164c-.844-1.003-2.176-2.06-3.108-3.32-.825-1.113.746-2.216 1.603-1.368a44.68 44.68 0 0 1 2.342 2.497 67.537 67.537 0 0 0 2.328 2.548 92.408 92.408 0 0 1 4.137 4.65c.458.55.62 1.139-.003 1.65a639.797 639.797 0 0 0-7.705 6.432c-1.087.921-2.036 1.96-3.205 2.707-.397.255-.63-.127-.64-.479a31.709 31.709 0 0 1-.025-1.497c.024-2.82.018-5.32-.02-7.493-.024-1.528.124-3.026.022-4.563-.038-.572.268-.898.922-.98a.48.48 0 0 1 .08 0c.675.078 1.003.455.988 1.135-.036 1.608.002 3.15.11 4.625.107 1.454-.002 2.9.007 4.396 0 .212-.042.458.14.605ZM95.692 6.67c-.356.384-.354.971.053 1.323 2.502 2.162 4.67 4.143 6.505 5.94.319.31.224.804-.087 1.085a78.94 78.94 0 0 0-1.954 1.843c-1.34 1.308-3.106 2.566-4.417 3.917-.627.65-1.23 1.203-1.808 1.666-1.08.867-2.372-.633-1.349-1.601a229.514 229.514 0 0 1 4.725-4.352 67.73 67.73 0 0 1 1.88-1.617.587.587 0 0 0 .019-.89L92.32 7.747a.593.593 0 0 1 .007-.888c.91-.793 1.76-1.646 2.694-2.397a49.27 49.27 0 0 0 3.358-2.973c1.097-1.059 2.522.394 1.53 1.38a19.735 19.735 0 0 1-1.778 1.569 20.96 20.96 0 0 0-2.439 2.233Zm-25.465 12.9c.199.305.502.447.908.422 1.81-.108 3.529-.237 5.16-.39.562-.05.841-.372.837-.961-.007-.576.274-.91.844-1.006.093-.015.188-.022.286-.018.618.023.935.344.948.962.015.733.013 1.38-.002 1.94-.018.61-.308.935-.873.978-1.42.11-2.885.208-4.391.29-.922.048-1.76.12-2.51.212-.826.105-1.666.175-2.517.215a1.944 1.944 0 0 1-.888-.153.494.494 0 0 1-.29-.511l.697-5.816c.229-1.907.45-3.972.67-6.194.232-2.393.54-4.845.921-7.357.208-1.367 2.233-1.276 2.034.097a87.996 87.996 0 0 0-.479 3.902 137.284 137.284 0 0 1-.378 3.478c-.2 1.52-.457 3.09-.53 4.63a46.634 46.634 0 0 1-.514 4.973.428.428 0 0 0 .067.306Zm12.922-.542a.893.893 0 0 0 .873.789c.844.015 1.641.013 2.388-.009.631-.018.95-.618 1.019-1.216.1-.875.177-1.715.237-2.52.093-1.288.348-2.573.403-3.85a32.26 32.26 0 0 1 .237-2.693c.153-1.194.222-2.437.412-3.603a56.36 56.36 0 0 0 .457-3.376c.06-.6.396-.884 1.01-.853.622.03.955.348.948.988a12.15 12.15 0 0 1-.162 1.875 33.273 33.273 0 0 0-.37 3.238c-.137 2.076-.414 4.006-.673 6.022-.16 1.23-.146 2.45-.337 3.702-.164 1.09-.321 2.197-.47 3.323-.068.53-.491.941-1.027.97a69.135 69.135 0 0 1-5.916.06.995.995 0 0 1-.598-.21c-.257-.202-.39-.452-.398-.752a53.285 53.285 0 0 0-.665-6.796 20.39 20.39 0 0 1-.248-2.661 14.35 14.35 0 0 0-.217-2.056 17.96 17.96 0 0 1-.233-2.253 40.779 40.779 0 0 0-.47-4.493c-.106-.667.178-1.03.851-1.09l.15-.009c.668-.024 1.02.297 1.062.964.117 1.892.303 3.707.558 5.446.22 1.506.386 2.948.496 4.324.169 2.11.397 4.356.683 6.74ZM15.69 17.096c.078.14.175.197.297.17 1.199-.27 2.656-.693 4.373-1.266.636-.213 1.028.008 1.177.662a.347.347 0 0 1 .013.066c.1.667-.17 1.101-.813 1.303a338.676 338.676 0 0 0-5.742 1.883c-.698.235-1.387.425-2.067.572a.435.435 0 0 1-.505-.563c.844-2.545 1.67-5.126 2.479-7.743.17-.556.467-1.178.622-1.706.87-3.01 1.768-5.742 2.687-8.19a.831.831 0 0 1 .209-.319.268.268 0 0 1 .418.062c.915 1.624 1.633 3.352 2.333 5.104.756 1.89 1.757 3.762 2.652 5.588.6 1.227 1.14 2.392 1.617 3.496.784 1.81 1.642 3.668 2.575 5.578.618 1.267-1.235 2.036-1.861.797-.809-1.597-1.412-3.165-2.2-4.752-.432-.868-.778-1.78-1.236-2.643-.71-1.331-1.41-2.656-1.992-4.043a379.429 379.429 0 0 0-1.451-3.398.732.732 0 0 0-.29-.335.212.212 0 0 0-.315.122 22.896 22.896 0 0 1-.875 2.528c-.17.416-.321.844-.448 1.283-.17.585-.41 1.132-.551 1.717a42.021 42.021 0 0 1-1.121 3.812.27.27 0 0 0 .015.215Zm42.226-9.659a.25.25 0 0 0-.348.166c-.31 1.239-.84 2.333-1.203 3.485-.217.69-.474 1.367-.654 2.072a49.142 49.142 0 0 1-1.096 3.708.307.307 0 0 0 .365.397 52.79 52.79 0 0 0 4.336-1.274c.662-.226 1.05.006 1.158.7l.025.155c.077.5-.22.981-.7 1.136a414.391 414.391 0 0 0-5.632 1.861 24.17 24.17 0 0 1-2.282.645.453.453 0 0 1-.531-.587 230.193 230.193 0 0 0 1.767-5.437c.672-2.157 1.494-4.464 2.165-6.703.6-2.008 1.2-3.685 1.847-5.483a.718.718 0 0 1 .22-.313.287.287 0 0 1 .434.082c1.296 2.34 2.11 4.781 3.212 7.08a337.076 337.076 0 0 0 2.502 5.107c.602 1.21 1.06 2.548 1.668 3.802.6 1.242 1.196 2.512 1.788 3.81.571 1.25-1.252 1.936-1.85.782-.78-1.506-1.352-3.028-2.08-4.493-.45-.908-.822-1.872-1.299-2.767-1.23-2.31-2.392-4.834-3.489-7.57a.639.639 0 0 0-.323-.36Z" fill="#352610"></path></svg>