<svg xmlns:xlink="http://www.w3.org/1999/xlink" width="104" height="24" fill="none" xmlns="http://www.w3.org/2000/svg" id="svg2073028970_3079"><g clip-path="url(#svg2073028970_3079_a)" fill="#352610"><path d="M19.372 1.643V14.23s-.03 4.195-.206 4.811c-.146.587-.469.94-.762 1.203-.47.382-1.115.529-1.702.44-1.232-.175-2.113-1.437-2.846-2.376-1.467-1.907-3.315-5.486-3.315-5.486s-.88-2.142-2.494-1.262c-1.32.704-.587 2.259-.587 2.259s2.054 4.196 3.462 6.073c2.112 2.846 5.193 5.047 8.538 3.639 1.907-.793 3.169-2.641 3.169-5.135 0-1.614.058-7.482.058-10.24V1.643c.03-2.142-3.315-2.142-3.315 0Z" fill="#352610"></path><path d="M4.115 22.357V9.77s.03-4.195.206-4.811c.146-.587.469-.94.762-1.203.47-.382 1.115-.528 1.702-.44 1.232.176 2.113 1.437 2.846 2.376 1.467 1.907 3.316 5.487 3.316 5.487s.88 2.141 2.493 1.261c1.32-.704.587-2.259.587-2.259s-2.054-4.196-3.462-6.073C10.453 1.262 7.372-.94 4.027.47 2.12 1.262.858 3.11.858 5.604.858 7.247.8 13.086.8 15.844v6.513c0 2.142 3.315 2.142 3.315 0ZM36.947.206h2.112V11.5h-1.291v.03l-5.927-7.629v7.6H29.73V.234h1.73l5.517 6.983V.206h-.03Zm16.136 5.721c-.029 2.904-1.819 5.838-5.78 5.838-3.96 0-5.809-2.846-5.809-5.809S43.401 0 47.304 0c3.902 0 5.809 2.963 5.78 5.927Zm-9.506.058c.059 1.849 1.056 3.844 3.697 3.844 2.64 0 3.668-1.995 3.697-3.844.03-1.907-1.027-4.02-3.697-4.02s-3.726 2.113-3.697 4.02ZM61.621.235v9.3h5.78v1.966H59.48V.235h2.141Zm8.099 11.266V.235h2.112V11.5h-2.113Zm14.728-8.156-3.668 4.87h-.41l-3.58-4.9v8.186h-2.113V.235h2.436l3.52 4.84 3.521-4.84h2.436V11.5h-2.113l-.03-8.156Zm4.958 8.156V.235h2.113V11.5h-2.113Zm8.333-9.33h-3.58V.235h9.272V2.17h-3.58v9.33H97.74V2.17ZM36.947 23.854v-4.607h-6.455v4.607H29.7V13.702h.792v4.812h6.454v-4.812h.793v10.152h-.792Zm13.085-5.076c0 2.67-1.702 5.222-5.105 5.222-3.404 0-5.105-2.552-5.105-5.252 0-2.699 1.701-5.222 5.105-5.222 3.403 0 5.134 2.523 5.105 5.252Zm-9.447 0c0 2.288 1.467 4.518 4.342 4.518 2.875 0 4.371-2.23 4.371-4.518 0-2.289-1.437-4.519-4.371-4.519s-4.372 2.113-4.342 4.519Zm12.381-5.076v9.389h5.721v.733h-6.484V13.702h.763Zm15.99 4.958c.059 2.582-1.584 5.194-5.134 5.194H60.36V13.702h3.432c3.433 0 5.106 2.465 5.164 4.959Zm-7.804-4.224v8.655h2.64c3.022 0 4.401-2.26 4.372-4.43-.03-2.113-1.438-4.225-4.372-4.225h-2.64Zm10.034 9.418V13.702h.763v10.152h-.763Zm3.609-10.152 6.807 8.391v-8.39h.763v10.15h-.294l-6.836-8.361v8.362h-.792V13.702h.352Zm18.132 1.878c-.88-.88-2.113-1.291-3.257-1.291-2.963 0-4.489 2.17-4.46 4.518 0 2.377 1.526 4.46 4.46 4.46 1.086 0 2.2-.382 3.08-1.174v-2.846h-3.52v-.675h4.284v3.785C92.458 23.413 91.196 24 89.7 24c-3.463 0-5.223-2.406-5.223-5.164 0-3.168 2.142-5.251 5.222-5.251 1.32 0 2.67.498 3.697 1.525l-.47.47Zm9.536.088c-.734-1.174-1.937-1.35-3.081-1.38-1.174 0-3.08.44-3.08 2.055 0 1.29 1.378 1.584 3.11 1.907 1.965.381 3.989.733 3.989 2.904 0 2.289-2.317 2.846-4.02 2.846-1.584 0-3.373-.645-4.165-2.2l.704-.352c.616 1.232 2.2 1.848 3.462 1.848 1.261 0 3.227-.352 3.227-2.142 0-1.526-1.672-1.848-3.315-2.171-1.849-.352-3.756-.733-3.756-2.611-.058-2.142 2.2-2.817 3.844-2.817 1.437 0 2.699.235 3.697 1.731l-.616.382Z" fill="#352610"></path></g><defs><clipPath id="svg2073028970_3079_a"><path fill="#fff" transform="translate(.8)" d="M0 0h102.631v24H0z"></path></clipPath></defs></svg>