<svg xmlns:xlink="http://www.w3.org/1999/xlink" width="81" height="18" fill="none" xmlns="http://www.w3.org/2000/svg" id="svg-536360725_2023"><g clip-path="url(#svg-536360725_2023_a)" fill="#352610"><path d="M38.07.094h.63c.259.016.517.036.773.06 2.394.23 4.598 1.585 5.723 3.738.014.028.009.05-.017.067l-2.56 1.765a.028.028 0 0 1-.042-.01c-.84-1.784-2.521-2.637-4.442-2.593-2.236.05-3.904 1.553-4.568 3.634-.515 1.615-.475 3.185.118 4.708.803 2.057 2.697 3.564 4.98 3.405 1.687-.119 3.34-1.021 3.98-2.616a.043.043 0 0 1 .06-.022l2.729 1.572a.04.04 0 0 1 .016.049c-1.138 2.616-4.25 3.93-6.94 4.055h-.545c-3.574-.144-6.436-2.648-7.657-5.936-.938-2.525-.68-5.304.65-7.636C32.2 2.156 34.46.54 36.994.198c.356-.047.715-.082 1.076-.104Zm17.543 0h.587c.37.02.738.054 1.105.104 2.284.314 4.35 1.647 5.412 3.712a.03.03 0 0 1-.009.038l-2.568 1.77c-.025.017-.044.012-.057-.016-.769-1.65-2.283-2.5-4.07-2.578-3.828-.168-5.71 3.618-5.202 6.932.411 2.678 2.513 4.998 5.354 4.813 1.706-.112 3.34-1.021 3.998-2.627a.033.033 0 0 1 .047-.016l2.727 1.57c.026.015.032.036.02.063a5.28 5.28 0 0 1-1.141 1.668c-1.518 1.51-3.692 2.286-5.804 2.38h-.542c-3.864-.151-6.95-3.134-7.912-6.775-.865-3.271.194-6.822 2.777-9.044C51.813.816 53.573.152 55.613.094ZM.43 17.75V.2h3.39c.012 0 .023.01.023.023v14.505c0 .018.014.032.032.032h8.864c.028 0 .042.014.042.043v2.903c0 .029-.014.043-.041.043L.43 17.75Zm18.576-7.531v4.514c0 .015.012.027.027.027h8.716c.015 0 .027.013.027.027v2.937a.028.028 0 0 1-.028.027H15.622a.028.028 0 0 1-.027-.027V.224c0-.015.012-.027.027-.027H27.53c.015 0 .027.013.027.028V3.17a.028.028 0 0 1-.027.028h-8.497a.028.028 0 0 0-.027.027v4.163c0 .015.012.028.027.028h7.329c.015 0 .027.012.027.027v2.721a.028.028 0 0 1-.027.027h-7.329a.028.028 0 0 0-.027.028Zm61.424 7.507v.025h-3.46c-.028 0-.046-.013-.055-.04L72.284 4.156c-.017-.048-.034-.048-.05 0l-4.65 13.552a.064.064 0 0 1-.06.044H64.08a.02.02 0 0 1-.018-.026L70.742.227a.044.044 0 0 1 .044-.03h2.931c.03 0 .057.019.068.047l6.646 17.482Z" fill="#352610"></path></g><defs><clipPath id="svg-536360725_2023_a"><path fill="#fff" transform="translate(.43 .094)" d="M0 0h80v17.813H0z"></path></clipPath></defs></svg>