<svg xmlns="http://www.w3.org/2000/svg" width="174" height="36" fill="none"><g fill="#352610" clip-path="url(#a)"><path d="M17.57-.01h.106a214.58 214.58 0 0 1 1.008-.005c1.293-.011 2.496.1 3.759.403.106.025.212.048.318.07.453.095.89.22 1.329.364l.324.105c.395.128.777.272 1.155.445.266.13.266.13.544.097.053-.026.106-.054.158-.081l.169-.085.082-.041a5.36 5.36 0 0 1 .877-.323c.13-.04.26-.084.388-.13a12.98 12.98 0 0 1 1.839-.487c.157-.03.313-.063.47-.095.996-.194 1.968-.249 2.98-.246h.432a15.853 15.853 0 0 1 3.761.41 13.786 13.786 0 0 1 1.922.541c.102.036.205.07.307.103.184.061.363.133.542.207l.095.04.264.11.107.046c.696.3 1.433.647 2.052 1.085.08.053.16.093.246.133.168.08.303.188.447.304.108.084.22.155.337.226.18.112.334.235.49.378.072.062.14.104.224.147.164.086.277.21.402.345.082.084.082.084.188.143.116.069.196.146.289.243.203.208.419.396.64.585.208.182.382.364.546.587.092.116.206.2.32.295.067.083.13.17.193.257a.889.889 0 0 0 .166.186c.11.11.197.224.289.35.074.099.152.195.23.29.136.17.264.343.388.52l.051.073c.118.17.118.17.118.265h.084l.107.23c.054.094.111.173.177.258.164.214.29.445.42.68l.144.257.062.113c.042.074.084.147.128.219.06.101.106.205.151.314.038.088.08.175.122.262a11 11 0 0 1 .484 1.128c.049.137.105.27.163.403.122.29.212.586.3.887l.047.155c.049.165.096.33.143.496a12.305 12.305 0 0 1 .348 1.607l.056.353c.139.874.202 1.73.2 2.615l.002.46c.003.974-.1 1.932-.26 2.892l-.017.099c-.118.722-.28 1.424-.54 2.11-.036.103-.062.2-.082.307a2.979 2.979 0 0 1-.188.558c-.066.159-.13.318-.188.48a9.074 9.074 0 0 1-.593 1.307c-.074.137-.142.277-.21.417-.128.26-.267.513-.411.765l-.057.099c-.11.19-.23.364-.365.538a2.738 2.738 0 0 0-.181.297c-.095.163-.21.312-.32.464l-.073.1c-.27.372-.27.372-.37.485h-.085l-.024.085c-.087.182-.22.315-.356.464-.107.126-.212.254-.316.382a5.72 5.72 0 0 1-.317.335l-.119.143c-.09.106-.183.199-.289.289a16 16 0 0 0-.632.587c-.17.16-.342.307-.53.445-.13.096-.246.207-.364.316a2.23 2.23 0 0 1-.303.204c-.087.066-.173.133-.258.2a7.1 7.1 0 0 1-.652.453c-.09.057-.177.117-.263.18-.135.095-.135.095-.252.154a5.508 5.508 0 0 0-.426.245 11.14 11.14 0 0 1-.944.504c-.103.05-.205.103-.307.155a3.69 3.69 0 0 1-.426.18c-.173.067-.34.149-.508.228a2.941 2.941 0 0 1-.585.226c-.15.036-.292.084-.436.137a14.11 14.11 0 0 1-1.954.543l-.114.024c-.534.11-1.07.204-1.61.274l-.095.012c-.34.04-.683.039-1.026.04h-.102a236.834 236.834 0 0 1-.965.005c-.919.009-1.801-.026-2.708-.184l-.107-.018c-.18-.032-.359-.069-.537-.108l-.154-.034a74.366 74.366 0 0 1-.296-.065 14.189 14.189 0 0 0-.336-.068c-.534-.106-1.044-.284-1.558-.462a29.15 29.15 0 0 0-.406-.135 4.087 4.087 0 0 1-.518-.21l-.14-.064c-.127-.06-.127-.06-.222-.114-.173-.086-.258-.081-.445-.02a7.42 7.42 0 0 0-.515.243 4.488 4.488 0 0 1-.8.288c-.12.034-.236.072-.354.114-1.135.407-2.337.624-3.53.78l-.164.023c-.305.033-.613.028-.92.03h-.103a244.085 244.085 0 0 1-.98.004 15.859 15.859 0 0 1-3.784-.408 12.712 12.712 0 0 0-.334-.07c-.498-.1-.971-.26-1.45-.426a19.494 19.494 0 0 0-.388-.127 5.606 5.606 0 0 1-.693-.274 7.803 7.803 0 0 0-.313-.136 11.95 11.95 0 0 1-1.262-.6 17.367 17.367 0 0 0-.199-.107 13.677 13.677 0 0 1-1.485-.904 10.06 10.06 0 0 0-.438-.289l-.064-.05v-.085l-.073-.035a4.204 4.204 0 0 1-.275-.155l-.09-.054-.069-.051v-.084l-.07-.032c-.353-.19-.654-.512-.946-.783a22.337 22.337 0 0 0-.34-.306 9.828 9.828 0 0 1-.923-.948l-.117-.136c-.938-1.086-.938-1.086-.938-1.256l-.126-.042c-.138-.149-.235-.302-.254-.507H3.64a5.858 5.858 0 0 1-.53-.862 3.106 3.106 0 0 0-.182-.285c-.17-.25-.296-.522-.428-.793-.04-.081-.08-.162-.122-.243a11.507 11.507 0 0 1-.426-.94l-.074-.178-.08-.189-.036-.088a7.288 7.288 0 0 1-.198-.537c-.038-.118-.079-.235-.12-.352-.51-1.509-.846-3.148-.853-4.742a8583.425 8583.425 0 0 1-.005-1.111C.574 16.516.7 15.3.994 14.014c.025-.114.048-.228.069-.342.1-.54.279-1.046.465-1.563.04-.114.075-.229.108-.345.057-.192.13-.37.215-.55a98.02 98.02 0 0 0 .136-.302c.067-.15.13-.303.195-.456.125-.298.248-.587.424-.86.08-.13.146-.266.213-.403.102-.21.215-.396.356-.583l.058-.118c.072-.142.152-.272.24-.405l.088-.135.078-.102h.084l.024-.103c.069-.17.16-.286.275-.428a4.97 4.97 0 0 0 .226-.313 4.63 4.63 0 0 1 .4-.493c.09-.1.174-.204.257-.309a13.13 13.13 0 0 1 1.688-1.73 214.495 214.495 0 0 0 .374-.32c.136-.117.271-.235.404-.356.117-.103.234-.177.371-.25.089-.053.16-.117.236-.187.152-.138.31-.238.488-.34.12-.072.23-.153.343-.238a3.15 3.15 0 0 1 .554-.327c.098-.05.184-.105.274-.169.463-.318 1.005-.533 1.514-.768l.12-.056c.42-.194.843-.37 1.286-.5a7.62 7.62 0 0 0 .35-.118c1.148-.41 2.353-.651 3.562-.803l.159-.022c.313-.034.628-.029.943-.03zm-3.38 5.075-.258.083c-.749.245-1.494.547-2.155.979a7.318 7.318 0 0 1-.386.23 4.234 4.234 0 0 0-.504.342c-.073.054-.073.054-.208.12-.139.07-.223.159-.33.271a.911.911 0 0 1-.337.211 7.66 7.66 0 0 0-.211.211l-.224.206-.124.112c-.095.085-.191.169-.288.252a8.33 8.33 0 0 0-.884.908l-.074.083-.07.08-.064.07c-.053.06-.053.06-.045.146h-.084a7.856 7.856 0 0 0-.17.254l-.094.116c-.083.086-.083.086-.074.179l-.127.042c-.05.073-.05.073-.092.164a3.011 3.011 0 0 1-.277.43c-.347.468-.604.998-.857 1.52l-.112.221c-.272.549-.455 1.136-.645 1.717l-.045.133c-.116.357-.19.718-.258 1.087l-.057.302a13.363 13.363 0 0 0 .575 7.067c.033.09.064.18.095.272.124.366.282.711.451 1.058l.108.225c.121.25.257.482.409.714.073.116.138.234.202.355.093.175.197.329.319.484.056.075.1.15.145.233.075.142.075.142.185.243.112.112.182.222.26.359.077.114.171.202.27.298l.227.245.061.067c.113.124.225.25.334.376.332.382.71.703 1.108 1.013.085.071.085.071.127.156l.126.068c.137.075.243.163.356.27.143.13.271.215.446.293.096.05.169.11.25.179.206.166.432.282.666.402.146.074.286.15.423.24.23.147.48.246.732.35l.08.032c.62.256 1.257.463 1.9.656l.115.035c.36.105.73.162 1.1.22l.104.018c1.602.254 3.252.302 4.844-.062.014-.137.014-.137-.104-.242a13.09 13.09 0 0 0-.136-.133l-.068-.066-.135-.13c-.093-.09-.184-.182-.275-.273l-.1-.098a6.028 6.028 0 0 1-.584-.652 3.195 3.195 0 0 0-.244-.263 6.626 6.626 0 0 1-.143-.18l-.078-.1a41.22 41.22 0 0 1-.259-.345l-.153-.201a14.1 14.1 0 0 1-.71-1.037 3.63 3.63 0 0 1-.346-.585c-.086-.151-.177-.3-.267-.449a4.415 4.415 0 0 1-.281-.564c-.054-.104-.112-.206-.169-.309a2.784 2.784 0 0 1-.269-.654 1.26 1.26 0 0 0-.103-.248c-.256-.489-.413-1.013-.564-1.541a26.591 26.591 0 0 0-.112-.37 8.758 8.758 0 0 1-.313-1.314 8.935 8.935 0 0 0-.082-.463c-.444-2.261-.386-4.6.095-6.852.031-.145.055-.29.077-.436.045-.275.123-.536.208-.801l.046-.146.09-.286c.034-.106.066-.212.098-.319.125-.422.286-.826.453-1.233.036-.088.069-.177.101-.267a4.83 4.83 0 0 1 .233-.51l.044-.088a5.27 5.27 0 0 1 .195-.36c.064-.099.064-.099.106-.241.078-.218.204-.404.327-.598.23-.324.23-.324.34-.69h.085c.054-.08.105-.162.153-.245a9.08 9.08 0 0 1 .522-.767l.19-.256.086-.115c.07-.087.07-.087.062-.178l.075-.03c.118-.068.165-.144.239-.258a2.51 2.51 0 0 1 .361-.43c.086-.09.17-.18.254-.271l.064-.07a8.15 8.15 0 0 0 .3-.342 2.17 2.17 0 0 1 .271-.271c.175-.148.175-.148.335-.312v-.084l.127-.042-.042-.085c-.09-.026-.09-.026-.198-.042l-.128-.02-.139-.022-.143-.022a13.624 13.624 0 0 0-6.356.57zm16.353-.443a5.73 5.73 0 0 1-.348.056 4.968 4.968 0 0 0-.833.234 178.48 178.48 0 0 0-.432.148c-.086.03-.172.057-.258.084-.41.126-.79.315-1.177.5a209.726 209.726 0 0 1-.728.349v.084l-.111.035c-.27.095-.493.237-.725.4l-.18.125-.086.06c-.131.09-.265.177-.4.262-.02.015-.04.03-.06.047v.084a2.18 2.18 0 0 0-.718.506c-.151.162-.151.162-.249.206a.728.728 0 0 0-.233.212 2.454 2.454 0 0 1-.361.342 7.98 7.98 0 0 0-.21.24c-.097.111-.197.22-.297.33l-.109.12-.186.204a4.07 4.07 0 0 0-.4.53 3.28 3.28 0 0 1-.202.267 6.342 6.342 0 0 0-.434.648 4.031 4.031 0 0 1-.216.329c-.063.085-.106.17-.151.266a6.011 6.011 0 0 1-.27.488 2.307 2.307 0 0 0-.24.543 1.58 1.58 0 0 1-.108.248c-.224.432-.37.887-.51 1.352a77.048 77.048 0 0 1-.152.503l-.028.09a5.461 5.461 0 0 0-.205.882 67.614 67.614 0 0 0-.099.724 12.853 12.853 0 0 0 .001 3.723c.017.119.03.237.044.355.09.82.332 1.605.606 2.381l.039.115c.176.508.409.997.647 1.478l.04.083c.062.122.128.237.205.35.082.127.082.127.144.27.072.169.162.31.265.46l.057.084.165.241.086.126c.103.15.207.297.325.436.095.113.095.113.152.212.079.127.169.228.27.337.128.138.256.277.38.419l.071.08.129.154c.137.166.285.305.449.443.073.066.132.132.193.21a.953.953 0 0 0 .308.242c.118.094.23.187.335.295.206.208.206.208.467.296l.042.126c.088.066.088.066.198.13.224.136.435.285.645.442.207.151.422.264.677.315v.084a776.628 776.628 0 0 0 .672.326c.577.29.577.29 1.182.513.26.077.518.162.775.25.48.163.963.265 1.462.349a74.198 74.198 0 0 0 .762.124l.124.02c1.41.214 2.902.077 4.288-.212.07-.013.142-.024.213-.034.387-.054.75-.17 1.12-.292l.33-.106a7.069 7.069 0 0 0 1.172-.486 3.4 3.4 0 0 1 .36-.16c.208-.078.392-.187.581-.301a7.51 7.51 0 0 1 .35-.194c.305-.165.59-.36.874-.557l.073-.05c.2-.137.2-.137.39-.287v-.085c.024-.01.048-.022.072-.034.15-.077.28-.148.401-.269.103-.103.205-.188.32-.277.217-.171.409-.36.6-.56l.114-.11c.08-.081.152-.163.224-.25a1.54 1.54 0 0 1 .24-.235c.133-.108.198-.228.264-.383.045-.076.045-.076.124-.112.112-.06.154-.125.224-.23l.077-.115.084-.126.188-.269.097-.14.182-.265c.19-.275.35-.558.503-.853a9.37 9.37 0 0 1 .22-.392c.133-.224.243-.443.325-.691.05-.14.107-.273.166-.408.18-.413.32-.828.44-1.262.032-.11.064-.217.098-.326.19-.635.282-1.277.356-1.935l.015-.135a13.83 13.83 0 0 0-.031-3.176 12.32 12.32 0 0 0-.449-2.176l-.052-.186c-.13-.452-.314-.883-.496-1.316a11.303 11.303 0 0 1-.1-.251 4.62 4.62 0 0 0-.394-.761 4.27 4.27 0 0 1-.242-.44c-.206-.427-.505-.817-.786-1.196l-.175-.244-.092-.13a303.23 303.23 0 0 1-.082-.117l-.07-.086h-.085a15.715 15.715 0 0 0-.035-.074c-.13-.247-.315-.45-.514-.643a3.18 3.18 0 0 0-.495-.509c-.111-.095-.22-.194-.328-.293a10.793 10.793 0 0 0-.907-.76l-.102-.076c-.43-.317-.869-.625-1.344-.873a6.944 6.944 0 0 1-.393-.238 3.013 3.013 0 0 0-.573-.285 5.356 5.356 0 0 1-.378-.17 5.158 5.158 0 0 0-.863-.341c-.21-.061-.416-.132-.622-.203a8.778 8.778 0 0 0-1.37-.332 45.893 45.893 0 0 1-.282-.05 12.747 12.747 0 0 0-2.242-.188h-.117c-.907.003-1.778.104-2.667.288zM133.379 6.7h.285c1.883.006 3.705.137 5.551.537.119.024.238.043.358.061.267.044.523.113.783.188l.14.04c.275.079.548.159.82.245.082.025.163.05.245.073.393.113.762.272 1.137.433.103.044.207.083.312.122.228.089.435.216.645.342.141.082.141.082.291.14a14.313 14.313 0 0 0 .226.1.69.69 0 0 1 .217.177c.044.173.037.343.034.52v.16c0 .144-.002.288-.004.433-.002.15-.002.301-.002.452-.001.286-.004.571-.007.857l-.006.975c-.003.668-.008 1.337-.015 2.005-.172-.035-.252-.107-.38-.229-.121-.115-.225-.211-.38-.277v-.084l-.074-.035a1.419 1.419 0 0 1-.248-.17c-.029-.022-.057-.046-.087-.07l-.089-.074-.088-.071c-.14-.115-.278-.231-.414-.351a1.341 1.341 0 0 0-.345-.221 2.396 2.396 0 0 1-.39-.227c-.247-.17-.523-.275-.798-.391a9.698 9.698 0 0 1-.358-.168 5.987 5.987 0 0 0-.843-.3l-.368-.116c-.447-.143-.884-.278-1.349-.348-.196-.03-.39-.07-.585-.108a20.95 20.95 0 0 0-1.455-.255l-.106-.014c-.788-.094-1.59-.085-2.382-.083h-.457c-.796 0-1.594.001-2.383.116l-.152.021c-.593.088-1.18.213-1.766.34l-.308.064a10.4 10.4 0 0 0-1.2.332l-.104.034c-.573.187-1.128.399-1.672.66l-.089.042c-.169.081-.336.166-.501.253l-.126.066a7.48 7.48 0 0 0-.877.554c-.137.098-.137.098-.23.15-.636.4-1.245.98-1.68 1.594l-.094.13a5.081 5.081 0 0 0-.659 1.252 3.717 3.717 0 0 0-.236 1.369l-.002.268c-.003.568.134 1.078.361 1.6l.049.112c.165.368.379.69.624 1.008l.097.128c.14.18.285.348.451.505l.058.062c.368.39.815.701 1.267.986.066.043.13.088.195.134v.084l.084.032c.315.131.604.301.897.475.151.085.31.147.472.21.139.055.273.119.409.182.353.165.699.297 1.074.4.176.047.348.106.52.165.359.124.709.224 1.084.29.181.034.36.073.539.112 3.043.644 6.492.585 9.52-.106l.356-.077.103-.022.261-.054c.215-.057.424-.137.634-.214l.042-3.798h-12.788V16.29h17.219l.021 5.304.01 1.677.002.99.003.662a118.789 118.789 0 0 1 .005 1.155v.418l.003.124a.901.901 0 0 1-.044.305c-.101.098-.21.154-.337.211l-.118.067c-.035.02-.07.038-.106.057-.121.065-.241.13-.36.196-.2.11-.399.217-.609.306-.086.037-.172.075-.257.114-.42.19-.845.346-1.283.487l-.102.033c-.624.2-1.248.35-1.892.47l-.262.051c-3.393.659-7.316.807-10.711.076-.05-.01-.1-.02-.151-.032a56.66 56.66 0 0 1-.873-.195 10.894 10.894 0 0 0-.282-.06 13.182 13.182 0 0 1-2.976-.956 3.248 3.248 0 0 0-.336-.125 3.063 3.063 0 0 1-.55-.254 4.216 4.216 0 0 0-.582-.28c-.224-.082-.415-.21-.616-.337a3.56 3.56 0 0 0-.355-.19 2.377 2.377 0 0 1-.481-.322 3.825 3.825 0 0 0-.332-.224 6.57 6.57 0 0 1-.612-.443 8.876 8.876 0 0 1-1.012-.886l-.214-.188a1.885 1.885 0 0 1-.377-.446c-.07-.07-.14-.141-.211-.21a17.33 17.33 0 0 1-.169-.212l-.094-.117a8.885 8.885 0 0 1-1.05-1.703 19.27 19.27 0 0 0-.109-.224c-.15-.31-.258-.62-.351-.952l-.062-.21c-.449-1.54-.482-3.207.014-4.743.034-.108.063-.212.088-.323a2.88 2.88 0 0 1 .176-.485l.039-.087a11.116 11.116 0 0 1 .876-1.614 10.238 10.238 0 0 1 .464-.615l.22-.28.063-.08c.047-.059.097-.116.148-.173h.084l.031-.072c.066-.118.147-.201.244-.297l.101-.102c.089-.077.089-.077.173-.077l.029-.072c.189-.33.632-.64.942-.857h.084v-.084c.07-.05.143-.096.216-.14.135-.083.256-.162.378-.264a3 3 0 0 1 .432-.288c.116-.07.229-.142.343-.216.44-.28.907-.509 1.374-.738l.119-.059a60.799 60.799 0 0 1 .504-.246c.223-.108.44-.193.678-.26.115-.033.223-.078.332-.126.501-.213 1.023-.361 1.543-.517l.083-.025c.937-.282.937-.282 1.307-.342.272-.045.543-.095.813-.147.844-.163 1.678-.298 2.537-.349l.094-.005a32.8 32.8 0 0 1 2.04-.045zm-44.235.39 7.96-.005 2.51-.002h1.491a842.933 842.933 0 0 0 2.139-.002h.586a29.076 29.076 0 0 1 3.504.178c.575.067 1.131.18 1.688.338l.107.03c.155.043.308.088.462.135.089.028.179.054.27.08.268.075.513.184.765.303l.135.061c.765.346.765.346 1.089.615l.117.055c.241.126.437.317.642.493l.09.073c.438.359.889.872 1.127 1.388.051.107.051.107.125.226.474.8.659 1.769.655 2.69v.084c-.002.442-.03.85-.14 1.279l-.024.104a5.312 5.312 0 0 1-.609 1.5l-.068.123a4.04 4.04 0 0 1-.734.932l-.171.171-.166.166-.084.086c-.144.14-.305.258-.465.379l-.083.064c-.138.105-.248.173-.423.189v.084l-.311.18-.087.05a5.006 5.006 0 0 1-.7.319l-.189.079c-1.194.485-2.563.813-3.853.844-.137 0-.137 0-.262.048l.195.18.11.1c.118.1.24.183.37.268.095.072.189.147.282.222.225.179.453.35.688.515.085.065.085.065.127.15.073.041.145.083.218.123.151.088.273.198.394.322.098.104.098.104.203.161.104.063.184.128.275.209.134.12.271.23.416.336.927.687.927.687 1.135.9.066.07.066.07.192.13.174.095.309.223.454.356.108.095.223.17.343.248l.213.174c.349.288.709.56 1.071.831.127.094.252.188.372.29.119.1.241.192.365.284.204.153.404.312.605.47l.149.117.075.06c.219.171.439.34.659.51.112.085.222.173.331.26.18.142.36.282.544.417.178.134.35.275.521.417.139.113.282.22.426.327.071.064.071.064.113.19a1284.785 1284.785 0 0 1-4.166.013 368.005 368.005 0 0 1-1.761.005 78.174 78.174 0 0 1-.784.002h-.45c-.165-.023-.234-.073-.351-.189a7.388 7.388 0 0 1-.042-.084l-.124-.066c-.189-.103-.336-.246-.491-.393-.1-.087-.2-.15-.314-.216a7.121 7.121 0 0 1-.2-.164 18.26 18.26 0 0 0-.623-.49c-.716-.545-.716-.545-.89-.724-.065-.068-.065-.068-.191-.128-.174-.095-.309-.223-.454-.356-.107-.095-.224-.17-.343-.249-.052-.044-.102-.089-.153-.134a7.613 7.613 0 0 0-.572-.452c-.237-.177-.237-.177-.33-.258v-.084l-.074-.014c-.201-.06-.373-.22-.517-.369a1.562 1.562 0 0 0-.333-.231c-.114-.079-.203-.175-.3-.272a10.005 10.005 0 0 0-.253-.198l-.146-.11-.075-.057a54.995 54.995 0 0 1-.222-.171c-.287-.223-.287-.223-.581-.435-.116-.084-.116-.084-.158-.169l-.211-.127a11.08 11.08 0 0 1-.251-.208 4.98 4.98 0 0 0-.509-.382 5.216 5.216 0 0 1-.168-.148 2.542 2.542 0 0 0-.288-.227c-.166-.11-.315-.236-.468-.363a9.524 9.524 0 0 0-.283-.222l-.076-.058-.149-.11a4.064 4.064 0 0 1-.171-.138v-.085l-.111-.029a1.178 1.178 0 0 1-.474-.356c-.111-.097-.162-.1-.308-.101l-.133-.002h-.301l-.333-.002c-.159 0-.317 0-.476-.002l-1.146-.004-2.585-.01v8.567h-4.6V7.09zm4.6 4.178v5.023l3.774.002h.863a3968.084 3968.084 0 0 1 3.131.002h.977a630.01 630.01 0 0 0 1.059 0c.672.002 1.342-.014 2.013-.047l.095-.004a8.534 8.534 0 0 0 2.564-.502l.098-.032a2.7 2.7 0 0 0 .915-.517l.079-.062c.397-.326.606-.71.676-1.217.028-.418-.112-.779-.333-1.126l-.082-.14a.821.821 0 0 0-.262-.233c-.078-.05-.078-.05-.163-.121-.264-.217-.538-.343-.854-.466l-.119-.047a6.547 6.547 0 0 0-1.613-.384l-.262-.03c-.789-.094-1.572-.105-2.365-.103h-2.086a3144.724 3144.724 0 0 0-3.312.002h-.899l-3.894.002zm76.391-3.588c.135.047.272.088.41.128.217.066.413.146.612.253l.173.09.081.041c.089.046.179.086.271.125.315.136.625.296.9.503a10.9 10.9 0 0 1 .337.169l.09.046c.142.087.232.152.278.317.011.14.012.275.008.415v.16c0 .144-.002.288-.004.432-.002.15-.002.302-.003.452-.001.285-.004.57-.007.856a445.968 445.968 0 0 1-.024 2.978.883.883 0 0 1-.464-.296 9.27 9.27 0 0 0-.267-.23l-.072-.06a6.939 6.939 0 0 0-.493-.38 6.426 6.426 0 0 0-.055-.047v-.085l-.093-.03a1.07 1.07 0 0 1-.321-.239 1.617 1.617 0 0 0-.476-.324 1.17 1.17 0 0 1-.228-.156c-.232-.18-.498-.298-.761-.424a11.135 11.135 0 0 1-.234-.118 8.754 8.754 0 0 0-1.066-.46l-.266-.098a6.812 6.812 0 0 0-1.155-.303 15.543 15.543 0 0 1-.237-.054l-.108-.026-.109-.026a11.681 11.681 0 0 0-2.292-.298l-.166-.005c-.394-.012-.787-.02-1.182-.013l-.148.002c-1.311.022-2.604.148-3.878.477a6.084 6.084 0 0 1-.384.08c-.367.077-.714.208-1.066.336a8.81 8.81 0 0 1-.358.115c-.292.096-.559.239-.83.38-.088.045-.177.088-.265.131a7.843 7.843 0 0 0-.963.547l-.118.076c-.622.427-1.214.954-1.654 1.57l-.107.14c-.344.464-.572.968-.78 1.506l-.037.094c-.1.27-.13.544-.161.829l-.016.142c-.127 1.144.088 2.173.594 3.197l.059.125c.268.51.638.944 1.038 1.353l.087.092c.364.384.801.698 1.253.97.061.038.121.078.18.12v.084l.098.027c.215.08.41.19.611.3.316.168.627.321.968.43.167.054.332.112.495.177.394.154.793.262 1.204.358l.104.025c2.547.603 5.526.759 8.084.118l.129-.033c.211-.053.422-.108.632-.165.154-.042.309-.078.465-.111.407-.1.795-.287 1.179-.451l.087-.037c.322-.136.629-.296.93-.473.081-.039.081-.039.207-.039v-.084c.099-.073.099-.073.227-.153a3.98 3.98 0 0 1 .128-.08c.109-.063.109-.063.194-.063v-.084c.071-.053.071-.053.169-.113.2-.13.372-.277.548-.436.199-.169.199-.169.296-.169l.032-.076a.584.584 0 0 1 .213-.216c.144-.103.264-.214.388-.34a6.01 6.01 0 0 1 .153-.14l.073-.066c.069-.048.069-.048.196-.048.009.705.015 1.41.019 2.115l.009.981c.004.286.007.57.008.856 0 .151.001.302.004.453.003.169.003.338.003.506l.004.151c-.004.332-.004.332-.13.478a2.27 2.27 0 0 1-.297.2l-.137.082-.073.039a3.705 3.705 0 0 0-.192.117 9.11 9.11 0 0 1-1.92.926 8.781 8.781 0 0 0-.317.119c-.451.178-.907.3-1.378.41l-.233.056c-.215.051-.43.1-.646.15l-.145.034c-.639.144-1.29.201-1.943.253l-.232.02a25.85 25.85 0 0 1-2.275.084h-.161c-.967-.003-1.922-.034-2.882-.16a7.513 7.513 0 0 0-.371-.037c-.823-.065-1.625-.228-2.422-.438a8.419 8.419 0 0 0-.476-.106 10.465 10.465 0 0 1-1.089-.312l-.104-.034c-1.158-.377-1.158-.377-1.574-.654l-.161-.048a2.874 2.874 0 0 1-.582-.284 10.05 10.05 0 0 0-.734-.386v-.084l-.083-.028c-.173-.077-.326-.177-.484-.28l-.094-.061a4.96 4.96 0 0 1-.521-.39l-.124-.08a2.282 2.282 0 0 1-.346-.31 2.08 2.08 0 0 0-.247-.2 2.106 2.106 0 0 1-.394-.387 1.471 1.471 0 0 0-.202-.187 1.444 1.444 0 0 1-.281-.33c-.053-.077-.053-.077-.154-.148-.13-.107-.202-.224-.292-.365a3.493 3.493 0 0 0-.233-.302 4.352 4.352 0 0 1-.435-.677 6.388 6.388 0 0 0-.241-.394c-.069-.12-.119-.249-.174-.377l-.065-.13c-.388-.776-.621-1.636-.779-2.487l-.024-.12c-.079-.462-.074-.924-.074-1.39.001-.143 0-.284-.001-.426-.002-.687.051-1.346.239-2.01l.027-.099.086-.302.028-.099a8.014 8.014 0 0 1 1.07-2.306l.092-.177a3.33 3.33 0 0 1 .401-.551c.089-.107.176-.215.261-.325.201-.251.417-.487.638-.72l.065-.068c.295-.31.602-.584.941-.842a4.99 4.99 0 0 0 .321-.269 1.58 1.58 0 0 1 .573-.34v-.085c.06-.047.06-.047.145-.097l.094-.057c.122-.07.246-.139.37-.206.177-.101.349-.211.521-.32.14-.082.282-.143.431-.206.103-.053.205-.11.306-.166.216-.117.427-.215.66-.293a6.67 6.67 0 0 0 .413-.169 7.702 7.702 0 0 1 1.04-.37 7.99 7.99 0 0 0 .427-.133c1.419-.47 2.98-.761 4.473-.833l.111-.005c2.904-.142 5.844-.087 8.609.913zM58.293 7.09h27.601c.031 1.393.043 2.786.043 4.178h-11.1v17.726h-4.558V11.268H58.293V7.09z"/><path d="M32.153 6.317c.1.014.1.014.186.094l.075.104.078.104c.057.092.057.092.057.176h.084a3.862 3.862 0 0 1 .222.287c.155.212.305.428.453.645.068.1.139.196.211.292a.63.63 0 0 1 .127.338h.084a4.852 4.852 0 0 1 .231.375c.14.238.273.479.403.722l.075.136c.13.236.247.47.342.722.058.14.127.274.197.408.103.2.183.396.24.614.035.116.08.224.13.335.24.571.405 1.162.564 1.76l.024.092c.18.674.304 1.343.382 2.037l.04.355c.08.687.125 1.37.124 2.06v.098a17.36 17.36 0 0 1-.093 1.765l-.016.164c-.154 1.511-.45 3.099-1.094 4.487a3.926 3.926 0 0 0-.168.45 3.25 3.25 0 0 1-.149.354 64.95 64.95 0 0 1-.134.285l-.124.274c-.13.281-.276.552-.425.823l-.15.282c-.297.549-.297.549-.399.689h-.084l-.03.108c-.064.17-.152.296-.26.44l-.11.15-.055.074a6.293 6.293 0 0 0-.14.205c-.1.15-.21.286-.326.423-.096.119-.096.119-.172.262a1.15 1.15 0 0 1-.3.363c-.227.03-.425-.008-.647-.059a9.086 9.086 0 0 0-.354-.07 19.29 19.29 0 0 1-.771-.166l-.119-.028a9.896 9.896 0 0 1-2.751-1.111c.12-.276.363-.517.596-.702.158-.13.285-.281.417-.438l.121-.14.132-.155.082-.097c.272-.323.512-.665.753-1.012a5.17 5.17 0 0 1 .123-.168c.06-.08.106-.162.152-.25.072-.131.147-.254.233-.375.171-.253.299-.528.432-.802.056-.115.115-.229.174-.343.105-.21.193-.422.274-.642.039-.105.079-.21.121-.313.337-.842.555-1.754.716-2.645l.019-.103c.104-.636.093-1.292.092-1.934v-.347c0-.678-.006-1.356-.13-2.024a16.765 16.765 0 0 0-.338-1.43l-.025-.096c-.12-.434-.267-.847-.441-1.262l-.07-.18a9.546 9.546 0 0 0-.437-.964l-.136-.263a7.045 7.045 0 0 0-.485-.836c-.054-.079-.054-.079-.108-.171a7.21 7.21 0 0 0-.331-.482 12.295 12.295 0 0 0-.67-.86l-.073-.086a17.669 17.669 0 0 0-.223-.252l-.053-.06a54.893 54.893 0 0 0-.238-.265 2.87 2.87 0 0 0-.305-.293 2.002 2.002 0 0 1-.263-.255l-.065-.074c-.046-.066-.046-.066-.046-.15.087-.053.175-.104.264-.156l.072-.043c.244-.142.5-.245.761-.35l.255-.107c.468-.194.923-.368 1.42-.464.113-.023.225-.048.337-.073.477-.108.948-.197 1.433-.256z"/></g><defs><clipPath id="a"><path fill="#fff" d="M.6 0h172.868v36H.6z"/></clipPath></defs></svg>